<svg width="694" height="32" viewBox="0 0 694 32" fill="none" xmlns="http://www.w3.org/2000/svg">
<g clip-path="url(#clip0)">
<rect width="129" height="32" fill="#AAB3BB"/>
<rect width="129" height="32" fill="#345498"/>
<rect x="129" width="288" height="32" fill="#919CA6"/>
<rect x="129" width="288" height="32" fill="#4169BE"/>
<rect x="416" width="182" height="32" fill="#919CA6"/>
<rect x="416" width="182" height="32" fill="#6787CB"/>
<rect x="598" width="96" height="32" fill="#919CA6"/>
<rect x="598" width="96" height="32" fill="#8DA5D8"/>
<g clip-path="url(#clip1)">
<rect x="-2" y="9" width="193" height="15" rx="1" fill="#2C4A87"/>
<rect x="-2" y="9" width="193" height="15" rx="1" fill="#ABBFE3"/>
<path fill-rule="evenodd" clip-rule="evenodd" d="M-11.4714 8.16644L-5.47144 25.1664L-4.52845 24.8336L-10.5284 7.83362L-11.4714 8.16644ZM-5.47144 8.16644L0.528564 25.1664L1.47155 24.8336L-4.52845 7.83362L-5.47144 8.16644ZM6.52856 25.1664L0.528564 8.16644L1.47156 7.83362L7.47156 24.8336L6.52856 25.1664ZM6.52856 8.16644L12.5286 25.1664L13.4716 24.8336L7.47155 7.83362L6.52856 8.16644ZM18.5286 25.1664L12.5286 8.16644L13.4716 7.83362L19.4716 24.8336L18.5286 25.1664ZM18.5286 8.16644L24.5286 25.1664L25.4716 24.8336L19.4716 7.83362L18.5286 8.16644ZM30.5286 25.1664L24.5286 8.16644L25.4716 7.83362L31.4716 24.8336L30.5286 25.1664ZM30.5286 8.16644L36.5286 25.1664L37.4716 24.8336L31.4716 7.83362L30.5286 8.16644ZM42.5286 25.1664L36.5286 8.16644L37.4716 7.83362L43.4716 24.8336L42.5286 25.1664ZM42.5286 8.16644L48.5286 25.1664L49.4716 24.8336L43.4716 7.83362L42.5286 8.16644ZM54.5286 25.1664L48.5286 8.16644L49.4716 7.83362L55.4716 24.8336L54.5286 25.1664ZM54.5286 8.16644L60.5286 25.1664L61.4716 24.8336L55.4716 7.83362L54.5286 8.16644ZM66.5286 25.1664L60.5286 8.16644L61.4716 7.83362L67.4716 24.8336L66.5286 25.1664ZM66.5286 8.16644L72.5286 25.1664L73.4716 24.8336L67.4716 7.83362L66.5286 8.16644ZM78.5286 25.1664L72.5286 8.16644L73.4716 7.83362L79.4716 24.8336L78.5286 25.1664ZM78.5286 8.16644L84.5286 25.1664L85.4716 24.8336L79.4716 7.83362L78.5286 8.16644ZM90.5286 25.1664L84.5286 8.16644L85.4716 7.83362L91.4716 24.8336L90.5286 25.1664ZM90.5286 8.16644L96.5286 25.1664L97.4716 24.8336L91.4716 7.83362L90.5286 8.16644ZM102.529 25.1664L96.5286 8.16644L97.4716 7.83362L103.472 24.8336L102.529 25.1664ZM102.529 8.16644L108.529 25.1664L109.472 24.8336L103.472 7.83362L102.529 8.16644ZM114.529 25.1664L108.529 8.16644L109.472 7.83362L115.472 24.8336L114.529 25.1664ZM114.529 8.16644L120.529 25.1664L121.472 24.8336L115.472 7.83362L114.529 8.16644ZM126.529 25.1664L120.529 8.16644L121.472 7.83362L127.472 24.8336L126.529 25.1664ZM126.529 8.16644L132.529 25.1664L133.472 24.8336L127.472 7.83362L126.529 8.16644ZM138.529 25.1664L132.529 8.16644L133.472 7.83362L139.472 24.8336L138.529 25.1664ZM138.529 8.16644L144.529 25.1664L145.472 24.8336L139.472 7.83362L138.529 8.16644ZM150.529 25.1664L144.529 8.16644L145.472 7.83362L151.472 24.8336L150.529 25.1664ZM150.529 8.16644L156.529 25.1664L157.472 24.8336L151.472 7.83362L150.529 8.16644ZM162.529 25.1664L156.529 8.16644L157.472 7.83362L163.472 24.8336L162.529 25.1664ZM162.529 8.16644L168.529 25.1664L169.472 24.8336L163.472 7.83362L162.529 8.16644ZM174.529 25.1664L168.529 8.16644L169.472 7.83362L175.472 24.8336L174.529 25.1664ZM174.529 8.16644L180.529 25.1664L181.472 24.8336L175.472 7.83362L174.529 8.16644ZM186.529 25.1664L180.529 8.16644L181.472 7.83362L187.472 24.8336L186.529 25.1664ZM186.529 8.16644L192.529 25.1664L193.472 24.8336L187.472 7.83362L186.529 8.16644Z" fill="#94ADDB"/>
<rect x="-1" y="10" width="144" height="13" rx="1" fill="#2B3946"/>
</g>
</g>
<defs>
<clipPath id="clip0">
<rect width="694" height="32" rx="2" fill="white"/>
</clipPath>
<clipPath id="clip1">
<rect width="193" height="15" fill="white" transform="translate(-2 9)"/>
</clipPath>
</defs>
</svg>
