<svg width="558" height="94" viewBox="0 0 558 94" fill="none" xmlns="http://www.w3.org/2000/svg">
<rect x="130" y="70" width="24" height="24" rx="2" fill="#039BF4"/>
<path opacity="0.76" d="M168.888 87V78.4551H171.902V77.1357H164.335V78.4551H167.356V87H168.888ZM174.302 87.1367C176.359 87.1367 177.713 85.7217 177.713 83.4043C177.713 81.0938 176.353 79.6787 174.302 79.6787C172.251 79.6787 170.891 81.0938 170.891 83.4043C170.891 85.7217 172.244 87.1367 174.302 87.1367ZM174.302 85.9199C173.146 85.9199 172.395 85.0039 172.395 83.4043C172.395 81.8115 173.146 80.8955 174.302 80.8955C175.457 80.8955 176.209 81.8115 176.209 83.4043C176.209 85.0039 175.464 85.9199 174.302 85.9199ZM179.285 78.1064V79.8086H178.239V80.9775H179.285V85.1064C179.285 86.4941 179.853 87.0479 181.309 87.0479C181.637 87.0479 181.965 87.0205 182.129 86.9795V85.8105C182.033 85.8311 181.794 85.8447 181.644 85.8447C181.042 85.8447 180.769 85.5645 180.769 84.9424V80.9775H182.136V79.8086H180.769V78.1064H179.285ZM185.759 85.9541C184.966 85.9541 184.446 85.5439 184.446 84.915C184.446 84.2998 184.945 83.9102 185.827 83.8486L187.598 83.7393V84.3066C187.598 85.2432 186.791 85.9541 185.759 85.9541ZM185.349 87.123C186.292 87.123 187.201 86.6172 187.618 85.8174H187.652V87H189.067V82.0439C189.067 80.6016 187.953 79.6787 186.21 79.6787C184.433 79.6787 183.325 80.6357 183.243 81.9346H184.638C184.768 81.292 185.301 80.8818 186.155 80.8818C187.058 80.8818 187.598 81.3604 187.598 82.1602V82.7139L185.629 82.8301C183.92 82.9258 182.956 83.6982 182.956 84.9561C182.956 86.248 183.94 87.123 185.349 87.123ZM190.558 87H192.034V77.1357H190.558V87ZM196.826 87H198.31V80.9775H199.745V79.8223H198.289V79.1455C198.289 78.5098 198.59 78.1885 199.232 78.1885C199.431 78.1885 199.629 78.2021 199.772 78.2295V77.1357C199.581 77.1016 199.246 77.0674 198.945 77.0674C197.482 77.0674 196.826 77.7236 196.826 79.1182V79.8223H195.835V80.9775H196.826V87ZM207.073 79.8086H205.597V83.999C205.597 85.1201 204.954 85.8584 203.888 85.8584C202.869 85.8584 202.35 85.2705 202.35 84.1768V79.8086H200.873V84.4639C200.873 86.1113 201.83 87.1299 203.396 87.1299C204.496 87.1299 205.228 86.6445 205.624 85.7832H205.658V87H207.073V79.8086ZM208.536 87H210.013V82.8096C210.013 81.6953 210.683 80.957 211.722 80.957C212.747 80.957 213.253 81.5518 213.253 82.6318V87H214.736V82.3447C214.736 80.6973 213.827 79.6855 212.241 79.6855C211.134 79.6855 210.368 80.1914 209.979 81.0117H209.944V79.8086H208.536V87ZM218.865 87.123C219.911 87.123 220.731 86.5967 221.155 85.7764H221.183V87H222.618V77.1357H221.135V81.0049H221.107C220.704 80.2119 219.884 79.6924 218.852 79.6924C217.047 79.6924 215.844 81.1348 215.844 83.4043C215.844 85.6738 217.047 87.123 218.865 87.123ZM219.255 80.9365C220.39 80.9365 221.148 81.9141 221.148 83.4043C221.148 84.9082 220.39 85.8721 219.255 85.8721C218.086 85.8721 217.354 84.9219 217.354 83.4043C217.354 81.8936 218.086 80.9365 219.255 80.9365ZM227.144 80.8682C228.176 80.8682 228.873 81.6406 228.907 82.7412H225.312C225.387 81.6543 226.111 80.8682 227.144 80.8682ZM228.9 84.8877C228.702 85.5166 228.08 85.9404 227.239 85.9404C226.057 85.9404 225.305 85.1133 225.305 83.8623V83.7734H230.384V83.2676C230.384 81.0869 229.14 79.6787 227.144 79.6787C225.113 79.6787 223.814 81.1826 223.814 83.4385C223.814 85.708 225.093 87.1367 227.205 87.1367C228.853 87.1367 230.097 86.2002 230.302 84.8877H228.9ZM234.232 87.123C235.278 87.123 236.099 86.5967 236.522 85.7764H236.55V87H237.985V77.1357H236.502V81.0049H236.475C236.071 80.2119 235.251 79.6924 234.219 79.6924C232.414 79.6924 231.211 81.1348 231.211 83.4043C231.211 85.6738 232.414 87.123 234.232 87.123ZM234.622 80.9365C235.757 80.9365 236.516 81.9141 236.516 83.4043C236.516 84.9082 235.757 85.8721 234.622 85.8721C233.453 85.8721 232.722 84.9219 232.722 83.4043C232.722 81.8936 233.453 80.9365 234.622 80.9365Z" fill="#333333"/>
<rect x="2.5" y="70.5" width="23" height="23" rx="1.5" fill="#FAFAFA" stroke="#DEDEDE"/>
<path opacity="0.76" d="M38.4404 87V82.8711H42.6787V81.5791H38.4404V78.4551H43.0684V77.1357H36.9092V87H38.4404ZM50.3896 79.8086H48.9131V83.999C48.9131 85.1201 48.2705 85.8584 47.2041 85.8584C46.1855 85.8584 45.666 85.2705 45.666 84.1768V79.8086H44.1895V84.4639C44.1895 86.1113 45.1465 87.1299 46.7119 87.1299C47.8125 87.1299 48.5439 86.6445 48.9404 85.7832H48.9746V87H50.3896V79.8086ZM51.8525 87H53.3291V82.8096C53.3291 81.6953 53.999 80.957 55.0381 80.957C56.0635 80.957 56.5693 81.5518 56.5693 82.6318V87H58.0527V82.3447C58.0527 80.6973 57.1436 79.6855 55.5576 79.6855C54.4502 79.6855 53.6846 80.1914 53.2949 81.0117H53.2607V79.8086H51.8525V87ZM62.1816 87.123C63.2275 87.123 64.0479 86.5967 64.4717 85.7764H64.499V87H65.9346V77.1357H64.4512V81.0049H64.4238C64.0205 80.2119 63.2002 79.6924 62.168 79.6924C60.3633 79.6924 59.1602 81.1348 59.1602 83.4043C59.1602 85.6738 60.3633 87.123 62.1816 87.123ZM62.5713 80.9365C63.7061 80.9365 64.4648 81.9141 64.4648 83.4043C64.4648 84.9082 63.7061 85.8721 62.5713 85.8721C61.4023 85.8721 60.6709 84.9219 60.6709 83.4043C60.6709 81.8936 61.4023 80.9365 62.5713 80.9365ZM67.3223 81.8457C67.3223 82.8916 67.999 83.5479 69.3662 83.8623L70.5352 84.1357C71.3213 84.3135 71.5879 84.5869 71.5879 85.0518C71.5879 85.6396 71.041 86.0088 70.1523 86.0088C69.25 86.0088 68.7373 85.6396 68.6006 84.8877H67.1377C67.2744 86.2549 68.3545 87.1367 70.1523 87.1367C71.8477 87.1367 73.0713 86.2344 73.0713 84.9219C73.0713 83.8828 72.5107 83.3086 71.041 82.9668L69.8721 82.7002C69.0928 82.5225 68.7646 82.2148 68.7646 81.7637C68.7646 81.1895 69.2979 80.7998 70.0977 80.7998C70.9248 80.7998 71.4375 81.2373 71.5195 81.9346H72.9072C72.8594 80.6084 71.7725 79.6787 70.0977 79.6787C68.4434 79.6787 67.3223 80.5605 67.3223 81.8457ZM80.1533 87.1367C82.2109 87.1367 83.5645 85.7217 83.5645 83.4043C83.5645 81.0938 82.2041 79.6787 80.1533 79.6787C78.1025 79.6787 76.7422 81.0938 76.7422 83.4043C76.7422 85.7217 78.0957 87.1367 80.1533 87.1367ZM80.1533 85.9199C78.998 85.9199 78.2461 85.0039 78.2461 83.4043C78.2461 81.8115 78.998 80.8955 80.1533 80.8955C81.3086 80.8955 82.0605 81.8115 82.0605 83.4043C82.0605 85.0039 81.3154 85.9199 80.1533 85.9199ZM94.167 79.8086H92.7041L91.3916 85.4688H91.3574L89.8535 79.8086H88.4316L86.9346 85.4688H86.9072L85.5947 79.8086H84.1182L86.0938 87H87.6182L89.1152 81.6133H89.1494L90.6602 87H92.1982L94.167 79.8086ZM98.0361 80.8682C99.0684 80.8682 99.7656 81.6406 99.7998 82.7412H96.2041C96.2793 81.6543 97.0039 80.8682 98.0361 80.8682ZM99.793 84.8877C99.5947 85.5166 98.9727 85.9404 98.1318 85.9404C96.9492 85.9404 96.1973 85.1133 96.1973 83.8623V83.7734H101.276V83.2676C101.276 81.0869 100.032 79.6787 98.0361 79.6787C96.0059 79.6787 94.707 81.1826 94.707 83.4385C94.707 85.708 95.9854 87.1367 98.0977 87.1367C99.7451 87.1367 100.989 86.2002 101.194 84.8877H99.793ZM105.125 87.123C106.171 87.123 106.991 86.5967 107.415 85.7764H107.442V87H108.878V77.1357H107.395V81.0049H107.367C106.964 80.2119 106.144 79.6924 105.111 79.6924C103.307 79.6924 102.104 81.1348 102.104 83.4043C102.104 85.6738 103.307 87.123 105.125 87.123ZM105.515 80.9365C106.649 80.9365 107.408 81.9141 107.408 83.4043C107.408 84.9082 106.649 85.8721 105.515 85.8721C104.346 85.8721 103.614 84.9219 103.614 83.4043C103.614 81.8936 104.346 80.9365 105.515 80.9365Z" fill="#333333"/>
<rect x="261.5" y="70.5" width="23" height="23" rx="1.5" fill="#DEDEDE" stroke="#DEDEDE"/>
<path opacity="0.76" d="M302.335 87H303.955L300.394 77.1357H298.739L295.178 87H296.771L297.673 84.334H301.433L302.335 87ZM299.532 78.7764H299.573L301.043 83.1035H298.062L299.532 78.7764ZM304.919 87H306.396V77.1357H304.919V87ZM307.968 87H309.444V77.1357H307.968V87ZM314.052 87.1367C316.109 87.1367 317.463 85.7217 317.463 83.4043C317.463 81.0938 316.103 79.6787 314.052 79.6787C312.001 79.6787 310.641 81.0938 310.641 83.4043C310.641 85.7217 311.994 87.1367 314.052 87.1367ZM314.052 85.9199C312.896 85.9199 312.145 85.0039 312.145 83.4043C312.145 81.8115 312.896 80.8955 314.052 80.8955C315.207 80.8955 315.959 81.8115 315.959 83.4043C315.959 85.0039 315.214 85.9199 314.052 85.9199ZM324.777 82.2832C324.647 80.8682 323.52 79.6787 321.667 79.6787C319.623 79.6787 318.283 81.1211 318.283 83.4043C318.283 85.7285 319.623 87.1367 321.681 87.1367C323.41 87.1367 324.634 86.0977 324.791 84.5664H323.369C323.198 85.4004 322.604 85.8994 321.694 85.8994C320.546 85.8994 319.787 84.9834 319.787 83.4043C319.787 81.8594 320.539 80.9092 321.681 80.9092C322.645 80.9092 323.219 81.5176 323.369 82.2832H324.777ZM328.353 85.9541C327.56 85.9541 327.04 85.5439 327.04 84.915C327.04 84.2998 327.539 83.9102 328.421 83.8486L330.191 83.7393V84.3066C330.191 85.2432 329.385 85.9541 328.353 85.9541ZM327.942 87.123C328.886 87.123 329.795 86.6172 330.212 85.8174H330.246V87H331.661V82.0439C331.661 80.6016 330.547 79.6787 328.804 79.6787C327.026 79.6787 325.919 80.6357 325.837 81.9346H327.231C327.361 81.292 327.895 80.8818 328.749 80.8818C329.651 80.8818 330.191 81.3604 330.191 82.1602V82.7139L328.223 82.8301C326.514 82.9258 325.55 83.6982 325.55 84.9561C325.55 86.248 326.534 87.123 327.942 87.123ZM333.527 78.1064V79.8086H332.481V80.9775H333.527V85.1064C333.527 86.4941 334.095 87.0479 335.551 87.0479C335.879 87.0479 336.207 87.0205 336.371 86.9795V85.8105C336.275 85.8311 336.036 85.8447 335.886 85.8447C335.284 85.8447 335.011 85.5645 335.011 84.9424V80.9775H336.378V79.8086H335.011V78.1064H333.527ZM340.425 80.8682C341.457 80.8682 342.154 81.6406 342.188 82.7412H338.593C338.668 81.6543 339.393 80.8682 340.425 80.8682ZM342.182 84.8877C341.983 85.5166 341.361 85.9404 340.521 85.9404C339.338 85.9404 338.586 85.1133 338.586 83.8623V83.7734H343.665V83.2676C343.665 81.0869 342.421 79.6787 340.425 79.6787C338.395 79.6787 337.096 81.1826 337.096 83.4385C337.096 85.708 338.374 87.1367 340.486 87.1367C342.134 87.1367 343.378 86.2002 343.583 84.8877H342.182ZM347.514 87.123C348.56 87.123 349.38 86.5967 349.804 85.7764H349.831V87H351.267V77.1357H349.783V81.0049H349.756C349.353 80.2119 348.532 79.6924 347.5 79.6924C345.695 79.6924 344.492 81.1348 344.492 83.4043C344.492 85.6738 345.695 87.123 347.514 87.123ZM347.903 80.9365C349.038 80.9365 349.797 81.9141 349.797 83.4043C349.797 84.9082 349.038 85.8721 347.903 85.8721C346.734 85.8721 346.003 84.9219 346.003 83.4043C346.003 81.8936 346.734 80.9365 347.903 80.9365ZM360.174 83.6641V82.3311H355.689V83.6641H360.174ZM364.72 77.1357V87H366.251V83.6299H368.37C370.305 83.6299 371.665 82.3037 371.665 80.376C371.665 78.4551 370.332 77.1357 368.418 77.1357H364.72ZM366.251 78.4277H368.015C369.341 78.4277 370.1 79.1387 370.1 80.3828C370.1 81.627 369.341 82.3447 368.008 82.3447H366.251V78.4277ZM375.521 80.8682C376.553 80.8682 377.25 81.6406 377.284 82.7412H373.688C373.764 81.6543 374.488 80.8682 375.521 80.8682ZM377.277 84.8877C377.079 85.5166 376.457 85.9404 375.616 85.9404C374.434 85.9404 373.682 85.1133 373.682 83.8623V83.7734H378.761V83.2676C378.761 81.0869 377.517 79.6787 375.521 79.6787C373.49 79.6787 372.191 81.1826 372.191 83.4385C372.191 85.708 373.47 87.1367 375.582 87.1367C377.229 87.1367 378.474 86.2002 378.679 84.8877H377.277ZM379.909 87H381.386V82.8096C381.386 81.6953 382.056 80.957 383.095 80.957C384.12 80.957 384.626 81.5518 384.626 82.6318V87H386.109V82.3447C386.109 80.6973 385.2 79.6855 383.614 79.6855C382.507 79.6855 381.741 80.1914 381.352 81.0117H381.317V79.8086H379.909V87ZM390.238 87.123C391.284 87.123 392.104 86.5967 392.528 85.7764H392.556V87H393.991V77.1357H392.508V81.0049H392.48C392.077 80.2119 391.257 79.6924 390.225 79.6924C388.42 79.6924 387.217 81.1348 387.217 83.4043C387.217 85.6738 388.42 87.123 390.238 87.123ZM390.628 80.9365C391.763 80.9365 392.521 81.9141 392.521 83.4043C392.521 84.9082 391.763 85.8721 390.628 85.8721C389.459 85.8721 388.728 84.9219 388.728 83.4043C388.728 81.8936 389.459 80.9365 390.628 80.9365ZM395.557 87H397.033V79.8086H395.557V87ZM396.295 78.6465C396.767 78.6465 397.143 78.2637 397.143 77.7988C397.143 77.3271 396.767 76.9512 396.295 76.9512C395.823 76.9512 395.44 77.3271 395.44 77.7988C395.44 78.2637 395.823 78.6465 396.295 78.6465ZM398.544 87H400.021V82.8096C400.021 81.6953 400.69 80.957 401.729 80.957C402.755 80.957 403.261 81.5518 403.261 82.6318V87H404.744V82.3447C404.744 80.6973 403.835 79.6855 402.249 79.6855C401.142 79.6855 400.376 80.1914 399.986 81.0117H399.952V79.8086H398.544V87ZM409.235 85.8037C408.101 85.8037 407.362 84.8877 407.362 83.3838C407.362 81.8867 408.101 80.9365 409.235 80.9365C410.391 80.9365 411.149 81.9072 411.149 83.3838C411.149 84.8672 410.391 85.8037 409.235 85.8037ZM409.249 89.707C411.3 89.707 412.626 88.5859 412.626 86.8701V79.8086H411.19V81.0391H411.163C410.726 80.2051 409.892 79.6924 408.873 79.6924C407.027 79.6924 405.852 81.1143 405.852 83.377C405.852 85.6191 407.034 87.0273 408.839 87.0273C409.864 87.0273 410.712 86.5146 411.115 85.7354H411.143V86.918C411.143 87.9023 410.459 88.5586 409.304 88.5586C408.463 88.5586 407.807 88.1621 407.595 87.5605H406.111C406.296 88.8047 407.554 89.707 409.249 89.707ZM418.642 87V82.8711H422.88V81.5791H418.642V78.4551H423.27V77.1357H417.11V87H418.642ZM430.591 79.8086H429.114V83.999C429.114 85.1201 428.472 85.8584 427.405 85.8584C426.387 85.8584 425.867 85.2705 425.867 84.1768V79.8086H424.391V84.4639C424.391 86.1113 425.348 87.1299 426.913 87.1299C428.014 87.1299 428.745 86.6445 429.142 85.7832H429.176V87H430.591V79.8086ZM432.054 87H433.53V82.8096C433.53 81.6953 434.2 80.957 435.239 80.957C436.265 80.957 436.771 81.5518 436.771 82.6318V87H438.254V82.3447C438.254 80.6973 437.345 79.6855 435.759 79.6855C434.651 79.6855 433.886 80.1914 433.496 81.0117H433.462V79.8086H432.054V87ZM442.383 87.123C443.429 87.123 444.249 86.5967 444.673 85.7764H444.7V87H446.136V77.1357H444.652V81.0049H444.625C444.222 80.2119 443.401 79.6924 442.369 79.6924C440.564 79.6924 439.361 81.1348 439.361 83.4043C439.361 85.6738 440.564 87.123 442.383 87.123ZM442.772 80.9365C443.907 80.9365 444.666 81.9141 444.666 83.4043C444.666 84.9082 443.907 85.8721 442.772 85.8721C441.604 85.8721 440.872 84.9219 440.872 83.4043C440.872 81.8936 441.604 80.9365 442.772 80.9365ZM447.523 81.8457C447.523 82.8916 448.2 83.5479 449.567 83.8623L450.736 84.1357C451.522 84.3135 451.789 84.5869 451.789 85.0518C451.789 85.6396 451.242 86.0088 450.354 86.0088C449.451 86.0088 448.938 85.6396 448.802 84.8877H447.339C447.476 86.2549 448.556 87.1367 450.354 87.1367C452.049 87.1367 453.272 86.2344 453.272 84.9219C453.272 83.8828 452.712 83.3086 451.242 82.9668L450.073 82.7002C449.294 82.5225 448.966 82.2148 448.966 81.7637C448.966 81.1895 449.499 80.7998 450.299 80.7998C451.126 80.7998 451.639 81.2373 451.721 81.9346H453.108C453.061 80.6084 451.974 79.6787 450.299 79.6787C448.645 79.6787 447.523 80.5605 447.523 81.8457Z" fill="#333333"/>
<rect x="0.5" y="0.5" width="557" height="43" rx="1.5" fill="#FAFAFA" stroke="#DEDEDE"/>
</svg>
