<svg width="783" height="905" viewBox="0 0 783 905" fill="none" xmlns="http://www.w3.org/2000/svg">
<g clip-path="url(#clip0)">
<g opacity="0.5">
<path fill-rule="evenodd" clip-rule="evenodd" d="M-140.945 178.581C-143.027 160.873 -144.799 143.138 -147.107 125.456C-148.251 116.695 -149.459 107.942 -150.675 99.1905C-150.946 97.2418 -151.215 95.2936 -151.492 93.3458C-152.435 86.7292 -153.306 86.3188 -146.768 84.6391C-117.601 77.144 -88.0281 71.3762 -58.7838 64.124C-23.5149 55.3777 12.0862 47.483 47.7813 40.6884C63.6435 37.6682 79.5034 34.2163 95.5146 32.0837C99.0624 31.6111 105.839 29.55 107.681 32.0643C108.476 33.1505 107.89 37.4367 107.956 38.8307C108.161 43.1856 108.403 47.5497 108.823 51.8908C111.306 77.4942 116.599 103.29 125.617 127.421C113.044 122.832 97.5899 119.65 84.3649 122.969C70.8823 126.352 61.9601 135.937 52.2186 145.01C46.7076 150.142 44.8013 151.567 37.9699 148.603C32.0832 146.048 26.4019 142.954 20.7465 139.93C12.0194 135.264 3.6452 130.024 -4.89517 125.031C-20.5975 115.851 -42.3173 102.68 -60.6021 110.629C-73.6656 116.309 -85.0154 125.875 -95.6359 135.158C-111.414 148.949 -125.124 164.911 -140.945 178.581M77.3818 27.0583C9.47505 38.2602 -56.8373 55.9612 -123.965 70.6927C-130.975 72.2308 -137.933 73.941 -144.868 75.7837C-149.49 77.0119 -161.289 77.0027 -163.705 81.5234C-165.317 84.5394 -163.486 84.6502 -162.778 87.1464C-161.884 90.2923 -161.474 94.1265 -161.008 97.5354C-159.885 105.749 -158.774 113.964 -157.611 122.172C-153.214 153.194 -148.555 184.166 -142.207 214.858C-140.822 221.551 -136.828 230.476 -137.091 237.245C-137.281 242.146 -140.057 245.568 -132.415 245.207C-124.894 244.852 -116.235 241.171 -108.966 239.25C-101.655 237.318 -94.3554 235.326 -87.0204 233.486C-55.1293 225.489 -22.4188 220.507 9.85084 214.274C42.4115 207.985 75.1215 202.531 107.837 197.115C121.526 194.85 137.296 193.039 150.032 187.068C154.513 184.966 155.165 184.188 153.237 179.716C152.871 178.868 151.398 178.775 150.718 177.245C149.793 175.162 149.647 172.468 149.141 170.225C147.488 162.897 146.115 155.51 144.545 148.163C141.922 135.889 137.809 124.235 134.212 112.249C130.059 98.4067 127.784 84.0318 125.399 69.8029C124.075 61.9105 122.98 54.0073 122.315 46.029C121.888 40.9119 123.131 32.9618 121.094 28.4603C120.079 26.2189 118.744 24.529 116.136 23.9224C114.485 23.5374 113.267 24.2528 111.712 24.3429C109.867 24.4496 108.694 24.3817 106.44 24.2481C96.787 23.6739 86.8649 25.4939 77.3818 27.0583" fill="#89CBFF"/>
<path fill-rule="evenodd" clip-rule="evenodd" d="M45.3512 66.8785C46.1581 71.8008 46.5881 79.1899 49.6214 83.4498C53.4691 88.8534 56.7662 86.422 56.8088 80.7408C56.8329 77.4856 55.2746 68.1211 53.7953 65.4855C51.7021 61.7548 44.2508 60.2078 45.3512 66.8785" fill="#89CBFF"/>
<path fill-rule="evenodd" clip-rule="evenodd" d="M53.9187 67.4176C49.3251 68.3426 35.6863 69.4533 33.173 73.684C28.8619 80.9405 38.383 80.5293 42.3321 79.5113C46.9025 78.3336 61.4014 76.976 63.8943 72.7444C68.0639 65.6651 57.5297 66.6857 53.9187 67.4176" fill="#89CBFF"/>
<path fill-rule="evenodd" clip-rule="evenodd" d="M17.4789 246.038C12.4914 247.292 8.70481 251.553 3.71948 253.02C-0.941802 254.391 -5.15362 253.413 -9.8233 252.847C-15.4678 252.163 -20.5208 252.286 -25.7934 254.591C-29.8225 256.353 -33.4984 259.898 -37.8097 260.964C-46.2933 263.061 -57.9011 254.902 -62.7821 267.101C-65.1219 272.949 -59.8857 275.604 -55.4828 272.33C-50.8925 268.918 -53.5081 268.398 -47.0334 268.899C-41.6315 269.315 -37.3212 269.315 -32.4146 266.673C-27.9698 264.28 -24.322 260.64 -19.2569 259.463C-14.2971 258.312 -9.55873 259.876 -4.60383 260.07C1.48961 260.31 6.55323 258.533 11.8326 255.764C16.8542 253.131 18.8147 251.82 24.433 252.504C27.9907 252.937 35.925 254.867 38.8087 251.781C43.7958 246.445 36.0432 247.064 32.9287 246.936C27.915 246.732 22.4425 244.796 17.4789 246.038" fill="#89CBFF"/>
<path fill-rule="evenodd" clip-rule="evenodd" d="M132.726 223.998C132.772 224.022 132.818 224.047 132.862 224.072C132.818 224.047 132.771 224.022 132.726 223.998M127.59 223.775C135.051 223.033 145.254 235.165 135.55 237.256C128.719 238.728 119.073 228.222 127.59 223.775M124.736 212.942C102.465 223.312 118.567 254.465 140.458 246.948C150.401 243.534 151.913 231.113 147.084 222.899C145.011 219.371 141.656 216.661 137.914 215.051C135.154 213.864 127.457 211.676 124.736 212.942" fill="#89CBFF"/>
<path fill-rule="evenodd" clip-rule="evenodd" d="M27.1585 299.619C47.586 295.525 68.0144 291.431 88.5477 287.848C99.676 285.907 110.792 284.273 122.026 283.076C127.009 282.545 131.987 282.004 136.96 281.398C137.817 281.294 138.985 281.042 140.274 280.763C143.306 280.109 147.009 279.309 148.918 279.948C159.6 283.525 139.679 287.397 137.239 287.757C131.775 288.564 126.288 289.193 120.801 289.822C116.005 290.371 111.208 290.921 106.428 291.589C75.7557 295.878 45.2486 302.32 14.8747 308.734C7.91181 310.205 0.955897 311.674 -5.9934 313.115C-13.3714 314.645 -20.7655 316.067 -28.1589 317.49C-38.7283 319.523 -49.2961 321.556 -59.8132 323.903C-63.8289 324.799 -67.8416 325.709 -71.8542 326.619L-71.8549 326.619L-71.8551 326.619C-77.6039 327.922 -83.3526 329.226 -89.1102 330.49C-93.6173 331.48 -98.1273 332.462 -102.662 333.328C-103.478 333.484 -104.527 333.774 -105.673 334.091L-105.673 334.091C-108.446 334.858 -111.783 335.78 -113.741 335.333C-116.097 334.794 -118.09 333.827 -117.318 330.952C-116.665 328.521 -112.89 328.177 -110.138 327.926C-109.387 327.858 -108.712 327.796 -108.197 327.701C-99.5345 326.099 -90.9432 324.18 -82.3558 322.218C-79.2144 321.5 -76.0749 320.778 -72.936 320.055L-72.9356 320.055L-72.9351 320.055C-56.5914 316.291 -40.2628 312.532 -23.752 309.518C-6.74284 306.414 10.2075 303.016 27.1585 299.619ZM156.76 417.128C158.725 416.779 160.689 416.431 162.654 416.082C165.748 415.845 167.64 418.821 166.088 421.604C164.899 423.736 159.143 424.773 155.391 425.449C154.351 425.637 153.466 425.796 152.873 425.944C143.184 428.352 133.443 430.324 123.61 432.043C102.903 435.661 82.3884 439.959 61.8778 444.555C40.8818 449.26 19.7436 453.214 -1.39569 457.168L-1.39753 457.168C-16.9493 460.077 -32.5015 462.986 -47.9981 466.194C-56.8728 468.031 -65.7633 469.777 -74.6634 471.485C-75.6198 471.669 -76.8745 472.018 -78.2939 472.412L-78.2941 472.412C-83.8395 473.953 -91.8976 476.193 -94.4966 472.015C-96.8019 468.309 -94.813 466.099 -91.5984 464.712C-92.5171 462.444 -92.9655 459.115 -93.2223 457.209C-93.2994 456.636 -93.3593 456.192 -93.4094 455.943C-93.8862 453.578 -94.3374 451.209 -94.7885 448.84C-95.2998 446.155 -95.8109 443.47 -96.3593 440.793C-96.8567 438.364 -97.3482 435.93 -97.84 433.495C-99.7794 423.893 -101.723 414.268 -104.054 404.77C-105.129 400.386 -106.397 396.088 -107.663 391.796C-109.684 384.945 -111.701 378.111 -112.918 370.977C-113.137 369.694 -113.467 368.098 -113.838 366.298C-115.738 357.088 -118.743 342.528 -113.724 337.116C-104.554 329.521 -103.741 346.942 -103.378 354.717C-103.318 356.001 -103.27 357.022 -103.199 357.623C-101.69 370.403 -98.8989 382.396 -95.5434 394.789C-93.2779 403.158 -92.3818 411.724 -91.4842 420.304C-91.1636 423.368 -90.8428 426.434 -90.4594 429.494C-90.2697 431.007 -90.0736 432.52 -89.8776 434.031C-89.2743 438.683 -88.6716 443.331 -88.2579 448.01C-88.213 448.516 -88.0674 449.477 -87.8814 450.705C-87.3568 454.167 -86.5105 459.752 -86.6918 463.257C-85.1275 462.929 -83.596 462.694 -82.3307 462.499L-82.3301 462.499L-82.3296 462.499C-81.5241 462.375 -80.8266 462.268 -80.297 462.164C-77.8874 461.692 -75.4774 461.221 -73.0675 460.751C-65.9462 459.361 -58.825 457.971 -51.7149 456.521C-34.9307 453.1 -18.0724 450.101 -1.21448 447.103C18.697 443.56 38.608 440.018 58.3959 435.781C91.0062 428.797 123.922 422.956 156.759 417.128L156.76 417.128ZM142.4 292.131C145.968 313.86 151.133 334.713 156.665 356.027C160.087 369.212 163.277 382.487 166.265 395.778C166.404 396.393 166.569 397.43 166.776 398.731L166.777 398.731C167.961 406.157 170.514 422.16 177.216 417.125C182.276 413.324 177.386 396.93 174.68 387.859C174.087 385.869 173.598 384.231 173.343 383.156C172.8 380.865 172.258 378.574 171.718 376.284C169.206 365.649 166.696 355.022 163.954 344.438C163.761 343.695 163.568 342.951 163.375 342.208C160.205 329.983 157.037 317.768 154.781 305.332C154.594 304.304 154.457 302.851 154.301 301.21C153.851 296.463 153.252 290.142 150.891 287.971C147.569 284.916 141.556 286.973 142.4 292.131Z" fill="#89CBFF"/>
<path fill-rule="evenodd" clip-rule="evenodd" d="M38.7295 363.943C63.0114 347.742 87.5764 331.353 113.452 318.3C115.323 317.358 116.905 319.186 116.739 320.966C116.567 322.801 112.546 325.005 109.88 326.467C109.082 326.905 108.405 327.275 107.989 327.55C104.459 329.881 100.915 332.193 97.3707 334.504C93.7418 336.871 90.1127 339.239 86.4975 341.627C78.9805 346.591 71.4533 351.541 63.9262 356.491C55.8647 361.791 47.8033 367.092 39.7544 372.412C39.4492 372.614 39.144 372.815 38.8388 373.017C51.346 375.267 63.8176 377.715 76.2593 380.305C80.5113 381.19 84.7548 382.109 88.9986 383.028C91.3996 383.548 93.8007 384.068 96.2034 384.582C96.9854 384.749 98.329 384.929 99.9438 385.144C105.205 385.848 113.345 386.936 114.312 389.231C115.886 392.971 104.567 390.969 100.296 390.214C99.7293 390.114 99.2868 390.036 99.0149 389.996C92.7446 389.075 86.5095 387.924 80.2778 386.775L79.4156 386.616C74.4768 385.705 69.5417 384.775 64.6068 383.846C54.9671 382.03 45.3278 380.214 35.6612 378.542C34.2945 378.305 32.9276 378.07 31.5603 377.837C17.9763 386.847 4.43203 395.915 -9.04716 405.081C-16.2744 409.996 -23.446 414.989 -30.5881 420.027C-32.1468 421.127 -34.0356 422.741 -36.0873 424.495C-41.0051 428.697 -46.859 433.7 -51.3481 434.34C-53.755 434.682 -55.4561 434.435 -56.1862 431.569C-56.9387 428.612 -53.3494 426.403 -50.7687 424.815C-50.1509 424.435 -49.591 424.091 -49.1622 423.78C-41.5507 418.263 -33.8703 412.842 -26.1578 407.467C-10.8397 396.794 4.68618 386.412 20.2968 376.172C20.3864 376.113 20.476 376.055 20.5656 375.996C10.7034 374.375 0.827409 372.835 -9.05825 371.363C-10.0453 371.216 -12.0547 371 -14.6962 370.717C-27.174 369.381 -53.7562 366.533 -53.3028 362.234C-52.7816 357.317 -27.5306 361.983 -16.3514 364.049C-14.2564 364.436 -12.6556 364.732 -11.8043 364.857C1.47401 366.796 14.7361 368.855 27.9635 371.112C31.5482 368.734 35.1357 366.341 38.7295 363.943Z" fill="#89CBFF"/>
<path fill-rule="evenodd" clip-rule="evenodd" d="M-13.5604 486.211C-17.3981 489.133 -23.4859 493.654 -25.2538 498.294C-27.1217 503.195 -23.6169 507.641 -18.4767 504.621C-14.396 502.223 -12.5045 496.431 -8.1383 493.954C-4.28502 491.769 -2.50512 492.265 2.07824 493.053C6.80084 493.863 10.9524 494.715 15.719 493.539C21.7099 492.061 26.3859 487.674 32.195 485.894C37.0857 484.394 41.5318 485.66 46.4502 485.644C52.1563 485.625 55.443 482.922 60.4625 480.969C63.8766 479.64 70.6111 481.644 73.004 480.084C78.3843 476.577 71.7331 474.471 68.3519 473.97C62.6559 473.127 59.5794 475.208 54.6715 477.495C49.3427 479.979 46.736 479.203 41.1592 478.649C29.8764 477.528 22.6876 485.924 12.2366 486.337C2.56008 486.72 -4.49004 479.309 -13.5604 486.211" fill="#89CBFF"/>
<path fill-rule="evenodd" clip-rule="evenodd" d="M162.248 451.882C174.256 459.916 164.862 475.715 152.11 469.815C147.622 467.737 146.831 463.343 149.322 458.884C151.599 454.806 157.679 452.359 162.248 451.882V451.882ZM157.099 444.638C147.695 448.131 139.266 454.101 140.236 465.459C141.182 476.542 153.242 479.772 162.551 477.499C183.451 472.396 176.138 437.592 157.099 444.638V444.638Z" fill="#89CBFF"/>
</g>
<g opacity="0.5">
<path fill-rule="evenodd" clip-rule="evenodd" d="M58.6278 537.105C74.5897 534.82 94.0888 540.646 94.6496 559.71C95.061 573.677 85.0618 586.718 71.5199 589.935C56.9655 593.391 39.5341 584.659 35.0609 569.997C30.0287 553.506 43.018 539.334 58.6278 537.105M49.5795 530.799C43.2902 532.826 37.6869 537.228 32.5089 541.198C30.5329 542.714 20.7094 551.589 29.6173 551.921C14.3763 588.837 68.3775 611.882 92.2633 585.584C102.989 573.774 106.428 554.172 96.0597 540.982C85.3362 527.34 64.9909 525.819 49.5795 530.799" fill="#89CBFF"/>
<path fill-rule="evenodd" clip-rule="evenodd" d="M50.4838 559.931C51.5156 566.186 61.2238 564.584 60.192 558.33C59.1602 552.075 49.452 553.676 50.4838 559.931" fill="#89CBFF"/>
<path fill-rule="evenodd" clip-rule="evenodd" d="M68.6436 557.964C69.7623 564.746 80.2877 563.009 79.1691 556.228C78.0505 549.447 67.525 551.183 68.6436 557.964" fill="#89CBFF"/>
<path fill-rule="evenodd" clip-rule="evenodd" d="M58.7118 573.378C58.1435 578.757 74.7302 578.731 74.2854 572.688C74.0722 569.801 59.1047 569.627 58.7118 573.378" fill="#89CBFF"/>
<path fill-rule="evenodd" clip-rule="evenodd" d="M105.528 562.389C123.745 557.094 143.077 554.963 161.84 552.417C166.536 551.782 171.23 551.142 175.917 550.448C178.897 550.008 185.55 550.376 187.914 548.557C197.595 541.109 176.307 541.792 173.314 542.017C154.486 543.552 125.73 547.736 107.219 551.53C101.744 552.653 102.282 563.333 105.528 562.389" fill="#89CBFF"/>
<path fill-rule="evenodd" clip-rule="evenodd" d="M204.4 640.981C201.347 621.483 198.811 601.763 197.105 582.102C196.41 574.088 195.837 566.065 195.138 558.052C194.809 554.277 195.272 548.838 192.542 545.929C189.728 542.931 184.66 543.048 182.168 546.526C179.358 551.74 181.677 559.331 182.155 564.998C182.891 573.713 183.484 582.444 184.496 591.132C186.455 607.947 189.07 624.953 193.159 641.392C195.089 649.15 197.727 656.594 200.818 663.961C202.226 667.314 211.405 681.77 210.368 684.144C208.761 687.824 192.624 689.195 189.185 689.857C180.357 691.558 171.512 693.176 162.671 694.809C155.101 696.206 147.525 697.563 139.942 698.883C136.931 699.407 119.125 701.793 123.792 705.615C80.3494 715.928 34.7176 718.203 -9.25251 723.655C-11.4736 723.93 -15.1871 723.899 -18.5489 724.269C-19.2136 722.725 -19.779 721.341 -20.0248 720.354C-21.7572 713.429 -23.0689 706.41 -24.8492 699.494C-28.1062 686.841 -32.4111 674.493 -35.8396 661.891C-39.2626 649.302 -41.2497 636.436 -44.1305 623.725C-44.6243 621.546 -47.9057 603.58 -53.1747 599.952C-50.8843 600.414 -47.3907 599.947 -45.4154 599.455C-29.4273 595.475 -13.8066 590.006 1.8595 584.939C6.34152 583.49 16.852 582.259 20.2854 579.333C23.2565 576.8 23.412 569.612 17.7653 571.122C2.0295 575.481 -13.4634 580.772 -28.9237 586.016C-33.0589 587.418 -37.1753 588.867 -41.2882 590.333C-44.0352 591.312 -51.5149 592.505 -53.4291 594.574C-55.7542 597.086 -55.8047 598.543 -54.7461 599.331C-56.0597 599.193 -57.4762 599.984 -58.9864 602.093C-61.6717 607.108 -56.6484 617.54 -55.38 622.692C-53.8573 628.871 -52.5823 635.103 -51.2621 641.327C-48.7095 653.374 -45.4646 665.133 -41.5339 676.801C-37.1296 689.873 -33.0435 703.054 -28.6342 716.121C-27.4864 719.523 -26.1795 722.81 -24.6716 726.031C-30.0836 730.03 -25.2721 734.174 -20.4438 734.254C-20.4093 734.254 -20.3733 734.253 -20.3388 734.253C-18.2898 737.576 -15.7016 740.541 -14.8933 735.502C-14.8318 735.116 -14.8489 734.656 -14.9178 734.146C-2.58487 733.52 10.5825 730.473 22.5823 728.994C48.5751 725.79 74.8145 723.088 100.527 718.022C110.706 716.017 120.819 713.415 130.74 710.376C136.552 708.596 142.362 706.658 147.993 704.366C148.396 704.203 149.017 703.998 149.732 703.756C149.852 703.733 149.973 703.709 150.087 703.689C159.021 702.076 167.93 700.36 176.818 698.511C184.278 696.96 191.797 695.555 199.168 693.612C203.746 692.404 213.589 690.865 215.672 685.717C217.567 681.035 211.42 670.797 210.015 666.121C207.543 657.889 205.728 649.468 204.4 640.981" fill="#8BCCFF"/>
<path fill-rule="evenodd" clip-rule="evenodd" d="M104.359 599.728C97.3034 601.522 91.2403 605.974 84.0243 607.208C77.968 608.242 71.7004 607.415 65.649 608.688C58.5504 610.179 55.379 615.452 49.371 618.033C44.5878 620.087 40.8167 616.787 36.1524 615.823C30.263 614.604 26.3543 616.379 22.1397 620.387C19.0432 623.333 11.787 629.992 12.6407 634.775C15.2222 649.263 28.8531 626.413 32.2276 625.606C36.7115 624.535 42.6335 628.871 47.5096 628.369C53.9567 627.707 57.37 622.917 62.9999 620.449C68.6931 617.952 75.424 618.75 81.4772 618.343C88.3839 617.879 94.083 615.383 100.392 612.675C106.506 610.051 111.951 609.238 118.645 609.491C123.163 609.661 134.907 613.047 135.719 606.069C136.826 596.565 109.292 598.477 104.359 599.728" fill="#89CBFF"/>
<path fill-rule="evenodd" clip-rule="evenodd" d="M111.109 627.06C96.6792 630.901 82.1318 634.584 67.4665 637.413C61.1149 638.639 36.136 639.951 39.6487 647.7C42.6598 654.343 75.3157 644.461 82.0266 642.81C89.4355 640.989 96.7947 638.937 104.107 636.76C106.698 635.989 113.147 635.281 114.649 632.753C116.08 630.342 114.486 626.149 111.109 627.06" fill="#89CBFF"/>
<path fill-rule="evenodd" clip-rule="evenodd" d="M16.0384 680.671C15.7258 680.868 15.7258 680.868 16.0384 680.671ZM19.1154 680.118C22.7524 679.4 21.6506 677.601 25.4633 678.004C27.2218 678.19 27.2809 677.474 28.8502 678.867C31.9118 681.583 30.6424 688.809 28.551 691.75C20.8087 702.64 6.07175 682.697 19.1154 680.118M17.6047 670.936C-7.67645 675.984 9.43829 713.5 30.2418 701.833C38.8337 697.015 42.1171 681.153 35.3597 673.658C32.0725 670.012 28.6192 669.837 24.1926 670.277C23.1649 670.379 22.1292 672.068 21.4833 672.105C19.9484 672.195 19.8112 670.487 17.6047 670.936" fill="#89CBFF"/>
<path fill-rule="evenodd" clip-rule="evenodd" d="M80.1342 671.478C79.6579 671.413 88.5449 672.48 87.458 671.668C89.7774 673.4 87.9186 678.709 85.8189 679.928C80.7348 682.883 76.2993 674.95 80.1342 671.478M82.1465 660.208C74.3727 662.649 68.7765 666.977 69.1486 676.008C69.4926 684.344 76.3778 691.707 85.1118 690.43C104.149 687.647 99.3329 654.851 82.1465 660.208" fill="#89CBFF"/>
<path fill-rule="evenodd" clip-rule="evenodd" d="M170.608 656.921C174.113 671.246 156.878 660.448 170.608 656.921ZM161.592 642.464C160.647 644.93 162.163 647.132 164.364 648.112C147.237 654.789 155.661 680.831 173.069 673.907C181.921 670.385 182.016 660.45 179.332 652.703C178.056 649.019 165.56 632.103 161.592 642.464" fill="#89CBFF"/>
</g>
<path opacity="0.5" fill-rule="evenodd" clip-rule="evenodd" d="M277.827 661.279C269.8 663.729 251.522 673.734 252.897 681.015C255.041 692.379 269.475 677.198 272.866 674.918C291.084 662.664 318.529 670.121 339.454 669.219C349.048 668.805 367.795 667.873 375.324 661.769C388.71 650.915 354.887 658.659 350.479 659.039C326.522 661.106 301.198 654.131 277.827 661.279" fill="#8BCCFF"/>
<g opacity="0.5">
<path fill-rule="evenodd" clip-rule="evenodd" d="M444.39 539.384C446.039 549.407 447.22 559.721 450.7 569.318C451.754 572.224 453.142 577.893 456.562 578.927C459.996 579.965 462.786 577.702 463.038 574.315C463.334 570.375 460.379 565.038 459.518 561.094C458.341 555.707 457.425 550.27 456.525 544.83C455.875 540.902 456.126 534.368 451.154 533.112C447.458 532.177 443.775 535.656 444.39 539.384" fill="#8BCCFF"/>
<path fill-rule="evenodd" clip-rule="evenodd" d="M600.214 497.396C567.558 506.207 533.989 512.456 500.95 519.692C485.678 523.036 466.892 525.082 453.363 533.439C450.852 534.991 442.216 542.747 450.466 543.963C453.037 544.343 455.084 541.303 456.944 540.09C460.043 538.072 463.834 536.981 467.302 535.821C496.781 525.963 528.595 521.584 558.813 514.265C566.556 512.39 574.3 510.497 581.995 508.437C587.493 506.965 598.576 500.999 604.073 502.208C613.467 504.275 617.035 527.184 618.506 535.022C619.268 539.076 617.728 554.331 625.334 551.556C631.421 549.334 626.644 534.538 625.469 530.468C622.39 519.801 615.749 493.189 600.214 497.396" fill="#8BCCFF"/>
<path fill-rule="evenodd" clip-rule="evenodd" d="M621.737 551.607C593.324 558.969 563.396 561.282 534.604 567.083C519.512 570.125 504.488 573.482 489.388 576.488C482.858 577.788 476.286 578.882 469.725 580.012C466.586 580.552 452.601 584.815 462.474 589.586C466.846 591.698 478.962 587.417 483.447 586.622C490.184 585.429 496.884 584.035 503.586 582.659C519.11 579.47 534.586 576.048 550.149 573.046C565.036 570.174 579.983 567.62 594.87 564.748C602.277 563.318 609.781 561.846 616.977 559.543C618.6 559.024 623.973 557.937 624.822 555.891C625.625 553.956 624.336 550.917 621.737 551.607" fill="#89CBFF"/>
<path fill-rule="evenodd" clip-rule="evenodd" d="M476.413 553.338C476.318 553.733 476.318 553.733 476.413 553.338ZM488.275 547.482C488.766 547.601 488.766 547.601 488.275 547.482ZM487.671 547.471C495.535 553.222 486.534 563.119 479.124 557.463C471.259 551.461 483.342 548.209 487.671 547.471M478.821 538.269C456.317 546.219 469.623 575.765 490.54 567.727C499.723 564.199 503.58 553.724 498.791 545.065C496.919 541.682 493.482 538.196 489.415 537.703C487.387 537.458 485.822 538.629 483.945 538.725C482.154 538.817 480.938 537.516 478.821 538.269" fill="#8BCCFF"/>
<path fill-rule="evenodd" clip-rule="evenodd" d="M568.98 532.33C555.006 534.68 541.12 537.581 527.186 540.152C522.911 540.94 511.575 540.839 512.672 547.601C513.845 554.827 525.681 550.135 529.75 549.363C543.561 546.745 557.362 543.844 570.955 540.246C574.388 539.336 586.56 537.92 585.765 533.178C584.922 528.154 571.797 531.865 568.98 532.33" fill="#8BCCFF"/>
<path fill-rule="evenodd" clip-rule="evenodd" d="M610.161 573.961C575.736 580.593 541.264 586.611 507.006 594.08C494.193 596.874 481.368 599.495 468.426 601.63C465.934 602.041 460.756 601.904 458.669 603.861C453.005 609.168 460.857 611.627 465.044 611.172C493.687 608.066 521.834 599.395 550.054 593.831C566.575 590.574 583.16 587.681 599.617 584.098C604.107 583.121 608.592 582.106 613.054 581.01C615.62 580.38 622.586 579.798 624.436 577.931C632.515 569.777 613.24 573.368 610.161 573.961" fill="#89CBFF"/>
<path fill-rule="evenodd" clip-rule="evenodd" d="M454.294 617.04C455.447 626.058 456.867 634.872 459.51 643.594C460.55 647.026 461.419 650.972 465.678 651.185C469.546 651.378 470.974 648.241 471.231 644.982C471.858 637.023 468.38 626.29 467.048 618.349C466.39 614.422 465.66 610.027 460.66 609.939C456.845 609.872 453.793 613.124 454.294 617.04" fill="#89CBFF"/>
<path fill-rule="evenodd" clip-rule="evenodd" d="M653.158 606.436C597.672 618.618 542.198 630.414 486.576 642.022C482.238 642.928 448.242 648.156 462.058 658.033C466.325 661.083 475.358 657.05 480.058 656.036C487.122 654.512 494.203 653.069 501.264 651.532C529.262 645.437 557.506 640.38 585.454 634.112C600.834 630.664 616.096 626.719 631.243 622.363C638.447 620.292 647.581 618.876 653.987 614.862C657.283 612.797 659.912 604.95 653.158 606.436" fill="#89CBFF"/>
<path fill-rule="evenodd" clip-rule="evenodd" d="M613.475 566.268C609.917 571.209 613.486 579.212 614.671 584.398C616.302 591.537 618.028 598.663 620.111 605.686C621.465 610.247 622.352 617.549 625.501 621.162C629.188 625.395 635.509 623.816 637.39 618.83C639.053 614.42 636.478 606.143 635.681 601.691C634.581 595.535 633.177 589.418 631.795 583.321C630.639 578.225 630.445 569.786 626.888 565.848C623.273 561.847 616.809 561.642 613.475 566.268" fill="#89CBFF"/>
<path fill-rule="evenodd" clip-rule="evenodd" d="M490.973 620.272C490.534 620.742 490.534 620.742 490.973 620.272ZM500.705 617.385C510.289 617.72 497.076 631.025 491.109 624.374C490.177 623.334 489.557 621.971 490.579 620.765C491.512 619.664 492.462 621.184 493.415 620.576C495.055 619.529 498.81 617.625 500.705 617.385M497.954 608.705C491.704 610.251 483.06 612.078 480.973 618.944C478.168 628.166 486.748 635.329 495.294 635.252C503.519 635.178 514.758 628.762 513.857 619.305C513.13 611.68 504.984 606.951 497.954 608.705" fill="#89CBFF"/>
<path fill-rule="evenodd" clip-rule="evenodd" d="M551.573 604.492C545.034 605.679 531.827 605.866 526.642 610.004C521.512 614.099 524.961 619.314 530.339 619.811C533.895 620.138 539.228 617.783 542.752 617.053C547.388 616.093 552.053 615.282 556.713 614.447C564.551 613.045 572.417 611.839 580.272 610.544C588.296 609.22 596.492 608.093 604.404 606.182C614.415 603.765 612.89 596.221 602.823 596.907C585.721 598.073 568.419 601.44 551.573 604.492" fill="#89CBFF"/>
<path fill-rule="evenodd" clip-rule="evenodd" d="M548.844 692.24C549.439 695.846 552.043 691.713 552.02 691.717C552.043 691.713 548.25 688.635 548.844 692.24" fill="#89CBFF"/>
<path fill-rule="evenodd" clip-rule="evenodd" d="M471.696 675.155C473.631 685.601 475.497 696.068 477.672 706.465C478.36 709.753 478.478 716.375 482.77 717.401C487.547 718.543 488.163 713.631 488.155 710.372C488.126 700.049 484.634 688.833 482.799 678.685C482.183 675.278 482.138 670.4 477.977 669.337C474.584 668.47 471.061 671.701 471.696 675.155" fill="#89CBFF"/>
<path fill-rule="evenodd" clip-rule="evenodd" d="M644.065 646.892C644.435 647.476 644.435 647.476 644.065 646.892ZM644.425 646.723C644.655 646.778 645.59 647 644.425 646.723ZM558.367 652.217C542.32 655.123 526.254 657.969 510.29 661.31C503.477 662.737 496.575 664.119 489.844 665.894C485.076 667.151 473.076 669.326 470.587 673.802C465.453 683.041 478.832 678.546 481.683 677.394C486.872 675.297 492.309 674.003 497.766 672.804C509.607 670.204 521.501 667.896 533.421 665.682C565.745 659.68 598.217 654.425 630.631 648.928C633.769 648.396 639.237 646.196 642.347 646.988C645.463 647.782 645.815 650.94 646.717 654.525C647.916 659.294 646.246 669.036 649.348 672.703C654.159 678.391 658.757 672.129 658.837 667.39C658.946 660.843 655.852 653.514 653.053 647.734C649.104 639.58 645.529 639.82 637.126 640.518C627.31 641.333 617.579 642.451 607.845 643.964C591.327 646.534 574.818 649.24 558.367 652.217" fill="#89CBFF"/>
<path fill-rule="evenodd" clip-rule="evenodd" d="M629.137 685.041C594.911 694.849 558.63 698.381 523.574 704.311C515.049 705.754 506.522 707.23 498.068 709.05C493.602 710.01 482.727 710.529 480.216 714.51C474.923 722.903 486.809 722.037 491.033 721.028C499.575 718.988 508.193 717.278 516.847 715.782C547.33 710.511 578.26 706.872 608.509 700.335C621.182 697.597 633.313 693.351 645.451 688.84C648.14 687.84 666.562 681.087 655.002 678.543C648.17 677.039 635.74 683.144 629.137 685.041" fill="#89CBFF"/>
<path fill-rule="evenodd" clip-rule="evenodd" d="M525.052 688.448C524.859 688.803 524.859 688.803 525.052 688.448ZM524.803 688.433C524.757 688.672 524.591 689.272 524.803 688.433ZM522.141 685.957C522.203 686.014 522.457 686.247 522.141 685.957ZM522.046 685.948C523.052 686.813 523.802 687.838 524.297 689.024C517.39 692.175 513.64 686.786 522.046 685.948M521.547 685.751C521.549 685.753 522.644 686.014 521.547 685.751ZM508.229 678.995C504.512 685.594 501.769 693.022 508.701 698.715C514.898 703.805 525.52 702.842 531.484 697.778C537.628 692.559 535.617 684.038 529.932 679.198C526.272 676.081 523.806 676.591 519.265 676.733C516.173 676.83 510.271 675.387 508.229 678.995" fill="#89CBFF"/>
<path fill-rule="evenodd" clip-rule="evenodd" d="M558.372 681.802C559.652 689.561 592.603 680.694 598.562 679.703C603.554 678.872 634.197 676.646 630.713 669.019C627.85 662.752 598.652 670.918 592.317 671.953C586.842 672.849 557.068 673.899 558.372 681.802" fill="#89CBFF"/>
</g>
<g opacity="0.5">
<path fill-rule="evenodd" clip-rule="evenodd" d="M132.989 826.647C150.169 826.316 168.924 831.328 171.999 850.882C174.585 867.323 163.696 887.071 145.849 889.007C129.789 890.751 111.932 875.819 107.479 861.233C105.172 853.676 105.731 845.037 109.228 837.931C113.81 828.62 123.263 827.074 132.989 826.647M123.309 817.34C111.185 819.408 103.03 825.263 97.0479 835.768C94.9022 839.534 92.3596 843.627 90.9301 847.73C89.5948 851.561 91.4052 860.446 97.2858 855.171C98.5226 872.745 111.409 887.875 127.413 894.344C144.809 901.378 162.365 896.551 173.29 880.869C183.292 866.513 184.083 844.921 172.75 831.077C161.423 817.239 140.003 814.418 123.309 817.34" fill="#89CBFF"/>
<path fill-rule="evenodd" clip-rule="evenodd" d="M158.929 806.7C152.099 813.676 146.242 822.344 141.604 830.921C137.071 839.305 134.795 849.215 128.946 856.839C124.824 853.609 119.036 844.007 112.739 849.234C107.514 853.572 112.197 858.776 115.644 862.132C124.545 870.797 133.278 873.436 140.998 862.149C148.01 851.9 150.873 839.298 157.25 828.63C160.047 823.95 164.743 818.987 166.762 813.996C168.592 809.472 164.078 801.427 158.929 806.7" fill="#89CBFF"/>
</g>
<g opacity="0.5">
<path fill-rule="evenodd" clip-rule="evenodd" d="M350.69 140.752C350.83 141.526 350.961 142.255 351.088 142.924C353.869 157.521 356.2 172.965 357.422 187.785C357.844 192.902 355.226 199.907 349.888 193.638C347.541 190.882 346.762 184.555 346.19 179.901C346.036 178.653 345.897 177.525 345.747 176.619C344.892 171.461 344.304 166.206 343.714 160.936C342.56 150.633 341.4 140.277 338.233 130.494C338.169 130.296 338.108 130.105 338.049 129.922C336.664 125.618 336.569 125.321 331.734 126.222C329.718 126.597 327.705 126.986 325.692 127.374C323.711 127.756 321.731 128.138 319.748 128.508C317.78 128.875 315.811 129.239 313.841 129.603C307.666 130.744 301.49 131.885 295.335 133.133C294.307 133.342 292.419 133.902 290.036 134.609C285.272 136.021 278.53 138.02 272.736 138.971C272.741 138.996 272.747 139.02 272.753 139.045C272.764 139.089 272.775 139.133 272.784 139.179C273.376 142.366 273.141 146.072 272.905 149.795C272.708 152.913 272.51 156.043 272.796 158.891C273.477 165.667 274.59 172.444 275.704 179.221C277.059 187.473 278.415 195.726 278.99 203.976C279.018 204.378 279.065 204.8 279.112 205.228C279.118 205.284 279.125 205.341 279.131 205.397C279.384 205.315 279.633 205.245 279.874 205.19C284.006 204.236 288.212 203.518 292.412 202.801C294.729 202.405 297.044 202.01 299.342 201.576C303.47 200.797 307.665 200.109 311.878 199.419C321.176 197.895 330.557 196.358 339.474 193.787C342.103 192.996 343.61 196.286 342.7 198.271C341.885 200.048 338.958 200.796 336.814 201.345C336.27 201.484 335.775 201.611 335.379 201.738C329.657 203.574 323.764 204.857 317.89 206.096C311.72 207.396 305.533 208.628 299.342 209.827C297.869 210.112 295.926 210.638 293.772 211.221C288.086 212.759 280.926 214.696 277.042 213.657C272.865 212.54 272.637 210.572 273.976 208.798C273.03 207.384 272.553 205.17 272.179 203.438C272.037 202.777 271.909 202.185 271.776 201.736C269.767 194.921 268.114 188.14 266.945 181.125C264.653 167.386 262.326 153.108 263.933 139.178C262.301 138.762 261.22 137.931 260.991 136.514C259.831 129.373 282.104 126.072 292.692 124.503C294.585 124.222 296.105 123.997 297.05 123.815C304.709 122.345 312.398 121.05 320.099 119.823C321.726 119.563 323.518 119.158 325.374 118.739C329.323 117.847 333.564 116.889 337.14 117.121C346.534 117.729 349.128 132.102 350.69 140.752Z" fill="#89CBFF"/>
<path fill-rule="evenodd" clip-rule="evenodd" d="M403.386 107.8C411.712 105.97 420.1 104.481 428.506 103.062C437.404 101.549 446.347 100.238 455.294 99.043L455.501 99.0153C459.464 98.4832 481.494 95.5254 472.324 102.649C471.789 103.065 471.171 103.441 470.485 103.781C471.329 106.24 471.812 108.843 471.951 110.113C472.478 114.926 473.094 119.731 473.711 124.535L473.711 124.536C474.128 127.792 474.546 131.049 474.936 134.307C476.015 143.312 477.111 152.313 478.279 161.308C478.422 162.412 478.717 163.838 479.046 165.427C480.133 170.683 481.589 177.725 479.148 180.82C477.006 183.537 475.207 183.36 473.788 181.988C466.918 185.274 451.987 187.037 444.478 187.924C442.669 188.138 441.291 188.3 440.561 188.421C439.255 188.637 436.854 189.201 433.823 189.912C421.204 192.874 397.651 198.403 396.564 192.121C396.459 191.515 396.567 190.939 396.858 190.392C395.678 189.527 394.519 188.163 393.624 186.371C390.409 179.933 389.003 172.644 387.687 165.635C385.829 155.737 384.186 145.792 382.543 135.849C381.7 130.744 380.856 125.639 379.984 120.541C378.314 118.934 378.778 116.704 380.24 114.96C383.35 111.253 392.338 109.732 398.839 108.631C400.589 108.335 402.159 108.069 403.386 107.8ZM402.355 186.652C410.167 183.589 423.897 181.895 431.253 180.988C433.181 180.75 434.67 180.567 435.502 180.426C442.961 179.166 450.446 178.038 457.954 177.105C458.732 177.009 459.871 176.791 461.214 176.535C463.911 176.02 467.427 175.348 470.481 175.186C470.373 174.786 470.285 174.419 470.216 174.101C468.785 167.517 467.923 160.78 467.065 154.081L467.065 154.08C466.883 152.657 466.701 151.234 466.514 149.816C465.853 144.811 465.245 139.8 464.636 134.789L464.636 134.787L464.635 134.783C464.252 131.629 463.869 128.474 463.473 125.32C463.299 123.937 462.912 122.082 462.477 119.995C461.591 115.749 460.505 110.543 460.606 106.391C457.837 106.794 454.975 107.065 452.35 107.313C449.821 107.553 447.511 107.772 445.716 108.068C443.44 108.443 441.162 108.811 438.885 109.18L438.885 109.18C432.575 110.201 426.266 111.222 419.979 112.387C419.383 112.498 418.787 112.608 418.191 112.718L418.188 112.718C409.532 114.318 400.803 115.932 392.379 118.497C391.886 118.647 391.302 118.876 390.658 119.143C392.253 122.934 392.708 128.572 393.106 133.509C393.3 135.907 393.48 138.14 393.771 139.916C395.58 150.96 397.686 161.911 399.79 172.85L399.79 172.85L399.79 172.851C400.585 176.989 401.381 181.125 402.16 185.264C402.253 185.758 402.317 186.22 402.355 186.652Z" fill="#89CBFF"/>
<path fill-rule="evenodd" clip-rule="evenodd" d="M311.145 207.552C306.157 211.688 311.261 224.096 313.91 228.242C318.264 235.059 325.59 239.747 333.101 242.42C348.283 247.821 368 242.468 380.723 254.076C380.855 254.196 385.086 257.196 385.144 252.397C385.193 248.458 377.439 243.735 374.492 242.25C366.11 238.03 356.224 237.854 347.121 236.557C337.412 235.173 326.4 231.487 320.961 222.611C319.035 219.467 318.713 201.251 311.145 207.552" fill="#8BCCFF"/>
<path fill-rule="evenodd" clip-rule="evenodd" d="M438.36 192.938C433.531 195.167 438.025 201.576 438.592 205.062C439.3 209.412 438.66 214.192 436.553 218.104C431.209 228.024 418.12 231.538 408.56 235.706C401.619 238.735 384.936 245.524 385.874 255.433C386.921 266.498 400.026 250.66 401.228 249.901C414.664 242.296 432.999 238.231 442.132 224.863C445.902 219.345 447.545 212.539 446.89 205.902C446.522 202.165 444.571 190.088 438.36 192.938" fill="#8BCCFF"/>
<path fill-rule="evenodd" clip-rule="evenodd" d="M349.845 307.219C346.388 286.997 363.74 271.557 380.497 264.062C400.637 255.042 422.682 266.559 428.665 287.372C434.979 309.336 421.073 330.15 398.976 334.811C379.538 338.91 353.533 328.798 349.845 307.219ZM392.371 272.101C393.765 273.461 395.2 275.762 393.127 277.486C391.133 279.136 389.775 277.772 388.409 276.399C387.546 275.531 386.679 274.66 385.646 274.544C382.968 274.246 379.299 277.616 377.426 279.538C376.665 280.318 375.66 281.892 374.485 283.733C370.745 289.593 365.283 298.148 360.527 292.346C349.98 320.247 389.894 333.241 409.212 320.154C430.43 305.781 419.576 267.82 392.371 272.101Z" fill="#89CBFF"/>
<path fill-rule="evenodd" clip-rule="evenodd" d="M376.488 295.864C377.254 300.51 384.591 299.3 383.825 294.654C383.067 290.061 375.698 291.074 376.488 295.864" fill="#89CBFF"/>
<path fill-rule="evenodd" clip-rule="evenodd" d="M389.25 292.863C390.189 298.554 399.181 297.071 398.242 291.38C397.314 285.753 388.282 286.996 389.25 292.863" fill="#89CBFF"/>
<path fill-rule="evenodd" clip-rule="evenodd" d="M382.199 307.649C375.559 313.187 398.005 318.312 397.387 309.393C397.12 305.545 393.619 307.172 391.127 307.297C388.743 307.416 384.206 305.99 382.199 307.649" fill="#89CBFF"/>
<path fill-rule="evenodd" clip-rule="evenodd" d="M384.073 338.86C386.215 349.855 387.882 360.921 391.774 371.469C392.514 373.472 394.029 380.931 395.917 382.198C400.563 385.316 399.434 378.058 399.132 375.255C398.05 365.216 395.314 355.132 393.439 345.203C393.035 343.066 392.871 338.528 391.515 336.619C389.365 333.587 383.048 333.624 384.073 338.86" fill="#8BCCFF"/>
<path fill-rule="evenodd" clip-rule="evenodd" d="M374.73 331.2C361.595 351.952 339.176 354.282 317.074 359.555C305.396 362.342 293.732 366.031 285.485 375.243C281.649 379.528 278.571 384.61 276.846 390.108C276.092 392.512 272.891 406.19 280.369 401.837C283.021 400.293 284.409 391.367 285.826 388.561C288.525 383.216 292.336 378.544 297.264 375.102C306.77 368.462 319.107 366.513 330.193 364.041C341.782 361.457 354.237 358.774 364.15 351.914C368.813 348.686 373.067 344.919 376.503 340.402C377.731 338.787 380.465 335.937 380.35 333.797C380.22 331.35 377.185 327.333 374.73 331.2" fill="#8BCCFF"/>
<path fill-rule="evenodd" clip-rule="evenodd" d="M302.511 400.158C287.452 403.162 272.429 406.269 257.466 409.721C254.399 410.429 243.964 411.507 247.643 417.423C250.592 422.165 262.637 416.719 266.764 415.785C282.367 412.25 298.135 409.315 313.625 405.304C317.105 404.403 333.092 401.896 325.466 396.724C321.838 394.262 306.82 399.296 302.511 400.158" fill="#89CBFF"/>
<path fill-rule="evenodd" clip-rule="evenodd" d="M237.916 418.316C234.177 425.372 238.883 440.246 240.487 447.723C242.041 454.968 242.825 468.555 252.545 468.115C249.452 468.217 254.873 467.92 255.747 467.823C257.699 467.608 259.649 467.321 261.591 467.022C266.076 466.333 270.546 465.534 275.007 464.706C285.115 462.83 295.233 460.858 305.268 458.627C309.486 457.689 332.612 454.076 332.798 449.503C333.033 443.659 311.418 450.509 307.484 451.343C297.904 453.378 288.25 455.066 278.609 456.787C273.831 457.64 269.045 458.478 264.241 459.174C262.257 459.462 254.56 461.566 253.141 460.444C251.93 459.49 251.027 449.033 250.744 447.457C249.825 442.32 248.979 437.159 248.314 431.982C247.865 428.497 248.651 421.596 246.588 418.592C244.581 415.673 240.076 415.307 237.916 418.316" fill="#89CBFF"/>
<path fill-rule="evenodd" clip-rule="evenodd" d="M315.936 405.747C318.104 417.169 320.12 428.855 324.679 439.624C326.196 443.208 328.729 450.697 332.797 452.01C337.067 453.39 339.988 449.934 339.602 445.992C339.117 441.036 335.43 435.032 334.062 430.091C332.465 424.325 331.13 418.511 329.942 412.648C329.047 408.24 329.298 401.367 324.598 399.204C320.376 397.262 314.994 400.807 315.936 405.747" fill="#89CBFF"/>
<path fill-rule="evenodd" clip-rule="evenodd" d="M345.611 397.975C341.675 403.443 346.23 417.949 347.813 423.88C348.973 428.223 357.387 449.144 362.76 436.625C365.136 431.087 358.882 418.511 357.947 412.665C357.352 408.941 357.893 404.02 356.668 400.55C355.048 395.965 349.179 393.004 345.611 397.975" fill="#89CBFF"/>
<path fill-rule="evenodd" clip-rule="evenodd" d="M377.584 388.724C391.489 384.931 405.471 381.5 419.672 379.018C420.354 378.9 421.07 378.773 421.815 378.64C431.543 376.908 446.163 374.306 453.93 380.544C458.163 383.942 460.799 389.84 463.097 394.981C463.525 395.94 463.942 396.873 464.355 397.758C464.708 398.514 465.146 399.371 465.62 400.297C467.854 404.667 470.878 410.582 469.494 414.78C468.735 417.082 467.248 419.183 464.416 418.879C463.747 418.808 463.209 418.663 462.774 418.458C464.003 419.41 464.731 420.937 464.315 422.618C463.51 425.858 459.406 426.601 456.171 427.187C455.387 427.329 454.655 427.461 454.032 427.618C443.381 430.3 432.63 432.69 421.808 434.573C416.655 435.469 411.487 436.278 406.319 437.088C401 437.921 395.68 438.753 390.378 439.682C386.528 440.356 382.662 441.37 378.795 442.384C373.912 443.665 369.027 444.947 364.172 445.545C360.539 445.991 356.491 445.445 356.636 440.631C356.754 436.702 360.282 435.779 363.444 434.951C363.72 434.879 363.992 434.808 364.259 434.735C374.311 432.008 384.48 429.952 394.763 428.294C416.363 424.808 437.916 421.137 459.485 417.464C460.39 417.39 461.287 417.594 462.064 418.002C461.123 417.188 460.93 415.925 460.725 414.58C460.632 413.974 460.537 413.351 460.37 412.744C460.033 411.525 459.708 410.31 459.384 409.097C458.313 405.087 457.249 401.107 455.796 397.136C455.576 396.537 455.351 395.874 455.113 395.173C453.704 391.034 451.837 385.549 448.074 383.809C444.29 382.06 437.637 383.272 432.451 384.216C431.051 384.471 429.759 384.706 428.658 384.859C414.723 386.79 400.931 390.077 387.325 393.612C386.281 393.883 385.233 394.151 384.185 394.419C379.005 395.743 373.799 397.075 368.775 398.869C367.856 399.198 366.491 399.942 364.926 400.796C360.762 403.066 355.178 406.11 352.789 404.166C344.876 397.723 373.673 389.791 377.584 388.724Z" fill="#89CBFF"/>
<path fill-rule="evenodd" clip-rule="evenodd" d="M525.238 346.726C525.988 347.42 525.988 347.42 525.238 346.726ZM421.805 315.785C414.047 322.251 432.393 334.446 436.821 336.07C446.787 339.723 459.44 338.434 469.858 338.206C483.042 337.917 497.172 336.281 510.247 338.46C515.819 339.389 519.634 341.642 523.799 345.386C525.909 347.283 531.677 356.009 535.147 353.145C542.132 347.38 518.204 331.967 513.282 330.697C502.094 327.811 489.554 328.554 478.109 328.605C467.466 328.651 456.671 329.161 446.075 327.896C440.249 327.201 435.868 325.252 431.842 320.802C429.332 318.028 426.62 311.788 421.805 315.785" fill="#8BCCFF"/>
<path fill-rule="evenodd" clip-rule="evenodd" d="M563.049 351.944C553.18 353.798 543.419 356.19 533.661 358.583C528.186 359.925 522.712 361.267 517.22 362.513C515.503 362.903 513.781 363.283 512.059 363.663L512.059 363.663C507.216 364.733 502.367 365.803 497.585 367.097C496.859 367.293 496.014 367.504 495.095 367.735L495.095 367.735C491.02 368.755 485.464 370.147 482.114 372.248C478.403 370.296 473.661 373.257 474.315 377.718C475.516 385.843 476.903 393.788 479.22 401.677C479.757 403.509 482.501 412.782 485.884 417.283C485.74 422.081 489.919 422.731 493.668 422.478C508.191 421.5 523.006 417.956 537.62 414.46C545.054 412.682 552.435 410.916 559.7 409.506C562.116 409.037 564.569 408.604 567.037 408.169C575.092 406.747 583.302 405.298 590.863 402.483C591.167 402.37 591.494 402.254 591.836 402.133C594.833 401.069 598.967 399.603 598.731 396.15C598.589 394.078 597.13 392.4 595.159 392.456C595.011 390.734 594.492 388.915 594.11 387.577C594.021 387.266 593.939 386.981 593.872 386.729C592.624 382.078 590.671 377.576 588.744 373.131L588.744 373.131L588.743 373.13C588.31 372.131 587.878 371.135 587.456 370.141C586.988 369.039 586.505 367.718 585.984 366.292C584.145 361.261 581.834 354.938 578.051 352.449C574.084 349.839 568.503 350.904 564.031 351.758C563.697 351.821 563.369 351.884 563.049 351.944ZM587.918 394.171C586.237 391.291 585.208 387.191 584.229 383.293L584.229 383.293L584.229 383.293C583.615 380.846 583.021 378.479 582.298 376.545C581.755 375.093 581.252 373.551 580.741 371.983L580.741 371.983C579.5 368.176 578.21 364.22 576.181 361.039C573.462 356.78 571.743 357.243 567.678 358.34C566.921 358.544 566.084 358.769 565.144 358.991C560.978 359.972 556.829 361.031 552.681 362.089L552.68 362.089C550.69 362.597 548.7 363.105 546.708 363.604C538.184 365.74 529.628 367.712 521.071 369.685L521.07 369.685C516.071 370.837 511.072 371.989 506.078 373.175C502.158 374.105 498.413 375.497 494.683 376.883C491.728 377.981 488.783 379.076 485.769 379.934C485.898 380.992 485.983 382.06 486.065 383.078L486.065 383.078C486.176 384.464 486.28 385.756 486.475 386.796C487.339 391.407 488.506 395.939 489.675 400.476C489.854 401.174 490.034 401.873 490.213 402.571C490.427 403.408 490.79 404.469 491.192 405.647C491.814 407.467 492.531 409.564 492.94 411.537C493.314 411.473 493.687 411.412 494.054 411.353C494.528 411.277 494.992 411.202 495.436 411.121C506.293 409.134 517.118 407.01 527.93 404.796C529.31 404.514 530.69 404.231 532.07 403.948C541.716 401.968 551.362 399.989 561.059 398.275C564.912 397.594 568.843 397.07 572.785 396.544C577.857 395.868 582.948 395.189 587.918 394.171Z" fill="#89CBFF"/>
</g>
</g>
<defs>
<clipPath id="clip0">
<rect width="788" height="905" fill="white" transform="translate(-5)"/>
</clipPath>
</defs>
</svg>
