<svg width="82" height="54" viewBox="0 0 82 54" fill="none" xmlns="http://www.w3.org/2000/svg">
<rect width="59.1595" height="33.2214" transform="matrix(0.865943 0.500143 -0.865943 0.500143 29.75 0.842773)" fill="#FCF9F4" stroke="black" stroke-linejoin="bevel"/>
<path d="M52.1701 47.0269L52.1697 53.1731L0.982105 23.6043L0.982497 17.4581L52.1701 47.0269Z" fill="#5489AD" stroke="black" stroke-linejoin="bevel"/>
<path d="M52.1761 47.073L52.1765 53.2789L80.9794 36.641L80.979 30.4351L52.1761 47.073Z" fill="#FCF9F4" stroke="black" stroke-linejoin="bevel"/>
<rect width="25.3231" height="25.3195" transform="matrix(0.866762 0.498722 -0.866762 0.498722 28.6061 3.63562)" fill="#FCF9F4" stroke="black" stroke-linejoin="bevel"/>
<path d="M28.6084 28.8933L28.6084 29.9825L6.66315 17.3533L6.66311 16.2641L28.6084 28.8933Z" fill="#EFEAE8" stroke="black" stroke-linejoin="bevel"/>
<path d="M28.6105 28.8937L28.6105 29.979L50.5556 17.35L50.5556 16.2646L28.6105 28.8937Z" fill="#EFEAE8" stroke="black" stroke-linejoin="bevel"/>
<path d="M21.8929 14.7239L25.7637 12.4882L27.3899 13.4275C27.6082 13.5535 27.7554 13.6866 27.8316 13.8266C27.9147 13.9667 27.9268 14.1037 27.8679 14.2377C27.8125 14.3738 27.6878 14.4978 27.4938 14.6098C27.2929 14.7259 27.0643 14.7999 26.808 14.8319C26.5586 14.8639 26.3023 14.8499 26.0391 14.7899L26.1586 14.7149C26.2555 14.8349 26.3075 14.9549 26.3144 15.075C26.3248 15.197 26.2919 15.314 26.2157 15.4261C26.143 15.5361 26.0304 15.6351 25.878 15.7232C25.5316 15.9232 25.1454 16.0182 24.7194 16.0082C24.3002 15.9982 23.9019 15.8842 23.5244 15.6661L21.8929 14.7239ZM22.6983 14.7389L23.914 15.4411C24.16 15.5831 24.4197 15.6591 24.6934 15.6691C24.974 15.6791 25.2285 15.6181 25.4571 15.4861C25.6823 15.356 25.7862 15.21 25.7689 15.048C25.7585 14.8859 25.6303 14.7339 25.3844 14.5918L24.1686 13.8896L22.6983 14.7389ZM24.5427 13.6736L25.7221 14.3548C25.93 14.4748 26.1568 14.5358 26.4028 14.5378C26.6521 14.5418 26.8721 14.4888 27.0626 14.3788C27.2566 14.2667 27.3397 14.1447 27.312 14.0127C27.2912 13.8806 27.1769 13.7546 26.9691 13.6346L25.7897 12.9534L24.5427 13.6736ZM26.3631 17.3777C26.1691 17.2657 26.0375 17.1376 25.9682 16.9936C25.9024 16.8476 25.9041 16.7005 25.9734 16.5525C26.0496 16.4044 26.1951 16.2684 26.4098 16.1444L28.166 15.1301L28.5556 15.3551L26.8463 16.3424C26.6973 16.4284 26.5951 16.5215 26.5397 16.6215C26.4912 16.7215 26.4895 16.8205 26.5345 16.9186C26.583 17.0186 26.6783 17.1096 26.8203 17.1917C26.9623 17.2737 27.1199 17.3287 27.2931 17.3567C27.4697 17.3827 27.6481 17.3797 27.8282 17.3477C28.0118 17.3137 28.1867 17.2487 28.353 17.1526L30.0104 16.1954L30.4001 16.4204L27.6152 18.0289L27.2255 17.8038L27.7659 17.4917L27.8334 17.5548C27.5875 17.6208 27.3329 17.6378 27.0697 17.6058C26.8064 17.5738 26.5709 17.4977 26.3631 17.3777ZM27.3307 19.1849C27.2753 19.1529 27.2233 19.1169 27.1748 19.0769C27.1263 19.0409 27.0848 19.0009 27.0501 18.9569L27.4138 18.7468C27.445 18.7688 27.4831 18.7968 27.5281 18.8308C27.5732 18.8689 27.6234 18.9039 27.6788 18.9359C27.8485 19.0339 28.0148 19.0879 28.1776 19.0979C28.3369 19.1099 28.5603 19.0829 28.8478 19.0169L29.4401 18.8789L29.0868 19.0709L30.8586 16.6852L31.2794 16.9283L29.809 18.8939L29.6999 18.8308L33.0979 17.9786L33.5291 18.2277L29.118 19.305C28.9275 19.351 28.7283 19.384 28.5205 19.404C28.3162 19.426 28.1135 19.421 27.9126 19.389C27.7083 19.359 27.5143 19.291 27.3307 19.1849Z" fill="black"/>
<rect width="25.3231" height="25.3195" transform="matrix(0.866762 0.498722 -0.866762 0.498722 52.8465 17.5465)" fill="#FCF9F4" stroke="black" stroke-linejoin="bevel"/>
<path d="M52.8488 42.8042L52.8488 43.8934L30.9035 31.2642L30.9035 30.175L52.8488 42.8042Z" fill="#EFEAE8" stroke="black" stroke-linejoin="bevel"/>
<path d="M52.8509 42.8046L52.8509 43.8899L74.7959 31.2608L74.796 30.1755L52.8509 42.8046Z" fill="#EFEAE8" stroke="black" stroke-linejoin="bevel"/>
<path d="M47.5932 29.55C47.3473 29.408 47.1707 29.2519 47.0633 29.0819C46.9559 28.9118 46.9109 28.7418 46.9282 28.5717C46.949 28.3997 47.0252 28.2416 47.1568 28.0976L47.6712 28.2326C47.498 28.4367 47.4374 28.6337 47.4893 28.8238C47.5447 29.0118 47.7041 29.1819 47.9673 29.3339C48.1336 29.43 48.305 29.499 48.4817 29.541C48.6653 29.583 48.8402 29.596 49.0065 29.58C49.1727 29.564 49.3199 29.519 49.4481 29.445C49.6386 29.3349 49.7338 29.2199 49.7338 29.0999C49.7338 28.9798 49.6646 28.8478 49.526 28.7038L49.0376 28.1816C48.8437 27.9775 48.7657 27.7785 48.8038 27.5844C48.8454 27.3924 48.9857 27.2273 49.2247 27.0893C49.429 26.9713 49.6594 26.8962 49.9157 26.8642C50.1755 26.8302 50.437 26.8372 50.7002 26.8852C50.967 26.9352 51.2111 27.0243 51.4328 27.1523C51.6649 27.2863 51.8294 27.4314 51.9264 27.5874C52.0303 27.7435 52.0771 27.8985 52.0667 28.0526C52.0563 28.2066 51.994 28.3487 51.8797 28.4787L51.3705 28.3527C51.516 28.1726 51.5593 27.9976 51.5004 27.8275C51.445 27.6595 51.2995 27.5074 51.0639 27.3714C50.915 27.2853 50.7574 27.2243 50.5911 27.1883C50.4283 27.1543 50.2673 27.1473 50.1079 27.1673C49.9486 27.1873 49.8031 27.2353 49.6715 27.3114C49.5122 27.4034 49.4186 27.5154 49.3909 27.6474C49.3667 27.7775 49.4273 27.9205 49.5728 28.0766L50.004 28.5357C50.2188 28.7638 50.3192 28.9718 50.3054 29.1599C50.2915 29.3479 50.1564 29.516 49.9001 29.664C49.6923 29.7841 49.455 29.8591 49.1883 29.8891C48.9285 29.9191 48.6583 29.9051 48.3778 29.8471C48.1007 29.7911 47.8392 29.692 47.5932 29.55ZM50.8586 31.436C50.5988 31.2859 50.4257 31.1139 50.3391 30.9198C50.2594 30.7258 50.2698 30.5297 50.3702 30.3317C50.4707 30.1336 50.6612 29.9536 50.9418 29.7915C51.2223 29.6295 51.5289 29.5204 51.8614 29.4644C52.1974 29.4064 52.5282 29.3994 52.8538 29.4434C53.1828 29.4894 53.4738 29.5855 53.7266 29.7315C53.9275 29.8475 54.0678 29.9726 54.1475 30.1066C54.2341 30.2406 54.2687 30.3767 54.2514 30.5147C54.2375 30.6508 54.1804 30.7818 54.0799 30.9078C53.9829 31.0319 53.8513 31.1419 53.6851 31.2379C53.6504 31.2579 53.6089 31.2799 53.5604 31.3039C53.5153 31.326 53.4668 31.348 53.4149 31.37L51.0613 30.0106L51.425 29.8005L53.5552 31.0309L53.2123 31.0129C53.4339 30.9208 53.5812 30.8098 53.6539 30.6798C53.7336 30.5497 53.7474 30.4197 53.6955 30.2897C53.647 30.1576 53.5361 30.0416 53.3629 29.9416C53.1897 29.8415 52.9837 29.7745 52.7447 29.7405C52.5091 29.7085 52.2684 29.7155 52.0225 29.7615C51.78 29.8055 51.5566 29.8965 51.3522 30.0346C51.1132 30.1526 50.9539 30.2847 50.8742 30.4307C50.8015 30.5767 50.7963 30.7198 50.8586 30.8598C50.9244 31.0019 51.0457 31.1239 51.2223 31.2259C51.4267 31.344 51.6466 31.415 51.8822 31.439C52.1177 31.463 52.3515 31.458 52.5836 31.424L52.7395 31.7181C52.5593 31.7581 52.3584 31.7761 52.1368 31.7721C51.9185 31.7661 51.6969 31.7361 51.4717 31.6821C51.2535 31.628 51.0491 31.546 50.8586 31.436ZM52.8498 32.514L56.7829 30.2423L57.1726 30.4674L53.2395 32.7391L52.8498 32.514ZM54.0371 33.1997L57.9702 30.9281L58.3599 31.1532L54.4267 33.4248L54.0371 33.1997Z" fill="black"/>
</svg>
