<svg width="196" height="162" viewBox="0 0 196 162" fill="none" xmlns="http://www.w3.org/2000/svg">
<rect x="113.565" y="54" width="82" height="23" rx="11.5" fill="#02A1FE" fill-opacity="0.4"/>
<rect x="1" y="84" width="193" height="24" rx="12" fill="#02A1FE" fill-opacity="0.4"/>
<rect x="3" y="112" width="106" height="23" rx="11.5" fill="#FF9E9E"/>
<circle cx="97.4201" cy="123.42" r="10.9201" stroke="#BE33FF"/>
<path d="M63.0903 99.2974H67.675V98.5167H64.2968V98.4599L65.9291 96.7141C67.1782 95.3763 67.5472 94.7517 67.5472 93.9462C67.5472 92.8249 66.6388 91.9307 65.3614 91.9307C64.0874 91.9307 63.1187 92.7965 63.1187 94.074H63.9562C63.9562 93.2472 64.492 92.6972 65.333 92.6972C66.1207 92.6972 66.724 93.1798 66.724 93.9462C66.724 94.6169 66.3301 95.1137 65.4891 96.0327L63.0903 98.6586V99.2974ZM71.6253 99.3967C73.0767 99.3967 74.088 98.5486 74.0951 97.367C74.088 96.4479 73.4741 95.6673 72.6899 95.5218V95.4792C73.3712 95.3018 73.8183 94.6346 73.8254 93.8611C73.8183 92.7539 72.8886 91.9307 71.6253 91.9307C70.3479 91.9307 69.4182 92.7539 69.4253 93.8611C69.4182 94.6346 69.8653 95.3018 70.5608 95.4792V95.5218C69.7624 95.6673 69.1485 96.4479 69.1556 97.367C69.1485 98.5486 70.1598 99.3967 71.6253 99.3967ZM71.6253 98.6161C70.6282 98.6161 70.0143 98.1051 70.0214 97.3244C70.0143 96.5047 70.6921 95.9192 71.6253 95.9192C72.5444 95.9192 73.2222 96.5047 73.2293 97.3244C73.2222 98.1051 72.6083 98.6161 71.6253 98.6161ZM71.6253 95.1669C70.8305 95.1669 70.2698 94.6701 70.2769 93.9178C70.2698 93.1798 70.8092 92.6972 71.6253 92.6972C72.4273 92.6972 72.9667 93.1798 72.9738 93.9178C72.9667 94.6701 72.406 95.1669 71.6253 95.1669Z" fill="#25314C"/>
<path d="M34.7647 99.2974H39.3494V98.5167H35.9712V98.4599L37.6035 96.7141C38.8526 95.3763 39.2216 94.7517 39.2216 93.9462C39.2216 92.8249 38.3132 91.9307 37.0358 91.9307C35.7618 91.9307 34.7931 92.7965 34.7931 94.074H35.6305C35.6305 93.2472 36.1664 92.6972 37.0074 92.6972C37.7951 92.6972 38.3984 93.1798 38.3984 93.9462C38.3984 94.6169 38.0045 95.1137 37.1635 96.0327L34.7647 98.6586V99.2974ZM41.199 99.2974H42.1216L45.3579 92.8533V92.03H40.7022V92.8107H44.4494V92.8675L41.199 99.2974Z" fill="#25314C"/>
<path d="M122.796 99.3967C124.205 99.3967 125.251 98.5131 125.251 97.3244C125.251 96.4018 124.705 95.7311 123.789 95.5785V95.5218C124.524 95.2982 124.982 94.695 124.982 93.8753C124.982 92.8462 124.169 91.9307 122.824 91.9307C121.568 91.9307 120.525 92.7043 120.482 93.8469H121.334C121.366 93.123 122.054 92.6972 122.81 92.6972C123.612 92.6972 124.13 93.1833 124.13 93.9178C124.13 94.6843 123.53 95.1811 122.668 95.1811H122.086V95.9618H122.668C123.772 95.9618 124.386 96.5224 124.386 97.3244C124.386 98.0944 123.715 98.6161 122.782 98.6161C121.941 98.6161 121.273 98.1831 121.22 97.4805H120.326C120.379 98.6231 121.387 99.3967 122.796 99.3967ZM129.23 99.3967C130.834 99.3967 131.757 98.0376 131.757 95.6637C131.757 93.3075 130.82 91.9307 129.23 91.9307C127.64 91.9307 126.704 93.3075 126.704 95.6637C126.704 98.0376 127.626 99.3967 129.23 99.3967ZM129.23 98.6161C128.173 98.6161 127.555 97.5551 127.555 95.6637C127.555 93.7759 128.18 92.6972 129.23 92.6972C130.28 92.6972 130.905 93.7759 130.905 95.6637C130.905 97.5551 130.288 98.6161 129.23 98.6161Z" fill="#25314C"/>
<path d="M5.95095 99.2974H10.5356V98.5167H7.15743V98.4599L8.78974 96.7141C10.0388 95.3763 10.4079 94.7517 10.4079 93.9462C10.4079 92.8249 9.49944 91.9307 8.22198 91.9307C6.94807 91.9307 5.97933 92.7965 5.97933 94.074H6.81678C6.81678 93.2472 7.3526 92.6972 8.19359 92.6972C8.98136 92.6972 9.5846 93.1798 9.5846 93.9462C9.5846 94.6169 9.19072 95.1137 8.34973 96.0327L5.95095 98.6586V99.2974ZM14.5711 99.3967C16.0402 99.4145 16.9983 98.3073 16.9983 96.9554C16.9983 95.5502 15.9586 94.5424 14.7131 94.5424C13.9643 94.5424 13.3221 94.9079 12.9246 95.5076H12.8679C12.8714 93.7369 13.5598 92.7114 14.6847 92.7114C15.4512 92.7114 15.9125 93.194 16.0757 93.8469H16.9415C16.7641 92.7185 15.9054 91.9307 14.6847 91.9307C13.0488 91.9307 12.0446 93.3785 12.0446 95.9476C12.0446 98.6338 13.3788 99.3825 14.5711 99.3967ZM14.5711 98.6161C13.6592 98.6161 12.992 97.8389 12.9956 96.9696C12.9991 96.1002 13.6982 95.3231 14.5995 95.3231C15.4902 95.3231 16.1467 96.054 16.1467 96.9554C16.1467 97.878 15.4618 98.6161 14.5711 98.6161Z" fill="#25314C"/>
<path d="M91.9509 99.2974H96.5356V98.5167H93.1574V98.4599L94.7897 96.7141C96.0388 95.3763 96.4079 94.7517 96.4079 93.9462C96.4079 92.8249 95.4994 91.9307 94.222 91.9307C92.9481 91.9307 91.9793 92.7965 91.9793 94.074H92.8168C92.8168 93.2472 93.3526 92.6972 94.1936 92.6972C94.9814 92.6972 95.5846 93.1798 95.5846 93.9462C95.5846 94.6169 95.1907 95.1137 94.3497 96.0327L91.9509 98.6586V99.2974ZM100.472 91.9307C98.9956 91.9129 98.0446 93.0236 98.0446 94.3579C98.0446 95.7631 99.0808 96.7708 100.33 96.7708C101.082 96.7708 101.721 96.4018 102.118 95.8056H102.175C102.175 97.5941 101.48 98.6161 100.358 98.6161C99.5917 98.6161 99.1233 98.1335 98.9672 97.4663H98.1014C98.2717 98.6161 99.1375 99.3967 100.358 99.3967C101.991 99.3967 102.998 97.9489 102.998 95.3656C102.998 92.6972 101.664 91.9449 100.472 91.9307ZM100.472 92.7114C101.38 92.7114 102.047 93.492 102.047 94.3437C102.047 95.2095 101.338 95.9902 100.443 95.9902C99.5492 95.9902 98.8962 95.2663 98.8962 94.3579C98.8962 93.4494 99.5776 92.7114 100.472 92.7114Z" fill="#25314C"/>
<path d="M177.33 69.3198H181.915V68.5392H178.537V68.4824L180.169 66.7365C181.418 65.3987 181.787 64.7742 181.787 63.9687C181.787 62.8474 180.879 61.9532 179.601 61.9532C178.327 61.9532 177.358 62.819 177.358 64.0964H178.196C178.196 63.2696 178.732 62.7196 179.573 62.7196C180.36 62.7196 180.964 63.2022 180.964 63.9687C180.964 64.6394 180.57 65.1362 179.729 66.0552L177.33 68.6811V69.3198ZM185.808 69.4192C187.192 69.4192 188.207 68.3972 188.207 67.0062C188.207 65.5975 187.228 64.5648 185.893 64.5648C185.404 64.5648 184.928 64.7387 184.63 64.9765H184.588L184.843 62.8332H187.881V62.0525H184.105L183.665 65.6294L184.488 65.7287C184.79 65.5123 185.304 65.3562 185.752 65.3597C186.678 65.3668 187.355 66.0694 187.355 67.0204C187.355 67.9537 186.703 68.6385 185.808 68.6385C185.063 68.6385 184.47 68.1595 184.403 67.503H183.551C183.605 68.6101 184.559 69.4192 185.808 69.4192Z" fill="#25314C"/>
<path d="M148.692 69.3198H153.277V68.5392H149.898V68.4824L151.531 66.7365C152.78 65.3987 153.149 64.7742 153.149 63.9687C153.149 62.8474 152.24 61.9532 150.963 61.9532C149.689 61.9532 148.72 62.819 148.72 64.0964H149.558C149.558 63.2696 150.094 62.7196 150.935 62.7196C151.722 62.7196 152.326 63.2022 152.326 63.9687C152.326 64.6394 151.932 65.1362 151.091 66.0552L148.692 68.6811V69.3198ZM154.573 67.8295H157.993V69.3198H158.831V67.8295H159.824V67.0488H158.831V62.0525H157.766L154.573 67.1056V67.8295ZM157.993 67.0488H155.524V66.992L157.937 63.1738H157.993V67.0488Z" fill="#25314C"/>
<path d="M120.088 69.3198H124.673V68.5392H121.295V68.4824L122.927 66.7365C124.176 65.3987 124.545 64.7742 124.545 63.9687C124.545 62.8474 123.637 61.9532 122.359 61.9532C121.085 61.9532 120.117 62.819 120.117 64.0964H120.954C120.954 63.2696 121.49 62.7196 122.331 62.7196C123.119 62.7196 123.722 63.2022 123.722 63.9687C123.722 64.6394 123.328 65.1362 122.487 66.0552L120.088 68.6811V69.3198ZM128.751 69.4192C130.16 69.4192 131.207 68.5356 131.207 67.3469C131.207 66.4243 130.66 65.7536 129.745 65.601V65.5442C130.479 65.3207 130.937 64.7174 130.937 63.8977C130.937 62.8687 130.124 61.9532 128.779 61.9532C127.523 61.9532 126.48 62.7267 126.437 63.8693H127.289C127.321 63.1454 128.009 62.7196 128.765 62.7196C129.567 62.7196 130.085 63.2058 130.085 63.9403C130.085 64.7068 129.486 65.2036 128.623 65.2036H128.041V65.9842H128.623C129.727 65.9842 130.341 66.5449 130.341 67.3469C130.341 68.1169 129.67 68.6385 128.737 68.6385C127.896 68.6385 127.229 68.2056 127.175 67.503H126.281C126.334 68.6456 127.342 69.4192 128.751 69.4192Z" fill="#25314C"/>
<path d="M91.6942 69.3198H96.2788V68.5392H92.9007V68.4824L94.533 66.7365C95.782 65.3987 96.1511 64.7742 96.1511 63.9687C96.1511 62.8474 95.2427 61.9532 93.9652 61.9532C92.6913 61.9532 91.7226 62.819 91.7226 64.0964H92.56C92.56 63.2696 93.0958 62.7196 93.9368 62.7196C94.7246 62.7196 95.3278 63.2022 95.3278 63.9687C95.3278 64.6394 94.9339 65.1362 94.0929 66.0552L91.6942 68.6811V69.3198ZM97.9014 69.3198H102.486V68.5392H99.1079V68.4824L100.74 66.7365C101.989 65.3987 102.358 64.7742 102.358 63.9687C102.358 62.8474 101.45 61.9532 100.172 61.9532C98.8985 61.9532 97.9298 62.819 97.9298 64.0964H98.7672C98.7672 63.2696 99.303 62.7196 100.144 62.7196C100.932 62.7196 101.535 63.2022 101.535 63.9687C101.535 64.6394 101.141 65.1362 100.3 66.0552L97.9014 68.6811V69.3198Z" fill="#25314C"/>
<path d="M63.8466 69.3198H68.4312V68.5392H65.0531V68.4824L66.6854 66.7365C67.9345 65.3987 68.3035 64.7742 68.3035 63.9687C68.3035 62.8474 67.3951 61.9532 66.1176 61.9532C64.8437 61.9532 63.875 62.819 63.875 64.0964H64.7124C64.7124 63.2696 65.2482 62.7196 66.0892 62.7196C66.877 62.7196 67.4803 63.2022 67.4803 63.9687C67.4803 64.6394 67.0864 65.1362 66.2454 66.0552L63.8466 68.6811V69.3198ZM72.6087 62.0525H71.7287L69.9119 63.259V64.1532L71.6861 62.9751H71.7287V69.3198H72.6087V62.0525Z" fill="#25314C"/>
<path d="M34.4964 69.3198H39.081V68.5392H35.7028V68.4824L37.3352 66.7365C38.5842 65.3987 38.9533 64.7742 38.9533 63.9687C38.9533 62.8474 38.0449 61.9532 36.7674 61.9532C35.4935 61.9532 34.5247 62.819 34.5247 64.0964H35.3622C35.3622 63.2696 35.898 62.7196 36.739 62.7196C37.5268 62.7196 38.13 63.2022 38.13 63.9687C38.13 64.6394 37.7361 65.1362 36.8951 66.0552L34.4964 68.6811V69.3198ZM43.074 69.4192C44.6779 69.4192 45.6005 68.0601 45.6005 65.6862C45.6005 63.33 44.6637 61.9532 43.074 61.9532C41.4842 61.9532 40.5474 63.33 40.5474 65.6862C40.5474 68.0601 41.47 69.4192 43.074 69.4192ZM43.074 68.6385C42.0165 68.6385 41.3991 67.5775 41.3991 65.6862C41.3991 63.7984 42.0236 62.7196 43.074 62.7196C44.1243 62.7196 44.7489 63.7984 44.7489 65.6862C44.7489 67.5775 44.1314 68.6385 43.074 68.6385Z" fill="#25314C"/>
<path d="M9.20846 62.0525H8.32844L6.51161 63.259V64.1532L8.28586 62.9751H8.32844V69.3198H9.20846V62.0525ZM13.7692 61.9532C12.293 61.9354 11.342 63.0461 11.342 64.3803C11.342 65.7855 12.3782 66.7933 13.6272 66.7933C14.3795 66.7933 15.0182 66.4243 15.4157 65.8281H15.4724C15.4724 67.6165 14.7769 68.6385 13.6556 68.6385C12.8891 68.6385 12.4207 68.1559 12.2646 67.4888H11.3988C11.5691 68.6385 12.4349 69.4192 13.6556 69.4192C15.2879 69.4192 16.2957 67.9714 16.2957 65.3881C16.2957 62.7196 14.9615 61.9673 13.7692 61.9532ZM13.7692 62.7338C14.6776 62.7338 15.3447 63.5145 15.3447 64.3661C15.3447 65.232 14.635 66.0126 13.7408 66.0126C12.8466 66.0126 12.1936 65.2887 12.1936 64.3803C12.1936 63.4719 12.8749 62.7338 13.7692 62.7338Z" fill="#25314C"/>
<circle cx="124.985" cy="65.4201" r="10.9201" stroke="#02A1FE"/>
<path d="M95.5451 127H96.4677L99.704 120.556V119.733H95.0483V120.513H98.7955V120.57L95.5451 127Z" fill="#25314C"/>
<path d="M70.0178 127.099C71.4869 127.117 72.445 126.01 72.445 124.658C72.445 123.253 71.4053 122.245 70.1598 122.245C69.411 122.245 68.7687 122.611 68.3713 123.21H68.3145C68.3181 121.44 69.0065 120.414 70.1314 120.414C70.8978 120.414 71.3591 120.897 71.5224 121.55H72.3882C72.2108 120.421 71.3521 119.633 70.1314 119.633C68.4955 119.633 67.4913 121.081 67.4913 123.65C67.4913 126.336 68.8255 127.085 70.0178 127.099ZM70.0178 126.319C69.1059 126.319 68.4387 125.542 68.4423 124.672C68.4458 123.803 69.1449 123.026 70.0462 123.026C70.9369 123.026 71.5934 123.757 71.5934 124.658C71.5934 125.581 70.9085 126.319 70.0178 126.319Z" fill="#25314C"/>
<path d="M40.4037 127.099C41.7876 127.099 42.8024 126.077 42.8024 124.686C42.8024 123.278 41.8231 122.245 40.4888 122.245C39.9991 122.245 39.5236 122.419 39.2256 122.657H39.183L39.4385 120.513H42.476V119.733H38.7004L38.2604 123.31L39.0836 123.409C39.3852 123.192 39.8998 123.036 40.3469 123.04C41.273 123.047 41.9508 123.75 41.9508 124.701C41.9508 125.634 41.2979 126.319 40.4037 126.319C39.6585 126.319 39.0659 125.84 38.9984 125.183H38.1468C38.2 126.29 39.1546 127.099 40.4037 127.099Z" fill="#25314C"/>
<path d="M9.7964 125.51H13.2171V127H14.0546V125.51H15.0482V124.729H14.0546V119.733H12.99L9.7964 124.786V125.51ZM13.2171 124.729H10.7474V124.672L13.1604 120.854H13.2171V124.729Z" fill="#25314C"/>
<path d="M180.697 99H185.282V98.2193H181.904V98.1626L183.536 96.4167C184.785 95.0789 185.154 94.4544 185.154 93.6489C185.154 92.5275 184.246 91.6333 182.968 91.6333C181.695 91.6333 180.726 92.4992 180.726 93.7766H181.563C181.563 92.9498 182.099 92.3998 182.94 92.3998C183.728 92.3998 184.331 92.8824 184.331 93.6489C184.331 94.3195 183.937 94.8163 183.096 95.7354L180.697 98.3613V99Z" fill="#25314C"/>
<path d="M155.405 91.7327H154.525L152.708 92.9392V93.8334L154.482 92.6553H154.525V99H155.405V91.7327Z" fill="#25314C"/>
<path d="M178.906 29.425H179.957C179.942 28.4999 179.182 27.8611 178.026 27.8611C176.888 27.8611 176.054 28.4897 176.059 29.4326C176.057 30.1981 176.596 30.6366 177.473 30.8469L178.039 30.9889C178.604 31.1258 178.918 31.288 178.921 31.6377C178.918 32.0179 178.558 32.2765 178.001 32.2765C177.43 32.2765 177.02 32.0129 176.984 31.4933H175.922C175.95 32.6161 176.754 33.1966 178.013 33.1966C179.281 33.1966 180.026 32.5908 180.028 31.6403C180.026 30.776 179.374 30.3172 178.472 30.1144L178.006 30.0029C177.555 29.899 177.177 29.7317 177.185 29.3591C177.185 29.0245 177.481 28.7787 178.018 28.7787C178.543 28.7787 178.865 29.0169 178.906 29.425ZM182.613 33.123L182.999 31.9394H184.872L185.257 33.123H186.433L184.644 27.9321H183.229L181.437 33.123H182.613ZM183.278 31.0827L183.916 29.1183H183.957L184.596 31.0827H183.278ZM187.29 28.837H188.879V33.123H189.964V28.837H191.553V27.9321H187.29V28.837Z" fill="#02A1FE"/>
<path d="M149.122 33.123H150.219V30.9787H152.33V30.0739H150.219V28.837H152.559V27.9321H149.122V33.123ZM154.367 33.123H155.465V31.2829H156.266L157.249 33.123H158.461L157.358 31.1055C157.949 30.852 158.276 30.3375 158.276 29.6278C158.276 28.5962 157.594 27.9321 156.415 27.9321H154.367V33.123ZM155.465 30.4008V28.8294H156.205C156.839 28.8294 157.145 29.1107 157.145 29.6278C157.145 30.1423 156.839 30.4008 156.21 30.4008H155.465ZM161.22 27.9321H160.122V33.123H161.22V27.9321Z" fill="#02A1FE"/>
<path d="M118.154 28.837H119.743V33.123H120.828V28.837H122.417V27.9321H118.154V28.837ZM124.19 33.123H125.287V30.9787H127.515V33.123H128.61V27.9321H127.515V30.0739H125.287V27.9321H124.19V33.123ZM133.792 27.9321V31.2094C133.792 31.8025 133.376 32.2309 132.738 32.2309C132.101 32.2309 131.683 31.8025 131.683 31.2094V27.9321H130.586V31.3032C130.586 32.4387 131.442 33.1966 132.738 33.1966C134.028 33.1966 134.889 32.4387 134.889 31.3032V27.9321H133.792Z" fill="#02A1FE"/>
<path d="M90.1403 33.123H91.2099L92.1959 29.7292H92.2364L93.2249 33.123H94.2945L95.7798 27.9321H94.581L93.7217 31.5465H93.6761L92.7307 27.9321H91.7041L90.7562 31.5389H90.7131L89.8539 27.9321H88.655L90.1403 33.123ZM97.4379 33.123H100.946V32.2182H98.5354V30.9787H100.756V30.0739H98.5354V28.837H100.936V27.9321H97.4379V33.123ZM104.719 33.123C106.301 33.123 107.259 32.1447 107.259 30.5225C107.259 28.9054 106.301 27.9321 104.734 27.9321H102.879V33.123H104.719ZM103.976 32.1827V28.8725H104.676C105.649 28.8725 106.164 29.3692 106.164 30.5225C106.164 31.6808 105.649 32.1827 104.673 32.1827H103.976Z" fill="#02A1FE"/>
<path d="M61.5308 28.837H63.1201V33.123H64.2049V28.837H65.7941V27.9321H61.5308V28.837ZM70.7732 27.9321V31.2094C70.7732 31.8025 70.3575 32.2309 69.7187 32.2309C69.0825 32.2309 68.6643 31.8025 68.6643 31.2094V27.9321H67.5668V31.3032C67.5668 32.4387 68.4235 33.1966 69.7187 33.1966C71.0089 33.1966 71.8706 32.4387 71.8706 31.3032V27.9321H70.7732ZM73.8442 33.123H77.3522V32.2182H74.9417V30.9787H77.1621V30.0739H74.9417V28.837H77.342V27.9321H73.8442V33.123Z" fill="#02A1FE"/>
<path d="M31.6693 27.9321V33.123H32.7339V29.7317H32.777L34.1203 33.0977H34.8452L36.1886 29.7444H36.2317V33.123H37.2962V27.9321H35.9427L34.5132 31.4198H34.4524L33.0228 27.9321H31.6693ZM44.0413 30.5276C44.0413 28.8294 42.9869 27.8611 41.6105 27.8611C40.2266 27.8611 39.1798 28.8294 39.1798 30.5276C39.1798 32.2182 40.2266 33.194 41.6105 33.194C42.9869 33.194 44.0413 32.2258 44.0413 30.5276ZM42.9286 30.5276C42.9286 31.6276 42.4064 32.2233 41.6105 32.2233C40.8121 32.2233 40.2925 31.6276 40.2925 30.5276C40.2925 29.4275 40.8121 28.8319 41.6105 28.8319C42.4064 28.8319 42.9286 29.4275 42.9286 30.5276ZM50.2667 27.9321H49.1743V31.1967H49.1287L46.888 27.9321H45.9249V33.123H47.0224V29.8559H47.0604L49.3188 33.123H50.2667V27.9321Z" fill="#02A1FE"/>
<path d="M6.61543 29.4257H7.66731C7.6521 28.5006 6.89171 27.8619 5.73592 27.8619C4.59786 27.8619 3.76397 28.4905 3.76904 29.4333C3.7665 30.1988 4.30638 30.6373 5.18336 30.8477L5.74859 30.9896C6.31381 31.1265 6.62811 31.2887 6.63064 31.6385C6.62811 32.0187 6.26819 32.2772 5.71057 32.2772C5.14027 32.2772 4.72966 32.0136 4.69418 31.494H3.63217C3.66005 32.6169 4.46353 33.1973 5.72324 33.1973C6.99056 33.1973 7.73574 32.5915 7.73828 31.641C7.73574 30.7767 7.08434 30.3179 6.18201 30.1152L5.71564 30.0036C5.26447 29.8997 4.88681 29.7324 4.89442 29.3598C4.89442 29.0253 5.19097 28.7794 5.72831 28.7794C6.25298 28.7794 6.57488 29.0177 6.61543 29.4257ZM12.7534 27.9328V31.2101C12.7534 31.8032 12.3378 32.2316 11.699 32.2316C11.0628 32.2316 10.6446 31.8032 10.6446 31.2101V27.9328H9.54712V31.3039C9.54712 32.4394 10.4038 33.1973 11.699 33.1973C12.9892 33.1973 13.8509 32.4394 13.8509 31.3039V27.9328H12.7534ZM20.1664 27.9328H19.0739V31.1975H19.0283L16.7877 27.9328H15.8245V33.1238H16.922V29.8566H16.9601L19.2184 33.1238H20.1664V27.9328Z" fill="#02A1FE"/>
<path d="M6.22744 7.08314H7.91044C7.8861 5.60291 6.66948 4.58095 4.82021 4.58095C2.99932 4.58095 1.66509 5.58669 1.6732 7.09531C1.66914 8.32004 2.53295 9.02163 3.93612 9.35823L4.84048 9.58534C5.74484 9.80433 6.24771 10.0639 6.25177 10.6235C6.24771 11.2318 5.67185 11.6455 4.77965 11.6455C3.86718 11.6455 3.2102 11.2237 3.15343 10.3924H1.45421C1.49882 12.1889 2.78439 13.1176 4.79993 13.1176C6.82764 13.1176 8.01993 12.1484 8.02399 10.6276C8.01993 9.24468 6.97769 8.51065 5.53396 8.18622L4.78776 8.00778C4.0659 7.8415 3.46164 7.57385 3.47381 6.9777C3.47381 6.44238 3.94829 6.04901 4.80804 6.04901C5.64751 6.04901 6.16255 6.43022 6.22744 7.08314ZM12.0971 13.1217C13.6382 13.1217 14.6764 12.3714 14.9197 11.2156L13.3219 11.1102C13.1475 11.5847 12.7014 11.832 12.1255 11.832C11.2617 11.832 10.7142 11.2602 10.7142 10.3315V10.3275H14.9562V9.85299C14.9562 7.73606 13.6747 6.68977 12.0282 6.68977C10.1951 6.68977 9.0069 7.99156 9.0069 9.91382C9.0069 11.8888 10.1789 13.1217 12.0971 13.1217ZM10.7142 9.25685C10.7507 8.54715 11.2901 7.97939 12.0566 7.97939C12.8068 7.97939 13.3259 8.5147 13.33 9.25685H10.7142ZM16.1693 15.3359H17.8969V12.0024H17.9496C18.1889 12.5215 18.712 13.1014 19.7178 13.1014C21.1372 13.1014 22.2443 11.978 22.2443 9.89355C22.2443 7.75229 21.0885 6.68977 19.7218 6.68977C18.6796 6.68977 18.1807 7.31024 17.9496 7.81717H17.8725V6.77087H16.1693V15.3359ZM17.8604 9.88544C17.8604 8.77425 18.3308 8.06455 19.1703 8.06455C20.026 8.06455 20.4802 8.80669 20.4802 9.88544C20.4802 10.9723 20.0179 11.7266 19.1703 11.7266C18.3389 11.7266 17.8604 10.9966 17.8604 9.88544ZM26.7949 6.77087H25.6229V5.27848H23.8953V6.77087H23.0437V8.06861H23.8953V11.3129C23.8872 12.5336 24.7186 13.1379 25.9717 13.0852C26.4178 13.0689 26.7341 12.9797 26.9085 12.9229L26.6368 11.6374C26.5516 11.6536 26.3691 11.6942 26.2069 11.6942C25.8622 11.6942 25.6229 11.5644 25.6229 11.0858V8.06861H26.7949V6.77087ZM30.7779 13.1217C32.3189 13.1217 33.3571 12.3714 33.6004 11.2156L32.0026 11.1102C31.8282 11.5847 31.3821 11.832 30.8062 11.832C29.9424 11.832 29.395 11.2602 29.395 10.3315V10.3275H33.6369V9.85299C33.6369 7.73606 32.3554 6.68977 30.7089 6.68977C28.8759 6.68977 27.6876 7.99156 27.6876 9.91382C27.6876 11.8888 28.8596 13.1217 30.7779 13.1217ZM29.395 9.25685C29.4315 8.54715 29.9708 7.97939 30.7373 7.97939C31.4876 7.97939 32.0067 8.5147 32.0107 9.25685H29.395ZM34.85 13H36.5776V9.2609C36.5776 8.57148 37.0156 8.11322 37.5915 8.11322C38.1592 8.11322 38.5404 8.50254 38.5404 9.11491V13H40.2153V9.19602C40.2153 8.5512 40.5844 8.11322 41.2129 8.11322C41.7645 8.11322 42.1781 8.45793 42.1781 9.15141V13H43.9017V8.81075C43.9017 7.46029 43.0987 6.68977 41.9389 6.68977C41.0264 6.68977 40.3167 7.15614 40.0612 7.86989H39.9963C39.7976 7.14803 39.1609 6.68977 38.3052 6.68977C37.4657 6.68977 36.829 7.13586 36.5695 7.86989H36.4965V6.77087H34.85V13ZM45.3844 13H47.0877V12.0024H47.1648C47.404 12.5215 47.9272 13.1014 48.9329 13.1014C50.3523 13.1014 51.4595 11.978 51.4595 9.89355C51.4595 7.75229 50.3037 6.68977 48.937 6.68977C47.8947 6.68977 47.3959 7.31024 47.1648 7.81717H47.112V4.6945H45.3844V13ZM47.0755 9.88544C47.0755 8.77425 47.546 8.06455 48.3854 8.06455C49.2411 8.06455 49.6953 8.80669 49.6953 9.88544C49.6953 10.9723 49.233 11.7266 48.3854 11.7266C47.5541 11.7266 47.0755 10.9966 47.0755 9.88544ZM55.5367 13.1217C57.0777 13.1217 58.1159 12.3714 58.3592 11.2156L56.7614 11.1102C56.587 11.5847 56.1409 11.832 55.565 11.832C54.7012 11.832 54.1538 11.2602 54.1538 10.3315V10.3275H58.3957V9.85299C58.3957 7.73606 57.1142 6.68977 55.4677 6.68977C53.6347 6.68977 52.4464 7.99156 52.4464 9.91382C52.4464 11.8888 53.6184 13.1217 55.5367 13.1217ZM54.1538 9.25685C54.1903 8.54715 54.7296 7.97939 55.4961 7.97939C56.2463 7.97939 56.7654 8.5147 56.7695 9.25685H54.1538ZM59.6088 13H61.3364V9.47584C61.3364 8.70936 61.896 8.18216 62.6585 8.18216C62.8977 8.18216 63.2262 8.22271 63.3884 8.27543V6.74249C63.2343 6.70599 63.0194 6.68165 62.845 6.68165C62.1475 6.68165 61.5757 7.0872 61.3486 7.85773H61.2837V6.77087H59.6088V13ZM70.9771 8.90402H67.1893V10.2748H70.9771V8.90402ZM82.9284 8.84725C82.9284 6.13012 81.2413 4.58095 79.0392 4.58095C76.825 4.58095 75.1501 6.13012 75.1501 8.84725C75.1501 11.5522 76.825 13.1136 79.0392 13.1136C81.2413 13.1136 82.9284 11.5644 82.9284 8.84725ZM81.1481 8.84725C81.1481 10.6073 80.3126 11.5603 79.0392 11.5603C77.7618 11.5603 76.9304 10.6073 76.9304 8.84725C76.9304 7.0872 77.7618 6.13417 79.0392 6.13417C80.3126 6.13417 81.1481 7.0872 81.1481 8.84725ZM87.0968 13.1217C88.7555 13.1217 89.7977 12.1484 89.8788 10.7168H88.2486C88.1472 11.3819 87.7092 11.755 87.1171 11.755C86.3101 11.755 85.7869 11.0777 85.7869 9.88544C85.7869 8.70936 86.3141 8.03616 87.1171 8.03616C87.7497 8.03616 88.1553 8.45387 88.2486 9.07435H89.8788C89.8058 7.63468 88.7149 6.68977 87.0887 6.68977C85.1989 6.68977 84.0309 7.99967 84.0309 9.90977C84.0309 11.8037 85.1786 13.1217 87.0968 13.1217ZM94.3839 6.77087H93.2119V5.27848H91.4843V6.77087H90.6326V8.06861H91.4843V11.3129C91.4762 12.5336 92.3075 13.1379 93.5606 13.0852C94.0067 13.0689 94.3231 12.9797 94.4974 12.9229L94.2257 11.6374C94.1406 11.6536 93.9581 11.6942 93.7959 11.6942C93.4511 11.6942 93.2119 11.5644 93.2119 11.0858V8.06861H94.3839V6.77087ZM98.3425 13.1217C100.232 13.1217 101.408 11.828 101.408 9.90977C101.408 7.97939 100.232 6.68977 98.3425 6.68977C96.4526 6.68977 95.2766 7.97939 95.2766 9.90977C95.2766 11.828 96.4526 13.1217 98.3425 13.1217ZM98.3506 11.7834C97.4787 11.7834 97.0326 10.9845 97.0326 9.8976C97.0326 8.81075 97.4787 8.00778 98.3506 8.00778C99.2063 8.00778 99.6524 8.81075 99.6524 9.8976C99.6524 10.9845 99.2063 11.7834 98.3506 11.7834ZM102.65 13H104.353V12.0024H104.43C104.669 12.5215 105.193 13.1014 106.198 13.1014C107.618 13.1014 108.725 11.978 108.725 9.89355C108.725 7.75229 107.569 6.68977 106.202 6.68977C105.16 6.68977 104.661 7.31024 104.43 7.81717H104.377V4.6945H102.65V13ZM104.341 9.88544C104.341 8.77425 104.811 8.06455 105.651 8.06455C106.507 8.06455 106.961 8.80669 106.961 9.88544C106.961 10.9723 106.498 11.7266 105.651 11.7266C104.819 11.7266 104.341 10.9966 104.341 9.88544ZM112.802 13.1217C114.343 13.1217 115.381 12.3714 115.625 11.2156L114.027 11.1102C113.852 11.5847 113.406 11.832 112.83 11.832C111.967 11.832 111.419 11.2602 111.419 10.3315V10.3275H115.661V9.85299C115.661 7.73606 114.38 6.68977 112.733 6.68977C110.9 6.68977 109.712 7.99156 109.712 9.91382C109.712 11.8888 110.884 13.1217 112.802 13.1217ZM111.419 9.25685C111.456 8.54715 111.995 7.97939 112.761 7.97939C113.512 7.97939 114.031 8.5147 114.035 9.25685H111.419ZM116.874 13H118.602V9.47584C118.602 8.70936 119.161 8.18216 119.924 8.18216C120.163 8.18216 120.492 8.22271 120.654 8.27543V6.74249C120.5 6.70599 120.285 6.68165 120.11 6.68165C119.413 6.68165 118.841 7.0872 118.614 7.85773H118.549V6.77087H116.874V13Z" fill="#25314C"/>
<path d="M3 46.145H194V45.745H3V46.145Z" fill="url(#paint0_linear_708:214)"/>
<rect x="7" y="149" width="9" height="9" rx="1" fill="#8AC9EF"/>
<rect x="101" y="149" width="9" height="9" rx="1" fill="#FF9E9E"/>
<path d="M30.496 153.366C30.496 151.067 29.1476 149.633 27.2882 149.633C25.4287 149.633 24.0803 151.067 24.0803 153.366C24.0803 155.666 25.4287 157.099 27.2882 157.099C29.1476 157.099 30.496 155.666 30.496 153.366ZM29.6444 153.366C29.6444 155.254 28.6082 156.276 27.2882 156.276C25.9681 156.276 24.932 155.254 24.932 153.366C24.932 151.479 25.9681 150.457 27.2882 150.457C28.6082 150.457 29.6444 151.479 29.6444 153.366ZM32.0192 157H32.8566V153.551C32.8566 152.813 33.4386 152.273 34.2335 152.273C34.457 152.273 34.6877 152.316 34.7444 152.33V151.479C34.6486 151.471 34.4286 151.464 34.3044 151.464C33.6515 151.464 33.0837 151.833 32.885 152.373H32.8282V151.55H32.0192V157ZM37.7864 157.114C38.8367 157.114 39.1916 156.461 39.3761 156.163H39.4755V157H40.2845V149.733H39.4471V152.415H39.3761C39.1916 152.131 38.8651 151.479 37.8006 151.479C36.4238 151.479 35.4728 152.571 35.4728 154.289C35.4728 156.021 36.4238 157.114 37.7864 157.114ZM37.8999 156.361C36.8496 156.361 36.3102 155.439 36.3102 154.275C36.3102 153.125 36.8354 152.231 37.8999 152.231C38.9219 152.231 39.4613 153.054 39.4613 154.275C39.4613 155.51 38.9077 156.361 37.8999 156.361ZM44.3768 157.114C45.484 157.114 46.293 156.56 46.5485 155.737L45.7395 155.51C45.5265 156.077 45.0333 156.361 44.3768 156.361C43.3939 156.361 42.7161 155.726 42.6771 154.559H46.6337V154.204C46.6337 152.174 45.4272 151.479 44.2917 151.479C42.8155 151.479 41.8361 152.642 41.8361 154.317C41.8361 155.992 42.8013 157.114 44.3768 157.114ZM42.6771 153.835C42.7339 152.987 43.3336 152.231 44.2917 152.231C45.2001 152.231 45.782 152.912 45.782 153.835H42.6771ZM48.0646 157H48.9021V153.551C48.9021 152.813 49.484 152.273 50.2789 152.273C50.5024 152.273 50.7331 152.316 50.7899 152.33V151.479C50.694 151.471 50.474 151.464 50.3498 151.464C49.6969 151.464 49.1292 151.833 48.9304 152.373H48.8737V151.55H48.0646V157ZM57.1922 157.114C58.2994 157.114 59.1084 156.56 59.3639 155.737L58.5549 155.51C58.3419 156.077 57.8487 156.361 57.1922 156.361C56.2093 156.361 55.5315 155.726 55.4925 154.559H59.4491V154.204C59.4491 152.174 58.2426 151.479 57.1071 151.479C55.6309 151.479 54.6515 152.642 54.6515 154.317C54.6515 155.992 55.6167 157.114 57.1922 157.114ZM55.4925 153.835C55.5493 152.987 56.149 152.231 57.1071 152.231C58.0155 152.231 58.5974 152.912 58.5974 153.835H55.4925ZM61.7175 153.721C61.7175 152.77 62.3065 152.231 63.1085 152.231C63.8856 152.231 64.3575 152.738 64.3575 153.593V157H65.195V153.537C65.195 152.146 64.4533 151.479 63.3498 151.479C62.5265 151.479 62.0155 151.848 61.76 152.401H61.6891V151.55H60.88V157H61.7175V153.721ZM69.2527 151.55H68.0888V150.244H67.2513V151.55H66.4281V152.259H67.2513V155.666C67.2513 156.617 68.0178 157.071 68.7275 157.071C69.0398 157.071 69.2385 157.014 69.352 156.972L69.1817 156.219C69.1107 156.234 68.9972 156.262 68.8127 156.262C68.4436 156.262 68.0888 156.148 68.0888 155.439V152.259H69.2527V151.55ZM70.6694 157H71.5069V153.551C71.5069 152.813 72.0888 152.273 72.8837 152.273C73.1072 152.273 73.3379 152.316 73.3947 152.33V151.479C73.2989 151.471 73.0789 151.464 72.9547 151.464C72.3017 151.464 71.734 151.833 71.5353 152.373H71.4785V151.55H70.6694V157ZM75.2496 159.044C76.0055 159.044 76.5378 158.643 76.8536 157.795L79.1743 151.564L78.2588 151.55L76.7542 155.893H76.6974L75.1929 151.55H74.2845L76.3 157.028L76.1439 157.454C75.8387 158.285 75.4626 158.363 74.8522 158.206L74.6393 158.945C74.7245 158.987 74.9658 159.044 75.2496 159.044Z" fill="black"/>
<path d="M120.178 157L120.909 154.942H123.847L124.578 157H125.501L122.832 149.733H121.924L119.255 157H120.178ZM121.186 154.161L122.35 150.882H122.407L123.57 154.161H121.186ZM130.537 152.77C130.274 151.997 129.685 151.479 128.607 151.479C127.457 151.479 126.605 152.131 126.605 153.054C126.605 153.806 127.052 154.31 128.053 154.544L128.962 154.757C129.512 154.885 129.771 155.148 129.771 155.524C129.771 155.992 129.274 156.375 128.493 156.375C127.808 156.375 127.379 156.081 127.23 155.495L126.435 155.694C126.63 156.62 127.393 157.114 128.507 157.114C129.774 157.114 130.636 156.422 130.636 155.481C130.636 154.722 130.161 154.243 129.189 154.005L128.38 153.806C127.734 153.647 127.443 153.43 127.443 153.011C127.443 152.543 127.94 152.202 128.607 152.202C129.338 152.202 129.639 152.607 129.785 152.983L130.537 152.77ZM134.268 157.114C135.475 157.114 136.27 156.375 136.412 155.41H135.574C135.418 156.006 134.921 156.361 134.268 156.361C133.275 156.361 132.636 155.538 132.636 154.275C132.636 153.04 133.289 152.231 134.268 152.231C135.006 152.231 135.446 152.685 135.574 153.182H136.412C136.27 152.16 135.404 151.479 134.254 151.479C132.778 151.479 131.799 152.642 131.799 154.303C131.799 155.935 132.735 157.114 134.268 157.114ZM140.078 157.114C141.185 157.114 141.994 156.56 142.25 155.737L141.441 155.51C141.228 156.077 140.735 156.361 140.078 156.361C139.095 156.361 138.417 155.726 138.378 154.559H142.335V154.204C142.335 152.174 141.128 151.479 139.993 151.479C138.517 151.479 137.537 152.642 137.537 154.317C137.537 155.992 138.503 157.114 140.078 157.114ZM138.378 153.835C138.435 152.987 139.035 152.231 139.993 152.231C140.901 152.231 141.483 152.912 141.483 153.835H138.378ZM144.603 153.721C144.603 152.77 145.192 152.231 145.994 152.231C146.771 152.231 147.243 152.738 147.243 153.593V157H148.081V153.537C148.081 152.146 147.339 151.479 146.236 151.479C145.412 151.479 144.901 151.848 144.646 152.401H144.575V151.55H143.766V157H144.603V153.721ZM151.826 157.114C152.877 157.114 153.231 156.461 153.416 156.163H153.515V157H154.324V149.733H153.487V152.415H153.416C153.231 152.131 152.905 151.479 151.84 151.479C150.464 151.479 149.513 152.571 149.513 154.289C149.513 156.021 150.464 157.114 151.826 157.114ZM151.94 156.361C150.889 156.361 150.35 155.439 150.35 154.275C150.35 153.125 150.875 152.231 151.94 152.231C152.962 152.231 153.501 153.054 153.501 154.275C153.501 155.51 152.948 156.361 151.94 156.361ZM156.131 157H156.969V151.55H156.131V157ZM156.557 150.641C156.884 150.641 157.153 150.386 157.153 150.073C157.153 149.761 156.884 149.506 156.557 149.506C156.231 149.506 155.961 149.761 155.961 150.073C155.961 150.386 156.231 150.641 156.557 150.641ZM159.497 153.721C159.497 152.77 160.086 152.231 160.888 152.231C161.665 152.231 162.137 152.738 162.137 153.593V157H162.975V153.537C162.975 152.146 162.233 151.479 161.13 151.479C160.306 151.479 159.795 151.848 159.54 152.401H159.469V151.55H158.66V157H159.497V153.721ZM166.862 159.157C168.168 159.157 169.218 158.561 169.218 157.156V151.55H168.409V152.415H168.324C168.14 152.131 167.799 151.479 166.734 151.479C165.358 151.479 164.407 152.571 164.407 154.246C164.407 155.95 165.4 156.915 166.72 156.915C167.785 156.915 168.125 156.29 168.31 155.992H168.381V157.099C168.381 158.008 167.742 158.419 166.862 158.419C165.872 158.419 165.524 157.898 165.301 157.596L164.634 158.065C164.974 158.636 165.645 159.157 166.862 159.157ZM166.834 156.163C165.783 156.163 165.244 155.368 165.244 154.232C165.244 153.125 165.769 152.231 166.834 152.231C167.856 152.231 168.395 153.054 168.395 154.232C168.395 155.439 167.842 156.163 166.834 156.163Z" fill="black"/>
<defs>
<linearGradient id="paint0_linear_708:214" x1="2.99998" y1="46.7716" x2="77.3213" y2="-114.239" gradientUnits="userSpaceOnUse">
<stop stop-color="#41D4C7"/>
<stop offset="1" stop-color="#02A1FE"/>
</linearGradient>
</defs>
</svg>
