<svg width="197" height="268" viewBox="0 0 197 268" fill="none" xmlns="http://www.w3.org/2000/svg">
<path d="M150.712 76.4045C150.712 74.7063 149.657 73.7381 148.281 73.7381C146.897 73.7381 145.85 74.7063 145.85 76.4045C145.85 78.0951 146.897 79.071 148.281 79.071C149.657 79.071 150.712 78.1027 150.712 76.4045ZM149.599 76.4045C149.599 77.5046 149.077 78.1002 148.281 78.1002C147.483 78.1002 146.963 77.5046 146.963 76.4045C146.963 75.3045 147.483 74.7089 148.281 74.7089C149.077 74.7089 149.599 75.3045 149.599 76.4045ZM157.176 75.6264C157.031 74.4275 156.124 73.7381 154.922 73.7381C153.551 73.7381 152.504 74.7063 152.504 76.4045C152.504 78.0977 153.533 79.071 154.922 79.071C156.253 79.071 157.056 78.1864 157.176 77.2308L156.065 77.2258C155.961 77.7808 155.525 78.1002 154.94 78.1002C154.152 78.1002 153.617 77.5147 153.617 76.4045C153.617 75.3248 154.144 74.7089 154.948 74.7089C155.548 74.7089 155.982 75.0561 156.065 75.6264H157.176ZM158.835 74.7139H160.425V79H161.51V74.7139H163.099V73.8091H158.835V74.7139Z" fill="#25314C"/>
<path opacity="0.5" d="M6.78225 43.302H7.83412C7.81891 42.3768 7.05852 41.7381 5.90273 41.7381C4.76468 41.7381 3.93078 42.3667 3.93585 43.3096C3.93331 44.075 4.47319 44.5135 5.35018 44.7239L5.9154 44.8658C6.48063 45.0027 6.79492 45.1649 6.79746 45.5147C6.79492 45.8949 6.435 46.1534 5.87738 46.1534C5.30709 46.1534 4.89648 45.8898 4.86099 45.3702H3.79898C3.82686 46.4931 4.63034 47.0735 5.89005 47.0735C7.15737 47.0735 7.90256 46.4677 7.90509 45.5172C7.90256 44.6529 7.25116 44.1942 6.34882 43.9914L5.88245 43.8799C5.43129 43.7759 5.05362 43.6087 5.06123 43.2361C5.06123 42.9015 5.35778 42.6556 5.89512 42.6556C6.41979 42.6556 6.74169 42.8939 6.78225 43.302ZM9.71394 47H13.2219V46.0951H10.8114V44.8557H13.0318V43.9508H10.8114V42.7139H13.2117V41.8091H9.71394V47ZM15.1549 47H16.2524V45.317H17.175C18.3688 45.317 19.0633 44.6048 19.0633 43.5681C19.0633 42.5365 18.3815 41.8091 17.2029 41.8091H15.1549V47ZM16.2524 44.4375V42.7063H16.9925C17.6262 42.7063 17.9329 43.051 17.9329 43.5681C17.9329 44.0826 17.6262 44.4375 16.9976 44.4375H16.2524Z" fill="#25314C"/>
<path d="M177.905 24.302H178.957C178.942 23.3768 178.182 22.7381 177.026 22.7381C175.888 22.7381 175.054 23.3667 175.059 24.3096C175.057 25.075 175.596 25.5135 176.473 25.7239L177.039 25.8658C177.604 26.0027 177.918 26.1649 177.921 26.5147C177.918 26.8949 177.558 27.1534 177.001 27.1534C176.43 27.1534 176.02 26.8898 175.984 26.3702H174.922C174.95 27.4931 175.754 28.0735 177.013 28.0735C178.281 28.0735 179.026 27.4677 179.028 26.5172C179.026 25.6529 178.374 25.1942 177.472 24.9914L177.006 24.8799C176.555 24.7759 176.177 24.6087 176.184 24.2361C176.184 23.9015 176.481 23.6556 177.018 23.6556C177.543 23.6556 177.865 23.8939 177.905 24.302ZM181.613 28L181.999 26.8163H183.872L184.257 28H185.433L183.644 22.8091H182.229L180.437 28H181.613ZM182.277 25.9596L182.916 23.9953H182.957L183.595 25.9596H182.277ZM186.29 23.7139H187.879V28H188.964V23.7139H190.553V22.8091H186.29V23.7139Z" fill="#02A1FE"/>
<path d="M148.122 28H149.219V25.8557H151.33V24.9508H149.219V23.7139H151.559V22.8091H148.122V28ZM153.367 28H154.465V26.1599H155.266L156.249 28H157.461L156.358 25.9824C156.949 25.729 157.276 25.2144 157.276 24.5047C157.276 23.4731 156.594 22.8091 155.415 22.8091H153.367V28ZM154.465 25.2778V23.7063H155.205C155.839 23.7063 156.145 23.9877 156.145 24.5047C156.145 25.0193 155.839 25.2778 155.21 25.2778H154.465ZM160.22 22.8091H159.122V28H160.22V22.8091Z" fill="#02A1FE"/>
<path d="M117.154 23.7139H118.743V28H119.828V23.7139H121.417V22.8091H117.154V23.7139ZM123.19 28H124.287V25.8557H126.515V28H127.61V22.8091H126.515V24.9508H124.287V22.8091H123.19V28ZM132.792 22.8091V26.0863C132.792 26.6795 132.376 27.1078 131.737 27.1078C131.101 27.1078 130.683 26.6795 130.683 26.0863V22.8091H129.586V26.1801C129.586 27.3156 130.442 28.0735 131.737 28.0735C133.028 28.0735 133.889 27.3156 133.889 26.1801V22.8091H132.792Z" fill="#02A1FE"/>
<path d="M89.1403 28H90.2099L91.1959 24.6061H91.2364L92.2249 28H93.2945L94.7798 22.8091H93.581L92.7217 26.4235H92.6761L91.7307 22.8091H90.7041L89.7562 26.4159H89.7131L88.8539 22.8091H87.655L89.1403 28ZM96.4379 28H99.9458V27.0951H97.5354V25.8557H99.7557V24.9508H97.5354V23.7139H99.9357V22.8091H96.4379V28ZM103.719 28C105.301 28 106.259 27.0216 106.259 25.3995C106.259 23.7824 105.301 22.8091 103.734 22.8091H101.879V28H103.719ZM102.976 27.0596V23.7494H103.676C104.649 23.7494 105.164 24.2462 105.164 25.3995C105.164 26.5578 104.649 27.0596 103.673 27.0596H102.976Z" fill="#02A1FE"/>
<path d="M60.5308 23.7139H62.1201V28H63.2049V23.7139H64.7941V22.8091H60.5308V23.7139ZM69.7732 22.8091V26.0863C69.7732 26.6795 69.3575 27.1078 68.7187 27.1078C68.0825 27.1078 67.6643 26.6795 67.6643 26.0863V22.8091H66.5668V26.1801C66.5668 27.3156 67.4235 28.0735 68.7187 28.0735C70.0089 28.0735 70.8706 27.3156 70.8706 26.1801V22.8091H69.7732ZM72.8442 28H76.3522V27.0951H73.9417V25.8557H76.1621V24.9508H73.9417V23.7139H76.342V22.8091H72.8442V28Z" fill="#02A1FE"/>
<path d="M30.6693 22.8091V28H31.7338V24.6087H31.7769L33.1203 27.9747H33.8452L35.1885 24.6213H35.2316V28H36.2962V22.8091H34.9427L33.5131 26.2967H33.4523L32.0228 22.8091H30.6693ZM43.0412 25.4045C43.0412 23.7063 41.9868 22.7381 40.6105 22.7381C39.2266 22.7381 38.1798 23.7063 38.1798 25.4045C38.1798 27.0951 39.2266 28.071 40.6105 28.071C41.9868 28.071 43.0412 27.1027 43.0412 25.4045ZM41.9285 25.4045C41.9285 26.5046 41.4064 27.1002 40.6105 27.1002C39.8121 27.1002 39.2925 26.5046 39.2925 25.4045C39.2925 24.3045 39.8121 23.7089 40.6105 23.7089C41.4064 23.7089 41.9285 24.3045 41.9285 25.4045ZM49.2667 22.8091H48.1742V26.0737H48.1286L45.888 22.8091H44.9248V28H46.0223V24.7329H46.0603L48.3187 28H49.2667V22.8091Z" fill="#02A1FE"/>
<path d="M6.05037 24.3027H7.10225C7.08704 23.3776 6.32665 22.7388 5.17085 22.7388C4.0328 22.7388 3.1989 23.3674 3.20397 24.3103C3.20144 25.0758 3.74132 25.5143 4.6183 25.7246L5.18352 25.8666C5.74875 26.0034 6.06304 26.1657 6.06558 26.5154C6.06304 26.8956 5.70313 27.1542 5.14551 27.1542C4.57521 27.1542 4.1646 26.8906 4.12912 26.371H3.0671C3.09498 27.4938 3.89846 28.0742 5.15818 28.0742C6.4255 28.0742 7.17068 27.4685 7.17322 26.518C7.17068 25.6537 6.51928 25.1949 5.61695 24.9921L5.15057 24.8806C4.69941 24.7767 4.32175 24.6094 4.32935 24.2368C4.32935 23.9022 4.6259 23.6564 5.16325 23.6564C5.68792 23.6564 6.00982 23.8946 6.05037 24.3027ZM12.1884 22.8098V26.0871C12.1884 26.6802 11.7727 27.1085 11.134 27.1085C10.4978 27.1085 10.0796 26.6802 10.0796 26.0871V22.8098H8.98206V26.1809C8.98206 27.3164 9.83877 28.0742 11.134 28.0742C12.4241 28.0742 13.2859 27.3164 13.2859 26.1809V22.8098H12.1884ZM19.6013 22.8098H18.5089V26.0744H18.4633L16.2226 22.8098H15.2595V28.0007H16.357V24.7336H16.395L18.6534 28.0007H19.6013V22.8098Z" fill="#02A1FE"/>
<path d="M7.22744 7.08314H8.91044C8.8861 5.60291 7.66948 4.58095 5.82021 4.58095C3.99932 4.58095 2.66509 5.58669 2.6732 7.09531C2.66914 8.32004 3.53295 9.02163 4.93612 9.35823L5.84048 9.58534C6.74484 9.80433 7.24771 10.0639 7.25177 10.6235C7.24771 11.2318 6.67185 11.6455 5.77965 11.6455C4.86718 11.6455 4.2102 11.2237 4.15343 10.3924H2.45421C2.49882 12.1889 3.78439 13.1176 5.79993 13.1176C7.82764 13.1176 9.01993 12.1484 9.02399 10.6276C9.01993 9.24468 7.97769 8.51065 6.53396 8.18622L5.78776 8.00778C5.0659 7.8415 4.46164 7.57385 4.47381 6.9777C4.47381 6.44238 4.94829 6.04901 5.80804 6.04901C6.64751 6.04901 7.16255 6.43022 7.22744 7.08314ZM13.0971 13.1217C14.6382 13.1217 15.6764 12.3714 15.9197 11.2156L14.3219 11.1102C14.1475 11.5847 13.7014 11.832 13.1255 11.832C12.2617 11.832 11.7142 11.2602 11.7142 10.3315V10.3275H15.9562V9.85299C15.9562 7.73606 14.6747 6.68977 13.0282 6.68977C11.1951 6.68977 10.0069 7.99156 10.0069 9.91382C10.0069 11.8888 11.1789 13.1217 13.0971 13.1217ZM11.7142 9.25685C11.7507 8.54715 12.2901 7.97939 13.0566 7.97939C13.8068 7.97939 14.3259 8.5147 14.33 9.25685H11.7142ZM17.1693 15.3359H18.8969V12.0024H18.9496C19.1889 12.5215 19.712 13.1014 20.7178 13.1014C22.1372 13.1014 23.2443 11.978 23.2443 9.89355C23.2443 7.75229 22.0885 6.68977 20.7218 6.68977C19.6796 6.68977 19.1807 7.31024 18.9496 7.81717H18.8725V6.77087H17.1693V15.3359ZM18.8604 9.88544C18.8604 8.77425 19.3308 8.06455 20.1703 8.06455C21.026 8.06455 21.4802 8.80669 21.4802 9.88544C21.4802 10.9723 21.0179 11.7266 20.1703 11.7266C19.3389 11.7266 18.8604 10.9966 18.8604 9.88544ZM27.7949 6.77087H26.6229V5.27848H24.8953V6.77087H24.0437V8.06861H24.8953V11.3129C24.8872 12.5336 25.7186 13.1379 26.9717 13.0852C27.4178 13.0689 27.7341 12.9797 27.9085 12.9229L27.6368 11.6374C27.5516 11.6536 27.3691 11.6942 27.2069 11.6942C26.8622 11.6942 26.6229 11.5644 26.6229 11.0858V8.06861H27.7949V6.77087ZM31.7779 13.1217C33.3189 13.1217 34.3571 12.3714 34.6004 11.2156L33.0026 11.1102C32.8282 11.5847 32.3821 11.832 31.8062 11.832C30.9424 11.832 30.395 11.2602 30.395 10.3315V10.3275H34.6369V9.85299C34.6369 7.73606 33.3554 6.68977 31.7089 6.68977C29.8759 6.68977 28.6876 7.99156 28.6876 9.91382C28.6876 11.8888 29.8596 13.1217 31.7779 13.1217ZM30.395 9.25685C30.4315 8.54715 30.9708 7.97939 31.7373 7.97939C32.4876 7.97939 33.0067 8.5147 33.0107 9.25685H30.395ZM35.85 13H37.5776V9.2609C37.5776 8.57148 38.0156 8.11322 38.5915 8.11322C39.1592 8.11322 39.5404 8.50254 39.5404 9.11491V13H41.2153V9.19602C41.2153 8.5512 41.5844 8.11322 42.2129 8.11322C42.7645 8.11322 43.1781 8.45793 43.1781 9.15141V13H44.9017V8.81075C44.9017 7.46029 44.0987 6.68977 42.9389 6.68977C42.0264 6.68977 41.3167 7.15614 41.0612 7.86989H40.9963C40.7976 7.14803 40.1609 6.68977 39.3052 6.68977C38.4657 6.68977 37.829 7.13586 37.5695 7.86989H37.4965V6.77087H35.85V13ZM46.3844 13H48.0877V12.0024H48.1648C48.404 12.5215 48.9272 13.1014 49.9329 13.1014C51.3523 13.1014 52.4595 11.978 52.4595 9.89355C52.4595 7.75229 51.3037 6.68977 49.937 6.68977C48.8947 6.68977 48.3959 7.31024 48.1648 7.81717H48.112V4.6945H46.3844V13ZM48.0755 9.88544C48.0755 8.77425 48.546 8.06455 49.3854 8.06455C50.2411 8.06455 50.6953 8.80669 50.6953 9.88544C50.6953 10.9723 50.233 11.7266 49.3854 11.7266C48.5541 11.7266 48.0755 10.9966 48.0755 9.88544ZM56.5367 13.1217C58.0777 13.1217 59.1159 12.3714 59.3592 11.2156L57.7614 11.1102C57.587 11.5847 57.1409 11.832 56.565 11.832C55.7012 11.832 55.1538 11.2602 55.1538 10.3315V10.3275H59.3957V9.85299C59.3957 7.73606 58.1142 6.68977 56.4677 6.68977C54.6347 6.68977 53.4464 7.99156 53.4464 9.91382C53.4464 11.8888 54.6184 13.1217 56.5367 13.1217ZM55.1538 9.25685C55.1903 8.54715 55.7296 7.97939 56.4961 7.97939C57.2463 7.97939 57.7654 8.5147 57.7695 9.25685H55.1538ZM60.6088 13H62.3364V9.47584C62.3364 8.70936 62.896 8.18216 63.6585 8.18216C63.8977 8.18216 64.2262 8.22271 64.3884 8.27543V6.74249C64.2343 6.70599 64.0194 6.68165 63.845 6.68165C63.1475 6.68165 62.5757 7.0872 62.3486 7.85773H62.2837V6.77087H60.6088V13ZM71.9771 8.90402H68.1893V10.2748H71.9771V8.90402ZM83.243 4.6945H81.4951V9.91788H81.4221L77.8371 4.6945H76.2961V13H78.0521V7.77256H78.1129L81.7263 13H83.243V4.6945ZM87.5615 13.1217C89.4513 13.1217 90.6274 11.828 90.6274 9.90977C90.6274 7.97939 89.4513 6.68977 87.5615 6.68977C85.6717 6.68977 84.4956 7.97939 84.4956 9.90977C84.4956 11.828 85.6717 13.1217 87.5615 13.1217ZM87.5696 11.7834C86.6977 11.7834 86.2516 10.9845 86.2516 9.8976C86.2516 8.81075 86.6977 8.00778 87.5696 8.00778C88.4253 8.00778 88.8714 8.81075 88.8714 9.8976C88.8714 10.9845 88.4253 11.7834 87.5696 11.7834ZM97.4319 6.77087H95.6029L94.3133 11.2278H94.2484L92.9547 6.77087H91.1298L93.3075 13H95.2541L97.4319 6.77087ZM101.029 13.1217C102.57 13.1217 103.608 12.3714 103.851 11.2156L102.253 11.1102C102.079 11.5847 101.633 11.832 101.057 11.832C100.193 11.832 99.6456 11.2602 99.6456 10.3315V10.3275H103.888V9.85299C103.888 7.73606 102.606 6.68977 100.96 6.68977C99.1265 6.68977 97.9383 7.99156 97.9383 9.91382C97.9383 11.8888 99.1103 13.1217 101.029 13.1217ZM99.6456 9.25685C99.6821 8.54715 100.221 7.97939 100.988 7.97939C101.738 7.97939 102.257 8.5147 102.261 9.25685H99.6456ZM105.101 13H106.828V9.2609C106.828 8.57148 107.266 8.11322 107.842 8.11322C108.41 8.11322 108.791 8.50254 108.791 9.11491V13H110.466V9.19602C110.466 8.5512 110.835 8.11322 111.464 8.11322C112.015 8.11322 112.429 8.45793 112.429 9.15141V13H114.152V8.81075C114.152 7.46029 113.349 6.68977 112.19 6.68977C111.277 6.68977 110.567 7.15614 110.312 7.86989H110.247C110.048 7.14803 109.412 6.68977 108.556 6.68977C107.716 6.68977 107.08 7.13586 106.82 7.86989H106.747V6.77087H105.101V13ZM115.635 13H117.338V12.0024H117.415C117.655 12.5215 118.178 13.1014 119.184 13.1014C120.603 13.1014 121.71 11.978 121.71 9.89355C121.71 7.75229 120.554 6.68977 119.188 6.68977C118.145 6.68977 117.647 7.31024 117.415 7.81717H117.363V4.6945H115.635V13ZM117.326 9.88544C117.326 8.77425 117.797 8.06455 118.636 8.06455C119.492 8.06455 119.946 8.80669 119.946 9.88544C119.946 10.9723 119.484 11.7266 118.636 11.7266C117.805 11.7266 117.326 10.9966 117.326 9.88544ZM125.787 13.1217C127.328 13.1217 128.367 12.3714 128.61 11.2156L127.012 11.1102C126.838 11.5847 126.392 11.832 125.816 11.832C124.952 11.832 124.404 11.2602 124.404 10.3315V10.3275H128.646V9.85299C128.646 7.73606 127.365 6.68977 125.718 6.68977C123.885 6.68977 122.697 7.99156 122.697 9.91382C122.697 11.8888 123.869 13.1217 125.787 13.1217ZM124.404 9.25685C124.441 8.54715 124.98 7.97939 125.747 7.97939C126.497 7.97939 127.016 8.5147 127.02 9.25685H124.404ZM129.859 13H131.587V9.47584C131.587 8.70936 132.147 8.18216 132.909 8.18216C133.148 8.18216 133.477 8.22271 133.639 8.27543V6.74249C133.485 6.70599 133.27 6.68165 133.096 6.68165C132.398 6.68165 131.826 7.0872 131.599 7.85773H131.534V6.77087H129.859V13Z" fill="#25314C"/>
<rect x="26" y="43" width="171" height="23" rx="11.5" fill="#EDEDED"/>
<rect y="74" width="197" height="23" rx="11.5" fill="#EDEDED"/>
<rect y="133" width="197" height="23" rx="11.5" fill="#EDEDED"/>
<rect y="104" width="197" height="23" rx="11.5" fill="#EDEDED"/>
<rect y="163" width="197" height="23" rx="11.5" fill="#EDEDED"/>
<rect y="190" width="23" height="23" rx="11.5" fill="#EDEDED"/>
<rect x="0.5" y="218.5" width="22" height="22" rx="11" fill="#D6EEFF" stroke="#C2D8E8"/>
<rect x="27" y="216" width="167" height="24" rx="12" fill="#EDEDED"/>
<rect x="26.5" y="189.5" width="166" height="23" rx="11.5" fill="#D6EEFF" stroke="#C2D8E8"/>
<rect x="3" y="244" width="190" height="24" rx="12" fill="#EDEDED"/>
<path d="M63.0903 88.2974H67.675V87.5167H64.2968V87.4599L65.9291 85.7141C67.1782 84.3763 67.5472 83.7517 67.5472 82.9462C67.5472 81.8249 66.6388 80.9307 65.3614 80.9307C64.0874 80.9307 63.1187 81.7965 63.1187 83.074H63.9562C63.9562 82.2472 64.492 81.6972 65.333 81.6972C66.1207 81.6972 66.724 82.1798 66.724 82.9462C66.724 83.6169 66.3301 84.1137 65.4891 85.0327L63.0903 87.6586V88.2974ZM71.6253 88.3967C73.0767 88.3967 74.088 87.5486 74.0951 86.367C74.088 85.4479 73.4741 84.6673 72.6899 84.5218V84.4792C73.3712 84.3018 73.8183 83.6346 73.8254 82.8611C73.8183 81.7539 72.8886 80.9307 71.6253 80.9307C70.3479 80.9307 69.4182 81.7539 69.4253 82.8611C69.4182 83.6346 69.8653 84.3018 70.5608 84.4792V84.5218C69.7624 84.6673 69.1485 85.4479 69.1556 86.367C69.1485 87.5486 70.1598 88.3967 71.6253 88.3967ZM71.6253 87.6161C70.6282 87.6161 70.0143 87.1051 70.0214 86.3244C70.0143 85.5047 70.6921 84.9192 71.6253 84.9192C72.5444 84.9192 73.2222 85.5047 73.2293 86.3244C73.2222 87.1051 72.6083 87.6161 71.6253 87.6161ZM71.6253 84.1669C70.8305 84.1669 70.2698 83.6701 70.2769 82.9178C70.2698 82.1798 70.8092 81.6972 71.6253 81.6972C72.4273 81.6972 72.9667 82.1798 72.9738 82.9178C72.9667 83.6701 72.406 84.1669 71.6253 84.1669Z" fill="#25314C"/>
<path d="M34.7647 88.2974H39.3494V87.5167H35.9712V87.4599L37.6035 85.7141C38.8526 84.3763 39.2216 83.7517 39.2216 82.9462C39.2216 81.8249 38.3132 80.9307 37.0358 80.9307C35.7618 80.9307 34.7931 81.7965 34.7931 83.074H35.6305C35.6305 82.2472 36.1664 81.6972 37.0074 81.6972C37.7951 81.6972 38.3984 82.1798 38.3984 82.9462C38.3984 83.6169 38.0045 84.1137 37.1635 85.0327L34.7647 87.6586V88.2974ZM41.199 88.2974H42.1216L45.3579 81.8533V81.03H40.7022V81.8107H44.4494V81.8675L41.199 88.2974Z" fill="#25314C"/>
<path d="M122.796 88.3967C124.205 88.3967 125.251 87.5131 125.251 86.3244C125.251 85.4018 124.705 84.7311 123.789 84.5785V84.5218C124.524 84.2982 124.982 83.695 124.982 82.8753C124.982 81.8462 124.169 80.9307 122.824 80.9307C121.568 80.9307 120.525 81.7043 120.482 82.8469H121.334C121.366 82.123 122.054 81.6972 122.81 81.6972C123.612 81.6972 124.13 82.1833 124.13 82.9178C124.13 83.6843 123.53 84.1811 122.668 84.1811H122.086V84.9618H122.668C123.772 84.9618 124.386 85.5224 124.386 86.3244C124.386 87.0944 123.715 87.6161 122.782 87.6161C121.941 87.6161 121.273 87.1831 121.22 86.4805H120.326C120.379 87.6231 121.387 88.3967 122.796 88.3967ZM129.23 88.3967C130.834 88.3967 131.757 87.0376 131.757 84.6637C131.757 82.3075 130.82 80.9307 129.23 80.9307C127.64 80.9307 126.704 82.3075 126.704 84.6637C126.704 87.0376 127.626 88.3967 129.23 88.3967ZM129.23 87.6161C128.173 87.6161 127.555 86.5551 127.555 84.6637C127.555 82.7759 128.18 81.6972 129.23 81.6972C130.28 81.6972 130.905 82.7759 130.905 84.6637C130.905 86.5551 130.288 87.6161 129.23 87.6161Z" fill="#25314C"/>
<path d="M5.95095 88.2974H10.5356V87.5167H7.15743V87.4599L8.78974 85.7141C10.0388 84.3763 10.4079 83.7517 10.4079 82.9462C10.4079 81.8249 9.49944 80.9307 8.22198 80.9307C6.94807 80.9307 5.97933 81.7965 5.97933 83.074H6.81678C6.81678 82.2472 7.3526 81.6972 8.19359 81.6972C8.98136 81.6972 9.5846 82.1798 9.5846 82.9462C9.5846 83.6169 9.19072 84.1137 8.34973 85.0327L5.95095 87.6586V88.2974ZM14.5711 88.3967C16.0402 88.4145 16.9983 87.3073 16.9983 85.9554C16.9983 84.5502 15.9586 83.5424 14.7131 83.5424C13.9643 83.5424 13.3221 83.9079 12.9246 84.5076H12.8679C12.8714 82.7369 13.5598 81.7114 14.6847 81.7114C15.4512 81.7114 15.9125 82.194 16.0757 82.8469H16.9415C16.7641 81.7185 15.9054 80.9307 14.6847 80.9307C13.0488 80.9307 12.0446 82.3785 12.0446 84.9476C12.0446 87.6338 13.3788 88.3825 14.5711 88.3967ZM14.5711 87.6161C13.6592 87.6161 12.992 86.8389 12.9956 85.9696C12.9991 85.1002 13.6982 84.3231 14.5995 84.3231C15.4902 84.3231 16.1467 85.054 16.1467 85.9554C16.1467 86.878 15.4618 87.6161 14.5711 87.6161Z" fill="#25314C"/>
<path d="M91.9509 88.2974H96.5356V87.5167H93.1574V87.4599L94.7897 85.7141C96.0388 84.3763 96.4079 83.7517 96.4079 82.9462C96.4079 81.8249 95.4994 80.9307 94.222 80.9307C92.9481 80.9307 91.9793 81.7965 91.9793 83.074H92.8168C92.8168 82.2472 93.3526 81.6972 94.1936 81.6972C94.9814 81.6972 95.5846 82.1798 95.5846 82.9462C95.5846 83.6169 95.1907 84.1137 94.3497 85.0327L91.9509 87.6586V88.2974ZM100.472 80.9307C98.9956 80.9129 98.0446 82.0236 98.0446 83.3579C98.0446 84.7631 99.0808 85.7708 100.33 85.7708C101.082 85.7708 101.721 85.4018 102.118 84.8056H102.175C102.175 86.5941 101.48 87.6161 100.358 87.6161C99.5917 87.6161 99.1233 87.1335 98.9672 86.4663H98.1014C98.2717 87.6161 99.1375 88.3967 100.358 88.3967C101.991 88.3967 102.998 86.9489 102.998 84.3656C102.998 81.6972 101.664 80.9449 100.472 80.9307ZM100.472 81.7114C101.38 81.7114 102.047 82.492 102.047 83.3437C102.047 84.2095 101.338 84.9902 100.443 84.9902C99.5492 84.9902 98.8962 84.2663 98.8962 83.3579C98.8962 82.4494 99.5776 81.7114 100.472 81.7114Z" fill="#25314C"/>
<path d="M177.33 58.3198H181.915V57.5392H178.537V57.4824L180.169 55.7365C181.418 54.3987 181.787 53.7742 181.787 52.9687C181.787 51.8474 180.879 50.9532 179.601 50.9532C178.327 50.9532 177.358 51.819 177.358 53.0964H178.196C178.196 52.2696 178.732 51.7196 179.573 51.7196C180.36 51.7196 180.964 52.2022 180.964 52.9687C180.964 53.6394 180.57 54.1362 179.729 55.0552L177.33 57.6811V58.3198ZM185.808 58.4192C187.192 58.4192 188.207 57.3972 188.207 56.0062C188.207 54.5975 187.228 53.5648 185.893 53.5648C185.404 53.5648 184.928 53.7387 184.63 53.9765H184.588L184.843 51.8332H187.881V51.0525H184.105L183.665 54.6294L184.488 54.7287C184.79 54.5123 185.304 54.3562 185.752 54.3597C186.678 54.3668 187.355 55.0694 187.355 56.0204C187.355 56.9537 186.703 57.6385 185.808 57.6385C185.063 57.6385 184.47 57.1595 184.403 56.503H183.551C183.605 57.6101 184.559 58.4192 185.808 58.4192Z" fill="#25314C"/>
<path d="M148.692 58.3198H153.277V57.5392H149.898V57.4824L151.531 55.7365C152.78 54.3987 153.149 53.7742 153.149 52.9687C153.149 51.8474 152.24 50.9532 150.963 50.9532C149.689 50.9532 148.72 51.819 148.72 53.0964H149.558C149.558 52.2696 150.094 51.7196 150.935 51.7196C151.722 51.7196 152.326 52.2022 152.326 52.9687C152.326 53.6394 151.932 54.1362 151.091 55.0552L148.692 57.6811V58.3198ZM154.573 56.8295H157.993V58.3198H158.831V56.8295H159.824V56.0488H158.831V51.0525H157.766L154.573 56.1056V56.8295ZM157.993 56.0488H155.524V55.992L157.937 52.1738H157.993V56.0488Z" fill="#25314C"/>
<path d="M120.088 58.3198H124.673V57.5392H121.295V57.4824L122.927 55.7365C124.176 54.3987 124.545 53.7742 124.545 52.9687C124.545 51.8474 123.637 50.9532 122.359 50.9532C121.085 50.9532 120.117 51.819 120.117 53.0964H120.954C120.954 52.2696 121.49 51.7196 122.331 51.7196C123.119 51.7196 123.722 52.2022 123.722 52.9687C123.722 53.6394 123.328 54.1362 122.487 55.0552L120.088 57.6811V58.3198ZM128.751 58.4192C130.16 58.4192 131.207 57.5356 131.207 56.3469C131.207 55.4243 130.66 54.7536 129.745 54.601V54.5442C130.479 54.3207 130.937 53.7174 130.937 52.8977C130.937 51.8687 130.124 50.9532 128.779 50.9532C127.523 50.9532 126.48 51.7267 126.437 52.8693H127.289C127.321 52.1454 128.009 51.7196 128.765 51.7196C129.567 51.7196 130.085 52.2058 130.085 52.9403C130.085 53.7068 129.486 54.2036 128.623 54.2036H128.041V54.9842H128.623C129.727 54.9842 130.341 55.5449 130.341 56.3469C130.341 57.1169 129.67 57.6385 128.737 57.6385C127.896 57.6385 127.229 57.2056 127.175 56.503H126.281C126.335 57.6456 127.342 58.4192 128.751 58.4192Z" fill="#25314C"/>
<path d="M91.6942 58.3198H96.2788V57.5392H92.9007V57.4824L94.533 55.7365C95.782 54.3987 96.1511 53.7742 96.1511 52.9687C96.1511 51.8474 95.2427 50.9532 93.9652 50.9532C92.6913 50.9532 91.7226 51.819 91.7226 53.0964H92.56C92.56 52.2696 93.0958 51.7196 93.9368 51.7196C94.7246 51.7196 95.3278 52.2022 95.3278 52.9687C95.3278 53.6394 94.9339 54.1362 94.0929 55.0552L91.6942 57.6811V58.3198ZM97.9014 58.3198H102.486V57.5392H99.1079V57.4824L100.74 55.7365C101.989 54.3987 102.358 53.7742 102.358 52.9687C102.358 51.8474 101.45 50.9532 100.172 50.9532C98.8985 50.9532 97.9298 51.819 97.9298 53.0964H98.7672C98.7672 52.2696 99.303 51.7196 100.144 51.7196C100.932 51.7196 101.535 52.2022 101.535 52.9687C101.535 53.6394 101.141 54.1362 100.3 55.0552L97.9014 57.6811V58.3198Z" fill="#25314C"/>
<path d="M63.8465 58.3198H68.4312V57.5392H65.053V57.4824L66.6853 55.7365C67.9344 54.3987 68.3034 53.7742 68.3034 52.9687C68.3034 51.8474 67.395 50.9532 66.1176 50.9532C64.8437 50.9532 63.8749 51.819 63.8749 53.0964H64.7124C64.7124 52.2696 65.2482 51.7196 66.0892 51.7196C66.8769 51.7196 67.4802 52.2022 67.4802 52.9687C67.4802 53.6394 67.0863 54.1362 66.2453 55.0552L63.8465 57.6811V58.3198ZM72.6087 51.0525H71.7286L69.9118 52.259V53.1532L71.686 51.9751H71.7286V58.3198H72.6087V51.0525Z" fill="#25314C"/>
<path d="M34.4963 58.3198H39.081V57.5392H35.7028V57.4824L37.3351 55.7365C38.5842 54.3987 38.9532 53.7742 38.9532 52.9687C38.9532 51.8474 38.0448 50.9532 36.7673 50.9532C35.4934 50.9532 34.5247 51.819 34.5247 53.0964H35.3621C35.3621 52.2696 35.898 51.7196 36.7389 51.7196C37.5267 51.7196 38.13 52.2022 38.13 52.9687C38.13 53.6394 37.7361 54.1362 36.8951 55.0552L34.4963 57.6811V58.3198ZM43.0739 58.4192C44.6778 58.4192 45.6004 57.0601 45.6004 54.6862C45.6004 52.33 44.6636 50.9532 43.0739 50.9532C41.4842 50.9532 40.5474 52.33 40.5474 54.6862C40.5474 57.0601 41.47 58.4192 43.0739 58.4192ZM43.0739 57.6385C42.0164 57.6385 41.399 56.5775 41.399 54.6862C41.399 52.7984 42.0235 51.7196 43.0739 51.7196C44.1243 51.7196 44.7488 52.7984 44.7488 54.6862C44.7488 56.5775 44.1314 57.6385 43.0739 57.6385Z" fill="#25314C"/>
<path d="M9.20846 51.0525H8.32844L6.51161 52.259V53.1532L8.28586 51.9751H8.32844V58.3198H9.20846V51.0525ZM13.7692 50.9532C12.293 50.9354 11.342 52.0461 11.342 53.3803C11.342 54.7855 12.3782 55.7933 13.6272 55.7933C14.3795 55.7933 15.0182 55.4243 15.4157 54.8281H15.4724C15.4724 56.6165 14.7769 57.6385 13.6556 57.6385C12.8891 57.6385 12.4207 57.1559 12.2646 56.4888H11.3988C11.5691 57.6385 12.4349 58.4192 13.6556 58.4192C15.2879 58.4192 16.2957 56.9714 16.2957 54.3881C16.2957 51.7196 14.9615 50.9673 13.7692 50.9532ZM13.7692 51.7338C14.6776 51.7338 15.3447 52.5145 15.3447 53.3661C15.3447 54.232 14.635 55.0126 13.7408 55.0126C12.8466 55.0126 12.1936 54.2887 12.1936 53.3803C12.1936 52.4719 12.8749 51.7338 13.7692 51.7338Z" fill="#25314C"/>
<path d="M177.088 178.933H181.673V178.152H178.295V178.096L179.927 176.35C181.176 175.012 181.545 174.387 181.545 173.582C181.545 172.461 180.637 171.566 179.359 171.566C178.085 171.566 177.117 172.432 177.117 173.71H177.954C177.954 172.883 178.49 172.333 179.331 172.333C180.119 172.333 180.722 172.816 180.722 173.582C180.722 174.253 180.328 174.749 179.487 175.668L177.088 178.294V178.933ZM185.751 179.032C187.16 179.032 188.207 178.149 188.207 176.96C188.207 176.038 187.66 175.367 186.745 175.214V175.158C187.479 174.934 187.937 174.331 187.937 173.511C187.937 172.482 187.124 171.566 185.779 171.566C184.523 171.566 183.48 172.34 183.437 173.483H184.289C184.321 172.759 185.009 172.333 185.765 172.333C186.567 172.333 187.085 172.819 187.085 173.554C187.085 174.32 186.486 174.817 185.623 174.817H185.041V175.598H185.623C186.727 175.598 187.341 176.158 187.341 176.96C187.341 177.73 186.67 178.252 185.737 178.252C184.896 178.252 184.229 177.819 184.175 177.116H183.281C183.335 178.259 184.342 179.032 185.751 179.032Z" fill="#25314C"/>
<path d="M120.09 204.911H124.675V204.13H121.297V204.073L122.929 202.327C124.178 200.99 124.547 200.365 124.547 199.56C124.547 198.438 123.639 197.544 122.361 197.544C121.087 197.544 120.119 198.41 120.119 199.687H120.956C120.956 198.86 121.492 198.31 122.333 198.31C123.121 198.31 123.724 198.793 123.724 199.56C123.724 200.23 123.33 200.727 122.489 201.646L120.09 204.272V204.911ZM128.625 205.01C130.077 205.01 131.088 204.162 131.095 202.98C131.088 202.061 130.474 201.281 129.69 201.135V201.092C130.371 200.915 130.818 200.248 130.825 199.474C130.818 198.367 129.889 197.544 128.625 197.544C127.348 197.544 126.418 198.367 126.425 199.474C126.418 200.248 126.865 200.915 127.561 201.092V201.135C126.762 201.281 126.148 202.061 126.156 202.98C126.148 204.162 127.16 205.01 128.625 205.01ZM128.625 204.229C127.628 204.229 127.014 203.718 127.021 202.938C127.014 202.118 127.692 201.532 128.625 201.532C129.544 201.532 130.222 202.118 130.229 202.938C130.222 203.718 129.608 204.229 128.625 204.229ZM128.625 200.78C127.83 200.78 127.27 200.283 127.277 199.531C127.27 198.793 127.809 198.31 128.625 198.31C129.427 198.31 129.967 198.793 129.974 199.531C129.967 200.283 129.406 200.78 128.625 200.78Z" fill="#25314C"/>
<path d="M125.504 232.099C126.888 232.099 127.903 231.077 127.903 229.686C127.903 228.278 126.923 227.245 125.589 227.245C125.099 227.245 124.624 227.419 124.326 227.657H124.283L124.539 225.513H127.576V224.733H123.801L123.361 228.31L124.184 228.409C124.486 228.192 125 228.036 125.447 228.04C126.373 228.047 127.051 228.75 127.051 229.701C127.051 230.634 126.398 231.319 125.504 231.319C124.759 231.319 124.166 230.84 124.099 230.183H123.247C123.3 231.29 124.255 232.099 125.504 232.099Z" fill="#25314C"/>
<path d="M123.402 252.733H122.521L120.705 253.939V254.833L122.479 253.655H122.521V260H123.402V252.733ZM125.649 260H130.233V259.219H126.855V259.163L128.487 257.417C129.736 256.079 130.106 255.454 130.106 254.649C130.106 253.528 129.197 252.633 127.92 252.633C126.646 252.633 125.677 253.499 125.677 254.777H126.514C126.514 253.95 127.05 253.4 127.891 253.4C128.679 253.4 129.282 253.882 129.282 254.649C129.282 255.32 128.888 255.816 128.047 256.735L125.649 259.361V260Z" fill="#25314C"/>
<path d="M91.7647 204.911H96.3494V204.13H92.9712V204.073L94.6035 202.327C95.8526 200.99 96.2216 200.365 96.2216 199.56C96.2216 198.438 95.3132 197.544 94.0358 197.544C92.7618 197.544 91.7931 198.41 91.7931 199.687H92.6305C92.6305 198.86 93.1664 198.31 94.0074 198.31C94.7951 198.31 95.3984 198.793 95.3984 199.56C95.3984 200.23 95.0045 200.727 94.1635 201.646L91.7647 204.272V204.911ZM98.199 204.911H99.1216L102.358 198.467V197.643H97.7022V198.424H101.449V198.481L98.199 204.911Z" fill="#25314C"/>
<path d="M179.796 205.01C181.205 205.01 182.251 204.126 182.251 202.938C182.251 202.015 181.705 201.344 180.789 201.192V201.135C181.524 200.911 181.982 200.308 181.982 199.489C181.982 198.459 181.169 197.544 179.824 197.544C178.568 197.544 177.525 198.318 177.482 199.46H178.334C178.366 198.736 179.054 198.31 179.81 198.31C180.612 198.31 181.13 198.797 181.13 199.531C181.13 200.298 180.53 200.794 179.668 200.794H179.086V201.575H179.668C180.772 201.575 181.386 202.136 181.386 202.938C181.386 203.708 180.715 204.229 179.782 204.229C178.941 204.229 178.273 203.796 178.22 203.094H177.326C177.379 204.236 178.387 205.01 179.796 205.01ZM186.23 205.01C187.834 205.01 188.757 203.651 188.757 201.277C188.757 198.921 187.82 197.544 186.23 197.544C184.64 197.544 183.704 198.921 183.704 201.277C183.704 203.651 184.626 205.01 186.23 205.01ZM186.23 204.229C185.173 204.229 184.555 203.168 184.555 201.277C184.555 199.389 185.18 198.31 186.23 198.31C187.28 198.31 187.905 199.389 187.905 201.277C187.905 203.168 187.288 204.229 186.23 204.229Z" fill="#25314C"/>
<path d="M181.095 232H182.018L185.254 225.556V224.733H180.599V225.513H184.346V225.57L181.095 232Z" fill="#25314C"/>
<path d="M180.671 252.733H179.791L177.974 253.939V254.833L179.748 253.655H179.791V260H180.671V252.733ZM182.748 258.51H186.168V260H187.006V258.51H187.999V257.729H187.006V252.733H185.941L182.748 257.786V258.51ZM186.168 257.729H183.699V257.672L186.112 253.854H186.168V257.729Z" fill="#25314C"/>
<path d="M154.468 231.099C155.937 231.117 156.895 230.01 156.895 228.658C156.895 227.253 155.855 226.245 154.609 226.245C153.861 226.245 153.218 226.611 152.821 227.21H152.764C152.768 225.44 153.456 224.414 154.581 224.414C155.348 224.414 155.809 224.897 155.972 225.55H156.838C156.66 224.421 155.802 223.633 154.581 223.633C152.945 223.633 151.941 225.081 151.941 227.65C151.941 230.336 153.275 231.085 154.468 231.099ZM154.468 230.319C153.556 230.319 152.888 229.542 152.892 228.672C152.896 227.803 153.595 227.026 154.496 227.026C155.387 227.026 156.043 227.757 156.043 228.658C156.043 229.581 155.358 230.319 154.468 230.319Z" fill="#25314C"/>
<path d="M152.145 251.733H151.265L149.448 252.939V253.833L151.222 252.655H151.265V259H152.145V251.733ZM156.848 259.099C158.256 259.099 159.303 258.216 159.303 257.027C159.303 256.104 158.757 255.434 157.841 255.281V255.224C158.576 255.001 159.034 254.398 159.034 253.578C159.034 252.549 158.221 251.633 156.876 251.633C155.62 251.633 154.577 252.407 154.534 253.55H155.386C155.418 252.826 156.106 252.4 156.862 252.4C157.664 252.4 158.182 252.886 158.182 253.62C158.182 254.387 157.582 254.884 156.72 254.884H156.138V255.664H156.72C157.824 255.664 158.437 256.225 158.437 257.027C158.437 257.797 157.767 258.319 156.833 258.319C155.992 258.319 155.325 257.886 155.272 257.183H154.378C154.431 258.326 155.439 259.099 156.848 259.099Z" fill="#25314C"/>
<path d="M62.9509 204.911H67.5356V204.13H64.1574V204.073L65.7897 202.327C67.0388 200.99 67.4079 200.365 67.4079 199.56C67.4079 198.438 66.4994 197.544 65.222 197.544C63.9481 197.544 62.9793 198.41 62.9793 199.687H63.8168C63.8168 198.86 64.3526 198.31 65.1936 198.31C65.9814 198.31 66.5846 198.793 66.5846 199.56C66.5846 200.23 66.1907 200.727 65.3497 201.646L62.9509 204.272V204.911ZM71.5711 205.01C73.0402 205.028 73.9983 203.921 73.9983 202.569C73.9983 201.163 72.9586 200.156 71.7131 200.156C70.9643 200.156 70.3221 200.521 69.9246 201.121H69.8679C69.8714 199.35 70.5598 198.325 71.6847 198.325C72.4512 198.325 72.9125 198.807 73.0757 199.46H73.9415C73.7641 198.332 72.9054 197.544 71.6847 197.544C70.0488 197.544 69.0446 198.992 69.0446 201.561C69.0446 204.247 70.3788 204.996 71.5711 205.01ZM71.5711 204.229C70.6592 204.229 69.992 203.452 69.9956 202.583C69.9991 201.713 70.6982 200.936 71.5995 200.936C72.4902 200.936 73.1467 201.667 73.1467 202.569C73.1467 203.491 72.4618 204.229 71.5711 204.229Z" fill="#25314C"/>
<path d="M94.4469 230.51H97.8677V232H98.7051V230.51H99.6987V229.729H98.7051V224.733H97.6406L94.4469 229.786V230.51ZM97.8677 229.729H95.3979V229.672L97.8109 225.854H97.8677V229.729Z" fill="#25314C"/>
<path d="M95.6543 252.733H94.7743L92.9574 253.939V254.833L94.7317 253.655H94.7743V260H95.6543V252.733ZM100.456 252.733H99.5763L97.7594 253.939V254.833L99.5337 253.655H99.5763V260H100.456V252.733Z" fill="#25314C"/>
<path d="M68.5469 232.099C69.9556 232.099 71.0025 231.216 71.0025 230.027C71.0025 229.104 70.456 228.434 69.5405 228.281V228.224C70.275 228.001 70.7328 227.398 70.7328 226.578C70.7328 225.549 69.9202 224.633 68.5753 224.633C67.3191 224.633 66.2759 225.407 66.2333 226.55H67.0849C67.1169 225.826 67.8053 225.4 68.5611 225.4C69.3631 225.4 69.8811 225.886 69.8811 226.62C69.8811 227.387 69.2814 227.884 68.4192 227.884H67.8372V228.664H68.4192C69.5227 228.664 70.1366 229.225 70.1366 230.027C70.1366 230.797 69.466 231.319 68.5327 231.319C67.6917 231.319 67.0246 230.886 66.9714 230.183H66.0771C66.1304 231.326 67.1381 232.099 68.5469 232.099Z" fill="#25314C"/>
<path d="M66.3038 252.733H65.4238L63.6069 253.939V254.833L65.3812 253.655H65.4238V260H66.3038V252.733ZM70.9213 260.099C72.5252 260.099 73.4478 258.74 73.4478 256.366C73.4478 254.01 72.511 252.633 70.9213 252.633C69.3316 252.633 68.3948 254.01 68.3948 256.366C68.3948 258.74 69.3174 260.099 70.9213 260.099ZM70.9213 259.319C69.8638 259.319 69.2464 258.258 69.2464 256.366C69.2464 254.479 69.8709 253.4 70.9213 253.4C71.9716 253.4 72.5962 254.479 72.5962 256.366C72.5962 258.258 71.9787 259.319 70.9213 259.319Z" fill="#25314C"/>
<path d="M37.6975 232H42.2821V231.219H38.904V231.163L40.5363 229.417C41.7854 228.079 42.1544 227.454 42.1544 226.649C42.1544 225.528 41.246 224.633 39.9685 224.633C38.6946 224.633 37.7259 225.499 37.7259 226.777H38.5633C38.5633 225.95 39.0991 225.4 39.9401 225.4C40.7279 225.4 41.3311 225.882 41.3311 226.649C41.3311 227.32 40.9373 227.816 40.0963 228.735L37.6975 231.361V232Z" fill="#25314C"/>
<path d="M39.9184 252.633C38.4422 252.616 37.4912 253.726 37.4912 255.06C37.4912 256.466 38.5274 257.473 39.7765 257.473C40.5287 257.473 41.1675 257.104 41.5649 256.508H41.6217C41.6217 258.297 40.9262 259.319 39.8048 259.319C39.0384 259.319 38.57 258.836 38.4138 258.169H37.548C37.7183 259.319 38.5842 260.099 39.8048 260.099C41.4372 260.099 42.4449 258.652 42.4449 256.068C42.4449 253.4 41.1107 252.648 39.9184 252.633ZM39.9184 253.414C40.8268 253.414 41.4939 254.195 41.4939 255.046C41.4939 255.912 40.7842 256.693 39.89 256.693C38.9958 256.693 38.3429 255.969 38.3429 255.06C38.3429 254.152 39.0242 253.414 39.9184 253.414Z" fill="#25314C"/>
<path d="M12.4048 224.733H11.5247L9.70792 225.939V226.833L11.4822 225.655H11.5247V232H12.4048V224.733Z" fill="#25314C"/>
<path d="M11.4214 260.099C12.8727 260.099 13.884 259.251 13.8911 258.07C13.884 257.151 13.2702 256.37 12.4859 256.224V256.182C13.1673 256.004 13.6144 255.337 13.6215 254.564C13.6144 253.457 12.6847 252.633 11.4214 252.633C10.1439 252.633 9.21423 253.457 9.22133 254.564C9.21423 255.337 9.66134 256.004 10.3568 256.182V256.224C9.55844 256.37 8.94455 257.151 8.95164 258.07C8.94455 259.251 9.95587 260.099 11.4214 260.099ZM11.4214 259.319C10.4243 259.319 9.81038 258.808 9.81748 258.027C9.81038 257.207 10.4881 256.622 11.4214 256.622C12.3405 256.622 13.0182 257.207 13.0253 258.027C13.0182 258.808 12.4043 259.319 11.4214 259.319ZM11.4214 255.87C10.6265 255.87 10.0659 255.373 10.073 254.62C10.0659 253.882 10.6052 253.4 11.4214 253.4C12.2234 253.4 12.7627 253.882 12.7698 254.62C12.7627 255.373 12.2021 255.87 11.4214 255.87Z" fill="#25314C"/>
<path d="M148.951 204.911H153.536V204.13H150.157V204.073L151.79 202.327C153.039 200.99 153.408 200.365 153.408 199.56C153.408 198.438 152.499 197.544 151.222 197.544C149.948 197.544 148.979 198.41 148.979 199.687H149.817C149.817 198.86 150.353 198.31 151.194 198.31C151.981 198.31 152.585 198.793 152.585 199.56C152.585 200.23 152.191 200.727 151.35 201.646L148.951 204.272V204.911ZM157.472 197.544C155.996 197.526 155.045 198.637 155.045 199.971C155.045 201.376 156.081 202.384 157.33 202.384C158.082 202.384 158.721 202.015 159.118 201.419H159.175C159.175 203.207 158.48 204.229 157.358 204.229C156.592 204.229 156.123 203.747 155.967 203.08H155.101C155.272 204.229 156.138 205.01 157.358 205.01C158.991 205.01 159.998 203.562 159.998 200.979C159.998 198.31 158.664 197.558 157.472 197.544ZM157.472 198.325C158.38 198.325 159.047 199.105 159.047 199.957C159.047 200.823 158.338 201.603 157.443 201.603C156.549 201.603 155.896 200.88 155.896 199.971C155.896 199.063 156.578 198.325 157.472 198.325Z" fill="#25314C"/>
<path d="M36.029 204.933H40.6137V204.152H37.2355V204.096L38.8678 202.35C40.1169 201.012 40.4859 200.387 40.4859 199.582C40.4859 198.461 39.5775 197.566 38.3 197.566C37.0261 197.566 36.0574 198.432 36.0574 199.71H36.8948C36.8948 198.883 37.4307 198.333 38.2717 198.333C39.0594 198.333 39.6627 198.816 39.6627 199.582C39.6627 200.253 39.2688 200.749 38.4278 201.668L36.029 204.294V204.933ZM44.5073 205.032C45.8912 205.032 46.906 204.01 46.906 202.619C46.906 201.211 45.9267 200.178 44.5924 200.178C44.1027 200.178 43.6272 200.352 43.3292 200.59H43.2866L43.5421 198.446H46.5796V197.666H42.804L42.364 201.243L43.1872 201.342C43.4888 201.126 44.0034 200.969 44.4505 200.973C45.3766 200.98 46.0544 201.683 46.0544 202.634C46.0544 203.567 45.4015 204.252 44.5073 204.252C43.7621 204.252 43.1695 203.773 43.1021 203.116H42.2504C42.3036 204.223 43.2582 205.032 44.5073 205.032Z" fill="#25314C"/>
<path d="M5.94119 204.933H10.5258V204.152H7.14768V204.096L8.77998 202.35C10.0291 201.012 10.3981 200.387 10.3981 199.582C10.3981 198.461 9.48968 197.566 8.21222 197.566C6.93831 197.566 5.96958 198.432 5.96958 199.71H6.80702C6.80702 198.883 7.34284 198.333 8.18384 198.333C8.9716 198.333 9.57485 198.816 9.57485 199.582C9.57485 200.253 9.18096 200.749 8.33997 201.668L5.94119 204.294V204.933ZM11.8219 203.443H15.2427V204.933H16.0801V203.443H17.0737V202.662H16.0801V197.666H15.0156L11.8219 202.719V203.443ZM15.2427 202.662H12.7729V202.605L15.1859 198.787H15.2427V202.662Z" fill="#25314C"/>
<path d="M148.694 178.933H153.279V178.152H149.901V178.096L151.533 176.35C152.782 175.012 153.151 174.387 153.151 173.582C153.151 172.461 152.243 171.566 150.965 171.566C149.691 171.566 148.723 172.432 148.723 173.71H149.56C149.56 172.883 150.096 172.333 150.937 172.333C151.725 172.333 152.328 172.816 152.328 173.582C152.328 174.253 151.934 174.749 151.093 175.668L148.694 178.294V178.933ZM154.901 178.933H159.486V178.152H156.108V178.096L157.74 176.35C158.989 175.012 159.358 174.387 159.358 173.582C159.358 172.461 158.45 171.566 157.172 171.566C155.898 171.566 154.93 172.432 154.93 173.71H155.767C155.767 172.883 156.303 172.333 157.144 172.333C157.932 172.333 158.535 172.816 158.535 173.582C158.535 174.253 158.141 174.749 157.3 175.668L154.901 178.294V178.933Z" fill="#25314C"/>
<path d="M120.847 178.933H125.431V178.152H122.053V178.096L123.685 176.35C124.934 175.012 125.303 174.387 125.303 173.582C125.303 172.461 124.395 171.566 123.118 171.566C121.844 171.566 120.875 172.432 120.875 173.71H121.712C121.712 172.883 122.248 172.333 123.089 172.333C123.877 172.333 124.48 172.816 124.48 173.582C124.48 174.253 124.086 174.749 123.245 175.668L120.847 178.294V178.933ZM129.609 171.666H128.729L126.912 172.872V173.766L128.686 172.588H128.729V178.933H129.609V171.666Z" fill="#25314C"/>
<path d="M91.4963 178.933H96.081V178.152H92.7028V178.096L94.3351 176.35C95.5842 175.012 95.9532 174.387 95.9532 173.582C95.9532 172.461 95.0448 171.566 93.7673 171.566C92.4934 171.566 91.5247 172.432 91.5247 173.71H92.3621C92.3621 172.883 92.898 172.333 93.7389 172.333C94.5267 172.333 95.13 172.816 95.13 173.582C95.13 174.253 94.7361 174.749 93.8951 175.668L91.4963 178.294V178.933ZM100.074 179.032C101.678 179.032 102.6 177.673 102.6 175.299C102.6 172.943 101.664 171.566 100.074 171.566C98.4842 171.566 97.5474 172.943 97.5474 175.299C97.5474 177.673 98.47 179.032 100.074 179.032ZM100.074 178.252C99.0164 178.252 98.399 177.191 98.399 175.299C98.399 173.412 99.0235 172.333 100.074 172.333C101.124 172.333 101.749 173.412 101.749 175.299C101.749 177.191 101.131 178.252 100.074 178.252Z" fill="#25314C"/>
<path d="M66.2085 171.666H65.3284L63.5116 172.872V173.766L65.2859 172.588H65.3284V178.933H66.2085V171.666ZM70.7692 171.566C69.293 171.549 68.342 172.659 68.342 173.994C68.342 175.399 69.3782 176.407 70.6272 176.407C71.3795 176.407 72.0182 176.038 72.4157 175.441H72.4724C72.4724 177.23 71.7769 178.252 70.6556 178.252C69.8891 178.252 69.4207 177.769 69.2646 177.102H68.3988C68.5691 178.252 69.4349 179.032 70.6556 179.032C72.2879 179.032 73.2957 177.585 73.2957 175.001C73.2957 172.333 71.9615 171.581 70.7692 171.566ZM70.7692 172.347C71.6776 172.347 72.3447 173.128 72.3447 173.979C72.3447 174.845 71.635 175.626 70.7408 175.626C69.8466 175.626 69.1936 174.902 69.1936 173.994C69.1936 173.085 69.8749 172.347 70.7692 172.347Z" fill="#25314C"/>
<path d="M39.2475 171.688H38.3675L36.5506 172.895V173.789L38.3249 172.611H38.3675V178.956H39.2475V171.688ZM43.8224 179.055C45.2737 179.055 46.2851 178.207 46.2921 177.025C46.2851 176.106 45.6712 175.325 44.8869 175.18V175.137C45.5683 174.96 46.0154 174.293 46.0225 173.519C46.0154 172.412 45.0857 171.589 43.8224 171.589C42.5449 171.589 41.6152 172.412 41.6223 173.519C41.6152 174.293 42.0623 174.96 42.7579 175.137V175.18C41.9594 175.325 41.3455 176.106 41.3526 177.025C41.3455 178.207 42.3569 179.055 43.8224 179.055ZM43.8224 178.274C42.8253 178.274 42.2114 177.763 42.2185 176.983C42.2114 176.163 42.8891 175.577 43.8224 175.577C44.7415 175.577 45.4192 176.163 45.4263 176.983C45.4192 177.763 44.8053 178.274 43.8224 178.274ZM43.8224 174.825C43.0275 174.825 42.4669 174.328 42.474 173.576C42.4669 172.838 43.0062 172.355 43.8224 172.355C44.6244 172.355 45.1637 172.838 45.1708 173.576C45.1637 174.328 44.6031 174.825 43.8224 174.825Z" fill="#25314C"/>
<path d="M12.4719 171.733H11.5919L9.77508 172.939V173.833L11.5493 172.655H11.5919V179H12.4719V171.733ZM14.9461 179H15.8687L19.105 172.556V171.733H14.4493V172.513H18.1966V172.57L14.9461 179Z" fill="#25314C"/>
<path d="M180.409 141.688H179.529L177.712 142.895V143.789L179.487 142.611H179.529V148.956H180.409V141.688ZM185.069 149.055C186.538 149.073 187.496 147.966 187.496 146.614C187.496 145.208 186.457 144.201 185.211 144.201C184.462 144.201 183.82 144.566 183.423 145.166H183.366C183.37 143.395 184.058 142.37 185.183 142.37C185.949 142.37 186.411 142.852 186.574 143.505H187.44C187.262 142.377 186.404 141.589 185.183 141.589C183.547 141.589 182.543 143.037 182.543 145.606C182.543 148.292 183.877 149.041 185.069 149.055ZM185.069 148.274C184.157 148.274 183.49 147.497 183.494 146.628C183.497 145.758 184.196 144.981 185.098 144.981C185.988 144.981 186.645 145.712 186.645 146.614C186.645 147.536 185.96 148.274 185.069 148.274Z" fill="#25314C"/>
<path d="M151.937 141.688H151.057L149.24 142.895V143.789L151.014 142.611H151.057V148.956H151.937V141.688ZM156.455 149.055C157.839 149.055 158.854 148.033 158.854 146.642C158.854 145.233 157.875 144.201 156.54 144.201C156.051 144.201 155.575 144.374 155.277 144.612H155.234L155.49 142.469H158.527V141.688H154.752L154.312 145.265L155.135 145.364C155.437 145.148 155.951 144.992 156.398 144.995C157.325 145.003 158.002 145.705 158.002 146.656C158.002 147.589 157.349 148.274 156.455 148.274C155.71 148.274 155.117 147.795 155.05 147.139H154.198C154.252 148.246 155.206 149.055 156.455 149.055Z" fill="#25314C"/>
<path d="M123.221 141.688H122.341L120.524 142.895V143.789L122.298 142.611H122.341V148.956H123.221V141.688ZM125.298 147.465H128.718V148.956H129.556V147.465H130.549V146.685H129.556V141.688H128.491L125.298 146.741V147.465ZM128.718 146.685H126.249V146.628L128.662 142.81H128.718V146.685Z" fill="#25314C"/>
<path d="M95.145 141.688H94.265L92.4482 142.895V143.789L94.2224 142.611H94.265V148.956H95.145V141.688ZM99.8477 149.055C101.256 149.055 102.303 148.171 102.303 146.983C102.303 146.06 101.757 145.389 100.841 145.237V145.18C101.576 144.956 102.034 144.353 102.034 143.533C102.034 142.504 101.221 141.589 99.8761 141.589C98.6199 141.589 97.5766 142.362 97.5341 143.505H98.3857C98.4176 142.781 99.106 142.355 99.8619 142.355C100.664 142.355 101.182 142.842 101.182 143.576C101.182 144.343 100.582 144.839 99.7199 144.839H99.138V145.62H99.7199C100.824 145.62 101.437 146.181 101.437 146.983C101.437 147.753 100.767 148.274 99.8335 148.274C98.9925 148.274 98.3254 147.841 98.2722 147.139H97.3779C97.4312 148.281 98.4389 149.055 99.8477 149.055Z" fill="#25314C"/>
<path d="M66.3012 141.688H65.4211L63.6043 142.895V143.789L65.3786 142.611H65.4211V148.956H66.3012V141.688ZM68.5483 148.956H73.1329V148.175H69.7547V148.118L71.3871 146.372C72.6361 145.034 73.0052 144.41 73.0052 143.604C73.0052 142.483 72.0968 141.589 70.8193 141.589C69.5454 141.589 68.5766 142.455 68.5766 143.732H69.4141C69.4141 142.905 69.9499 142.355 70.7909 142.355C71.5787 142.355 72.1819 142.838 72.1819 143.604C72.1819 144.275 71.788 144.772 70.947 145.691L68.5483 148.317V148.956Z" fill="#25314C"/>
<path d="M40.0038 141.71H39.1237L37.3069 142.917V143.811L39.0812 142.633H39.1237V148.978H40.0038V141.71ZM44.8058 141.71H43.9257L42.1089 142.917V143.811L43.8832 142.633H43.9257V148.978H44.8058V141.71Z" fill="#25314C"/>
<path d="M9.20358 141.71H8.32356L6.50673 142.917V143.811L8.28098 142.633H8.32356V148.978H9.20358V141.71ZM13.8211 149.077C15.425 149.077 16.3476 147.718 16.3476 145.344C16.3476 142.988 15.4108 141.611 13.8211 141.611C12.2313 141.611 11.2945 142.988 11.2945 145.344C11.2945 147.718 12.2171 149.077 13.8211 149.077ZM13.8211 148.296C12.7636 148.296 12.1462 147.235 12.1462 145.344C12.1462 143.456 12.7707 142.377 13.8211 142.377C14.8714 142.377 15.496 143.456 15.496 145.344C15.496 147.235 14.8785 148.296 13.8211 148.296Z" fill="#25314C"/>
<path d="M182.569 111.611C181.093 111.593 180.142 112.704 180.142 114.038C180.142 115.443 181.178 116.451 182.427 116.451C183.179 116.451 183.818 116.082 184.215 115.486H184.272C184.272 117.274 183.577 118.296 182.455 118.296C181.689 118.296 181.22 117.814 181.064 117.147H180.199C180.369 118.296 181.235 119.077 182.455 119.077C184.088 119.077 185.095 117.629 185.095 115.046C185.095 112.377 183.761 111.625 182.569 111.611ZM182.569 112.392C183.477 112.392 184.144 113.172 184.144 114.024C184.144 114.89 183.435 115.67 182.541 115.67C181.646 115.67 180.993 114.946 180.993 114.038C180.993 113.13 181.675 112.392 182.569 112.392Z" fill="#25314C"/>
<path d="M154.072 119.077C155.523 119.077 156.535 118.229 156.542 117.047C156.535 116.128 155.921 115.347 155.136 115.202V115.159C155.818 114.982 156.265 114.315 156.272 113.541C156.265 112.434 155.335 111.611 154.072 111.611C152.794 111.611 151.865 112.434 151.872 113.541C151.865 114.315 152.312 114.982 153.007 115.159V115.202C152.209 115.347 151.595 116.128 151.602 117.047C151.595 118.229 152.606 119.077 154.072 119.077ZM154.072 118.296C153.075 118.296 152.461 117.785 152.468 117.005C152.461 116.185 153.139 115.599 154.072 115.599C154.991 115.599 155.669 116.185 155.676 117.005C155.669 117.785 155.055 118.296 154.072 118.296ZM154.072 114.847C153.277 114.847 152.716 114.35 152.723 113.598C152.716 112.86 153.256 112.377 154.072 112.377C154.874 112.377 155.413 112.86 155.42 113.598C155.413 114.35 154.853 114.847 154.072 114.847Z" fill="#25314C"/>
<path d="M123.645 118.978H124.568L127.804 112.533V111.71H123.149V112.491H126.896V112.548L123.645 118.978Z" fill="#25314C"/>
<path d="M98.0178 119.077C99.4869 119.095 100.445 117.988 100.445 116.636C100.445 115.23 99.4053 114.223 98.1598 114.223C97.411 114.223 96.7687 114.588 96.3713 115.188H96.3145C96.3181 113.417 97.0065 112.392 98.1314 112.392C98.8978 112.392 99.3591 112.874 99.5224 113.527H100.388C100.211 112.399 99.3521 111.611 98.1314 111.611C96.4955 111.611 95.4913 113.059 95.4913 115.628C95.4913 118.314 96.8255 119.063 98.0178 119.077ZM98.0178 118.296C97.1059 118.296 96.4387 117.519 96.4423 116.65C96.4458 115.78 97.1449 115.003 98.0462 115.003C98.9369 115.003 99.5934 115.734 99.5934 116.636C99.5934 117.558 98.9085 118.296 98.0178 118.296Z" fill="#25314C"/>
<path d="M68.4037 119.077C69.7876 119.077 70.8024 118.055 70.8024 116.664C70.8024 115.255 69.8231 114.223 68.4888 114.223C67.9991 114.223 67.5236 114.396 67.2256 114.634H67.183L67.4385 112.491H70.476V111.71H66.7004L66.2604 115.287L67.0836 115.386C67.3852 115.17 67.8998 115.014 68.3469 115.017C69.273 115.025 69.9508 115.727 69.9508 116.678C69.9508 117.611 69.2979 118.296 68.4037 118.296C67.6585 118.296 67.0659 117.817 66.9984 117.161H66.1468C66.2 118.268 67.1546 119.077 68.4037 119.077Z" fill="#25314C"/>
<path d="M38.7964 117.51H42.2171V119H43.0546V117.51H44.0482V116.729H43.0546V111.733H41.99L38.7964 116.786V117.51ZM42.2171 116.729H39.7474V116.672L42.1604 112.854H42.2171V116.729Z" fill="#25314C"/>
<path d="M11.4467 119.099C12.8554 119.099 13.9022 118.216 13.9022 117.027C13.9022 116.104 13.3558 115.434 12.4403 115.281V115.224C13.1748 115.001 13.6326 114.398 13.6326 113.578C13.6326 112.549 12.8199 111.633 11.4751 111.633C10.2189 111.633 9.17564 112.407 9.13306 113.55H9.9847C10.0166 112.826 10.705 112.4 11.4609 112.4C12.2628 112.4 12.7809 112.886 12.7809 113.62C12.7809 114.387 12.1812 114.884 11.3189 114.884H10.737V115.664H11.3189C12.4225 115.664 13.0364 116.225 13.0364 117.027C13.0364 117.797 12.3657 118.319 11.4325 118.319C10.5915 118.319 9.92437 117.886 9.87115 117.183H8.97693C9.03015 118.326 10.0379 119.099 11.4467 119.099Z" fill="#25314C"/>
<path d="M180.348 89H184.933V88.2193H181.554V88.1626L183.187 86.4167C184.436 85.0789 184.805 84.4544 184.805 83.6489C184.805 82.5275 183.896 81.6333 182.619 81.6333C181.345 81.6333 180.376 82.4992 180.376 83.7766H181.214C181.214 82.9498 181.75 82.3998 182.591 82.3998C183.378 82.3998 183.982 82.8824 183.982 83.6489C183.982 84.3195 183.588 84.8163 182.747 85.7354L180.348 88.3613V89Z" fill="#25314C"/>
<path d="M155.055 81.7327H154.175L152.358 82.9392V83.8334L154.133 82.6553H154.175V89H155.055V81.7327Z" fill="#25314C"/>
<path opacity="0.5" d="M7.20331 214.809H6.11089V218.074H6.06526L3.82464 214.809H2.86148V220H3.95898V216.733H3.997L6.25536 220H7.20331V214.809ZM13.9509 217.405C13.9509 215.706 12.8965 214.738 11.5202 214.738C10.1363 214.738 9.08947 215.706 9.08947 217.405C9.08947 219.095 10.1363 220.071 11.5202 220.071C12.8965 220.071 13.9509 219.103 13.9509 217.405ZM12.8382 217.405C12.8382 218.505 12.3161 219.1 11.5202 219.1C10.7218 219.1 10.2022 218.505 10.2022 217.405C10.2022 216.304 10.7218 215.709 11.5202 215.709C12.3161 215.709 12.8382 216.304 12.8382 217.405ZM16.4796 214.809H15.2604L17.0524 220H18.4667L20.2562 214.809H19.0396L17.7824 218.753H17.7342L16.4796 214.809Z" fill="#25314C"/>
</svg>
