<svg width="196" height="221" viewBox="0 0 196 221" fill="none" xmlns="http://www.w3.org/2000/svg">
<rect x="87" y="168" width="80" height="23" rx="11.5" fill="#02A1FE" fill-opacity="0.4"/>
<rect x="114" y="54" width="82" height="23" rx="11.5" fill="#02A1FE" fill-opacity="0.4"/>
<rect x="1" y="84" width="142" height="24" rx="12" fill="#02A1FE" fill-opacity="0.4"/>
<rect x="1" y="197" width="80" height="24" rx="12" fill="#FF9E9E"/>
<rect x="172" y="167" width="24" height="24" rx="12" fill="#FF9E9E"/>
<circle cx="69.6208" cy="209.149" r="10.9201" stroke="#BE33FF"/>
<path d="M63.5253 99.2974H68.1099V98.5167H64.7317V98.4599L66.3641 96.7141C67.6131 95.3763 67.9822 94.7517 67.9822 93.9462C67.9822 92.8249 67.0738 91.9307 65.7963 91.9307C64.5224 91.9307 63.5536 92.7965 63.5536 94.074H64.3911C64.3911 93.2472 64.9269 92.6972 65.7679 92.6972C66.5557 92.6972 67.1589 93.1798 67.1589 93.9462C67.1589 94.6169 66.765 95.1137 65.924 96.0327L63.5253 98.6586V99.2974ZM72.0603 99.3967C73.5116 99.3967 74.5229 98.5486 74.53 97.367C74.5229 96.4479 73.909 95.6673 73.1248 95.5218V95.4792C73.8061 95.3018 74.2532 94.6346 74.2603 93.8611C74.2532 92.7539 73.3235 91.9307 72.0603 91.9307C70.7828 91.9307 69.8531 92.7539 69.8602 93.8611C69.8531 94.6346 70.3002 95.3018 70.9957 95.4792V95.5218C70.1973 95.6673 69.5834 96.4479 69.5905 97.367C69.5834 98.5486 70.5947 99.3967 72.0603 99.3967ZM72.0603 98.6161C71.0632 98.6161 70.4493 98.1051 70.4564 97.3244C70.4493 96.5047 71.127 95.9192 72.0603 95.9192C72.9793 95.9192 73.6571 96.5047 73.6642 97.3244C73.6571 98.1051 73.0432 98.6161 72.0603 98.6161ZM72.0603 95.1669C71.2654 95.1669 70.7048 94.6701 70.7118 93.9178C70.7048 93.1798 71.2441 92.6972 72.0603 92.6972C72.8622 92.6972 73.4016 93.1798 73.4087 93.9178C73.4016 94.6701 72.8409 95.1669 72.0603 95.1669Z" fill="#25314C"/>
<path d="M35.1997 99.2974H39.7843V98.5167H36.4061V98.4599L38.0384 96.7141C39.2875 95.3763 39.6566 94.7517 39.6566 93.9462C39.6566 92.8249 38.7481 91.9307 37.4707 91.9307C36.1968 91.9307 35.228 92.7965 35.228 94.074H36.0655C36.0655 93.2472 36.6013 92.6972 37.4423 92.6972C38.2301 92.6972 38.8333 93.1798 38.8333 93.9462C38.8333 94.6169 38.4394 95.1137 37.5984 96.0327L35.1997 98.6586V99.2974ZM41.634 99.2974H42.5566L45.7928 92.8533V92.03H41.1372V92.8107H44.8844V92.8675L41.634 99.2974Z" fill="#25314C"/>
<path d="M123.231 99.3967C124.639 99.3967 125.686 98.5131 125.686 97.3244C125.686 96.4018 125.14 95.7311 124.224 95.5785V95.5218C124.959 95.2982 125.417 94.695 125.417 93.8753C125.417 92.8462 124.604 91.9307 123.259 91.9307C122.003 91.9307 120.96 92.7043 120.917 93.8469H121.769C121.801 93.123 122.489 92.6972 123.245 92.6972C124.047 92.6972 124.565 93.1833 124.565 93.9178C124.565 94.6843 123.965 95.1811 123.103 95.1811H122.521V95.9618H123.103C124.207 95.9618 124.82 96.5224 124.82 97.3244C124.82 98.0944 124.15 98.6161 123.217 98.6161C122.376 98.6161 121.708 98.1831 121.655 97.4805H120.761C120.814 98.6231 121.822 99.3967 123.231 99.3967ZM129.665 99.3967C131.269 99.3967 132.192 98.0376 132.192 95.6637C132.192 93.3075 131.255 91.9307 129.665 91.9307C128.075 91.9307 127.139 93.3075 127.139 95.6637C127.139 98.0376 128.061 99.3967 129.665 99.3967ZM129.665 98.6161C128.608 98.6161 127.99 97.5551 127.99 95.6637C127.99 93.7759 128.615 92.6972 129.665 92.6972C130.715 92.6972 131.34 93.7759 131.34 95.6637C131.34 97.5551 130.722 98.6161 129.665 98.6161Z" fill="#25314C"/>
<path d="M6.38588 99.2974H10.9705V98.5167H7.59237V98.4599L9.22468 96.7141C10.4737 95.3763 10.8428 94.7517 10.8428 93.9462C10.8428 92.8249 9.93438 91.9307 8.65692 91.9307C7.38301 91.9307 6.41427 92.7965 6.41427 94.074H7.25172C7.25172 93.2472 7.78754 92.6972 8.62853 92.6972C9.4163 92.6972 10.0195 93.1798 10.0195 93.9462C10.0195 94.6169 9.62566 95.1137 8.78466 96.0327L6.38588 98.6586V99.2974ZM15.0061 99.3967C16.4751 99.4145 17.4332 98.3073 17.4332 96.9554C17.4332 95.5502 16.3935 94.5424 15.148 94.5424C14.3993 94.5424 13.757 94.9079 13.3596 95.5076H13.3028C13.3063 93.7369 13.9947 92.7114 15.1196 92.7114C15.8861 92.7114 16.3474 93.194 16.5106 93.8469H17.3765C17.199 92.7185 16.3403 91.9307 15.1196 91.9307C13.4838 91.9307 12.4795 93.3785 12.4795 95.9476C12.4795 98.6338 13.8138 99.3825 15.0061 99.3967ZM15.0061 98.6161C14.0941 98.6161 13.427 97.8389 13.4305 96.9696C13.4341 96.1002 14.1331 95.3231 15.0345 95.3231C15.9251 95.3231 16.5816 96.054 16.5816 96.9554C16.5816 97.878 15.8967 98.6161 15.0061 98.6161Z" fill="#25314C"/>
<path d="M92.3859 99.2974H96.9705V98.5167H93.5924V98.4599L95.2247 96.7141C96.4737 95.3763 96.8428 94.7517 96.8428 93.9462C96.8428 92.8249 95.9344 91.9307 94.6569 91.9307C93.383 91.9307 92.4143 92.7965 92.4143 94.074H93.2517C93.2517 93.2472 93.7875 92.6972 94.6285 92.6972C95.4163 92.6972 96.0195 93.1798 96.0195 93.9462C96.0195 94.6169 95.6257 95.1137 94.7847 96.0327L92.3859 98.6586V99.2974ZM100.907 91.9307C99.4305 91.9129 98.4795 93.0236 98.4795 94.3579C98.4795 95.7631 99.5157 96.7708 100.765 96.7708C101.517 96.7708 102.156 96.4018 102.553 95.8056H102.61C102.61 97.5941 101.914 98.6161 100.793 98.6161C100.027 98.6161 99.5583 98.1335 99.4021 97.4663H98.5363C98.7066 98.6161 99.5725 99.3967 100.793 99.3967C102.425 99.3967 103.433 97.9489 103.433 95.3656C103.433 92.6972 102.099 91.9449 100.907 91.9307ZM100.907 92.7114C101.815 92.7114 102.482 93.492 102.482 94.3437C102.482 95.2095 101.773 95.9902 100.878 95.9902C99.9841 95.9902 99.3312 95.2663 99.3312 94.3579C99.3312 93.4494 100.012 92.7114 100.907 92.7114Z" fill="#25314C"/>
<path d="M177.765 69.3198H182.35V68.5392H178.971V68.4824L180.604 66.7365C181.853 65.3987 182.222 64.7742 182.222 63.9687C182.222 62.8474 181.313 61.9532 180.036 61.9532C178.762 61.9532 177.793 62.819 177.793 64.0964H178.631C178.631 63.2696 179.167 62.7196 180.008 62.7196C180.795 62.7196 181.399 63.2022 181.399 63.9687C181.399 64.6394 181.005 65.1362 180.164 66.0552L177.765 68.6811V69.3198ZM186.243 69.4192C187.627 69.4192 188.642 68.3972 188.642 67.0062C188.642 65.5975 187.663 64.5648 186.328 64.5648C185.839 64.5648 185.363 64.7387 185.065 64.9765H185.023L185.278 62.8332H188.316V62.0525H184.54L184.1 65.6294L184.923 65.7287C185.225 65.5123 185.739 65.3562 186.186 65.3597C187.113 65.3668 187.79 66.0694 187.79 67.0204C187.79 67.9537 187.137 68.6385 186.243 68.6385C185.498 68.6385 184.905 68.1595 184.838 67.503H183.986C184.04 68.6101 184.994 69.4192 186.243 69.4192Z" fill="#25314C"/>
<path d="M149.127 69.3198H153.712V68.5392H150.333V68.4824L151.966 66.7365C153.215 65.3987 153.584 64.7742 153.584 63.9687C153.584 62.8474 152.675 61.9532 151.398 61.9532C150.124 61.9532 149.155 62.819 149.155 64.0964H149.993C149.993 63.2696 150.529 62.7196 151.37 62.7196C152.157 62.7196 152.761 63.2022 152.761 63.9687C152.761 64.6394 152.367 65.1362 151.526 66.0552L149.127 68.6811V69.3198ZM155.008 67.8295H158.428V69.3198H159.266V67.8295H160.259V67.0488H159.266V62.0525H158.201L155.008 67.1056V67.8295ZM158.428 67.0488H155.959V66.992L158.372 63.1738H158.428V67.0488Z" fill="#25314C"/>
<path d="M120.523 69.3198H125.108V68.5392H121.73V68.4824L123.362 66.7365C124.611 65.3987 124.98 64.7742 124.98 63.9687C124.98 62.8474 124.072 61.9532 122.794 61.9532C121.52 61.9532 120.552 62.819 120.552 64.0964H121.389C121.389 63.2696 121.925 62.7196 122.766 62.7196C123.554 62.7196 124.157 63.2022 124.157 63.9687C124.157 64.6394 123.763 65.1362 122.922 66.0552L120.523 68.6811V69.3198ZM129.186 69.4192C130.595 69.4192 131.641 68.5356 131.641 67.3469C131.641 66.4243 131.095 65.7536 130.179 65.601V65.5442C130.914 65.3207 131.372 64.7174 131.372 63.8977C131.372 62.8687 130.559 61.9532 129.214 61.9532C127.958 61.9532 126.915 62.7267 126.872 63.8693H127.724C127.756 63.1454 128.444 62.7196 129.2 62.7196C130.002 62.7196 130.52 63.2058 130.52 63.9403C130.52 64.7068 129.92 65.2036 129.058 65.2036H128.476V65.9842H129.058C130.162 65.9842 130.776 66.5449 130.776 67.3469C130.776 68.1169 130.105 68.6385 129.172 68.6385C128.331 68.6385 127.664 68.2056 127.61 67.503H126.716C126.769 68.6456 127.777 69.4192 129.186 69.4192Z" fill="#25314C"/>
<path d="M92.1291 69.3198H96.7138V68.5392H93.3356V68.4824L94.9679 66.7365C96.217 65.3987 96.586 64.7742 96.586 63.9687C96.586 62.8474 95.6776 61.9532 94.4001 61.9532C93.1262 61.9532 92.1575 62.819 92.1575 64.0964H92.9949C92.9949 63.2696 93.5308 62.7196 94.3717 62.7196C95.1595 62.7196 95.7628 63.2022 95.7628 63.9687C95.7628 64.6394 95.3689 65.1362 94.5279 66.0552L92.1291 68.6811V69.3198ZM98.3363 69.3198H102.921V68.5392H99.5428V68.4824L101.175 66.7365C102.424 65.3987 102.793 64.7742 102.793 63.9687C102.793 62.8474 101.885 61.9532 100.607 61.9532C99.3334 61.9532 98.3647 62.819 98.3647 64.0964H99.2021C99.2021 63.2696 99.738 62.7196 100.579 62.7196C101.367 62.7196 101.97 63.2022 101.97 63.9687C101.97 64.6394 101.576 65.1362 100.735 66.0552L98.3363 68.6811V69.3198Z" fill="#25314C"/>
<path d="M64.2815 69.3198H68.8662V68.5392H65.488V68.4824L67.1203 66.7365C68.3694 65.3987 68.7384 64.7742 68.7384 63.9687C68.7384 62.8474 67.83 61.9532 66.5526 61.9532C65.2787 61.9532 64.3099 62.819 64.3099 64.0964H65.1474C65.1474 63.2696 65.6832 62.7196 66.5242 62.7196C67.3119 62.7196 67.9152 63.2022 67.9152 63.9687C67.9152 64.6394 67.5213 65.1362 66.6803 66.0552L64.2815 68.6811V69.3198ZM73.0437 62.0525H72.1636L70.3468 63.259V64.1532L72.121 62.9751H72.1636V69.3198H73.0437V62.0525Z" fill="#25314C"/>
<path d="M34.9313 69.3198H39.516V68.5392H36.1378V68.4824L37.7701 66.7365C39.0192 65.3987 39.3882 64.7742 39.3882 63.9687C39.3882 62.8474 38.4798 61.9532 37.2023 61.9532C35.9284 61.9532 34.9597 62.819 34.9597 64.0964H35.7971C35.7971 63.2696 36.333 62.7196 37.1739 62.7196C37.9617 62.7196 38.565 63.2022 38.565 63.9687C38.565 64.6394 38.1711 65.1362 37.3301 66.0552L34.9313 68.6811V69.3198ZM43.5089 69.4192C45.1128 69.4192 46.0354 68.0601 46.0354 65.6862C46.0354 63.33 45.0986 61.9532 43.5089 61.9532C41.9192 61.9532 40.9824 63.33 40.9824 65.6862C40.9824 68.0601 41.905 69.4192 43.5089 69.4192ZM43.5089 68.6385C42.4514 68.6385 41.834 67.5775 41.834 65.6862C41.834 63.7984 42.4585 62.7196 43.5089 62.7196C44.5593 62.7196 45.1838 63.7984 45.1838 65.6862C45.1838 67.5775 44.5663 68.6385 43.5089 68.6385Z" fill="#25314C"/>
<path d="M9.6434 62.0525H8.76337L6.94655 63.259V64.1532L8.72079 62.9751H8.76337V69.3198H9.6434V62.0525ZM14.2041 61.9532C12.7279 61.9354 11.7769 63.0461 11.7769 64.3803C11.7769 65.7855 12.8131 66.7933 14.0622 66.7933C14.8144 66.7933 15.4532 66.4243 15.8506 65.8281H15.9074C15.9074 67.6165 15.2119 68.6385 14.0906 68.6385C13.3241 68.6385 12.8557 68.1559 12.6995 67.4888H11.8337C12.004 68.6385 12.8699 69.4192 14.0906 69.4192C15.7229 69.4192 16.7306 67.9714 16.7306 65.3881C16.7306 62.7196 15.3964 61.9673 14.2041 61.9532ZM14.2041 62.7338C15.1125 62.7338 15.7796 63.5145 15.7796 64.3661C15.7796 65.232 15.0699 66.0126 14.1757 66.0126C13.2815 66.0126 12.6286 65.2887 12.6286 64.3803C12.6286 63.4719 13.3099 62.7338 14.2041 62.7338Z" fill="#25314C"/>
<circle cx="155.42" cy="179.193" r="10.9201" stroke="#02A1FE"/>
<circle cx="125.42" cy="65.4201" r="10.9201" stroke="#02A1FE"/>
<path d="M182.305 205.71H181.425L179.608 206.917V207.811L181.382 206.633H181.425V212.978H182.305V205.71ZM187.107 205.71H186.227L184.41 206.917V207.811L186.184 206.633H186.227V212.978H187.107V205.71Z" fill="#25314C"/>
<path d="M152.954 205.71H152.074L150.257 206.917V207.811L152.032 206.633H152.074V212.978H152.954V205.71ZM157.572 213.077C159.176 213.077 160.098 211.718 160.098 209.344C160.098 206.988 159.162 205.611 157.572 205.611C155.982 205.611 155.045 206.988 155.045 209.344C155.045 211.718 155.968 213.077 157.572 213.077ZM157.572 212.296C156.514 212.296 155.897 211.235 155.897 209.344C155.897 207.456 156.521 206.377 157.572 206.377C158.622 206.377 159.247 207.456 159.247 209.344C159.247 211.235 158.629 212.296 157.572 212.296Z" fill="#25314C"/>
<path d="M126.569 205.611C125.093 205.593 124.142 206.704 124.142 208.038C124.142 209.443 125.178 210.451 126.427 210.451C127.179 210.451 127.818 210.082 128.215 209.486H128.272C128.272 211.274 127.577 212.296 126.455 212.296C125.689 212.296 125.22 211.814 125.064 211.147H124.198C124.369 212.296 125.235 213.077 126.455 213.077C128.088 213.077 129.095 211.629 129.095 209.046C129.095 206.377 127.761 205.625 126.569 205.611ZM126.569 206.392C127.477 206.392 128.144 207.172 128.144 208.024C128.144 208.89 127.435 209.67 126.54 209.67C125.646 209.67 124.993 208.946 124.993 208.038C124.993 207.13 125.675 206.392 126.569 206.392Z" fill="#25314C"/>
<path d="M98.0719 213.077C99.5232 213.077 100.535 212.229 100.542 211.047C100.535 210.128 99.9207 209.347 99.1365 209.202V209.159C99.8178 208.982 100.265 208.315 100.272 207.541C100.265 206.434 99.3352 205.611 98.0719 205.611C96.7945 205.611 95.8647 206.434 95.8718 207.541C95.8647 208.315 96.3119 208.982 97.0074 209.159V209.202C96.2089 209.347 95.5951 210.128 95.6022 211.047C95.5951 212.229 96.6064 213.077 98.0719 213.077ZM98.0719 212.296C97.0748 212.296 96.4609 211.785 96.468 211.005C96.4609 210.185 97.1387 209.599 98.0719 209.599C98.991 209.599 99.6687 210.185 99.6758 211.005C99.6687 211.785 99.0548 212.296 98.0719 212.296ZM98.0719 208.847C97.277 208.847 96.7164 208.35 96.7235 207.598C96.7164 206.86 97.2558 206.377 98.0719 206.377C98.8739 206.377 99.4132 206.86 99.4203 207.598C99.4132 208.35 98.8526 208.847 98.0719 208.847Z" fill="#25314C"/>
<path d="M67.6455 212.978H68.5681L71.8043 206.533V205.71H67.1487V206.491H70.8959V206.548L67.6455 212.978Z" fill="#25314C"/>
<path d="M42.0178 213.077C43.4869 213.095 44.445 211.988 44.445 210.636C44.445 209.23 43.4053 208.223 42.1598 208.223C41.411 208.223 40.7687 208.588 40.3713 209.188H40.3145C40.3181 207.417 41.0065 206.392 42.1314 206.392C42.8978 206.392 43.3591 206.874 43.5224 207.527H44.3882C44.2108 206.399 43.3521 205.611 42.1314 205.611C40.4955 205.611 39.4913 207.059 39.4913 209.628C39.4913 212.314 40.8255 213.063 42.0178 213.077ZM42.0178 212.296C41.1059 212.296 40.4387 211.519 40.4423 210.65C40.4458 209.78 41.1449 209.003 42.0462 209.003C42.9369 209.003 43.5934 209.734 43.5934 210.636C43.5934 211.558 42.9085 212.296 42.0178 212.296Z" fill="#25314C"/>
<path d="M12.4037 213.077C13.7876 213.077 14.8024 212.055 14.8024 210.664C14.8024 209.255 13.8231 208.223 12.4888 208.223C11.9991 208.223 11.5236 208.396 11.2256 208.634H11.183L11.4385 206.491H14.476V205.71H10.7004L10.2604 209.287L11.0836 209.386C11.3852 209.17 11.8998 209.014 12.3469 209.017C13.273 209.025 13.9508 209.727 13.9508 210.678C13.9508 211.611 13.2979 212.296 12.4037 212.296C11.6585 212.296 11.0659 211.817 10.9984 211.161H10.1468C10.2 212.268 11.1546 213.077 12.4037 213.077Z" fill="#25314C"/>
<path d="M181.097 181.51H184.518V183H185.356V181.51H186.349V180.729H185.356V175.733H184.291L181.097 180.786V181.51ZM184.518 180.729H182.048V180.672L184.461 176.854H184.518V180.729Z" fill="#25314C"/>
<path d="M155.197 183.099C156.606 183.099 157.653 182.216 157.653 181.027C157.653 180.104 157.107 179.434 156.191 179.281V179.224C156.926 179.001 157.383 178.398 157.383 177.578C157.383 176.549 156.571 175.633 155.226 175.633C153.97 175.633 152.926 176.407 152.884 177.55H153.735C153.767 176.826 154.456 176.4 155.212 176.4C156.014 176.4 156.532 176.886 156.532 177.62C156.532 178.387 155.932 178.884 155.07 178.884H154.488V179.664H155.07C156.173 179.664 156.787 180.225 156.787 181.027C156.787 181.797 156.116 182.319 155.183 182.319C154.342 182.319 153.675 181.886 153.622 181.183H152.728C152.781 182.326 153.789 183.099 155.197 183.099Z" fill="#25314C"/>
<path d="M124.348 183H128.933V182.219H125.554V182.163L127.187 180.417C128.436 179.079 128.805 178.454 128.805 177.649C128.805 176.528 127.896 175.633 126.619 175.633C125.345 175.633 124.376 176.499 124.376 177.777H125.214C125.214 176.95 125.75 176.4 126.591 176.4C127.378 176.4 127.982 176.882 127.982 177.649C127.982 178.32 127.588 178.816 126.747 179.735L124.348 182.361V183Z" fill="#25314C"/>
<path d="M99.0553 175.733H98.1753L96.3584 176.939V177.833L98.1327 176.655H98.1753V183H99.0553V175.733Z" fill="#25314C"/>
<path d="M179.34 29.425H180.392C180.377 28.4999 179.617 27.8611 178.461 27.8611C177.323 27.8611 176.489 28.4897 176.494 29.4326C176.492 30.1981 177.031 30.6366 177.908 30.8469L178.474 30.9889C179.039 31.1258 179.353 31.288 179.356 31.6377C179.353 32.0179 178.993 32.2765 178.436 32.2765C177.865 32.2765 177.455 32.0129 177.419 31.4933H176.357C176.385 32.6161 177.189 33.1966 178.448 33.1966C179.716 33.1966 180.461 32.5908 180.463 31.6403C180.461 30.776 179.809 30.3172 178.907 30.1144L178.441 30.0029C177.99 29.899 177.612 29.7317 177.619 29.3591C177.619 29.0245 177.916 28.7787 178.453 28.7787C178.978 28.7787 179.3 29.0169 179.34 29.425ZM183.048 33.123L183.434 31.9394H185.307L185.692 33.123H186.868L185.079 27.9321H183.664L181.872 33.123H183.048ZM183.712 31.0827L184.351 29.1183H184.392L185.03 31.0827H183.712ZM187.725 28.837H189.314V33.123H190.399V28.837H191.988V27.9321H187.725V28.837Z" fill="#02A1FE"/>
<path d="M149.557 33.123H150.654V30.9787H152.765V30.0739H150.654V28.837H152.994V27.9321H149.557V33.123ZM154.802 33.123H155.9V31.2829H156.701L157.684 33.123H158.896L157.793 31.1055C158.384 30.852 158.711 30.3375 158.711 29.6278C158.711 28.5962 158.029 27.9321 156.85 27.9321H154.802V33.123ZM155.9 30.4008V28.8294H156.64C157.274 28.8294 157.58 29.1107 157.58 29.6278C157.58 30.1423 157.274 30.4008 156.645 30.4008H155.9ZM161.655 27.9321H160.557V33.123H161.655V27.9321Z" fill="#02A1FE"/>
<path d="M118.589 28.837H120.178V33.123H121.263V28.837H122.852V27.9321H118.589V28.837ZM124.625 33.123H125.722V30.9787H127.95V33.123H129.045V27.9321H127.95V30.0739H125.722V27.9321H124.625V33.123ZM134.227 27.9321V31.2094C134.227 31.8025 133.811 32.2309 133.172 32.2309C132.536 32.2309 132.118 31.8025 132.118 31.2094V27.9321H131.02V31.3032C131.02 32.4387 131.877 33.1966 133.172 33.1966C134.462 33.1966 135.324 32.4387 135.324 31.3032V27.9321H134.227Z" fill="#02A1FE"/>
<path d="M90.5752 33.123H91.6448L92.6308 29.7292H92.6713L93.6599 33.123H94.7295L96.2148 27.9321H95.0159L94.1566 31.5465H94.111L93.1656 27.9321H92.1391L91.1911 31.5389H91.148L90.2888 27.9321H89.0899L90.5752 33.123ZM97.8728 33.123H101.381V32.2182H98.9703V30.9787H101.191V30.0739H98.9703V28.837H101.371V27.9321H97.8728V33.123ZM105.154 33.123C106.736 33.123 107.694 32.1447 107.694 30.5225C107.694 28.9054 106.736 27.9321 105.169 27.9321H103.314V33.123H105.154ZM104.411 32.1827V28.8725H105.111C106.084 28.8725 106.599 29.3692 106.599 30.5225C106.599 31.6808 106.084 32.1827 105.108 32.1827H104.411Z" fill="#02A1FE"/>
<path d="M61.9658 28.837H63.555V33.123H64.6398V28.837H66.229V27.9321H61.9658V28.837ZM71.2081 27.9321V31.2094C71.2081 31.8025 70.7924 32.2309 70.1537 32.2309C69.5175 32.2309 69.0993 31.8025 69.0993 31.2094V27.9321H68.0018V31.3032C68.0018 32.4387 68.8585 33.1966 70.1537 33.1966C71.4438 33.1966 72.3056 32.4387 72.3056 31.3032V27.9321H71.2081ZM74.2792 33.123H77.7871V32.2182H75.3767V30.9787H77.597V30.0739H75.3767V28.837H77.777V27.9321H74.2792V33.123Z" fill="#02A1FE"/>
<path d="M32.1043 27.9321V33.123H33.1688V29.7317H33.2119L34.5552 33.0977H35.2802L36.6235 29.7444H36.6666V33.123H37.7312V27.9321H36.3777L34.9481 31.4198H34.8873L33.4578 27.9321H32.1043ZM44.4762 30.5276C44.4762 28.8294 43.4218 27.8611 42.0455 27.8611C40.6616 27.8611 39.6148 28.8294 39.6148 30.5276C39.6148 32.2182 40.6616 33.194 42.0455 33.194C43.4218 33.194 44.4762 32.2258 44.4762 30.5276ZM43.3635 30.5276C43.3635 31.6276 42.8414 32.2233 42.0455 32.2233C41.2471 32.2233 40.7275 31.6276 40.7275 30.5276C40.7275 29.4275 41.2471 28.8319 42.0455 28.8319C42.8414 28.8319 43.3635 29.4275 43.3635 30.5276ZM50.7017 27.9321H49.6092V31.1967H49.5636L47.323 27.9321H46.3598V33.123H47.4573V29.8559H47.4953L49.7537 33.123H50.7017V27.9321Z" fill="#02A1FE"/>
<path d="M7.05037 29.4257H8.10225C8.08704 28.5006 7.32665 27.8619 6.17085 27.8619C5.0328 27.8619 4.1989 28.4905 4.20397 29.4333C4.20144 30.1988 4.74132 30.6373 5.6183 30.8477L6.18352 30.9896C6.74875 31.1265 7.06304 31.2887 7.06558 31.6385C7.06304 32.0187 6.70313 32.2772 6.14551 32.2772C5.57521 32.2772 5.1646 32.0136 5.12912 31.494H4.0671C4.09498 32.6169 4.89846 33.1973 6.15818 33.1973C7.4255 33.1973 8.17068 32.5915 8.17322 31.641C8.17068 30.7767 7.51928 30.3179 6.61695 30.1152L6.15057 30.0036C5.69941 29.8997 5.32175 29.7324 5.32935 29.3598C5.32935 29.0253 5.6259 28.7794 6.16325 28.7794C6.68792 28.7794 7.00982 29.0177 7.05037 29.4257ZM13.1884 27.9328V31.2101C13.1884 31.8032 12.7727 32.2316 12.134 32.2316C11.4978 32.2316 11.0796 31.8032 11.0796 31.2101V27.9328H9.98206V31.3039C9.98206 32.4394 10.8388 33.1973 12.134 33.1973C13.4241 33.1973 14.2859 32.4394 14.2859 31.3039V27.9328H13.1884ZM20.6013 27.9328H19.5089V31.1975H19.4633L17.2226 27.9328H16.2595V33.1238H17.357V29.8566H17.395L19.6534 33.1238H20.6013V27.9328Z" fill="#02A1FE"/>
<path d="M179.34 146.425H180.392C180.377 145.5 179.617 144.861 178.461 144.861C177.323 144.861 176.489 145.49 176.494 146.433C176.492 147.198 177.031 147.637 177.908 147.847L178.474 147.989C179.039 148.126 179.353 148.288 179.356 148.638C179.353 149.018 178.993 149.276 178.436 149.276C177.865 149.276 177.455 149.013 177.419 148.493H176.357C176.385 149.616 177.189 150.197 178.448 150.197C179.716 150.197 180.461 149.591 180.463 148.64C180.461 147.776 179.809 147.317 178.907 147.114L178.441 147.003C177.99 146.899 177.612 146.732 177.619 146.359C177.619 146.025 177.916 145.779 178.453 145.779C178.978 145.779 179.3 146.017 179.34 146.425ZM183.048 150.123L183.434 148.939H185.307L185.692 150.123H186.868L185.079 144.932H183.664L181.872 150.123H183.048ZM183.712 148.083L184.351 146.118H184.392L185.03 148.083H183.712ZM187.725 145.837H189.314V150.123H190.399V145.837H191.988V144.932H187.725V145.837Z" fill="#02A1FE"/>
<path d="M149.557 150.123H150.654V147.979H152.765V147.074H150.654V145.837H152.994V144.932H149.557V150.123ZM154.802 150.123H155.9V148.283H156.701L157.684 150.123H158.896L157.793 148.105C158.384 147.852 158.711 147.337 158.711 146.628C158.711 145.596 158.029 144.932 156.85 144.932H154.802V150.123ZM155.9 147.401V145.829H156.64C157.274 145.829 157.58 146.111 157.58 146.628C157.58 147.142 157.274 147.401 156.645 147.401H155.9ZM161.655 144.932H160.557V150.123H161.655V144.932Z" fill="#02A1FE"/>
<path d="M118.589 145.837H120.178V150.123H121.263V145.837H122.852V144.932H118.589V145.837ZM124.625 150.123H125.722V147.979H127.95V150.123H129.045V144.932H127.95V147.074H125.722V144.932H124.625V150.123ZM134.227 144.932V148.209C134.227 148.803 133.811 149.231 133.172 149.231C132.536 149.231 132.118 148.803 132.118 148.209V144.932H131.02V148.303C131.02 149.439 131.877 150.197 133.172 150.197C134.462 150.197 135.324 149.439 135.324 148.303V144.932H134.227Z" fill="#02A1FE"/>
<path d="M90.5752 150.123H91.6448L92.6308 146.729H92.6713L93.6599 150.123H94.7295L96.2148 144.932H95.0159L94.1566 148.547H94.111L93.1656 144.932H92.1391L91.1911 148.539H91.148L90.2888 144.932H89.0899L90.5752 150.123ZM97.8728 150.123H101.381V149.218H98.9703V147.979H101.191V147.074H98.9703V145.837H101.371V144.932H97.8728V150.123ZM105.154 150.123C106.736 150.123 107.694 149.145 107.694 147.523C107.694 145.905 106.736 144.932 105.169 144.932H103.314V150.123H105.154ZM104.411 149.183V145.872H105.111C106.084 145.872 106.599 146.369 106.599 147.523C106.599 148.681 106.084 149.183 105.108 149.183H104.411Z" fill="#02A1FE"/>
<path d="M61.9658 145.837H63.555V150.123H64.6398V145.837H66.229V144.932H61.9658V145.837ZM71.2081 144.932V148.209C71.2081 148.803 70.7924 149.231 70.1537 149.231C69.5175 149.231 69.0993 148.803 69.0993 148.209V144.932H68.0018V148.303C68.0018 149.439 68.8585 150.197 70.1537 150.197C71.4438 150.197 72.3056 149.439 72.3056 148.303V144.932H71.2081ZM74.2792 150.123H77.7871V149.218H75.3767V147.979H77.597V147.074H75.3767V145.837H77.777V144.932H74.2792V150.123Z" fill="#02A1FE"/>
<path d="M32.1043 144.932V150.123H33.1688V146.732H33.2119L34.5552 150.098H35.2802L36.6235 146.744H36.6666V150.123H37.7312V144.932H36.3777L34.9481 148.42H34.8873L33.4578 144.932H32.1043ZM44.4762 147.528C44.4762 145.829 43.4218 144.861 42.0455 144.861C40.6616 144.861 39.6148 145.829 39.6148 147.528C39.6148 149.218 40.6616 150.194 42.0455 150.194C43.4218 150.194 44.4762 149.226 44.4762 147.528ZM43.3635 147.528C43.3635 148.628 42.8414 149.223 42.0455 149.223C41.2471 149.223 40.7275 148.628 40.7275 147.528C40.7275 146.428 41.2471 145.832 42.0455 145.832C42.8414 145.832 43.3635 146.428 43.3635 147.528ZM50.7017 144.932H49.6092V148.197H49.5636L47.323 144.932H46.3598V150.123H47.4573V146.856H47.4953L49.7537 150.123H50.7017V144.932Z" fill="#02A1FE"/>
<path d="M7.05037 146.426H8.10225C8.08704 145.501 7.32665 144.862 6.17085 144.862C5.0328 144.862 4.1989 145.49 4.20397 146.433C4.20144 147.199 4.74132 147.637 5.6183 147.848L6.18352 147.99C6.74875 148.126 7.06304 148.289 7.06558 148.638C7.06304 149.019 6.70313 149.277 6.14551 149.277C5.57521 149.277 5.1646 149.014 5.12912 148.494H4.0671C4.09498 149.617 4.89846 150.197 6.15818 150.197C7.4255 150.197 8.17068 149.592 8.17322 148.641C8.17068 147.777 7.51928 147.318 6.61695 147.115L6.15057 147.004C5.69941 146.9 5.32175 146.732 5.32935 146.36C5.32935 146.025 5.6259 145.779 6.16325 145.779C6.68792 145.779 7.00982 146.018 7.05037 146.426ZM13.1884 144.933V148.21C13.1884 148.803 12.7727 149.232 12.134 149.232C11.4978 149.232 11.0796 148.803 11.0796 148.21V144.933H9.98206V148.304C9.98206 149.439 10.8388 150.197 12.134 150.197C13.4241 150.197 14.2859 149.439 14.2859 148.304V144.933H13.1884ZM20.6013 144.933H19.5089V148.197H19.4633L17.2226 144.933H16.2595V150.124H17.357V146.857H17.395L19.6534 150.124H20.6013V144.933Z" fill="#02A1FE"/>
<path d="M6.22744 7.08314H7.91044C7.8861 5.60291 6.66948 4.58095 4.82021 4.58095C2.99932 4.58095 1.66509 5.58669 1.6732 7.09531C1.66914 8.32004 2.53295 9.02163 3.93612 9.35823L4.84048 9.58534C5.74484 9.80433 6.24771 10.0639 6.25177 10.6235C6.24771 11.2318 5.67185 11.6455 4.77965 11.6455C3.86718 11.6455 3.2102 11.2237 3.15343 10.3924H1.45421C1.49882 12.1889 2.78439 13.1176 4.79993 13.1176C6.82764 13.1176 8.01993 12.1484 8.02399 10.6276C8.01993 9.24468 6.97769 8.51065 5.53396 8.18622L4.78776 8.00778C4.0659 7.8415 3.46164 7.57385 3.47381 6.9777C3.47381 6.44238 3.94829 6.04901 4.80804 6.04901C5.64751 6.04901 6.16255 6.43022 6.22744 7.08314ZM12.0971 13.1217C13.6382 13.1217 14.6764 12.3714 14.9197 11.2156L13.3219 11.1102C13.1475 11.5847 12.7014 11.832 12.1255 11.832C11.2617 11.832 10.7142 11.2602 10.7142 10.3315V10.3275H14.9562V9.85299C14.9562 7.73606 13.6747 6.68977 12.0282 6.68977C10.1951 6.68977 9.0069 7.99156 9.0069 9.91382C9.0069 11.8888 10.1789 13.1217 12.0971 13.1217ZM10.7142 9.25685C10.7507 8.54715 11.2901 7.97939 12.0566 7.97939C12.8068 7.97939 13.3259 8.5147 13.33 9.25685H10.7142ZM16.1693 15.3359H17.8969V12.0024H17.9496C18.1889 12.5215 18.712 13.1014 19.7178 13.1014C21.1372 13.1014 22.2443 11.978 22.2443 9.89355C22.2443 7.75229 21.0885 6.68977 19.7218 6.68977C18.6796 6.68977 18.1807 7.31024 17.9496 7.81717H17.8725V6.77087H16.1693V15.3359ZM17.8604 9.88544C17.8604 8.77425 18.3308 8.06455 19.1703 8.06455C20.026 8.06455 20.4802 8.80669 20.4802 9.88544C20.4802 10.9723 20.0179 11.7266 19.1703 11.7266C18.3389 11.7266 17.8604 10.9966 17.8604 9.88544ZM26.7949 6.77087H25.6229V5.27848H23.8953V6.77087H23.0437V8.06861H23.8953V11.3129C23.8872 12.5336 24.7186 13.1379 25.9717 13.0852C26.4178 13.0689 26.7341 12.9797 26.9085 12.9229L26.6368 11.6374C26.5516 11.6536 26.3691 11.6942 26.2069 11.6942C25.8622 11.6942 25.6229 11.5644 25.6229 11.0858V8.06861H26.7949V6.77087ZM30.7779 13.1217C32.3189 13.1217 33.3571 12.3714 33.6004 11.2156L32.0026 11.1102C31.8282 11.5847 31.3821 11.832 30.8062 11.832C29.9424 11.832 29.395 11.2602 29.395 10.3315V10.3275H33.6369V9.85299C33.6369 7.73606 32.3554 6.68977 30.7089 6.68977C28.8759 6.68977 27.6876 7.99156 27.6876 9.91382C27.6876 11.8888 28.8596 13.1217 30.7779 13.1217ZM29.395 9.25685C29.4315 8.54715 29.9708 7.97939 30.7373 7.97939C31.4876 7.97939 32.0067 8.5147 32.0107 9.25685H29.395ZM34.85 13H36.5776V9.2609C36.5776 8.57148 37.0156 8.11322 37.5915 8.11322C38.1592 8.11322 38.5404 8.50254 38.5404 9.11491V13H40.2153V9.19602C40.2153 8.5512 40.5844 8.11322 41.2129 8.11322C41.7645 8.11322 42.1781 8.45793 42.1781 9.15141V13H43.9017V8.81075C43.9017 7.46029 43.0987 6.68977 41.9389 6.68977C41.0264 6.68977 40.3167 7.15614 40.0612 7.86989H39.9963C39.7976 7.14803 39.1609 6.68977 38.3052 6.68977C37.4657 6.68977 36.829 7.13586 36.5695 7.86989H36.4965V6.77087H34.85V13ZM45.3844 13H47.0877V12.0024H47.1648C47.404 12.5215 47.9272 13.1014 48.9329 13.1014C50.3523 13.1014 51.4595 11.978 51.4595 9.89355C51.4595 7.75229 50.3037 6.68977 48.937 6.68977C47.8947 6.68977 47.3959 7.31024 47.1648 7.81717H47.112V4.6945H45.3844V13ZM47.0755 9.88544C47.0755 8.77425 47.546 8.06455 48.3854 8.06455C49.2411 8.06455 49.6953 8.80669 49.6953 9.88544C49.6953 10.9723 49.233 11.7266 48.3854 11.7266C47.5541 11.7266 47.0755 10.9966 47.0755 9.88544ZM55.5367 13.1217C57.0777 13.1217 58.1159 12.3714 58.3592 11.2156L56.7614 11.1102C56.587 11.5847 56.1409 11.832 55.565 11.832C54.7012 11.832 54.1538 11.2602 54.1538 10.3315V10.3275H58.3957V9.85299C58.3957 7.73606 57.1142 6.68977 55.4677 6.68977C53.6347 6.68977 52.4464 7.99156 52.4464 9.91382C52.4464 11.8888 53.6184 13.1217 55.5367 13.1217ZM54.1538 9.25685C54.1903 8.54715 54.7296 7.97939 55.4961 7.97939C56.2463 7.97939 56.7654 8.5147 56.7695 9.25685H54.1538ZM59.6088 13H61.3364V9.47584C61.3364 8.70936 61.896 8.18216 62.6585 8.18216C62.8977 8.18216 63.2262 8.22271 63.3884 8.27543V6.74249C63.2343 6.70599 63.0194 6.68165 62.845 6.68165C62.1475 6.68165 61.5757 7.0872 61.3486 7.85773H61.2837V6.77087H59.6088V13Z" fill="#25314C"/>
<path d="M9.35417 125.847C9.35417 123.13 7.66711 121.581 5.46502 121.581C3.25076 121.581 1.57587 123.13 1.57587 125.847C1.57587 128.552 3.25076 130.114 5.46502 130.114C7.66711 130.114 9.35417 128.564 9.35417 125.847ZM7.57384 125.847C7.57384 127.607 6.73842 128.56 5.46502 128.56C4.18756 128.56 3.3562 127.607 3.3562 125.847C3.3562 124.087 4.18756 123.134 5.46502 123.134C6.73842 123.134 7.57384 124.087 7.57384 125.847ZM13.5226 130.122C15.1813 130.122 16.2235 129.148 16.3046 127.717H14.6744C14.573 128.382 14.135 128.755 13.5429 128.755C12.7359 128.755 12.2127 128.078 12.2127 126.885C12.2127 125.709 12.7399 125.036 13.5429 125.036C14.1755 125.036 14.5811 125.454 14.6744 126.074H16.3046C16.2316 124.635 15.1407 123.69 13.5145 123.69C11.6247 123.69 10.4567 125 10.4567 126.91C10.4567 128.804 11.6044 130.122 13.5226 130.122ZM20.8097 123.771H19.6377V122.278H17.91V123.771H17.0584V125.069H17.91V128.313C17.9019 129.534 18.7333 130.138 19.9864 130.085C20.4325 130.069 20.7488 129.98 20.9232 129.923L20.6515 128.637C20.5664 128.654 20.3839 128.694 20.2216 128.694C19.8769 128.694 19.6377 128.564 19.6377 128.086V125.069H20.8097V123.771ZM24.7683 130.122C26.6581 130.122 27.8342 128.828 27.8342 126.91C27.8342 124.979 26.6581 123.69 24.7683 123.69C22.8784 123.69 21.7024 124.979 21.7024 126.91C21.7024 128.828 22.8784 130.122 24.7683 130.122ZM24.7764 128.783C23.9044 128.783 23.4584 127.984 23.4584 126.898C23.4584 125.811 23.9044 125.008 24.7764 125.008C25.6321 125.008 26.0782 125.811 26.0782 126.898C26.0782 127.984 25.6321 128.783 24.7764 128.783ZM29.0756 130H30.7789V129.002H30.8559C31.0952 129.521 31.6183 130.101 32.6241 130.101C34.0435 130.101 35.1506 128.978 35.1506 126.894C35.1506 124.752 33.9948 123.69 32.6281 123.69C31.5859 123.69 31.0871 124.31 30.8559 124.817H30.8032V121.694H29.0756V130ZM30.7667 126.885C30.7667 125.774 31.2371 125.065 32.0766 125.065C32.9323 125.065 33.3865 125.807 33.3865 126.885C33.3865 127.972 32.9242 128.727 32.0766 128.727C31.2452 128.727 30.7667 127.997 30.7667 126.885ZM39.2278 130.122C40.7689 130.122 41.8071 129.371 42.0504 128.216L40.4526 128.11C40.2782 128.585 39.8321 128.832 39.2562 128.832C38.3924 128.832 37.8449 128.26 37.8449 127.332V127.327H42.0869V126.853C42.0869 124.736 40.8054 123.69 39.1589 123.69C37.3258 123.69 36.1376 124.992 36.1376 126.914C36.1376 128.889 37.3096 130.122 39.2278 130.122ZM37.8449 126.257C37.8814 125.547 38.4208 124.979 39.1873 124.979C39.9375 124.979 40.4566 125.515 40.4607 126.257H37.8449ZM43.2999 130H45.0276V126.476C45.0276 125.709 45.5872 125.182 46.3496 125.182C46.5889 125.182 46.9174 125.223 47.0796 125.275V123.742C46.9255 123.706 46.7106 123.682 46.5362 123.682C45.8386 123.682 45.2668 124.087 45.0397 124.858H44.9748V123.771H43.2999V130Z" fill="#25314C"/>
<path d="M3.43494 46.145H194.435V45.745H3.43494V46.145Z" fill="url(#paint0_linear_708:149)"/>
<path d="M3.43494 163.145H194.435V162.745H3.43494V163.145Z" fill="url(#paint1_linear_708:149)"/>
<defs>
<linearGradient id="paint0_linear_708:149" x1="3.43492" y1="46.7716" x2="77.7562" y2="-114.239" gradientUnits="userSpaceOnUse">
<stop stop-color="#41D4C7"/>
<stop offset="1" stop-color="#02A1FE"/>
</linearGradient>
<linearGradient id="paint1_linear_708:149" x1="3.43492" y1="163.772" x2="77.7562" y2="2.76138" gradientUnits="userSpaceOnUse">
<stop stop-color="#41D4C7"/>
<stop offset="1" stop-color="#02A1FE"/>
</linearGradient>
</defs>
</svg>
