<svg width="62" height="19" viewBox="0 0 62 19" fill="none" xmlns="http://www.w3.org/2000/svg">
<path d="M60.3078 13.82C25.6239 24.4269 0 13.82 0 13.82L19.0883 0C26.3155 5.32071 32.6091 8.60297 38.0036 10.6414C38.4186 10.7796 38.799 10.9524 39.2139 11.0906C39.4906 11.1942 39.7672 11.2979 40.0438 11.367C40.4934 11.5052 40.9429 11.6779 41.3925 11.7816C41.5999 11.8507 41.842 11.9198 42.0495 11.9889C42.5336 12.1271 42.9832 12.2653 43.4327 12.3689C43.6748 12.438 43.9514 12.5071 44.1935 12.5417C44.4701 12.6108 46.4066 13.0254 46.5795 13.0599C46.8561 13.129 47.1674 13.1636 47.444 13.1981C48.6197 13.4054 49.7609 13.5436 50.8329 13.6473C51.1095 13.6818 51.3861 13.6818 51.6282 13.7164C51.6282 13.7164 52.8039 13.7855 53.3572 13.82C53.4955 13.82 53.6338 13.82 53.7722 13.82C56.2965 13.9237 58.4405 13.82 60.2387 13.82H60.3078Z" fill="#1B98ED"/>
<path d="M61.5876 12.7835C61.5876 12.7835 61.2072 12.7835 60.8268 12.8181C60.6539 12.8181 60.481 12.8181 60.3081 12.8181H60.239C58.4062 12.8181 56.2622 12.9217 53.7725 12.8181C53.6341 12.8181 53.4958 12.8181 53.3575 12.8181C52.8042 12.7835 51.6631 12.7144 51.6285 12.7144C51.3519 12.6799 51.1098 12.6799 50.8332 12.6453C49.7612 12.5417 48.62 12.4035 47.4443 12.1962C47.1677 12.1616 46.8564 12.0925 46.5798 12.058C46.4069 12.0234 46.234 11.9889 46.0611 11.9543C45.7499 11.8852 44.4704 11.6088 44.1938 11.5397C43.9517 11.4706 43.7096 11.4361 43.433 11.367C42.9835 11.2633 42.4993 11.1251 42.0498 10.9869C41.8423 10.9178 41.6348 10.8487 41.3928 10.7796C40.9432 10.6414 40.4937 10.5032 40.0441 10.365C39.7675 10.2614 39.4909 10.1923 39.2142 10.0886C38.8338 9.95041 38.4189 9.81221 38.0039 9.63946L46.9602 3.14404L61.5876 12.7835Z" fill="#C6EBF4"/>
</svg>
