<svg width="445" height="148" viewBox="0 0 445 148" fill="none" xmlns="http://www.w3.org/2000/svg">
<path d="M38 112.479L445 112.479" stroke="#E1E8ED"/>
<path d="M38 112.479L32 112.479" stroke="#8A9BA8"/>
<path d="M8.80328 115.578C10.2664 115.578 11.3104 114.545 11.3068 113.128C11.3104 111.722 10.3303 110.699 9.0057 110.699C8.46593 110.699 7.96522 110.905 7.68112 111.182H7.63851L7.86933 109.147H10.9553V108.206H6.95669L6.54831 111.871L7.55328 112.02C7.82672 111.775 8.31678 111.608 8.75712 111.608C9.62005 111.615 10.245 112.262 10.245 113.149C10.245 114.023 9.6378 114.655 8.80328 114.655C8.10016 114.655 7.54263 114.208 7.48581 113.583H6.42047C6.46308 114.74 7.46806 115.578 8.80328 115.578Z" fill="#8A9BA8"/>
<path d="M15.1358 115.6C16.8155 115.6 17.7992 114.229 17.7992 111.846C17.7992 109.481 16.8013 108.107 15.1358 108.107C13.4668 108.107 12.4725 109.477 12.4689 111.846C12.4689 114.225 13.4526 115.596 15.1358 115.6ZM15.1358 114.651C14.1522 114.651 13.5591 113.664 13.5591 111.846C13.5627 110.035 14.1557 109.037 15.1358 109.037C16.1124 109.037 16.709 110.035 16.709 111.846C16.709 113.664 16.116 114.651 15.1358 114.651Z" fill="#8A9BA8"/>
<path d="M19.1584 115.479H20.2557V113.217L21.1151 112.23L23.4659 115.479H24.7869L21.8431 111.48L24.7763 108.206H23.3949L20.3445 111.679H20.2557V108.206H19.1584V115.479Z" fill="#8A9BA8"/>
<path d="M38 144.5H445" stroke="#8A9BA8"/>
<path d="M0.0159523 18.0001H4.80288V17.059H1.52874V17.0058L2.97405 15.493C4.30573 14.1471 4.6857 13.5044 4.6857 12.6911C4.6857 11.5228 3.73399 10.6279 2.36325 10.6279C1.00317 10.6279 0.0088501 11.5086 0.0088501 12.8367H1.05644C1.05288 12.0555 1.55715 11.5441 2.34195 11.5441C3.08058 11.5441 3.64166 11.9987 3.64166 12.7231C3.64166 13.3659 3.25814 13.8275 2.47689 14.6549L0.0159523 17.2046V18.0001Z" fill="#8A9BA8"/>
<path d="M8.68073 18.1208C10.3604 18.1208 11.3441 16.7501 11.3441 14.3673C11.3441 12.0022 10.3462 10.6279 8.68073 10.6279C7.01169 10.6279 6.01737 11.9987 6.01382 14.3673C6.01382 16.7465 6.99749 18.1173 8.68073 18.1208ZM8.68073 17.1727C7.69706 17.1727 7.10402 16.1855 7.10402 14.3673C7.10757 12.5562 7.70061 11.5583 8.68073 11.5583C9.65729 11.5583 10.2539 12.5562 10.2539 14.3673C10.2539 16.1855 9.66084 17.1727 8.68073 17.1727Z" fill="#8A9BA8"/>
<path d="M15.1358 18.1208C16.8155 18.1208 17.7992 16.7501 17.7992 14.3673C17.7992 12.0022 16.8013 10.6279 15.1358 10.6279C13.4668 10.6279 12.4725 11.9987 12.4689 14.3673C12.4689 16.7465 13.4526 18.1173 15.1358 18.1208ZM15.1358 17.1727C14.1521 17.1727 13.5591 16.1855 13.5591 14.3673C13.5627 12.5562 14.1557 11.5583 15.1358 11.5583C16.1124 11.5583 16.709 12.5562 16.709 14.3673C16.709 16.1855 16.1159 17.1727 15.1358 17.1727Z" fill="#8A9BA8"/>
<path d="M19.1584 18.0001H20.2557V15.738L21.115 14.7508L23.4659 18.0001H24.7869L21.843 14.0015L24.7763 10.7274H23.3949L20.3444 14.2004H20.2557V10.7274H19.1584V18.0001Z" fill="#8A9BA8"/>
<path d="M38 14L32 14.0002" stroke="#8A9BA8"/>
<path d="M38 14L445 14" stroke="#E1E8ED"/>
<path d="M38 46.4929L445 46.493" stroke="#E1E8ED"/>
<path d="M38 46.4929L32 46.4931" stroke="#8A9BA8"/>
<path d="M4.43534 43.2203H3.36645L1.55182 44.4064V45.4575L3.29188 44.3211H3.33449V50.493H4.43534V43.2203Z" fill="#8A9BA8"/>
<path d="M8.80324 50.5924C10.2663 50.5924 11.3103 49.5591 11.3068 48.1422C11.3103 46.7359 10.3302 45.7132 9.00565 45.7132C8.46588 45.7132 7.96517 45.9191 7.68108 46.1961H7.63847L7.86929 44.1613H10.9552V43.2203H6.95665L6.54827 46.8851L7.55324 47.0342C7.82668 46.7892 8.31673 46.6223 8.75708 46.6223C9.62 46.6294 10.245 47.2757 10.245 48.1635C10.245 49.037 9.63776 49.6691 8.80324 49.6691C8.10011 49.6691 7.54259 49.2217 7.48577 48.5967H6.42043C6.46304 49.7544 7.46801 50.5924 8.80324 50.5924Z" fill="#8A9BA8"/>
<path d="M15.1358 50.6137C16.8155 50.6137 17.7992 49.243 17.7992 46.8602C17.7992 44.4951 16.8013 43.1208 15.1358 43.1208C13.4668 43.1208 12.4725 44.4916 12.4689 46.8602C12.4689 49.2395 13.4526 50.6102 15.1358 50.6137ZM15.1358 49.6656C14.1521 49.6656 13.5591 48.6784 13.5591 46.8602C13.5627 45.0491 14.1557 44.0512 15.1358 44.0512C16.1124 44.0512 16.709 45.0491 16.709 46.8602C16.709 48.6784 16.1159 49.6656 15.1358 49.6656Z" fill="#8A9BA8"/>
<path d="M19.1584 50.493H20.2557V48.2309L21.115 47.2437L23.4659 50.493H24.7869L21.843 46.4944L24.7763 43.2203H23.3949L20.3444 46.6933H20.2557V43.2203H19.1584V50.493Z" fill="#8A9BA8"/>
<path d="M38 78.9858L445 78.9859" stroke="#E1E8ED"/>
<path d="M38 78.9858L32 78.9861" stroke="#8A9BA8"/>
<path d="M4.18144 75.7132H3.11254L1.29791 76.8993V77.9504L3.03797 76.8141H3.08058V82.9859H4.18144V75.7132Z" fill="#8A9BA8"/>
<path d="M8.68073 83.1067C10.3604 83.1067 11.3441 81.7359 11.3441 79.3531C11.3441 76.9881 10.3462 75.6138 8.68073 75.6138C7.01169 75.6138 6.01737 76.9845 6.01382 79.3531C6.01382 81.7324 6.99749 83.1031 8.68073 83.1067ZM8.68073 82.1585C7.69706 82.1585 7.10402 81.1713 7.10402 79.3531C7.10757 77.542 7.70061 76.5442 8.68073 76.5442C9.65729 76.5442 10.2539 77.542 10.2539 79.3531C10.2539 81.1713 9.66084 82.1585 8.68073 82.1585Z" fill="#8A9BA8"/>
<path d="M15.1358 83.1067C16.8155 83.1067 17.7992 81.7359 17.7992 79.3531C17.7992 76.9881 16.8013 75.6138 15.1358 75.6138C13.4668 75.6138 12.4725 76.9845 12.4689 79.3531C12.4689 81.7324 13.4526 83.1031 15.1358 83.1067ZM15.1358 82.1585C14.1521 82.1585 13.5591 81.1713 13.5591 79.3531C13.5627 77.542 14.1557 76.5442 15.1358 76.5442C16.1124 76.5442 16.709 77.542 16.709 79.3531C16.709 81.1713 16.1159 82.1585 15.1358 82.1585Z" fill="#8A9BA8"/>
<path d="M19.1584 82.9859H20.2557V80.7239L21.115 79.7366L23.4659 82.9859H24.7869L21.843 78.9873L24.7763 75.7132H23.3949L20.3444 79.1862H20.2557V75.7132H19.1584V82.9859Z" fill="#8A9BA8"/>
<path d="M38 14L38 148" stroke="#8A9BA8"/>
<path d="M116 146L116 0" stroke="#E1E8ED" stroke-dasharray="5 1"/>
<path d="M120.98 10H121.903L125.142 3.55114V2.72727H120.483V3.50852H124.233V3.56534L120.98 10ZM126.749 9.0696C127.1 9.0696 127.388 8.78196 127.388 8.4304C127.388 8.07884 127.1 7.79119 126.749 7.79119C126.397 7.79119 126.11 8.07884 126.11 8.4304C126.11 8.78196 126.397 9.0696 126.749 9.0696ZM126.749 5.39062C127.1 5.39062 127.388 5.10298 127.388 4.75142C127.388 4.39986 127.1 4.11222 126.749 4.11222C126.397 4.11222 126.11 4.39986 126.11 4.75142C126.11 5.10298 126.397 5.39062 126.749 5.39062ZM131.435 2.72727H130.554L128.736 3.93466V4.82955L130.511 3.65057H130.554V10H131.435V2.72727ZM135.799 10.0994C137.184 10.0994 138.2 9.0767 138.2 7.68466C138.2 6.27486 137.219 5.24148 135.884 5.24148C135.394 5.24148 134.918 5.41548 134.62 5.65341H134.577L134.833 3.50852H137.873V2.72727H134.094L133.654 6.30682L134.478 6.40625C134.78 6.18963 135.295 6.03338 135.742 6.03693C136.669 6.04403 137.347 6.74716 137.347 7.69886C137.347 8.63281 136.694 9.31818 135.799 9.31818C135.053 9.31818 134.46 8.83878 134.393 8.18182H133.54C133.594 9.28977 134.549 10.0994 135.799 10.0994ZM141.23 10.1278C142.181 10.1278 142.678 9.61648 142.849 9.26136H142.892V10H143.73V6.40625C143.73 4.6733 142.409 4.47443 141.713 4.47443C140.889 4.47443 139.951 4.75852 139.525 5.75284L140.32 6.03693C140.505 5.6392 140.942 5.21307 141.741 5.21307C142.512 5.21307 142.892 5.62145 142.892 6.32102V6.34943C142.892 6.75426 142.48 6.71875 141.485 6.84659C140.473 6.97798 139.369 7.2017 139.369 8.4517C139.369 9.51705 140.193 10.1278 141.23 10.1278ZM141.357 9.375C140.69 9.375 140.207 9.0767 140.207 8.49432C140.207 7.85511 140.789 7.65625 141.443 7.57102C141.798 7.52841 142.749 7.42898 142.892 7.25852V8.02557C142.892 8.70739 142.352 9.375 141.357 9.375ZM145.259 10H146.097V6.59091C146.097 5.7919 146.68 5.22727 147.333 5.22727C147.969 5.22727 148.413 5.64276 148.413 6.2642V10H149.265V6.44886C149.265 5.74574 149.705 5.22727 150.472 5.22727C151.069 5.22727 151.58 5.54332 151.58 6.34943V10H152.418V6.34943C152.418 5.06747 151.729 4.47443 150.756 4.47443C149.975 4.47443 149.403 4.8331 149.123 5.39773H149.066C148.796 4.81534 148.32 4.47443 147.603 4.47443C146.893 4.47443 146.367 4.81534 146.14 5.39773H146.069V4.54545H145.259V10Z" fill="#8A9BA8"/>
</svg>
