<svg width="524" height="281" viewBox="0 0 524 281" fill="none" xmlns="http://www.w3.org/2000/svg">
<g clip-path="url(#clip0_1334_5181)">
<path d="M30.4472 240.034L1.80943 256.836L34.1339 274.93L114 227L87.5 210.5" stroke="#02A1FE" stroke-opacity="0.5" stroke-width="0.7" stroke-dasharray="2 2"/>
<rect width="219.869" height="277.3" transform="matrix(-0.864498 0.502636 0.864498 0.502636 191.991 24.3152)" fill="white" stroke="black" stroke-width="0.7" stroke-linecap="square" stroke-linejoin="bevel"/>
<path d="M133.925 91.7693L169.552 112.726L133.925 133.682L98.1001 112.726L133.925 91.7693Z" fill="white" stroke="#02A1FE" stroke-width="0.7" stroke-linejoin="round"/>
<path d="M98.1006 154.929L133.727 175.885L133.926 133.684L98.1006 112.727L98.1006 154.929Z" fill="white" stroke="#02A1FE" stroke-width="0.7" stroke-linejoin="round"/>
<path d="M169.552 154.929L169.552 112.727L133.926 133.684L133.727 175.885L169.552 154.929Z" fill="#E5F6FF" stroke="#02A1FE" stroke-width="0.7" stroke-linejoin="round"/>
<path d="M241.851 154.769L277.477 175.726L241.851 196.682L206.026 175.726L241.851 154.769Z" fill="white" stroke="#02A1FE" stroke-width="0.7" stroke-linejoin="round"/>
<path d="M277.477 218.05L241.851 239.007L206.026 218.05" stroke="#02A1FE" stroke-width="0.7" stroke-linejoin="round"/>
<path d="M206.026 217.929L241.653 238.885L241.852 196.684L206.026 175.727L206.026 217.929Z" fill="white" stroke="#02A1FE" stroke-width="0.7" stroke-linejoin="round"/>
<path d="M277.478 217.929L277.478 175.727L241.852 196.684L241.653 238.885L277.478 217.929Z" fill="#E5F6FF" stroke="#02A1FE" stroke-width="0.7" stroke-linejoin="round"/>
<path d="M312.826 197.536L312.826 155.335L277.2 176.292L277.001 218.493L312.826 197.536Z" fill="#E5F6FF" stroke="#02A1FE" stroke-width="0.7" stroke-linejoin="round"/>
<path d="M206 134L169 112" stroke="#02A1FE" stroke-width="0.7" stroke-linejoin="round"/>
<path d="M205.926 175.694L170.101 154.737" stroke="#02A1FE" stroke-width="0.7" stroke-linejoin="round"/>
<path d="M169.925 112.706L134.1 91.7492" stroke="#02A1FE" stroke-width="0.7" stroke-linejoin="round"/>
<path d="M169.926 155.028L134.101 134.071" stroke="#02A1FE" stroke-width="0.7" stroke-linejoin="round"/>
<path d="M134.101 133.948L169.727 154.904L169.926 112.703L134.101 91.7468L134.101 133.948Z" fill="white" stroke="#02A1FE" stroke-width="0.7" stroke-linejoin="round"/>
<path d="M204.962 92.9107L169.417 72.0654" stroke="#02A1FE" stroke-width="0.7" stroke-linejoin="round"/>
<path d="M169.313 71.1252L204.759 91.7982L169.351 112.471L133.805 91.6257L169.313 71.1252Z" fill="white" stroke="#02A1FE" stroke-width="0.7" stroke-linejoin="round"/>
<path d="M205.925 175.682L170.1 154.726" stroke="#02A1FE" stroke-width="0.7" stroke-linejoin="round"/>
<path d="M205.926 218.004L170.101 197.048" stroke="#02A1FE" stroke-width="0.7" stroke-linejoin="round"/>
<path d="M170.101 196.925L205.727 217.881L205.926 175.68L170.101 154.723L170.101 196.925Z" fill="white" stroke="#02A1FE" stroke-width="0.7" stroke-linejoin="round"/>
<path d="M277.002 175.704L312.827 154.747" stroke="#02A1FE" stroke-width="0.7" stroke-linejoin="round"/>
<path d="M206.925 8.76927L242.552 29.7256L206.925 50.6825L171.1 29.7258L206.925 8.76927Z" fill="white" stroke="#02A1FE" stroke-width="0.7" stroke-linejoin="round"/>
<path d="M206.925 93.0067L171.1 72.05" stroke="#02A1FE" stroke-width="0.7" stroke-linejoin="round"/>
<path d="M171.101 71.9247L206.727 92.8811L206.926 50.68L171.101 29.7234L171.101 71.9247Z" fill="white" stroke="#02A1FE" stroke-width="0.7" stroke-linejoin="round"/>
<path d="M304.925 107.769L340.552 128.726L304.925 149.682L269.1 128.726L304.925 107.769Z" fill="white" stroke="#02A1FE" stroke-width="0.7" stroke-linejoin="round"/>
<path d="M340.552 171.05L304.925 192.007L269.1 171.05" stroke="#02A1FE" stroke-width="0.7" stroke-linejoin="round"/>
<path d="M269.101 170.929L304.727 191.885L304.926 149.684L269.101 128.727L269.101 170.929Z" fill="white" stroke="#02A1FE" stroke-width="0.7" stroke-linejoin="round"/>
<path d="M340.552 170.929L340.552 128.727L304.926 149.684L304.727 191.885L340.552 170.929Z" fill="#E5F6FF" stroke="#02A1FE" stroke-width="0.7" stroke-linejoin="round"/>
<rect width="15.976" height="15.671" transform="matrix(-0.843588 0.536992 0.843588 0.536992 81.498 167)" fill="white" stroke="black" stroke-width="0.7" stroke-linecap="square" stroke-linejoin="bevel"/>
<rect width="16.0806" height="51.795" transform="matrix(-0.843567 0.537025 0 1 94.7188 175.418)" fill="#E5F6FF" stroke="black" stroke-width="0.7" stroke-linecap="square" stroke-linejoin="bevel"/>
<rect width="15.4861" height="51.886" transform="matrix(0.843567 0.537025 0 1 68 175.59)" fill="white" stroke="black" stroke-width="0.7" stroke-linecap="square" stroke-linejoin="bevel"/>
<rect width="15.976" height="15.671" transform="matrix(-0.843588 0.536992 0.843588 0.536992 58.4985 194.566)" fill="white" stroke="black" stroke-width="0.7" stroke-linecap="square" stroke-linejoin="bevel"/>
<rect width="16.0806" height="38.7108" transform="matrix(-0.843567 0.537025 0 1 71.7188 203.103)" fill="#E5F6FF" stroke="black" stroke-width="0.7" stroke-linecap="square" stroke-linejoin="bevel"/>
<rect width="15.4861" height="39.0176" transform="matrix(0.843567 0.537025 0 1 45 203.059)" fill="white" stroke="black" stroke-width="0.7" stroke-linecap="square" stroke-linejoin="bevel"/>
<rect width="15.976" height="15.671" transform="matrix(-0.843588 0.536992 0.843588 0.536992 35.4985 218.824)" fill="white" stroke="black" stroke-width="0.7" stroke-linecap="square" stroke-linejoin="bevel"/>
<rect width="16.0806" height="27.9173" transform="matrix(-0.843567 0.537025 0 1 48.7188 227.128)" fill="#E5F6FF" stroke="black" stroke-width="0.7" stroke-linecap="square" stroke-linejoin="bevel"/>
<rect width="15.4861" height="27.8944" transform="matrix(0.843567 0.537025 0 1 22 227.414)" fill="white" stroke="black" stroke-width="0.7" stroke-linecap="square" stroke-linejoin="bevel"/>
<path d="M241.851 112.836L277.477 133.792L241.851 154.749L206.026 133.792L241.851 112.836Z" fill="white" stroke="#02A1FE" stroke-width="0.7" stroke-linejoin="round"/>
<path d="M277.477 176.116L241.851 197.073L206.026 176.116" stroke="#02A1FE" stroke-width="0.7" stroke-linejoin="round"/>
<path d="M206.026 175.995L241.653 196.951L241.852 154.75L206.026 133.794L206.026 175.995Z" fill="white" stroke="#02A1FE" stroke-width="0.7" stroke-linejoin="round"/>
<path d="M277.478 175.995L277.478 133.794L241.852 154.751L241.653 196.952L277.478 175.995Z" fill="#E5F6FF" stroke="#02A1FE" stroke-width="0.7" stroke-linejoin="round"/>
<path d="M241.925 29.4353L277.552 50.3916L241.925 71.3485L206.1 50.3919L241.925 29.4353Z" fill="white" stroke="#02A1FE" stroke-width="0.7" stroke-linejoin="round"/>
<path d="M277.552 92.7159L241.925 113.673L206.1 92.7161" stroke="#02A1FE" stroke-width="0.7" stroke-linejoin="round"/>
<path d="M277.552 92.5949L277.552 50.3933L241.926 71.3501L241.727 113.551L277.552 92.5949Z" fill="white" stroke="#02A1FE" stroke-width="0.7" stroke-linejoin="round"/>
<path d="M206.101 92.5907L241.727 113.547L241.926 71.346L206.101 50.3894L206.101 92.5907Z" fill="white" stroke="#02A1FE" stroke-width="0.7" stroke-linejoin="round"/>
<path d="M197.925 22.4353L233.552 43.3916L197.925 64.3485L162.1 43.3919L197.925 22.4353Z" fill="white" stroke="#02A1FE" stroke-width="0.7" stroke-linejoin="round"/>
<path d="M233.552 85.7159L197.925 106.673L162.1 85.7161" stroke="#02A1FE" stroke-width="0.7" stroke-linejoin="round"/>
<path d="M162.101 85.5907L197.727 106.547L197.926 64.346L162.101 43.3894L162.101 85.5907Z" fill="white" stroke="#02A1FE" stroke-width="0.7" stroke-linejoin="round"/>
<path d="M233.552 85.5949L233.552 43.3933L197.926 64.3501L197.727 106.551L233.552 85.5949Z" fill="#E5F6FF" stroke="#02A1FE" stroke-width="0.7" stroke-linejoin="round"/>
<path d="M162.925 1.76927L198.552 22.7256L162.925 43.6825L127.1 22.7258L162.925 1.76927Z" fill="white" stroke="#02A1FE" stroke-width="0.7" stroke-linejoin="round"/>
<path d="M162.925 86.0067L127.1 65.05" stroke="#02A1FE" stroke-width="0.7" stroke-linejoin="round"/>
<path d="M127.101 64.9247L162.727 85.8811L162.926 43.68L127.101 22.7234L127.101 64.9247Z" fill="white" stroke="#02A1FE" stroke-width="0.7" stroke-linejoin="round"/>
<path d="M276.925 49.7693L312.552 70.7256L276.925 91.6825L241.1 70.7258L276.925 49.7693Z" fill="white" stroke="#02A1FE" stroke-width="0.7" stroke-linejoin="round"/>
<path d="M276.925 134.007L241.1 113.05" stroke="#02A1FE" stroke-width="0.7" stroke-linejoin="round"/>
<path d="M241.101 112.925L276.727 133.881L276.926 91.68L241.101 70.7234L241.101 112.925Z" fill="white" stroke="#02A1FE" stroke-width="0.7" stroke-linejoin="round"/>
<path d="M312.552 112.929L312.552 70.7273L276.926 91.6841L276.727 133.885L294.64 123.407L312.552 112.929Z" fill="#E5F6FF" stroke="#02A1FE" stroke-width="0.7" stroke-linejoin="round"/>
<path d="M410.937 13.9886L427.795 23.905L410.937 33.8215L393.985 23.9051L410.937 13.9886Z" stroke="#02A1FE" stroke-width="0.7" stroke-linejoin="round"/>
<path d="M427.795 43.9323L410.937 53.8488L393.985 43.9324" stroke="#02A1FE" stroke-width="0.7" stroke-linejoin="round"/>
<path d="M393.985 43.8743L410.843 53.7907L410.937 33.8216L393.985 23.9052L393.985 43.8743Z" stroke="#02A1FE" stroke-width="0.7" stroke-linejoin="round"/>
<path d="M427.795 43.8742L427.795 23.9049L410.937 33.8214L410.843 53.7906L427.795 43.8742Z" fill="#E5F6FF" stroke="#02A1FE" stroke-width="0.7" stroke-linejoin="round"/>
<path d="M517.715 87.9139L517.715 17.0005L434.002 63.7942L434.314 135.001L517.715 87.9139Z" stroke="#02A1FE" stroke-opacity="0.5" stroke-width="0.7" stroke-dasharray="2 2"/>
<line x1="454.964" y1="53.0005" x2="454.964" y2="123" stroke="#02A1FE" stroke-opacity="0.2" stroke-width="0.7"/>
<line x1="434.546" y1="84.7104" x2="517.322" y2="38.1129" stroke="#02A1FE" stroke-opacity="0.2" stroke-width="0.7"/>
<line x1="434.546" y1="110.759" x2="517.322" y2="64.1612" stroke="#02A1FE" stroke-opacity="0.2" stroke-width="0.7"/>
<line x1="499.965" y1="28.0006" x2="499.965" y2="97.0006" stroke="#02A1FE" stroke-opacity="0.2" stroke-width="0.7"/>
<line x1="476.964" y1="40.0006" x2="476.964" y2="110.001" stroke="#02A1FE" stroke-opacity="0.2" stroke-width="0.7"/>
<path d="M448.596 106.57C446.969 109.414 444.877 110.262 443.864 110.359C443.759 110.369 443.672 110.454 443.672 110.56V125.666C443.672 125.815 443.833 125.907 443.961 125.832L520.904 81.0583C520.963 81.0238 521 80.9605 521 80.8921V40.8815C521 40.7303 520.835 40.6378 520.709 40.7206C517.979 42.5076 511.801 47.4608 506.664 54.559C500.003 63.7632 500.871 76.0353 488.997 81.0026C477.123 85.97 476.544 77.2041 464.959 84.3629C453.375 91.5217 450.768 102.771 448.596 106.57Z" fill="#02A1FE" fill-opacity="0.17" stroke="black" stroke-width="0.7"/>
<path d="M442.48 104.055L442.177 103.881L442.48 104.055ZM500.419 52.4294L500.702 52.6353L500.702 52.6353L500.419 52.4294ZM520.386 40.8309C520.569 40.8939 520.768 40.7968 520.831 40.6141C520.894 40.4314 520.797 40.2321 520.614 40.1691L520.386 40.8309ZM514.506 38.6457L514.696 38.9398L514.506 38.6457ZM514.968 38.5921L514.854 38.923L514.968 38.5921ZM437.972 107.72L437.881 107.382L437.972 107.72ZM437.874 123.137L437.722 123.452L437.874 123.137ZM437.918 122.648V108.244H437.218V122.648H437.918ZM438.062 108.058C438.764 107.87 439.544 107.628 440.352 107.066C441.16 106.504 441.974 105.637 442.784 104.23L442.177 103.881C441.408 105.219 440.659 106 439.952 106.491C439.246 106.983 438.56 107.2 437.881 107.382L438.062 108.058ZM442.784 104.23C445.012 100.354 447.533 89.3547 458.99 82.311L458.624 81.7147C446.964 88.8826 444.283 100.216 442.177 103.881L442.784 104.23ZM458.99 82.311C461.852 80.5516 464.01 79.7859 465.813 79.5339C467.615 79.2822 469.092 79.5383 470.616 79.8714C472.137 80.2035 473.723 80.6178 475.669 80.6294C477.623 80.6411 479.927 80.2486 482.926 79.0006L482.657 78.3543C479.732 79.5717 477.521 79.9405 475.673 79.9295C473.818 79.9184 472.316 79.5261 470.766 79.1875C469.22 78.8499 467.644 78.5713 465.717 78.8407C463.791 79.1098 461.541 79.9212 458.624 81.7147L458.99 82.311ZM482.926 79.0006C488.97 76.4856 491.765 72.1124 493.877 67.2704C494.404 66.0621 494.889 64.8222 495.371 63.5755C495.854 62.3269 496.333 61.0727 496.85 59.8257C497.884 57.3327 499.064 54.8872 500.702 52.6353L500.136 52.2235C498.451 54.5397 497.247 57.0428 496.204 59.5575C495.682 60.8143 495.2 62.0786 494.718 63.3231C494.236 64.5695 493.756 65.7971 493.235 66.9906C491.157 71.756 488.462 75.9388 482.657 78.3543L482.926 79.0006ZM500.702 52.6353C505.846 45.5651 512.043 40.652 514.696 38.9398L514.316 38.3516C511.601 40.1038 505.337 45.074 500.136 52.2235L500.702 52.6353ZM514.854 38.923L520.386 40.8309L520.614 40.1691L515.082 38.2613L514.854 38.923ZM443.996 125.699L438.026 122.821L437.722 123.452L443.692 126.329L443.996 125.699ZM514.696 38.9398C514.74 38.9114 514.797 38.9035 514.854 38.923L515.082 38.2613C514.829 38.1741 514.547 38.2026 514.316 38.3516L514.696 38.9398ZM437.918 108.244C437.918 108.158 437.976 108.081 438.062 108.058L437.881 107.382C437.492 107.486 437.218 107.837 437.218 108.244H437.918ZM437.218 122.648C437.218 122.991 437.414 123.303 437.722 123.452L438.026 122.821C437.96 122.789 437.918 122.722 437.918 122.648H437.218Z" fill="black"/>
<path d="M437.888 108.074L443.472 110.418" stroke="black" stroke-width="0.7"/>
<line x1="411.01" y1="13.6501" x2="515.01" y2="16.6501" stroke="#02A1FE" stroke-opacity="0.5" stroke-width="0.7" stroke-dasharray="2 2"/>
<line x1="428.155" y1="43.6862" x2="517.155" y2="87.6862" stroke="#02A1FE" stroke-opacity="0.5" stroke-width="0.7" stroke-dasharray="2 2"/>
<line x1="395.244" y1="26.7492" x2="433.244" y2="63.7492" stroke="#02A1FE" stroke-opacity="0.5" stroke-width="0.7" stroke-dasharray="2 2"/>
<line x1="394.319" y1="45.8568" x2="433.319" y2="132.857" stroke="#02A1FE" stroke-opacity="0.5" stroke-width="0.7" stroke-dasharray="2 2"/>
<path d="M21.3471 88.3474L90.5356 129.046L90.218 40.3161L26.4345 3.38817" stroke="#02A1FE" stroke-opacity="0.5" stroke-width="0.7" stroke-dasharray="2 2"/>
<path d="M422.452 182.322L342.522 229.218L432.742 279.721L509 233.5" stroke="#02A1FE" stroke-opacity="0.5" stroke-width="0.7" stroke-dasharray="2 2"/>
<path d="M388.974 254.343L354.903 276.49L264.697 226.281" stroke="#02A1FE" stroke-opacity="0.5" stroke-width="0.7" stroke-dasharray="2 2"/>
<path d="M323 161.819L359.216 180.252L359.216 88" stroke="#02A1FE" stroke-opacity="0.5" stroke-width="0.7" stroke-dasharray="2 2"/>
<path d="M92.0014 88.8915L133.098 113.066" stroke="#02A1FE" stroke-opacity="0.5" stroke-width="0.7" stroke-dasharray="2 2"/>
<path d="M291.589 69.8446V70.9737C291.589 74.8542 285.952 78 279 78C272.047 78 266.411 74.8542 266.411 70.9737V69.6077" stroke="#02A1FE" stroke-opacity="0.5" stroke-width="0.7" stroke-linejoin="round"/>
<path d="M291.239 69.3747C291.239 71.1913 289.953 72.9036 287.727 74.1813C285.511 75.4535 282.426 76.2515 279 76.2515V76.9515C282.526 76.9515 285.736 76.1317 288.076 74.7884C290.406 73.4505 291.939 71.5493 291.939 69.3747H291.239ZM279 76.2515C275.574 76.2515 272.489 75.4535 270.273 74.1813C268.047 72.9036 266.761 71.1913 266.761 69.3747H266.061C266.061 71.5493 267.594 73.4505 269.924 74.7884C272.264 76.1317 275.474 76.9515 279 76.9515V76.2515ZM266.761 69.3747C266.761 67.5581 268.047 65.8459 270.273 64.5682C272.489 63.296 275.574 62.4979 279 62.4979V61.7979C275.474 61.7979 272.264 62.6177 269.924 63.9611C267.594 65.299 266.061 67.2001 266.061 69.3747H266.761ZM279 62.4979C282.426 62.4979 285.511 63.296 287.727 64.5682C289.953 65.8459 291.239 67.5581 291.239 69.3747H291.939C291.939 67.2001 290.406 65.299 288.076 63.9611C285.736 62.6177 282.526 61.7979 279 61.7979V62.4979Z" fill="black"/>
<path opacity="0.4" d="M273.405 65.8778V72.8715L286.46 71.6657V68.2894" stroke="#02A1FE" stroke-width="0.7" stroke-linejoin="round"/>
<path d="M273.405 71.4727L286.46 70.5081V67.8071L276.125 68.5788V65.8778H273.405V71.4727Z" stroke="black" stroke-width="0.7" stroke-linejoin="round"/>
<path d="M159.215 123.121C157.067 117.767 152.412 114.511 148.874 115.524L145.729 117.097L154.641 135.969L156.738 134.92C160.276 133.907 161.364 128.474 159.215 123.121Z" fill="#E5F6FF" stroke="#02A1FE" stroke-opacity="0.5" stroke-width="0.7" stroke-linejoin="round"/>
<path d="M146.412 116.727C150.051 115.685 154.743 119.18 156.891 124.534C159.04 129.887 157.832 135.072 154.193 136.114C150.554 137.155 145.863 133.66 143.714 128.306C141.566 122.953 142.774 117.768 146.412 116.727Z" fill="white" stroke="black" stroke-width="0.7" stroke-linejoin="round"/>
<path d="M378.276 56.8746L360.463 67.353L342.55 56.8747" stroke="#02A1FE" stroke-width="0.7" stroke-linejoin="round"/>
<path d="M360.463 88.5138L342.55 78.0355" stroke="#02A1FE" stroke-width="0.7" stroke-linejoin="round"/>
<path d="M342.55 77.9741L360.363 88.4523L360.463 67.3517L342.55 56.8734L342.55 77.9741Z" fill="white" stroke="#02A1FE" stroke-width="0.7" stroke-linejoin="round"/>
<path d="M360.463 25.3846L378.276 35.8628L360.463 46.3413L342.55 35.8629L360.463 25.3846Z" fill="white" stroke="#02A1FE" stroke-width="0.7" stroke-linejoin="round"/>
<path d="M378.276 57.0249L360.463 67.5034L342.55 57.0251" stroke="#02A1FE" stroke-width="0.7" stroke-linejoin="round"/>
<path d="M342.55 56.9624L360.363 67.4406L360.463 46.34L342.55 35.8617L342.55 56.9624Z" fill="white" stroke="#02A1FE" stroke-width="0.7" stroke-linejoin="round"/>
<path d="M378.276 56.9645L378.276 35.8636L360.463 46.3421L360.364 67.4428L378.276 56.9645Z" fill="#E5F6FF" stroke="#02A1FE" stroke-width="0.7" stroke-linejoin="round"/>
<path d="M378.426 57.0848L396.239 67.563L378.426 78.0415L360.513 67.5631L378.426 57.0848Z" fill="white" stroke="#02A1FE" stroke-width="0.7" stroke-linejoin="round"/>
<path d="M396.239 88.7251L378.426 99.2036L360.513 88.7252" stroke="#02A1FE" stroke-width="0.7" stroke-linejoin="round"/>
<path d="M360.513 88.6645L378.326 99.1427L378.426 78.0422L360.513 67.5638L360.513 88.6645Z" fill="white" stroke="#02A1FE" stroke-width="0.7" stroke-linejoin="round"/>
<path d="M396.239 88.6647L396.239 67.5638L378.426 78.0423L378.326 99.143L396.239 88.6647Z" fill="#E5F6FF" stroke="#02A1FE" stroke-width="0.7" stroke-linejoin="round"/>
<path d="M82.3577 44.6552L82.2325 113.183L80.7701 113.912L80.8953 45.3842L16.5261 7.98619L18.0697 7.21675L82.3577 44.6552Z" fill="#80D0FE" stroke="#80D0FE" stroke-width="0.7"/>
<path d="M80.0356 113.924L16.0231 76.3296L16.2278 8.54445L80.16 45.7758L80.0356 113.924Z" fill="white" stroke="black" stroke-width="0.7"/>
<path d="M22.0445 33.8338L73.3859 64.0549" stroke="#02A1FE" stroke-width="0.7" stroke-dasharray="2 2"/>
<path d="M16.3898 20.729L80.1305 58.3036" stroke="black" stroke-width="0.7"/>
<path d="M22.3055 40.8723L73.6469 71.0933" stroke="#02A1FE" stroke-width="0.7" stroke-dasharray="2 2"/>
<path d="M22.4451 47.9108L73.7866 78.1319" stroke="#02A1FE" stroke-width="0.7" stroke-dasharray="2 2"/>
<path d="M22.7064 54.9493L74.0478 85.1704" stroke="#02A1FE" stroke-width="0.7" stroke-dasharray="2 2"/>
<path d="M22.9676 61.9879L74.309 92.2089" stroke="#02A1FE" stroke-width="0.7" stroke-dasharray="2 2"/>
<path d="M22.9676 69.3213L74.309 99.5423" stroke="#02A1FE" stroke-width="0.7" stroke-dasharray="2 2"/>
<path opacity="0.5" d="M430.278 267L365 229.981V228.01L430.278 265.029L506 221V223.081L430.278 267Z" fill="#02A1FE" stroke="#02A1FE" stroke-width="1.1"/>
<path d="M365 226.902L441.109 183L506 219.988L430.278 264L365 226.902Z" fill="white" fill-opacity="0.7" stroke="black" stroke-width="0.7"/>
<path d="M374 226.284L441.083 188L497 219.622L430.25 258L374 226.284Z" stroke="black" stroke-width="0.7"/>
<path d="M486 213.5L472.903 221.238L419 251.653" stroke="black" stroke-width="0.7"/>
<path d="M382.92 232L374 226.856L418.368 201L427 206.306L382.92 232Z" fill="#02A1FE" fill-opacity="0.2"/>
<path d="M446.859 218L442 215.292L454.238 208L459 210.762L446.859 218Z" fill="#02A1FE" fill-opacity="0.2"/>
<path d="M463.899 214L459 211.342L470.2 205L475 207.711L463.899 214Z" fill="#02A1FE" fill-opacity="0.2"/>
<path d="M453.899 208L449 205.342L460.2 199L465 201.711L453.899 208Z" fill="#02A1FE" fill-opacity="0.2"/>
<path d="M427 206L462 227" stroke="black" stroke-width="0.7"/>
<path d="M443 216L400 241" stroke="black" stroke-width="0.7"/>
<path d="M450 193L384 232" stroke="black" stroke-width="0.7"/>
<path d="M170.016 173.94L98.6829 216.749" stroke="#02A1FE" stroke-opacity="0.5" stroke-width="0.7" stroke-dasharray="2 2"/>
<rect width="17.8311" height="4.81326" transform="matrix(0.810966 0.464354 0.810193 -0.586163 214.172 155.18)" fill="#E5F6FF" stroke="#02A1FE" stroke-width="0.7" stroke-linecap="square" stroke-linejoin="bevel"/>
<rect width="15.5134" height="5.02927" transform="matrix(0.0142274 -1.06137 0.810193 -0.586163 228.333 180.106)" fill="#E5F6FF" stroke="#02A1FE" stroke-width="0.7" stroke-linecap="square" stroke-linejoin="bevel"/>
<rect width="17.7151" height="15.5878" transform="matrix(0.810949 0.464391 0.0141918 -1.06137 213.949 171.727)" fill="white" stroke="black" stroke-width="0.7" stroke-linecap="square" stroke-linejoin="bevel"/>
<path d="M158.377 16.148L158.377 13L165 11L180.477 19L180.477 21.9279L174.33 25.5092L158.377 16.148Z" fill="#E5F6FF"/>
<path d="M164.946 11.2576L180.11 19.0963L180.11 21.8387L174.33 25.2063L158.743 16.0598L158.743 13.1306L164.946 11.2576Z" stroke="#02A1FE" stroke-opacity="0.5" stroke-width="0.6"/>
<path d="M154.82 22.1476L154.82 19.25L160.967 18.5664L173.5 23.0001L173.561 25.9568L167.415 29.538L154.82 22.1476Z" fill="#E5F6FF"/>
<path d="M173.136 23.1215L173.193 25.8687L167.415 29.2352L155.186 22.0594L155.186 19.4273L160.898 18.7921L173.136 23.1215Z" stroke="#02A1FE" stroke-opacity="0.5" stroke-width="0.6"/>
<path d="M150.423 27.6544L150.5 24.4999L156.57 24.0731L166.646 27L166.646 29.9855L160.499 33.5667L150.423 27.6544Z" fill="#E5F6FF"/>
<path d="M166.279 27.1647L166.279 29.8963L160.499 33.2639L150.792 27.5674L150.86 24.777L166.279 27.1647ZM163.252 26.253L152.442 24.5791L156.506 24.2934L163.252 26.253Z" stroke="#02A1FE" stroke-opacity="0.5" stroke-width="0.6"/>
<path d="M160.5 30L160.5 33M167.5 26L167.5 29M174.5 22L174.5 25" stroke="#02A1FE" stroke-opacity="0.5" stroke-width="0.7"/>
<rect x="0.604284" y="0.000944468" width="6.4141" height="10.9821" transform="matrix(0.864051 -0.503404 0.862473 0.506102 150.504 24.9591)" fill="white" stroke="black" stroke-width="0.7"/>
<rect x="0.604284" y="0.000944468" width="6.4141" height="13.9026" transform="matrix(0.864051 -0.503404 0.862473 0.506102 154.901 19.4522)" fill="white" stroke="black" stroke-width="0.7"/>
<rect x="0.604284" y="0.000944468" width="6.4141" height="17.7966" transform="matrix(0.864051 -0.503404 0.862473 0.506102 158.458 13.4526)" fill="white" stroke="black" stroke-width="0.7"/>
</g>
<defs>
<clipPath id="clip0_1334_5181">
<rect width="524" height="281" fill="white"/>
</clipPath>
</defs>
</svg>
