<svg width="175" height="138" viewBox="0 0 175 138" fill="none" xmlns="http://www.w3.org/2000/svg">
<rect x="-5.96046e-08" y="0.500457" width="106.685" height="90.2709" transform="matrix(0.865762 0.500457 -0.865762 0.500456 79.4521 37.692)" stroke="black"/>
<rect x="-8.9407e-08" y="0.500457" width="106.685" height="90.2709" transform="matrix(0.865762 0.500457 -0.865762 0.500456 82.2039 26.8778)" fill="#FCF9F4" stroke="black"/>
<rect x="-8.9407e-08" y="0.500457" width="24.1815" height="11.0491" transform="matrix(0.865762 0.500457 -0.865762 0.500456 36.3541 67.9991)" stroke="black"/>
<rect width="25.1815" height="12.0491" transform="matrix(0.865762 0.500457 -0.865762 0.500456 45.035 68.5605)" fill="#5489AD"/>
<rect x="-8.9407e-08" y="0.500457" width="31.6249" height="11.0156" transform="matrix(0.865762 0.500457 -0.865762 0.500457 74.3377 88.7563)" stroke="black"/>
<path d="M63.5381 60.1294L123.171 94.6003" stroke="black"/>
<path d="M57.5028 65.3844L117.135 99.8553" stroke="black"/>
<rect x="5.96046e-08" y="-0.500457" width="13.188" height="12.8775" transform="matrix(0.865762 0.500457 -0.865762 0.500456 84.6779 27.2985)" fill="#FCF9F4" stroke="black" stroke-linejoin="round"/>
<rect x="-0.432871" y="-0.750245" width="13.2201" height="23.3046" transform="matrix(0.865743 0.500489 -1.7439e-07 1 74.5972 33.8725)" fill="#E3EEF3" stroke="black" stroke-linejoin="round"/>
<rect x="0.432871" y="-0.750245" width="13.2201" height="23.3875" transform="matrix(-0.865743 0.500489 -1.7439e-07 1 96.6219 33.3156)" fill="#5489AD" stroke="black" stroke-linejoin="round"/>
<rect x="5.96046e-08" y="-0.500457" width="13.188" height="12.9339" transform="matrix(0.865762 0.500457 -0.865762 0.500456 105.145 21.2552)" fill="#FCF9F4" stroke="black" stroke-linejoin="round"/>
<rect x="-0.432871" y="-0.750245" width="13.2201" height="41.1442" transform="matrix(0.865743 0.500489 -1.7439e-07 1 95.0648 27.9248)" fill="#E3EEF3" stroke="black" stroke-linejoin="round"/>
<rect x="0.432872" y="-0.750244" width="13.2201" height="41.3787" transform="matrix(-0.865743 0.500489 -1.7439e-07 1 117.089 27.2724)" fill="#5489AD" stroke="black" stroke-linejoin="round"/>
<rect x="5.96046e-08" y="-0.500456" width="12.9711" height="13.0988" transform="matrix(0.865762 0.500457 -0.865762 0.500456 124.712 15.6517)" fill="#FCF9F4" stroke="black" stroke-linejoin="round"/>
<rect x="-0.432871" y="-0.750245" width="13.2201" height="57.8267" transform="matrix(0.865743 0.50049 -1.7439e-07 1 114.483 22.4278)" fill="#E3EEF3" stroke="black" stroke-linejoin="round"/>
<rect x="0.432872" y="-0.750244" width="13.0979" height="57.9617" transform="matrix(-0.865743 0.500489 -1.7439e-07 1 136.402 21.8158)" fill="#5489AD" stroke="black" stroke-linejoin="round"/>
<path d="M58.8149 95.0668C64.1505 98.0008 76.5536 102.476 83.4812 96.906C91.8736 90.1579 67.6081 91.9242 79.2419 103.521C79.9827 104.259 81.0677 104.511 82.0847 104.267C87.3191 103.01 91.2832 102.175 93.1902 104.657C95.2895 107.39 100.1 111.489 102.243 113.197" stroke="black"/>
<path d="M119.582 21.1619C116.944 21.8851 116.93 23.0584 119.55 23.7833C122.17 24.5083 126.436 24.5066 129.073 23.7833C131.711 23.06 131.725 21.8868 129.105 21.1619C126.485 20.4369 122.219 20.4369 119.582 21.1619Z" fill="black"/>
<path d="M128.155 23.2405C129.496 23.2405 130.808 22.8422 131.923 22.096C133.039 21.3497 133.908 20.289 134.421 19.0478C134.935 17.8066 135.069 16.4408 134.807 15.1231C134.546 13.8054 133.9 12.5951 132.951 11.6453C132.002 10.6954 130.794 10.0486 129.478 9.78662C128.163 9.52459 126.799 9.65907 125.56 10.1731C124.32 10.6871 123.261 11.5575 122.516 12.6745C121.77 13.7915 121.372 15.1048 121.372 16.4483C121.372 17.3404 121.548 18.2237 121.889 19.0478C122.23 19.8719 122.729 20.6207 123.359 21.2513C123.989 21.882 124.737 22.3823 125.56 22.7236C126.383 23.0648 127.265 23.2405 128.155 23.2405Z" fill="#5489AD" stroke="black"/>
<path d="M133.477 16.448C133.477 15.0347 132.916 13.6793 131.918 12.6799C130.92 11.6806 129.566 11.1191 128.155 11.1191" stroke="#FCF9F4" stroke-width="0.807305" stroke-miterlimit="10"/>
<path d="M122.833 16.4481C122.833 17.1479 122.97 17.8409 123.238 18.4874C123.505 19.1339 123.897 19.7214 124.391 20.2162C124.886 20.7111 125.472 21.1036 126.118 21.3714C126.764 21.6392 127.456 21.777 128.155 21.777" stroke="black" stroke-width="0.807305" stroke-miterlimit="10"/>
<path d="M84.3859 33.1562C89.2404 24.792 99.3568 9.28817 106.704 27.6806C107.229 22.338 110.85 11.6791 121.137 11.7842" stroke="black" stroke-width="0.807305"/>
<path d="M133.601 1.01074L131.239 6.52849" stroke="black"/>
<path d="M134.913 9.15604L140.161 5.47754" stroke="black"/>
</svg>
