<svg width="240" height="240" viewBox="0 0 240 240" fill="none" xmlns="http://www.w3.org/2000/svg">
<path d="M240 120C240 145.342 231.977 170.033 217.082 190.534C202.187 211.036 181.183 226.296 157.082 234.127C132.981 241.958 107.019 241.958 82.918 234.127C58.8167 226.296 37.8133 211.036 22.918 190.534L61.7508 162.321C70.688 174.622 83.29 183.777 97.7508 188.476C112.211 193.175 127.788 193.175 142.249 188.476C156.71 183.777 169.312 174.622 178.249 162.321C187.186 150.02 192 135.205 192 120H240Z" fill="#F4BE37"/>
<path d="M68.0864 228.19C49.8633 219.445 34.1441 206.24 22.3875 189.798L61.4325 161.879C68.4865 171.744 77.918 179.667 88.8518 184.914L68.0864 228.19Z" fill="#FF9F40"/>
<path d="M82.4513 6.02591C100.499 0.0801249 119.701 -1.49477 138.476 1.43084C157.251 4.35645 175.063 11.6989 190.446 22.8539C205.829 34.009 218.343 48.6576 226.958 65.5943C235.573 82.5309 240.043 101.271 240 120.273L192 120.164C192.026 108.763 189.344 97.5185 184.175 87.3566C179.006 77.1946 171.497 68.4054 162.268 61.7124C153.038 55.0194 142.351 50.6139 131.085 48.8585C119.82 47.1031 108.299 48.0481 97.4708 51.6155L82.4513 6.02591Z" fill="#5388D8"/>
<path d="M23.2171 190.944C12.0214 175.671 4.59933 157.965 1.55783 139.273C-1.48367 120.582 -0.0582777 101.436 5.71746 83.4008C11.4932 65.3658 21.4553 48.9538 34.7892 35.5066C48.1232 22.0595 64.4504 11.959 82.4359 6.03098L97.4615 51.6186C86.6702 55.1754 76.8739 61.2357 68.8735 69.304C60.8732 77.3723 54.8959 87.2195 51.4305 98.0405C47.965 108.861 47.1098 120.349 48.9347 131.564C50.7596 142.779 55.2128 153.402 61.9303 162.566L23.2171 190.944Z" fill="#0D2535"/>
<path d="M91.0498 106.524L92.3145 94.1172H105.063V97.0396H94.9976L94.2456 103.824C95.4647 103.106 96.849 102.748 98.3984 102.748C100.666 102.748 102.466 103.5 103.799 105.003C105.132 106.496 105.798 108.518 105.798 111.07C105.798 113.634 105.103 115.656 103.713 117.137C102.335 118.607 100.404 119.342 97.9199 119.342C95.721 119.342 93.9266 118.732 92.5366 117.513C91.1466 116.294 90.3548 114.608 90.1611 112.455H93.1519C93.3455 113.879 93.8525 114.955 94.6729 115.685C95.4932 116.402 96.5755 116.761 97.9199 116.761C99.3896 116.761 100.54 116.26 101.372 115.257C102.215 114.255 102.637 112.87 102.637 111.104C102.637 109.441 102.181 108.108 101.27 107.105C100.369 106.091 99.1675 105.584 97.6636 105.584C96.285 105.584 95.2026 105.886 94.4165 106.49L93.5791 107.174L91.0498 106.524ZM121.658 94.1001V96.7832H121.077C118.616 96.8288 116.656 97.5579 115.198 98.9707C113.739 100.383 112.896 102.372 112.668 104.935C113.979 103.431 115.767 102.679 118.035 102.679C120.199 102.679 121.925 103.443 123.213 104.969C124.512 106.496 125.161 108.467 125.161 110.882C125.161 113.446 124.46 115.497 123.059 117.035C121.669 118.573 119.801 119.342 117.454 119.342C115.072 119.342 113.141 118.43 111.66 116.607C110.179 114.773 109.438 112.415 109.438 109.532V108.319C109.438 103.739 110.413 100.241 112.361 97.8257C114.32 95.3989 117.231 94.1571 121.094 94.1001H121.658ZM117.505 105.311C116.423 105.311 115.426 105.636 114.514 106.285C113.603 106.935 112.97 107.749 112.617 108.729V109.891C112.617 111.942 113.079 113.594 114.001 114.847C114.924 116.1 116.075 116.727 117.454 116.727C118.878 116.727 119.994 116.203 120.803 115.155C121.624 114.107 122.034 112.734 122.034 111.036C122.034 109.327 121.618 107.949 120.786 106.9C119.966 105.841 118.872 105.311 117.505 105.311ZM128.63 98.9023C128.63 97.4098 129.103 96.1794 130.049 95.2109C131.006 94.2425 132.231 93.7583 133.723 93.7583C135.238 93.7583 136.463 94.2482 137.397 95.228C138.343 96.1965 138.816 97.4554 138.816 99.0049V100.218C138.816 101.722 138.337 102.953 137.38 103.91C136.435 104.855 135.227 105.328 133.757 105.328C132.276 105.328 131.051 104.855 130.083 103.91C129.115 102.953 128.63 101.682 128.63 100.099V98.9023ZM130.989 100.218C130.989 101.107 131.239 101.842 131.741 102.423C132.242 102.993 132.914 103.277 133.757 103.277C134.566 103.277 135.216 102.998 135.706 102.44C136.207 101.882 136.458 101.118 136.458 100.15V98.9023C136.458 98.0137 136.213 97.2788 135.723 96.6978C135.233 96.1167 134.566 95.8262 133.723 95.8262C132.88 95.8262 132.214 96.1167 131.724 96.6978C131.234 97.2788 130.989 98.0365 130.989 98.9707V100.218ZM140.747 112.899C140.747 111.406 141.22 110.182 142.166 109.225C143.123 108.256 144.347 107.772 145.84 107.772C147.332 107.772 148.557 108.25 149.514 109.208C150.471 110.165 150.95 111.435 150.95 113.019V114.232C150.95 115.724 150.471 116.955 149.514 117.923C148.569 118.88 147.355 119.359 145.874 119.359C144.393 119.359 143.168 118.886 142.2 117.94C141.231 116.983 140.747 115.713 140.747 114.129V112.899ZM143.105 114.232C143.105 115.132 143.356 115.873 143.857 116.454C144.359 117.023 145.031 117.308 145.874 117.308C146.694 117.308 147.349 117.029 147.839 116.471C148.329 115.901 148.574 115.132 148.574 114.164V112.899C148.574 111.999 148.324 111.264 147.822 110.694C147.332 110.125 146.672 109.84 145.84 109.84C145.031 109.84 144.37 110.125 143.857 110.694C143.356 111.253 143.105 112.01 143.105 112.967V114.232ZM134.475 117.12L132.681 115.992L144.832 96.5439L146.626 97.6719L134.475 117.12Z" fill="#333333"/>
<path d="M78.1992 135.197C77.2344 134.92 76.5312 134.58 76.0898 134.178C75.6523 133.771 75.4336 133.271 75.4336 132.678C75.4336 132.006 75.7012 131.451 76.2363 131.014C76.7754 130.572 77.4746 130.352 78.334 130.352C78.9199 130.352 79.4414 130.465 79.8984 130.691C80.3594 130.918 80.7148 131.23 80.9648 131.629C81.2188 132.027 81.3457 132.463 81.3457 132.936H80.2148C80.2148 132.42 80.0508 132.016 79.7227 131.723C79.3945 131.426 78.9316 131.277 78.334 131.277C77.7793 131.277 77.3457 131.4 77.0332 131.646C76.7246 131.889 76.5703 132.227 76.5703 132.66C76.5703 133.008 76.7168 133.303 77.0098 133.545C77.3066 133.783 77.8086 134.002 78.5156 134.201C79.2266 134.4 79.7812 134.621 80.1797 134.863C80.582 135.102 80.8789 135.381 81.0703 135.701C81.2656 136.021 81.3633 136.398 81.3633 136.832C81.3633 137.523 81.0938 138.078 80.5547 138.496C80.0156 138.91 79.2949 139.117 78.3926 139.117C77.8066 139.117 77.2598 139.006 76.752 138.783C76.2441 138.557 75.8516 138.248 75.5742 137.857C75.3008 137.467 75.1641 137.023 75.1641 136.527H76.2949C76.2949 137.043 76.4844 137.451 76.8633 137.752C77.2461 138.049 77.7559 138.197 78.3926 138.197C78.9863 138.197 79.4414 138.076 79.7578 137.834C80.0742 137.592 80.2324 137.262 80.2324 136.844C80.2324 136.426 80.0859 136.104 79.793 135.877C79.5 135.646 78.9688 135.42 78.1992 135.197ZM86.5547 138.373C86.1328 138.869 85.5137 139.117 84.6973 139.117C84.0215 139.117 83.5059 138.922 83.1504 138.531C82.7988 138.137 82.6211 137.555 82.6172 136.785V132.66H83.7012V136.756C83.7012 137.717 84.0918 138.197 84.873 138.197C85.7012 138.197 86.252 137.889 86.5254 137.271V132.66H87.6094V139H86.5781L86.5547 138.373ZM94.6289 135.9C94.6289 136.869 94.4062 137.648 93.9609 138.238C93.5156 138.824 92.918 139.117 92.168 139.117C91.3672 139.117 90.748 138.834 90.3105 138.268L90.2578 139H89.2617V130H90.3457V133.357C90.7832 132.814 91.3867 132.543 92.1562 132.543C92.9258 132.543 93.5293 132.834 93.9668 133.416C94.4082 133.998 94.6289 134.795 94.6289 135.807V135.9ZM93.5449 135.777C93.5449 135.039 93.4023 134.469 93.1172 134.066C92.832 133.664 92.4219 133.463 91.8867 133.463C91.1719 133.463 90.6582 133.795 90.3457 134.459V137.201C90.6777 137.865 91.1953 138.197 91.8984 138.197C92.418 138.197 92.8223 137.996 93.1113 137.594C93.4004 137.191 93.5449 136.586 93.5449 135.777ZM99.6914 137.318C99.6914 137.025 99.5801 136.799 99.3574 136.639C99.1387 136.475 98.7539 136.334 98.2031 136.217C97.6562 136.1 97.2207 135.959 96.8965 135.795C96.5762 135.631 96.3379 135.436 96.1816 135.209C96.0293 134.982 95.9531 134.713 95.9531 134.4C95.9531 133.881 96.1719 133.441 96.6094 133.082C97.0508 132.723 97.6133 132.543 98.2969 132.543C99.0156 132.543 99.5977 132.729 100.043 133.1C100.492 133.471 100.717 133.945 100.717 134.523H99.627C99.627 134.227 99.5 133.971 99.2461 133.756C98.9961 133.541 98.6797 133.434 98.2969 133.434C97.9023 133.434 97.5938 133.52 97.3711 133.691C97.1484 133.863 97.0371 134.088 97.0371 134.365C97.0371 134.627 97.1406 134.824 97.3477 134.957C97.5547 135.09 97.9277 135.217 98.4668 135.338C99.0098 135.459 99.4492 135.604 99.7852 135.771C100.121 135.939 100.369 136.143 100.529 136.381C100.693 136.615 100.775 136.902 100.775 137.242C100.775 137.809 100.549 138.264 100.096 138.607C99.6426 138.947 99.0547 139.117 98.332 139.117C97.8242 139.117 97.375 139.027 96.9844 138.848C96.5938 138.668 96.2871 138.418 96.0645 138.098C95.8457 137.773 95.7363 137.424 95.7363 137.049H96.8203C96.8398 137.412 96.9844 137.701 97.2539 137.916C97.5273 138.127 97.8867 138.232 98.332 138.232C98.7422 138.232 99.0703 138.15 99.3164 137.986C99.5664 137.818 99.6914 137.596 99.6914 137.318ZM104.73 138.232C105.117 138.232 105.455 138.115 105.744 137.881C106.033 137.646 106.193 137.354 106.225 137.002H107.25C107.23 137.365 107.105 137.711 106.875 138.039C106.645 138.367 106.336 138.629 105.949 138.824C105.566 139.02 105.16 139.117 104.73 139.117C103.867 139.117 103.18 138.83 102.668 138.256C102.16 137.678 101.906 136.889 101.906 135.889V135.707C101.906 135.09 102.02 134.541 102.246 134.061C102.473 133.58 102.797 133.207 103.219 132.941C103.645 132.676 104.146 132.543 104.725 132.543C105.436 132.543 106.025 132.756 106.494 133.182C106.967 133.607 107.219 134.16 107.25 134.84H106.225C106.193 134.43 106.037 134.094 105.756 133.832C105.479 133.566 105.135 133.434 104.725 133.434C104.174 133.434 103.746 133.633 103.441 134.031C103.141 134.426 102.99 134.998 102.99 135.748V135.953C102.99 136.684 103.141 137.246 103.441 137.641C103.742 138.035 104.172 138.232 104.73 138.232ZM111.533 133.633C111.369 133.605 111.191 133.592 111 133.592C110.289 133.592 109.807 133.895 109.553 134.5V139H108.469V132.66H109.523L109.541 133.393C109.896 132.826 110.4 132.543 111.053 132.543C111.264 132.543 111.424 132.57 111.533 132.625V133.633ZM113.713 139H112.629V132.66H113.713V139ZM112.541 130.979C112.541 130.803 112.594 130.654 112.699 130.533C112.809 130.412 112.969 130.352 113.18 130.352C113.391 130.352 113.551 130.412 113.66 130.533C113.77 130.654 113.824 130.803 113.824 130.979C113.824 131.154 113.77 131.301 113.66 131.418C113.551 131.535 113.391 131.594 113.18 131.594C112.969 131.594 112.809 131.535 112.699 131.418C112.594 131.301 112.541 131.154 112.541 130.979ZM120.809 135.9C120.809 136.865 120.588 137.643 120.146 138.232C119.705 138.822 119.107 139.117 118.354 139.117C117.584 139.117 116.979 138.873 116.537 138.385V141.438H115.453V132.66H116.443L116.496 133.363C116.938 132.816 117.551 132.543 118.336 132.543C119.098 132.543 119.699 132.83 120.141 133.404C120.586 133.979 120.809 134.777 120.809 135.801V135.9ZM119.725 135.777C119.725 135.062 119.572 134.498 119.268 134.084C118.963 133.67 118.545 133.463 118.014 133.463C117.357 133.463 116.865 133.754 116.537 134.336V137.365C116.861 137.943 117.357 138.232 118.025 138.232C118.545 138.232 118.957 138.027 119.262 137.617C119.57 137.203 119.725 136.59 119.725 135.777ZM123.662 131.125V132.66H124.846V133.498H123.662V137.43C123.662 137.684 123.715 137.875 123.82 138.004C123.926 138.129 124.105 138.191 124.359 138.191C124.484 138.191 124.656 138.168 124.875 138.121V139C124.59 139.078 124.312 139.117 124.043 139.117C123.559 139.117 123.193 138.971 122.947 138.678C122.701 138.385 122.578 137.969 122.578 137.43V133.498H121.424V132.66H122.578V131.125H123.662ZM127.295 139H126.211V132.66H127.295V139ZM126.123 130.979C126.123 130.803 126.176 130.654 126.281 130.533C126.391 130.412 126.551 130.352 126.762 130.352C126.973 130.352 127.133 130.412 127.242 130.533C127.352 130.654 127.406 130.803 127.406 130.979C127.406 131.154 127.352 131.301 127.242 131.418C127.133 131.535 126.973 131.594 126.762 131.594C126.551 131.594 126.391 131.535 126.281 131.418C126.176 131.301 126.123 131.154 126.123 130.979ZM128.748 135.771C128.748 135.15 128.869 134.592 129.111 134.096C129.357 133.6 129.697 133.217 130.131 132.947C130.568 132.678 131.066 132.543 131.625 132.543C132.488 132.543 133.186 132.842 133.717 133.439C134.252 134.037 134.52 134.832 134.52 135.824V135.9C134.52 136.518 134.4 137.072 134.162 137.564C133.928 138.053 133.59 138.434 133.148 138.707C132.711 138.98 132.207 139.117 131.637 139.117C130.777 139.117 130.08 138.818 129.545 138.221C129.014 137.623 128.748 136.832 128.748 135.848V135.771ZM129.838 135.9C129.838 136.604 130 137.168 130.324 137.594C130.652 138.02 131.09 138.232 131.637 138.232C132.188 138.232 132.625 138.018 132.949 137.588C133.273 137.154 133.436 136.549 133.436 135.771C133.436 135.076 133.27 134.514 132.938 134.084C132.609 133.65 132.172 133.434 131.625 133.434C131.09 133.434 130.658 133.646 130.33 134.072C130.002 134.498 129.838 135.107 129.838 135.9ZM136.904 132.66L136.939 133.457C137.424 132.848 138.057 132.543 138.838 132.543C140.178 132.543 140.854 133.299 140.865 134.811V139H139.781V134.805C139.777 134.348 139.672 134.01 139.465 133.791C139.262 133.572 138.943 133.463 138.51 133.463C138.158 133.463 137.85 133.557 137.584 133.744C137.318 133.932 137.111 134.178 136.963 134.482V139H135.879V132.66H136.904ZM148.541 133.633C148.377 133.605 148.199 133.592 148.008 133.592C147.297 133.592 146.814 133.895 146.561 134.5V139H145.477V132.66H146.531L146.549 133.393C146.904 132.826 147.408 132.543 148.061 132.543C148.271 132.543 148.432 132.57 148.541 132.625V133.633ZM153.223 139C153.16 138.875 153.109 138.652 153.07 138.332C152.566 138.855 151.965 139.117 151.266 139.117C150.641 139.117 150.127 138.941 149.725 138.59C149.326 138.234 149.127 137.785 149.127 137.242C149.127 136.582 149.377 136.07 149.877 135.707C150.381 135.34 151.088 135.156 151.998 135.156H153.053V134.658C153.053 134.279 152.939 133.979 152.713 133.756C152.486 133.529 152.152 133.416 151.711 133.416C151.324 133.416 151 133.514 150.738 133.709C150.477 133.904 150.346 134.141 150.346 134.418H149.256C149.256 134.102 149.367 133.797 149.59 133.504C149.816 133.207 150.121 132.973 150.504 132.801C150.891 132.629 151.314 132.543 151.775 132.543C152.506 132.543 153.078 132.727 153.492 133.094C153.906 133.457 154.121 133.959 154.137 134.6V137.518C154.137 138.1 154.211 138.562 154.359 138.906V139H153.223ZM151.424 138.174C151.764 138.174 152.086 138.086 152.391 137.91C152.695 137.734 152.916 137.506 153.053 137.225V135.924H152.203C150.875 135.924 150.211 136.312 150.211 137.09C150.211 137.43 150.324 137.695 150.551 137.887C150.777 138.078 151.068 138.174 151.424 138.174ZM157.307 131.125V132.66H158.49V133.498H157.307V137.43C157.307 137.684 157.359 137.875 157.465 138.004C157.57 138.129 157.75 138.191 158.004 138.191C158.129 138.191 158.301 138.168 158.52 138.121V139C158.234 139.078 157.957 139.117 157.688 139.117C157.203 139.117 156.838 138.971 156.592 138.678C156.346 138.385 156.223 137.969 156.223 137.43V133.498H155.068V132.66H156.223V131.125H157.307ZM162.393 139.117C161.533 139.117 160.834 138.836 160.295 138.273C159.756 137.707 159.486 136.951 159.486 136.006V135.807C159.486 135.178 159.605 134.617 159.844 134.125C160.086 133.629 160.422 133.242 160.852 132.965C161.285 132.684 161.754 132.543 162.258 132.543C163.082 132.543 163.723 132.814 164.18 133.357C164.637 133.9 164.865 134.678 164.865 135.689V136.141H160.57C160.586 136.766 160.768 137.271 161.115 137.658C161.467 138.041 161.912 138.232 162.451 138.232C162.834 138.232 163.158 138.154 163.424 137.998C163.689 137.842 163.922 137.635 164.121 137.377L164.783 137.893C164.252 138.709 163.455 139.117 162.393 139.117ZM162.258 133.434C161.82 133.434 161.453 133.594 161.156 133.914C160.859 134.23 160.676 134.676 160.605 135.25H163.781V135.168C163.75 134.617 163.602 134.191 163.336 133.891C163.07 133.586 162.711 133.434 162.258 133.434Z" fill="#333333"/>
</svg>
