<svg width="133" height="133" viewBox="0 0 133 133" fill="none" xmlns="http://www.w3.org/2000/svg">
<path d="M66.5 110.15C90.6072 110.15 110.15 90.6072 110.15 66.5C110.15 42.3928 90.6072 22.85 66.5 22.85C42.3928 22.85 22.85 42.3928 22.85 66.5C22.85 90.6072 42.3928 110.15 66.5 110.15ZM132.85 66.5C132.85 103.144 103.144 132.85 66.5 132.85C29.8559 132.85 0.15 103.144 0.15 66.5C0.15 29.8559 29.8559 0.15 66.5 0.15C103.144 0.15 132.85 29.8559 132.85 66.5Z" fill="#E5E5E5" stroke="#999999" stroke-width="0.3"/>
<path d="M42.6797 51.9297H40.8516V57H40.1055V51.9297H38.2812V51.3125H42.6797V51.9297ZM42.8281 54.8477C42.8281 54.4336 42.9089 54.0612 43.0703 53.7305C43.2344 53.3997 43.4609 53.1445 43.75 52.9648C44.0417 52.7852 44.3737 52.6953 44.7461 52.6953C45.3216 52.6953 45.7865 52.8945 46.1406 53.293C46.4974 53.6914 46.6758 54.2214 46.6758 54.8828V54.9336C46.6758 55.3451 46.5964 55.7148 46.4375 56.043C46.2812 56.3685 46.056 56.6224 45.7617 56.8047C45.4701 56.987 45.1341 57.0781 44.7539 57.0781C44.181 57.0781 43.7161 56.8789 43.3594 56.4805C43.0052 56.082 42.8281 55.5547 42.8281 54.8984V54.8477ZM43.5547 54.9336C43.5547 55.4023 43.6628 55.7786 43.8789 56.0625C44.0977 56.3464 44.3893 56.4883 44.7539 56.4883C45.1211 56.4883 45.4128 56.3451 45.6289 56.0586C45.8451 55.7695 45.9531 55.3659 45.9531 54.8477C45.9531 54.3841 45.8424 54.0091 45.6211 53.7227C45.4023 53.4336 45.1107 53.2891 44.7461 53.2891C44.3893 53.2891 44.1016 53.431 43.8828 53.7148C43.6641 53.9987 43.5547 54.4049 43.5547 54.9336ZM48.5625 51.75V52.7734H49.3516V53.332H48.5625V55.9531C48.5625 56.1224 48.5977 56.25 48.668 56.3359C48.7383 56.4193 48.8581 56.4609 49.0273 56.4609C49.1107 56.4609 49.2253 56.4453 49.3711 56.4141V57C49.181 57.0521 48.9961 57.0781 48.8164 57.0781C48.4935 57.0781 48.25 56.9805 48.0859 56.7852C47.9219 56.5898 47.8398 56.3125 47.8398 55.9531V53.332H47.0703V52.7734H47.8398V51.75H48.5625ZM52.8086 57C52.7669 56.9167 52.7331 56.7682 52.707 56.5547C52.3711 56.9036 51.9701 57.0781 51.5039 57.0781C51.0872 57.0781 50.7448 56.9609 50.4766 56.7266C50.2109 56.4896 50.0781 56.1901 50.0781 55.8281C50.0781 55.388 50.2448 55.0469 50.5781 54.8047C50.9141 54.5599 51.3854 54.4375 51.9922 54.4375H52.6953V54.1055C52.6953 53.8529 52.6198 53.6523 52.4688 53.5039C52.3177 53.3529 52.0951 53.2773 51.8008 53.2773C51.543 53.2773 51.3268 53.3424 51.1523 53.4727C50.9779 53.6029 50.8906 53.7604 50.8906 53.9453H50.1641C50.1641 53.7344 50.2383 53.5312 50.3867 53.3359C50.5378 53.138 50.7409 52.9818 50.9961 52.8672C51.2539 52.7526 51.5365 52.6953 51.8438 52.6953C52.3307 52.6953 52.7122 52.8177 52.9883 53.0625C53.2643 53.3047 53.4076 53.6393 53.418 54.0664V56.0117C53.418 56.3997 53.4674 56.7083 53.5664 56.9375V57H52.8086ZM51.6094 56.4492C51.8359 56.4492 52.0508 56.3906 52.2539 56.2734C52.457 56.1562 52.6042 56.0039 52.6953 55.8164V54.9492H52.1289C51.2435 54.9492 50.8008 55.2083 50.8008 55.7266C50.8008 55.9531 50.8763 56.1302 51.0273 56.2578C51.1784 56.3854 51.3724 56.4492 51.6094 56.4492ZM55.3359 57H54.6133V51H55.3359V57ZM61.8086 54.3711H59.3438V56.3867H62.207V57H58.5938V51.3125H62.168V51.9297H59.3438V53.7578H61.8086V54.3711ZM65.4883 55.8789C65.4883 55.6836 65.4141 55.5326 65.2656 55.4258C65.1198 55.3164 64.8633 55.2227 64.4961 55.1445C64.1315 55.0664 63.8411 54.9727 63.625 54.8633C63.4115 54.7539 63.2526 54.6237 63.1484 54.4727C63.0469 54.3216 62.9961 54.1419 62.9961 53.9336C62.9961 53.5872 63.1419 53.2943 63.4336 53.0547C63.7279 52.8151 64.1029 52.6953 64.5586 52.6953C65.0378 52.6953 65.4258 52.819 65.7227 53.0664C66.0221 53.3138 66.1719 53.6302 66.1719 54.0156H65.4453C65.4453 53.8177 65.3607 53.6471 65.1914 53.5039C65.0247 53.3607 64.8138 53.2891 64.5586 53.2891C64.2956 53.2891 64.0898 53.3464 63.9414 53.4609C63.793 53.5755 63.7188 53.7253 63.7188 53.9102C63.7188 54.0846 63.7878 54.2161 63.9258 54.3047C64.0638 54.3932 64.3125 54.4779 64.6719 54.5586C65.0339 54.6393 65.3268 54.7357 65.5508 54.8477C65.7747 54.9596 65.9401 55.0951 66.0469 55.2539C66.1562 55.4102 66.2109 55.6016 66.2109 55.8281C66.2109 56.2057 66.0599 56.5091 65.7578 56.7383C65.4557 56.9648 65.0638 57.0781 64.582 57.0781C64.2435 57.0781 63.944 57.0182 63.6836 56.8984C63.4232 56.7786 63.2188 56.612 63.0703 56.3984C62.9245 56.1823 62.8516 55.9492 62.8516 55.6992H63.5742C63.5872 55.9414 63.6836 56.1341 63.8633 56.2773C64.0456 56.418 64.2852 56.4883 64.582 56.4883C64.8555 56.4883 65.0742 56.4336 65.2383 56.3242C65.4049 56.2122 65.4883 56.0638 65.4883 55.8789ZM68.1328 51.75V52.7734H68.9219V53.332H68.1328V55.9531C68.1328 56.1224 68.168 56.25 68.2383 56.3359C68.3086 56.4193 68.4284 56.4609 68.5977 56.4609C68.681 56.4609 68.7956 56.4453 68.9414 56.4141V57C68.7513 57.0521 68.5664 57.0781 68.3867 57.0781C68.0638 57.0781 67.8203 56.9805 67.6562 56.7852C67.4922 56.5898 67.4102 56.3125 67.4102 55.9531V53.332H66.6406V52.7734H67.4102V51.75H68.1328ZM70.5547 57H69.832V52.7734H70.5547V57ZM69.7734 51.6523C69.7734 51.5352 69.8086 51.4362 69.8789 51.3555C69.9518 51.2747 70.0586 51.2344 70.1992 51.2344C70.3398 51.2344 70.4466 51.2747 70.5195 51.3555C70.5924 51.4362 70.6289 51.5352 70.6289 51.6523C70.6289 51.7695 70.5924 51.8672 70.5195 51.9453C70.4466 52.0234 70.3398 52.0625 70.1992 52.0625C70.0586 52.0625 69.9518 52.0234 69.8789 51.9453C69.8086 51.8672 69.7734 51.7695 69.7734 51.6523ZM72.3945 52.7734L72.4141 53.2422C72.724 52.8776 73.1419 52.6953 73.668 52.6953C74.2591 52.6953 74.6615 52.9219 74.875 53.375C75.0156 53.1719 75.1979 53.0078 75.4219 52.8828C75.6484 52.7578 75.9154 52.6953 76.2227 52.6953C77.1497 52.6953 77.6211 53.1862 77.6367 54.168V57H76.9141V54.2109C76.9141 53.9089 76.8451 53.6836 76.707 53.5352C76.569 53.3841 76.3372 53.3086 76.0117 53.3086C75.7435 53.3086 75.5208 53.3893 75.3438 53.5508C75.1667 53.7096 75.0638 53.9245 75.0352 54.1953V57H74.3086V54.2305C74.3086 53.6159 74.0078 53.3086 73.4062 53.3086C72.9323 53.3086 72.6081 53.5104 72.4336 53.9141V57H71.7109V52.7734H72.3945ZM81.3398 57C81.2982 56.9167 81.2643 56.7682 81.2383 56.5547C80.9023 56.9036 80.5013 57.0781 80.0352 57.0781C79.6185 57.0781 79.276 56.9609 79.0078 56.7266C78.7422 56.4896 78.6094 56.1901 78.6094 55.8281C78.6094 55.388 78.776 55.0469 79.1094 54.8047C79.4453 54.5599 79.9167 54.4375 80.5234 54.4375H81.2266V54.1055C81.2266 53.8529 81.151 53.6523 81 53.5039C80.849 53.3529 80.6263 53.2773 80.332 53.2773C80.0742 53.2773 79.8581 53.3424 79.6836 53.4727C79.5091 53.6029 79.4219 53.7604 79.4219 53.9453H78.6953C78.6953 53.7344 78.7695 53.5312 78.918 53.3359C79.069 53.138 79.2721 52.9818 79.5273 52.8672C79.7852 52.7526 80.0677 52.6953 80.375 52.6953C80.862 52.6953 81.2435 52.8177 81.5195 53.0625C81.7956 53.3047 81.9388 53.6393 81.9492 54.0664V56.0117C81.9492 56.3997 81.9987 56.7083 82.0977 56.9375V57H81.3398ZM80.1406 56.4492C80.3672 56.4492 80.582 56.3906 80.7852 56.2734C80.9883 56.1562 81.1354 56.0039 81.2266 55.8164V54.9492H80.6602C79.7747 54.9492 79.332 55.2083 79.332 55.7266C79.332 55.9531 79.4076 56.1302 79.5586 56.2578C79.7096 56.3854 79.9036 56.4492 80.1406 56.4492ZM84.0625 51.75V52.7734H84.8516V53.332H84.0625V55.9531C84.0625 56.1224 84.0977 56.25 84.168 56.3359C84.2383 56.4193 84.3581 56.4609 84.5273 56.4609C84.6107 56.4609 84.7253 56.4453 84.8711 56.4141V57C84.681 57.0521 84.4961 57.0781 84.3164 57.0781C83.9935 57.0781 83.75 56.9805 83.5859 56.7852C83.4219 56.5898 83.3398 56.3125 83.3398 55.9531V53.332H82.5703V52.7734H83.3398V51.75H84.0625ZM87.4531 57.0781C86.8802 57.0781 86.4141 56.8906 86.0547 56.5156C85.6953 56.138 85.5156 55.6341 85.5156 55.0039V54.8711C85.5156 54.4518 85.5951 54.0781 85.7539 53.75C85.9154 53.4193 86.1393 53.1615 86.4258 52.9766C86.7148 52.7891 87.0273 52.6953 87.3633 52.6953C87.9128 52.6953 88.3398 52.8763 88.6445 53.2383C88.9492 53.6003 89.1016 54.1185 89.1016 54.793V55.0938H86.2383C86.2487 55.5104 86.3698 55.8477 86.6016 56.1055C86.8359 56.3607 87.1328 56.4883 87.4922 56.4883C87.7474 56.4883 87.9635 56.4362 88.1406 56.332C88.3177 56.2279 88.4727 56.0898 88.6055 55.918L89.0469 56.2617C88.6927 56.806 88.1615 57.0781 87.4531 57.0781ZM87.3633 53.2891C87.0716 53.2891 86.8268 53.3958 86.6289 53.6094C86.431 53.8203 86.3086 54.1172 86.2617 54.5H88.3789V54.4453C88.3581 54.0781 88.2591 53.7943 88.082 53.5938C87.9049 53.3906 87.6654 53.2891 87.3633 53.2891ZM89.7656 54.8516C89.7656 54.2031 89.9193 53.6823 90.2266 53.2891C90.5339 52.8932 90.9362 52.6953 91.4336 52.6953C91.9284 52.6953 92.3203 52.8646 92.6094 53.2031V51H93.332V57H92.668L92.6328 56.5469C92.3438 56.901 91.9414 57.0781 91.4258 57.0781C90.9362 57.0781 90.5365 56.8776 90.2266 56.4766C89.9193 56.0755 89.7656 55.5521 89.7656 54.9062V54.8516ZM90.4883 54.9336C90.4883 55.4128 90.5872 55.7878 90.7852 56.0586C90.9831 56.3294 91.2565 56.4648 91.6055 56.4648C92.0638 56.4648 92.3984 56.2591 92.6094 55.8477V53.9062C92.3932 53.5078 92.0612 53.3086 91.6133 53.3086C91.2591 53.3086 90.9831 53.4453 90.7852 53.7188C90.5872 53.9922 90.4883 54.3971 90.4883 54.9336ZM46.9805 64H46.2266L43.3633 59.6172V64H42.6094V58.3125H43.3633L46.2344 62.7148V58.3125H46.9805V64ZM49.9531 64.0781C49.3802 64.0781 48.9141 63.8906 48.5547 63.5156C48.1953 63.138 48.0156 62.6341 48.0156 62.0039V61.8711C48.0156 61.4518 48.0951 61.0781 48.2539 60.75C48.4154 60.4193 48.6393 60.1615 48.9258 59.9766C49.2148 59.7891 49.5273 59.6953 49.8633 59.6953C50.4128 59.6953 50.8398 59.8763 51.1445 60.2383C51.4492 60.6003 51.6016 61.1185 51.6016 61.793V62.0938H48.7383C48.7487 62.5104 48.8698 62.8477 49.1016 63.1055C49.3359 63.3607 49.6328 63.4883 49.9922 63.4883C50.2474 63.4883 50.4635 63.4362 50.6406 63.332C50.8177 63.2279 50.9727 63.0898 51.1055 62.918L51.5469 63.2617C51.1927 63.806 50.6615 64.0781 49.9531 64.0781ZM49.8633 60.2891C49.5716 60.2891 49.3268 60.3958 49.1289 60.6094C48.931 60.8203 48.8086 61.1172 48.7617 61.5H50.8789V61.4453C50.8581 61.0781 50.7591 60.7943 50.582 60.5938C50.4049 60.3906 50.1654 60.2891 49.8633 60.2891ZM53.4219 58.75V59.7734H54.2109V60.332H53.4219V62.9531C53.4219 63.1224 53.457 63.25 53.5273 63.3359C53.5977 63.4193 53.7174 63.4609 53.8867 63.4609C53.9701 63.4609 54.0846 63.4453 54.2305 63.4141V64C54.0404 64.0521 53.8555 64.0781 53.6758 64.0781C53.3529 64.0781 53.1094 63.9805 52.9453 63.7852C52.7812 63.5898 52.6992 63.3125 52.6992 62.9531V60.332H51.9297V59.7734H52.6992V58.75H53.4219ZM57.9062 61.7734V64H57.1562V58.3125H59.2539C59.8763 58.3125 60.3633 58.4714 60.7148 58.7891C61.069 59.1068 61.2461 59.5273 61.2461 60.0508C61.2461 60.6029 61.0729 61.0286 60.7266 61.3281C60.3828 61.625 59.8893 61.7734 59.2461 61.7734H57.9062ZM57.9062 61.1602H59.2539C59.6549 61.1602 59.9622 61.0664 60.1758 60.8789C60.3893 60.6888 60.4961 60.4154 60.4961 60.0586C60.4961 59.7201 60.3893 59.4492 60.1758 59.2461C59.9622 59.043 59.6693 58.9375 59.2969 58.9297H57.9062V61.1602ZM64.1328 60.4219C64.0234 60.4036 63.9049 60.3945 63.7773 60.3945C63.3034 60.3945 62.9818 60.5964 62.8125 61V64H62.0898V59.7734H62.793L62.8047 60.2617C63.0417 59.8841 63.3776 59.6953 63.8125 59.6953C63.9531 59.6953 64.0599 59.7135 64.1328 59.75V60.4219ZM64.5312 61.8477C64.5312 61.4336 64.612 61.0612 64.7734 60.7305C64.9375 60.3997 65.1641 60.1445 65.4531 59.9648C65.7448 59.7852 66.0768 59.6953 66.4492 59.6953C67.0247 59.6953 67.4896 59.8945 67.8438 60.293C68.2005 60.6914 68.3789 61.2214 68.3789 61.8828V61.9336C68.3789 62.3451 68.2995 62.7148 68.1406 63.043C67.9844 63.3685 67.7591 63.6224 67.4648 63.8047C67.1732 63.987 66.8372 64.0781 66.457 64.0781C65.8841 64.0781 65.4193 63.8789 65.0625 63.4805C64.7083 63.082 64.5312 62.5547 64.5312 61.8984V61.8477ZM65.2578 61.9336C65.2578 62.4023 65.3659 62.7786 65.582 63.0625C65.8008 63.3464 66.0924 63.4883 66.457 63.4883C66.8242 63.4883 67.1159 63.3451 67.332 63.0586C67.5482 62.7695 67.6562 62.3659 67.6562 61.8477C67.6562 61.3841 67.5456 61.0091 67.3242 60.7227C67.1055 60.4336 66.8138 60.2891 66.4492 60.2891C66.0924 60.2891 65.8047 60.431 65.5859 60.7148C65.3672 60.9987 65.2578 61.4049 65.2578 61.9336ZM70.9805 63.4883C71.2383 63.4883 71.4635 63.4102 71.6562 63.2539C71.849 63.0977 71.9557 62.9023 71.9766 62.668H72.6602C72.6471 62.9102 72.5638 63.1406 72.4102 63.3594C72.2565 63.5781 72.0508 63.7526 71.793 63.8828C71.5378 64.013 71.2669 64.0781 70.9805 64.0781C70.4049 64.0781 69.9466 63.8867 69.6055 63.5039C69.2669 63.1185 69.0977 62.5924 69.0977 61.9258V61.8047C69.0977 61.3932 69.1732 61.0273 69.3242 60.707C69.4753 60.3867 69.6914 60.138 69.9727 59.9609C70.2565 59.7839 70.5911 59.6953 70.9766 59.6953C71.4505 59.6953 71.8438 59.8372 72.1562 60.1211C72.4714 60.4049 72.6393 60.7734 72.6602 61.2266H71.9766C71.9557 60.9531 71.8516 60.7292 71.6641 60.5547C71.4792 60.3776 71.25 60.2891 70.9766 60.2891C70.6094 60.2891 70.3242 60.4219 70.1211 60.6875C69.9206 60.9505 69.8203 61.332 69.8203 61.832V61.9688C69.8203 62.4557 69.9206 62.8307 70.1211 63.0938C70.3216 63.3568 70.6081 63.4883 70.9805 63.4883ZM75.2266 64.0781C74.6536 64.0781 74.1875 63.8906 73.8281 63.5156C73.4688 63.138 73.2891 62.6341 73.2891 62.0039V61.8711C73.2891 61.4518 73.3685 61.0781 73.5273 60.75C73.6888 60.4193 73.9128 60.1615 74.1992 59.9766C74.4883 59.7891 74.8008 59.6953 75.1367 59.6953C75.6862 59.6953 76.1133 59.8763 76.418 60.2383C76.7227 60.6003 76.875 61.1185 76.875 61.793V62.0938H74.0117C74.0221 62.5104 74.1432 62.8477 74.375 63.1055C74.6094 63.3607 74.9062 63.4883 75.2656 63.4883C75.5208 63.4883 75.737 63.4362 75.9141 63.332C76.0911 63.2279 76.2461 63.0898 76.3789 62.918L76.8203 63.2617C76.4661 63.806 75.9349 64.0781 75.2266 64.0781ZM75.1367 60.2891C74.8451 60.2891 74.6003 60.3958 74.4023 60.6094C74.2044 60.8203 74.082 61.1172 74.0352 61.5H76.1523V61.4453C76.1315 61.0781 76.0326 60.7943 75.8555 60.5938C75.6784 60.3906 75.4388 60.2891 75.1367 60.2891ZM79.4688 64.0781C78.8958 64.0781 78.4297 63.8906 78.0703 63.5156C77.7109 63.138 77.5312 62.6341 77.5312 62.0039V61.8711C77.5312 61.4518 77.6107 61.0781 77.7695 60.75C77.931 60.4193 78.1549 60.1615 78.4414 59.9766C78.7305 59.7891 79.043 59.6953 79.3789 59.6953C79.9284 59.6953 80.3555 59.8763 80.6602 60.2383C80.9648 60.6003 81.1172 61.1185 81.1172 61.793V62.0938H78.2539C78.2643 62.5104 78.3854 62.8477 78.6172 63.1055C78.8516 63.3607 79.1484 63.4883 79.5078 63.4883C79.763 63.4883 79.9792 63.4362 80.1562 63.332C80.3333 63.2279 80.4883 63.0898 80.6211 62.918L81.0625 63.2617C80.7083 63.806 80.1771 64.0781 79.4688 64.0781ZM79.3789 60.2891C79.0872 60.2891 78.8424 60.3958 78.6445 60.6094C78.4466 60.8203 78.3242 61.1172 78.2773 61.5H80.3945V61.4453C80.3737 61.0781 80.2747 60.7943 80.0977 60.5938C79.9206 60.3906 79.681 60.2891 79.3789 60.2891ZM81.7812 61.8516C81.7812 61.2031 81.9349 60.6823 82.2422 60.2891C82.5495 59.8932 82.9518 59.6953 83.4492 59.6953C83.944 59.6953 84.3359 59.8646 84.625 60.2031V58H85.3477V64H84.6836L84.6484 63.5469C84.3594 63.901 83.957 64.0781 83.4414 64.0781C82.9518 64.0781 82.5521 63.8776 82.2422 63.4766C81.9349 63.0755 81.7812 62.5521 81.7812 61.9062V61.8516ZM82.5039 61.9336C82.5039 62.4128 82.6029 62.7878 82.8008 63.0586C82.9987 63.3294 83.2721 63.4648 83.6211 63.4648C84.0794 63.4648 84.4141 63.2591 84.625 62.8477V60.9062C84.4089 60.5078 84.0768 60.3086 83.6289 60.3086C83.2747 60.3086 82.9987 60.4453 82.8008 60.7188C82.6029 60.9922 82.5039 61.3971 82.5039 61.9336ZM88.9336 62.8789C88.9336 62.6836 88.8594 62.5326 88.7109 62.4258C88.5651 62.3164 88.3086 62.2227 87.9414 62.1445C87.5768 62.0664 87.2865 61.9727 87.0703 61.8633C86.8568 61.7539 86.6979 61.6237 86.5938 61.4727C86.4922 61.3216 86.4414 61.1419 86.4414 60.9336C86.4414 60.5872 86.5872 60.2943 86.8789 60.0547C87.1732 59.8151 87.5482 59.6953 88.0039 59.6953C88.4831 59.6953 88.8711 59.819 89.168 60.0664C89.4674 60.3138 89.6172 60.6302 89.6172 61.0156H88.8906C88.8906 60.8177 88.806 60.6471 88.6367 60.5039C88.4701 60.3607 88.2591 60.2891 88.0039 60.2891C87.7409 60.2891 87.5352 60.3464 87.3867 60.4609C87.2383 60.5755 87.1641 60.7253 87.1641 60.9102C87.1641 61.0846 87.2331 61.2161 87.3711 61.3047C87.5091 61.3932 87.7578 61.4779 88.1172 61.5586C88.4792 61.6393 88.7721 61.7357 88.9961 61.8477C89.2201 61.9596 89.3854 62.0951 89.4922 62.2539C89.6016 62.4102 89.6562 62.6016 89.6562 62.8281C89.6562 63.2057 89.5052 63.5091 89.2031 63.7383C88.901 63.9648 88.5091 64.0781 88.0273 64.0781C87.6888 64.0781 87.3893 64.0182 87.1289 63.8984C86.8685 63.7786 86.6641 63.612 86.5156 63.3984C86.3698 63.1823 86.2969 62.9492 86.2969 62.6992H87.0195C87.0326 62.9414 87.1289 63.1341 87.3086 63.2773C87.4909 63.418 87.7305 63.4883 88.0273 63.4883C88.3008 63.4883 88.5195 63.4336 88.6836 63.3242C88.8503 63.2122 88.9336 63.0638 88.9336 62.8789Z" fill="#999999"/>
<path d="M53.7852 78.3818C53.7852 78.0081 53.6803 77.7119 53.4707 77.4932C53.2656 77.2699 52.9147 77.0648 52.418 76.8779C51.9212 76.6911 51.4928 76.5065 51.1328 76.3242C50.7728 76.1374 50.4629 75.9255 50.2031 75.6885C49.9479 75.4469 49.7474 75.1644 49.6016 74.8408C49.4603 74.5173 49.3896 74.1322 49.3896 73.6855C49.3896 72.9154 49.6357 72.2842 50.1279 71.792C50.6201 71.2998 51.2741 71.0127 52.0898 70.9307V69.4678H53.1836V70.9512C53.9902 71.0651 54.6214 71.4023 55.0771 71.9629C55.5329 72.5189 55.7607 73.2412 55.7607 74.1299H53.7852C53.7852 73.583 53.6712 73.1751 53.4434 72.9062C53.2201 72.6328 52.9193 72.4961 52.541 72.4961C52.1673 72.4961 51.8779 72.6032 51.6729 72.8174C51.4678 73.027 51.3652 73.3187 51.3652 73.6924C51.3652 74.0387 51.4655 74.3167 51.666 74.5264C51.8665 74.736 52.238 74.9502 52.7803 75.1689C53.3271 75.3877 53.776 75.5951 54.127 75.791C54.4779 75.9824 54.7741 76.2012 55.0156 76.4473C55.2572 76.6888 55.4417 76.9668 55.5693 77.2812C55.6969 77.5911 55.7607 77.9535 55.7607 78.3682C55.7607 79.1429 55.5192 79.7718 55.0361 80.2549C54.5531 80.738 53.8877 81.0228 53.04 81.1094V82.4697H51.9531V81.1162C51.0189 81.016 50.2943 80.6855 49.7793 80.125C49.2689 79.5599 49.0137 78.8102 49.0137 77.876H50.9893C50.9893 78.4183 51.1169 78.8353 51.3721 79.127C51.6318 79.4141 52.0033 79.5576 52.4863 79.5576C52.8874 79.5576 53.2041 79.4528 53.4365 79.2432C53.6689 79.029 53.7852 78.7419 53.7852 78.3818ZM63.7998 76.8848C63.7998 78.2611 63.515 79.3138 62.9453 80.043C62.3757 80.7721 61.5417 81.1367 60.4434 81.1367C59.3587 81.1367 58.5293 80.779 57.9551 80.0635C57.3809 79.348 57.0869 78.3226 57.0732 76.9873V75.1553C57.0732 73.7653 57.3604 72.7103 57.9346 71.9902C58.5133 71.2702 59.3451 70.9102 60.4297 70.9102C61.5143 70.9102 62.3438 71.2679 62.918 71.9834C63.4922 72.6943 63.7861 73.7174 63.7998 75.0527V76.8848ZM61.8242 74.875C61.8242 74.0501 61.7103 73.4508 61.4824 73.0771C61.2591 72.6989 60.9082 72.5098 60.4297 72.5098C59.9648 72.5098 59.6208 72.6898 59.3975 73.0498C59.1787 73.4053 59.0625 73.9635 59.0488 74.7246V77.1445C59.0488 77.9557 59.1582 78.5596 59.377 78.9561C59.6003 79.348 59.9557 79.5439 60.4434 79.5439C60.9264 79.5439 61.2751 79.3548 61.4893 78.9766C61.7035 78.5983 61.8151 78.0195 61.8242 77.2402V74.875ZM65.3242 80.0293C65.3242 79.7148 65.429 79.4596 65.6387 79.2637C65.8529 79.0677 66.1195 78.9697 66.4385 78.9697C66.762 78.9697 67.0286 79.0677 67.2383 79.2637C67.4525 79.4596 67.5596 79.7148 67.5596 80.0293C67.5596 80.3392 67.4548 80.5921 67.2451 80.7881C67.0355 80.9795 66.7666 81.0752 66.4385 81.0752C66.1149 81.0752 65.8483 80.9795 65.6387 80.7881C65.429 80.5921 65.3242 80.3392 65.3242 80.0293ZM75.9131 76.8848C75.9131 78.2611 75.6283 79.3138 75.0586 80.043C74.4889 80.7721 73.6549 81.1367 72.5566 81.1367C71.472 81.1367 70.6426 80.779 70.0684 80.0635C69.4941 79.348 69.2002 78.3226 69.1865 76.9873V75.1553C69.1865 73.7653 69.4736 72.7103 70.0479 71.9902C70.6266 71.2702 71.4583 70.9102 72.543 70.9102C73.6276 70.9102 74.457 71.2679 75.0312 71.9834C75.6055 72.6943 75.8994 73.7174 75.9131 75.0527V76.8848ZM73.9375 74.875C73.9375 74.0501 73.8236 73.4508 73.5957 73.0771C73.3724 72.6989 73.0215 72.5098 72.543 72.5098C72.0781 72.5098 71.734 72.6898 71.5107 73.0498C71.292 73.4053 71.1758 73.9635 71.1621 74.7246V77.1445C71.1621 77.9557 71.2715 78.5596 71.4902 78.9561C71.7135 79.348 72.069 79.5439 72.5566 79.5439C73.0397 79.5439 73.3883 79.3548 73.6025 78.9766C73.8167 78.5983 73.9284 78.0195 73.9375 77.2402V74.875ZM83.9521 76.8848C83.9521 78.2611 83.6673 79.3138 83.0977 80.043C82.528 80.7721 81.694 81.1367 80.5957 81.1367C79.5111 81.1367 78.6816 80.779 78.1074 80.0635C77.5332 79.348 77.2393 78.3226 77.2256 76.9873V75.1553C77.2256 73.7653 77.5127 72.7103 78.0869 71.9902C78.6657 71.2702 79.4974 70.9102 80.582 70.9102C81.6667 70.9102 82.4961 71.2679 83.0703 71.9834C83.6445 72.6943 83.9385 73.7174 83.9521 75.0527V76.8848ZM81.9766 74.875C81.9766 74.0501 81.8626 73.4508 81.6348 73.0771C81.4115 72.6989 81.0605 72.5098 80.582 72.5098C80.1172 72.5098 79.7731 72.6898 79.5498 73.0498C79.3311 73.4053 79.2148 73.9635 79.2012 74.7246V77.1445C79.2012 77.9557 79.3105 78.5596 79.5293 78.9561C79.7526 79.348 80.1081 79.5439 80.5957 79.5439C81.0788 79.5439 81.4274 79.3548 81.6416 78.9766C81.8558 78.5983 81.9674 78.0195 81.9766 77.2402V74.875Z" fill="#E5E5E5"/>
</svg>
