<svg width="133" height="133" viewBox="0 0 133 133" fill="none" xmlns="http://www.w3.org/2000/svg">
<g clip-path="url(#clip0_823_76)">
<path d="M66.35 110C90.4572 110 110 90.4572 110 66.35C110 42.2428 90.4572 22.7 66.35 22.7C42.2428 22.7 22.7 42.2428 22.7 66.35C22.7 90.4572 42.2428 110 66.35 110ZM132.7 66.35C132.7 102.994 102.994 132.7 66.35 132.7C29.7059 132.7 0 102.994 0 66.35C0 29.7059 29.7059 0 66.35 0C102.994 0 132.7 29.7059 132.7 66.35Z" fill="#324A83"/>
<path d="M42.6797 50.9297H40.8517V56H40.1055V50.9297H38.2812V50.3125H42.6797V50.9297ZM42.8281 53.8477C42.8281 53.4336 42.909 53.0612 43.0704 52.7305C43.2345 52.3997 43.4609 52.1445 43.75 51.9648C44.0417 51.7852 44.3738 51.6953 44.7462 51.6953C45.3217 51.6953 45.7865 51.8945 46.1406 52.293C46.4974 52.6914 46.6758 53.2214 46.6758 53.8828V53.9336C46.6758 54.3451 46.5964 54.7148 46.4375 55.043C46.2812 55.3685 46.056 55.6224 45.7617 55.8047C45.4701 55.987 45.1341 56.0781 44.7539 56.0781C44.181 56.0781 43.7162 55.8789 43.3595 55.4805C43.0053 55.082 42.8281 54.5547 42.8281 53.8984V53.8477ZM43.5547 53.9336C43.5547 54.4023 43.6628 54.7786 43.8789 55.0625C44.0977 55.3464 44.3893 55.4883 44.7539 55.4883C45.1211 55.4883 45.4128 55.3451 45.6289 55.0586C45.8451 54.7695 45.9531 54.3659 45.9531 53.8477C45.9531 53.3841 45.8425 53.0091 45.6212 52.7227C45.4024 52.4336 45.1108 52.2891 44.7462 52.2891C44.3894 52.2891 44.1017 52.431 43.8829 52.7148C43.6642 52.9987 43.5547 53.4049 43.5547 53.9336ZM48.5625 50.75V51.7734H49.3517V52.332H48.5625V54.9531C48.5625 55.1224 48.5977 55.25 48.668 55.3359C48.7383 55.4193 48.8582 55.4609 49.0274 55.4609C49.1108 55.4609 49.2254 55.4453 49.3712 55.4141V56C49.1811 56.0521 48.9961 56.0781 48.8164 56.0781C48.4935 56.0781 48.25 55.9805 48.0859 55.7852C47.9219 55.5898 47.8399 55.3125 47.8399 54.9531V52.332H47.0704V51.7734H47.8399V50.75H48.5625ZM52.8087 56C52.767 55.9167 52.7332 55.7682 52.7071 55.5547C52.3712 55.9036 51.9701 56.0781 51.5039 56.0781C51.0872 56.0781 50.7449 55.9609 50.4767 55.7266C50.211 55.4896 50.0781 55.1901 50.0781 54.8281C50.0781 54.388 50.2448 54.0469 50.5781 53.8047C50.9141 53.5599 51.3854 53.4375 51.9922 53.4375H52.6954V53.1055C52.6954 52.8529 52.6198 52.6523 52.4688 52.5039C52.3177 52.3529 52.0951 52.2773 51.8008 52.2773C51.543 52.2773 51.3269 52.3424 51.1524 52.4727C50.978 52.6029 50.8906 52.7604 50.8906 52.9453H50.1642C50.1642 52.7344 50.2383 52.5312 50.3867 52.3359C50.5378 52.138 50.741 51.9818 50.9962 51.8672C51.254 51.7526 51.5365 51.6953 51.8438 51.6953C52.3307 51.6953 52.7122 51.8177 52.9883 52.0625C53.2643 52.3047 53.4076 52.6393 53.418 53.0664V55.0117C53.418 55.3997 53.4674 55.7083 53.5664 55.9375V56H52.8087ZM51.6095 55.4492C51.836 55.4492 52.0508 55.3906 52.2539 55.2734C52.457 55.1562 52.6043 55.0039 52.6954 54.8164V53.9492H52.1289C51.2435 53.9492 50.8008 54.2083 50.8008 54.7266C50.8008 54.9531 50.8764 55.1302 51.0274 55.2578C51.1785 55.3854 51.3725 55.4492 51.6095 55.4492ZM55.3359 56H54.6133V50H55.3359V56ZM61.8087 53.3711H59.3438V55.3867H62.2071V56H58.5938V50.3125H62.168V50.9297H59.3438V52.7578H61.8087V53.3711ZM65.4883 54.8789C65.4883 54.6836 65.4142 54.5326 65.2657 54.4258C65.1199 54.3164 64.8634 54.2227 64.4962 54.1445C64.1316 54.0664 63.8411 53.9727 63.625 53.8633C63.4115 53.7539 63.2526 53.6237 63.1484 53.4727C63.0469 53.3216 62.9962 53.1419 62.9962 52.9336C62.9962 52.5872 63.142 52.2943 63.4337 52.0547C63.728 51.8151 64.103 51.6953 64.5587 51.6953C65.0379 51.6953 65.4259 51.819 65.7228 52.0664C66.0222 52.3138 66.1719 52.6302 66.1719 53.0156H65.4453C65.4453 52.8177 65.3607 52.6471 65.1914 52.5039C65.0247 52.3607 64.8139 52.2891 64.5587 52.2891C64.2957 52.2891 64.0898 52.3464 63.9414 52.4609C63.793 52.5755 63.7188 52.7253 63.7188 52.9102C63.7188 53.0846 63.7878 53.2161 63.9258 53.3047C64.0638 53.3932 64.3125 53.4779 64.6719 53.5586C65.0339 53.6393 65.3268 53.7357 65.5508 53.8477C65.7747 53.9596 65.9401 54.0951 66.0469 54.2539C66.1562 54.4102 66.2109 54.6016 66.2109 54.8281C66.2109 55.2057 66.0599 55.5091 65.7578 55.7383C65.4557 55.9648 65.0639 56.0781 64.5821 56.0781C64.2436 56.0781 63.9441 56.0182 63.6837 55.8984C63.4233 55.7786 63.2189 55.612 63.0704 55.3984C62.9246 55.1823 62.8517 54.9492 62.8517 54.6992H63.5742C63.5872 54.9414 63.6836 55.1341 63.8633 55.2773C64.0456 55.418 64.2853 55.4883 64.5821 55.4883C64.8556 55.4883 65.0742 55.4336 65.2383 55.3242C65.4049 55.2122 65.4883 55.0638 65.4883 54.8789ZM68.1328 50.75V51.7734H68.9219V52.332H68.1328V54.9531C68.1328 55.1224 68.168 55.25 68.2383 55.3359C68.3086 55.4193 68.4285 55.4609 68.5978 55.4609C68.6811 55.4609 68.7956 55.4453 68.9414 55.4141V56C68.7513 56.0521 68.5665 56.0781 68.3868 56.0781C68.0639 56.0781 67.8203 55.9805 67.6562 55.7852C67.4922 55.5898 67.4103 55.3125 67.4103 54.9531V52.332H66.6407V51.7734H67.4103V50.75H68.1328ZM70.5548 56H69.8321V51.7734H70.5548V56ZM69.7734 50.6523C69.7734 50.5352 69.8086 50.4362 69.8789 50.3555C69.9518 50.2747 70.0587 50.2344 70.1993 50.2344C70.3399 50.2344 70.4467 50.2747 70.5196 50.3555C70.5925 50.4362 70.6289 50.5352 70.6289 50.6523C70.6289 50.7695 70.5925 50.8672 70.5196 50.9453C70.4467 51.0234 70.3399 51.0625 70.1993 51.0625C70.0587 51.0625 69.9518 51.0234 69.8789 50.9453C69.8086 50.8672 69.7734 50.7695 69.7734 50.6523ZM72.3946 51.7734L72.4142 52.2422C72.7241 51.8776 73.1419 51.6953 73.668 51.6953C74.2591 51.6953 74.6615 51.9219 74.875 52.375C75.0156 52.1719 75.1979 52.0078 75.4219 51.8828C75.6484 51.7578 75.9155 51.6953 76.2228 51.6953C77.1498 51.6953 77.6212 52.1862 77.6368 53.168V56H76.9142V53.2109C76.9142 52.9089 76.8452 52.6836 76.7071 52.5352C76.5691 52.3841 76.3373 52.3086 76.0118 52.3086C75.7436 52.3086 75.5209 52.3893 75.3439 52.5508C75.1668 52.7096 75.0639 52.9245 75.0353 53.1953V56H74.3087V53.2305C74.3087 52.6159 74.0078 52.3086 73.4062 52.3086C72.9323 52.3086 72.6082 52.5104 72.4337 52.9141V56H71.7109V51.7734H72.3946ZM81.3398 56C81.2982 55.9167 81.2643 55.7682 81.2383 55.5547C80.9023 55.9036 80.5014 56.0781 80.0353 56.0781C79.6186 56.0781 79.276 55.9609 79.0078 55.7266C78.7422 55.4896 78.6094 55.1901 78.6094 54.8281C78.6094 54.388 78.776 54.0469 79.1094 53.8047C79.4453 53.5599 79.9167 53.4375 80.5234 53.4375H81.2267V53.1055C81.2267 52.8529 81.151 52.6523 81 52.5039C80.849 52.3529 80.6264 52.2773 80.3321 52.2773C80.0743 52.2773 79.8582 52.3424 79.6837 52.4727C79.5092 52.6029 79.4219 52.7604 79.4219 52.9453H78.6953C78.6953 52.7344 78.7695 52.5312 78.918 52.3359C79.069 52.138 79.2721 51.9818 79.5273 51.8672C79.7852 51.7526 80.0677 51.6953 80.375 51.6953C80.862 51.6953 81.2436 51.8177 81.5196 52.0625C81.7957 52.3047 81.9389 52.6393 81.9493 53.0664V55.0117C81.9493 55.3997 81.9988 55.7083 82.0978 55.9375V56H81.3398ZM80.1407 55.4492C80.3673 55.4492 80.5821 55.3906 80.7853 55.2734C80.9884 55.1562 81.1355 55.0039 81.2267 54.8164V53.9492H80.6603C79.7748 53.9492 79.3321 54.2083 79.3321 54.7266C79.3321 54.9531 79.4077 55.1302 79.5587 55.2578C79.7097 55.3854 79.9037 55.4492 80.1407 55.4492ZM84.0625 50.75V51.7734H84.8517V52.332H84.0625V54.9531C84.0625 55.1224 84.0977 55.25 84.168 55.3359C84.2383 55.4193 84.3581 55.4609 84.5273 55.4609C84.6107 55.4609 84.7254 55.4453 84.8712 55.4141V56C84.6811 56.0521 84.4961 56.0781 84.3164 56.0781C83.9935 56.0781 83.75 55.9805 83.5859 55.7852C83.4219 55.5898 83.3398 55.3125 83.3398 54.9531V52.332H82.5703V51.7734H83.3398V50.75H84.0625ZM87.4532 56.0781C86.8803 56.0781 86.4142 55.8906 86.0548 55.5156C85.6954 55.138 85.5157 54.6341 85.5157 54.0039V53.8711C85.5157 53.4518 85.5951 53.0781 85.7539 52.75C85.9154 52.4193 86.1393 52.1615 86.4258 51.9766C86.7148 51.7891 87.0273 51.6953 87.3633 51.6953C87.9128 51.6953 88.3399 51.8763 88.6446 52.2383C88.9493 52.6003 89.1017 53.1185 89.1017 53.793V54.0938H86.2383C86.2487 54.5104 86.3699 54.8477 86.6017 55.1055C86.836 55.3607 87.1329 55.4883 87.4923 55.4883C87.7475 55.4883 87.9636 55.4362 88.1407 55.332C88.3178 55.2279 88.4727 55.0898 88.6055 54.918L89.0469 55.2617C88.6927 55.806 88.1616 56.0781 87.4532 56.0781ZM87.3633 52.2891C87.0716 52.2891 86.8268 52.3958 86.6289 52.6094C86.431 52.8203 86.3087 53.1172 86.2618 53.5H88.3789V53.4453C88.3581 53.0781 88.2592 52.7943 88.0821 52.5938C87.905 52.3906 87.6654 52.2891 87.3633 52.2891ZM89.7657 53.8516C89.7657 53.2031 89.9194 52.6823 90.2267 52.2891C90.534 51.8932 90.9363 51.6953 91.4337 51.6953C91.9285 51.6953 92.3203 51.8646 92.6094 52.2031V50H93.3321V56H92.668L92.6328 55.5469C92.3438 55.901 91.9414 56.0781 91.4258 56.0781C90.9362 56.0781 90.5366 55.8776 90.2267 55.4766C89.9194 55.0755 89.7657 54.5521 89.7657 53.9062V53.8516ZM90.4883 53.9336C90.4883 54.4128 90.5873 54.7878 90.7853 55.0586C90.9832 55.3294 91.2565 55.4648 91.6055 55.4648C92.0638 55.4648 92.3984 55.2591 92.6094 54.8477V52.9062C92.3932 52.5078 92.0612 52.3086 91.6133 52.3086C91.2591 52.3086 90.9832 52.4453 90.7853 52.7188C90.5873 52.9922 90.4883 53.3971 90.4883 53.9336ZM46.9805 64H46.2267L43.3633 59.6172V64H42.6095V58.3125H43.3633L46.2345 62.7148V58.3125H46.9805V64ZM49.9531 64.0781C49.3802 64.0781 48.9141 63.8906 48.5547 63.5156C48.1953 63.138 48.0156 62.6341 48.0156 62.0039V61.8711C48.0156 61.4518 48.0951 61.0781 48.2539 60.75C48.4154 60.4193 48.6393 60.1615 48.9258 59.9766C49.2148 59.7891 49.5273 59.6953 49.8633 59.6953C50.4128 59.6953 50.8399 59.8763 51.1446 60.2383C51.4493 60.6003 51.6017 61.1185 51.6017 61.793V62.0938H48.7383C48.7487 62.5104 48.8699 62.8477 49.1017 63.1055C49.336 63.3607 49.6328 63.4883 49.9922 63.4883C50.2474 63.4883 50.4635 63.4362 50.6406 63.332C50.8177 63.2279 50.9727 63.0898 51.1055 62.918L51.547 63.2617C51.1928 63.806 50.6615 64.0781 49.9531 64.0781ZM49.8633 60.2891C49.5716 60.2891 49.3268 60.3958 49.1289 60.6094C48.931 60.8203 48.8086 61.1172 48.7617 61.5H50.8789V61.4453C50.8581 61.0781 50.7592 60.7943 50.5821 60.5938C50.405 60.3906 50.1654 60.2891 49.8633 60.2891ZM53.422 58.75V59.7734H54.2109V60.332H53.422V62.9531C53.422 63.1224 53.4571 63.25 53.5274 63.3359C53.5978 63.4193 53.7174 63.4609 53.8867 63.4609C53.9701 63.4609 54.0846 63.4453 54.2305 63.4141V64C54.0404 64.0521 53.8555 64.0781 53.6758 64.0781C53.3529 64.0781 53.1095 63.9805 52.9454 63.7852C52.7813 63.5898 52.6992 63.3125 52.6992 62.9531V60.332H51.9297V59.7734H52.6992V58.75H53.422ZM57.9062 61.7734V64H57.1562V58.3125H59.2539C59.8763 58.3125 60.3634 58.4714 60.7149 58.7891C61.0691 59.1068 61.2462 59.5273 61.2462 60.0508C61.2462 60.6029 61.073 61.0286 60.7267 61.3281C60.3829 61.625 59.8894 61.7734 59.2462 61.7734H57.9062ZM57.9062 61.1602H59.2539C59.6549 61.1602 59.9622 61.0664 60.1758 60.8789C60.3893 60.6888 60.4962 60.4154 60.4962 60.0586C60.4962 59.7201 60.3893 59.4492 60.1758 59.2461C59.9622 59.043 59.6694 58.9375 59.297 58.9297H57.9062V61.1602ZM64.1328 60.4219C64.0234 60.4036 63.905 60.3945 63.7774 60.3945C63.3035 60.3945 62.9818 60.5964 62.8125 61V64H62.0899V59.7734H62.793L62.8047 60.2617C63.0417 59.8841 63.3776 59.6953 63.8125 59.6953C63.9531 59.6953 64.0599 59.7135 64.1328 59.75V60.4219ZM64.5312 61.8477C64.5312 61.4336 64.612 61.0612 64.7734 60.7305C64.9375 60.3997 65.1642 60.1445 65.4532 59.9648C65.7449 59.7852 66.0769 59.6953 66.4493 59.6953C67.0248 59.6953 67.4897 59.8945 67.8439 60.293C68.2006 60.6914 68.3789 61.2214 68.3789 61.8828V61.9336C68.3789 62.3451 68.2996 62.7148 68.1407 63.043C67.9845 63.3685 67.7591 63.6224 67.4648 63.8047C67.1732 63.987 66.8373 64.0781 66.4571 64.0781C65.8842 64.0781 65.4193 63.8789 65.0625 63.4805C64.7083 63.082 64.5312 62.5547 64.5312 61.8984V61.8477ZM65.2578 61.9336C65.2578 62.4023 65.366 62.7786 65.5821 63.0625C65.8009 63.3464 66.0925 63.4883 66.4571 63.4883C66.8243 63.4883 67.116 63.3451 67.3321 63.0586C67.5483 62.7695 67.6562 62.3659 67.6562 61.8477C67.6562 61.3841 67.5457 61.0091 67.3243 60.7227C67.1056 60.4336 66.8139 60.2891 66.4493 60.2891C66.0925 60.2891 65.8047 60.431 65.5859 60.7148C65.3672 60.9987 65.2578 61.4049 65.2578 61.9336ZM70.9805 63.4883C71.2383 63.4883 71.4635 63.4102 71.6562 63.2539C71.849 63.0977 71.9558 62.9023 71.9767 62.668H72.6603C72.6472 62.9102 72.5639 63.1406 72.4103 63.3594C72.2566 63.5781 72.0508 63.7526 71.793 63.8828C71.5378 64.013 71.2669 64.0781 70.9805 64.0781C70.4049 64.0781 69.9466 63.8867 69.6055 63.5039C69.2669 63.1185 69.0978 62.5924 69.0978 61.9258V61.8047C69.0978 61.3932 69.1733 61.0273 69.3243 60.707C69.4754 60.3867 69.6915 60.138 69.9728 59.9609C70.2566 59.7839 70.5912 59.6953 70.9767 59.6953C71.4506 59.6953 71.8438 59.8372 72.1562 60.1211C72.4714 60.4049 72.6394 60.7734 72.6603 61.2266H71.9767C71.9558 60.9531 71.8517 60.7292 71.6642 60.5547C71.4793 60.3776 71.2501 60.2891 70.9767 60.2891C70.6095 60.2891 70.3243 60.4219 70.1212 60.6875C69.9207 60.9505 69.8203 61.332 69.8203 61.832V61.9688C69.8203 62.4557 69.9207 62.8307 70.1212 63.0938C70.3217 63.3568 70.6081 63.4883 70.9805 63.4883ZM75.2267 64.0781C74.6537 64.0781 74.1876 63.8906 73.8282 63.5156C73.4689 63.138 73.2892 62.6341 73.2892 62.0039V61.8711C73.2892 61.4518 73.3685 61.0781 73.5273 60.75C73.6888 60.4193 73.9129 60.1615 74.1993 59.9766C74.4884 59.7891 74.8009 59.6953 75.1368 59.6953C75.6863 59.6953 76.1133 59.8763 76.418 60.2383C76.7227 60.6003 76.875 61.1185 76.875 61.793V62.0938H74.0118C74.0222 62.5104 74.1432 62.8477 74.375 63.1055C74.6094 63.3607 74.9063 63.4883 75.2657 63.4883C75.5209 63.4883 75.7371 63.4362 75.9142 63.332C76.0912 63.2279 76.2461 63.0898 76.3789 62.918L76.8203 63.2617C76.4661 63.806 75.935 64.0781 75.2267 64.0781ZM75.1368 60.2891C74.8452 60.2891 74.6003 60.3958 74.4023 60.6094C74.2044 60.8203 74.0821 61.1172 74.0353 61.5H76.1523V61.4453C76.1315 61.0781 76.0326 60.7943 75.8555 60.5938C75.6784 60.3906 75.4389 60.2891 75.1368 60.2891ZM79.4689 64.0781C78.8959 64.0781 78.4297 63.8906 78.0703 63.5156C77.7109 63.138 77.5312 62.6341 77.5312 62.0039V61.8711C77.5312 61.4518 77.6108 61.0781 77.7696 60.75C77.9311 60.4193 78.1549 60.1615 78.4414 59.9766C78.7305 59.7891 79.043 59.6953 79.3789 59.6953C79.9284 59.6953 80.3556 59.8763 80.6603 60.2383C80.9649 60.6003 81.1173 61.1185 81.1173 61.793V62.0938H78.2539C78.2643 62.5104 78.3855 62.8477 78.6173 63.1055C78.8517 63.3607 79.1484 63.4883 79.5078 63.4883C79.763 63.4883 79.9792 63.4362 80.1562 63.332C80.3333 63.2279 80.4884 63.0898 80.6212 62.918L81.0625 63.2617C80.7083 63.806 80.1772 64.0781 79.4689 64.0781ZM79.3789 60.2891C79.0872 60.2891 78.8425 60.3958 78.6446 60.6094C78.4467 60.8203 78.3242 61.1172 78.2773 61.5H80.3946V61.4453C80.3738 61.0781 80.2748 60.7943 80.0978 60.5938C79.9207 60.3906 79.681 60.2891 79.3789 60.2891ZM81.7812 61.8516C81.7812 61.2031 81.935 60.6823 82.2423 60.2891C82.5496 59.8932 82.9519 59.6953 83.4493 59.6953C83.9441 59.6953 84.3359 59.8646 84.625 60.2031V58H85.3478V64H84.6837L84.6484 63.5469C84.3594 63.901 83.957 64.0781 83.4414 64.0781C82.9518 64.0781 82.5522 63.8776 82.2423 63.4766C81.935 63.0755 81.7812 62.5521 81.7812 61.9062V61.8516ZM82.5039 61.9336C82.5039 62.4128 82.6029 62.7878 82.8008 63.0586C82.9987 63.3294 83.2722 63.4648 83.6212 63.4648C84.0795 63.4648 84.4141 63.2591 84.625 62.8477V60.9062C84.4089 60.5078 84.0768 60.3086 83.6289 60.3086C83.2747 60.3086 82.9987 60.4453 82.8008 60.7188C82.6029 60.9922 82.5039 61.3971 82.5039 61.9336ZM88.9337 62.8789C88.9337 62.6836 88.8594 62.5326 88.7109 62.4258C88.5651 62.3164 88.3086 62.2227 87.9414 62.1445C87.5768 62.0664 87.2865 61.9727 87.0703 61.8633C86.8568 61.7539 86.698 61.6237 86.5939 61.4727C86.4923 61.3216 86.4414 61.1419 86.4414 60.9336C86.4414 60.5872 86.5872 60.2943 86.8789 60.0547C87.1732 59.8151 87.5482 59.6953 88.0039 59.6953C88.4831 59.6953 88.8711 59.819 89.168 60.0664C89.4674 60.3138 89.6173 60.6302 89.6173 61.0156H88.8907C88.8907 60.8177 88.8061 60.6471 88.6368 60.5039C88.4702 60.3607 88.2591 60.2891 88.0039 60.2891C87.7409 60.2891 87.5353 60.3464 87.3868 60.4609C87.2384 60.5755 87.1642 60.7253 87.1642 60.9102C87.1642 61.0846 87.2332 61.2161 87.3712 61.3047C87.5092 61.3932 87.7579 61.4779 88.1173 61.5586C88.4793 61.6393 88.7722 61.7357 88.9962 61.8477C89.2202 61.9596 89.3855 62.0951 89.4923 62.2539C89.6017 62.4102 89.6562 62.6016 89.6562 62.8281C89.6562 63.2057 89.5053 63.5091 89.2032 63.7383C88.9011 63.9648 88.5091 64.0781 88.0273 64.0781C87.6888 64.0781 87.3893 64.0182 87.1289 63.8984C86.8685 63.7786 86.6642 63.612 86.5157 63.3984C86.3699 63.1823 86.2969 62.9492 86.2969 62.6992H87.0196C87.0327 62.9414 87.129 63.1341 87.3087 63.2773C87.491 63.418 87.7305 63.4883 88.0273 63.4883C88.3008 63.4883 88.5196 63.4336 88.6837 63.3242C88.8504 63.2122 88.9337 63.0638 88.9337 62.8789Z" fill="#999999"/>
<path d="M40.1074 70.1152V71.8438H39.1934V70.1152H40.1074ZM39.9961 79.6836V81.2598H39.082V79.6836H39.9961ZM40.6406 77.7617C40.6406 77.5391 40.5996 77.3496 40.5176 77.1934C40.4395 77.0371 40.3105 76.8984 40.1309 76.7773C39.9551 76.6562 39.7168 76.5391 39.416 76.4258C38.9082 76.2305 38.4609 76.0234 38.0742 75.8047C37.6914 75.582 37.3926 75.3066 37.1777 74.9785C36.9629 74.6465 36.8555 74.2266 36.8555 73.7188C36.8555 73.2344 36.9707 72.8145 37.2012 72.459C37.4316 72.1035 37.75 71.8301 38.1562 71.6387C38.5664 71.4434 39.043 71.3457 39.5859 71.3457C40 71.3457 40.375 71.4082 40.7109 71.5332C41.0469 71.6543 41.3359 71.834 41.5781 72.0723C41.8203 72.3066 42.0059 72.5938 42.1348 72.9336C42.2637 73.2734 42.3281 73.6621 42.3281 74.0996H40.6465C40.6465 73.8652 40.6211 73.6582 40.5703 73.4785C40.5195 73.2988 40.4453 73.1484 40.3477 73.0273C40.2539 72.9062 40.1406 72.8164 40.0078 72.7578C39.875 72.6953 39.7285 72.6641 39.5684 72.6641C39.3301 72.6641 39.1348 72.7109 38.9824 72.8047C38.8301 72.8984 38.7188 73.0254 38.6484 73.1855C38.582 73.3418 38.5488 73.5215 38.5488 73.7246C38.5488 73.9238 38.584 74.0977 38.6543 74.2461C38.7285 74.3945 38.8555 74.5312 39.0352 74.6562C39.2148 74.7773 39.4609 74.9023 39.7734 75.0312C40.2812 75.2266 40.7266 75.4375 41.1094 75.6641C41.4922 75.8906 41.791 76.168 42.0059 76.4961C42.2207 76.8242 42.3281 77.2422 42.3281 77.75C42.3281 78.2539 42.2109 78.6836 41.9766 79.0391C41.7422 79.3906 41.4141 79.6602 40.9922 79.8477C40.5703 80.0312 40.082 80.123 39.5273 80.123C39.168 80.123 38.8105 80.0762 38.4551 79.9824C38.0996 79.8848 37.7773 79.7285 37.4883 79.5137C37.1992 79.2988 36.9688 79.0137 36.7969 78.6582C36.625 78.2988 36.5391 77.8574 36.5391 77.334H38.2266C38.2266 77.6191 38.2637 77.8574 38.3379 78.0488C38.4121 78.2363 38.5098 78.3867 38.6309 78.5C38.7559 78.6094 38.8965 78.6875 39.0527 78.7344C39.209 78.7812 39.3672 78.8047 39.5273 78.8047C39.7773 78.8047 39.9824 78.7598 40.1426 78.6699C40.3066 78.5801 40.4297 78.457 40.5117 78.3008C40.5977 78.1406 40.6406 77.9609 40.6406 77.7617ZM49.3125 78.6816V80H43.4766V78.875L46.2363 75.916C46.5137 75.6074 46.7324 75.3359 46.8926 75.1016C47.0527 74.8633 47.168 74.6504 47.2383 74.4629C47.3125 74.2715 47.3496 74.0898 47.3496 73.918C47.3496 73.6602 47.3066 73.4395 47.2207 73.2559C47.1348 73.0684 47.0078 72.9238 46.8398 72.8223C46.6758 72.7207 46.4727 72.6699 46.2305 72.6699C45.9727 72.6699 45.75 72.7324 45.5625 72.8574C45.3789 72.9824 45.2383 73.1562 45.1406 73.3789C45.0469 73.6016 45 73.8535 45 74.1348H43.3066C43.3066 73.627 43.4277 73.1621 43.6699 72.7402C43.9121 72.3145 44.2539 71.9766 44.6953 71.7266C45.1367 71.4727 45.6602 71.3457 46.2656 71.3457C46.8633 71.3457 47.3672 71.4434 47.7773 71.6387C48.1914 71.8301 48.5039 72.1074 48.7148 72.4707C48.9297 72.8301 49.0371 73.2598 49.0371 73.7598C49.0371 74.041 48.9922 74.3164 48.9023 74.5859C48.8125 74.8516 48.6836 75.1172 48.5156 75.3828C48.3516 75.6445 48.1523 75.9102 47.918 76.1797C47.6836 76.4492 47.4238 76.7285 47.1387 77.0176L45.6562 78.6816H49.3125ZM52.0957 75.002H52.998C53.2871 75.002 53.5254 74.9531 53.7129 74.8555C53.9004 74.7539 54.0391 74.6133 54.1289 74.4336C54.2227 74.25 54.2695 74.0371 54.2695 73.7949C54.2695 73.5762 54.2266 73.3828 54.1406 73.2148C54.0586 73.043 53.9316 72.9102 53.7598 72.8164C53.5879 72.7188 53.3711 72.6699 53.1094 72.6699C52.9023 72.6699 52.7109 72.7109 52.5352 72.793C52.3594 72.875 52.2188 72.9902 52.1133 73.1387C52.0078 73.2871 51.9551 73.4668 51.9551 73.6777H50.2617C50.2617 73.209 50.3867 72.8008 50.6367 72.4531C50.8906 72.1055 51.2305 71.834 51.6562 71.6387C52.082 71.4434 52.5508 71.3457 53.0625 71.3457C53.6406 71.3457 54.1465 71.4395 54.5801 71.627C55.0137 71.8105 55.3516 72.082 55.5938 72.4414C55.8359 72.8008 55.957 73.2461 55.957 73.7773C55.957 74.0469 55.8945 74.3086 55.7695 74.5625C55.6445 74.8125 55.4648 75.0391 55.2305 75.2422C55 75.4414 54.7188 75.6016 54.3867 75.7227C54.0547 75.8398 53.6816 75.8984 53.2676 75.8984H52.0957V75.002ZM52.0957 76.2852V75.4121H53.2676C53.7324 75.4121 54.1406 75.4648 54.4922 75.5703C54.8438 75.6758 55.1387 75.8281 55.377 76.0273C55.6152 76.2227 55.7949 76.4551 55.916 76.7246C56.0371 76.9902 56.0977 77.2852 56.0977 77.6094C56.0977 78.0078 56.0215 78.3633 55.8691 78.6758C55.7168 78.9844 55.502 79.2461 55.2246 79.4609C54.9512 79.6758 54.6309 79.8398 54.2637 79.9531C53.8965 80.0625 53.4961 80.1172 53.0625 80.1172C52.7031 80.1172 52.3496 80.0684 52.002 79.9707C51.6582 79.8691 51.3457 79.7188 51.0645 79.5195C50.7871 79.3164 50.5645 79.0625 50.3965 78.7578C50.2324 78.4492 50.1504 78.084 50.1504 77.6621H51.8438C51.8438 77.8809 51.8984 78.0762 52.0078 78.248C52.1172 78.4199 52.2676 78.5547 52.459 78.6523C52.6543 78.75 52.8711 78.7988 53.1094 78.7988C53.3789 78.7988 53.6094 78.75 53.8008 78.6523C53.9961 78.5508 54.1445 78.4102 54.2461 78.2305C54.3516 78.0469 54.4043 77.834 54.4043 77.5918C54.4043 77.2793 54.3477 77.0293 54.2344 76.8418C54.1211 76.6504 53.959 76.5098 53.748 76.4199C53.5371 76.3301 53.2871 76.2852 52.998 76.2852H52.0957ZM58.9277 78.5762L58.9219 79.707C58.9219 80.1406 58.8125 80.5781 58.5938 81.0195C58.3789 81.4609 58.1055 81.8223 57.7734 82.1035L56.8945 81.6523C56.9922 81.4727 57.0879 81.293 57.1816 81.1133C57.2754 80.9336 57.3535 80.7363 57.416 80.5215C57.4785 80.3066 57.5098 80.0625 57.5098 79.7891V78.5762H58.9277ZM64.5645 71.3809H64.8105V72.7285H64.7109C64.2656 72.7285 63.8691 72.7949 63.5215 72.9277C63.1738 73.0605 62.8789 73.25 62.6367 73.4961C62.3984 73.7383 62.2148 74.0312 62.0859 74.375C61.9609 74.7188 61.8984 75.1035 61.8984 75.5293V76.9473C61.8984 77.252 61.9277 77.5215 61.9863 77.7559C62.0488 77.9863 62.1367 78.1797 62.25 78.3359C62.3672 78.4883 62.5039 78.6035 62.6602 78.6816C62.8164 78.7559 62.9922 78.793 63.1875 78.793C63.3711 78.793 63.5371 78.7539 63.6855 78.6758C63.8379 78.5977 63.9668 78.4883 64.0723 78.3477C64.1816 78.2031 64.2637 78.0352 64.3184 77.8438C64.377 77.6484 64.4062 77.4355 64.4062 77.2051C64.4062 76.9746 64.377 76.7617 64.3184 76.5664C64.2637 76.3711 64.1816 76.2031 64.0723 76.0625C63.9629 75.918 63.8301 75.8066 63.6738 75.7285C63.5176 75.6504 63.3418 75.6113 63.1465 75.6113C62.8809 75.6113 62.6465 75.6738 62.4434 75.7988C62.2441 75.9199 62.0879 76.0762 61.9746 76.2676C61.8613 76.459 61.8008 76.6602 61.793 76.8711L61.2832 76.543C61.2949 76.2422 61.3574 75.957 61.4707 75.6875C61.5879 75.418 61.748 75.1797 61.9512 74.9727C62.1582 74.7617 62.4062 74.5977 62.6953 74.4805C62.9844 74.3594 63.3105 74.2988 63.6738 74.2988C64.0723 74.2988 64.4219 74.375 64.7227 74.5273C65.0273 74.6797 65.2812 74.8887 65.4844 75.1543C65.6875 75.4199 65.8398 75.7266 65.9414 76.0742C66.043 76.4219 66.0938 76.793 66.0938 77.1875C66.0938 77.6016 66.0254 77.9863 65.8887 78.3418C65.7559 78.6973 65.5625 79.0078 65.3086 79.2734C65.0586 79.5391 64.7578 79.7461 64.4062 79.8945C64.0547 80.043 63.6602 80.1172 63.2227 80.1172C62.7695 80.1172 62.3574 80.0352 61.9863 79.8711C61.6191 79.7031 61.3027 79.4688 61.0371 79.168C60.7715 78.8672 60.5664 78.5098 60.4219 78.0957C60.2812 77.6816 60.2109 77.2285 60.2109 76.7363V76.0801C60.2109 75.3926 60.3105 74.7637 60.5098 74.1934C60.7129 73.6191 61.0039 73.123 61.3828 72.7051C61.7617 72.2832 62.2188 71.957 62.7539 71.7266C63.2891 71.4961 63.8926 71.3809 64.5645 71.3809ZM68.6895 76.1152L67.3418 75.793L67.8281 71.4688H72.6211V72.834H69.2168L69.0059 74.7266C69.1191 74.6602 69.291 74.5898 69.5215 74.5156C69.752 74.4375 70.0098 74.3984 70.2949 74.3984C70.709 74.3984 71.0762 74.4629 71.3965 74.5918C71.7168 74.7207 71.9883 74.9082 72.2109 75.1543C72.4375 75.4004 72.6094 75.7012 72.7266 76.0566C72.8438 76.4121 72.9023 76.8145 72.9023 77.2637C72.9023 77.6426 72.8438 78.0039 72.7266 78.3477C72.6094 78.6875 72.4316 78.9922 72.1934 79.2617C71.9551 79.5273 71.6562 79.7363 71.2969 79.8887C70.9375 80.041 70.5117 80.1172 70.0195 80.1172C69.6523 80.1172 69.2969 80.0625 68.9531 79.9531C68.6133 79.8438 68.3066 79.6816 68.0332 79.4668C67.7637 79.252 67.5469 78.9922 67.3828 78.6875C67.2227 78.3789 67.1387 78.0273 67.1309 77.6328H68.8066C68.8301 77.875 68.8926 78.084 68.9941 78.2598C69.0996 78.4316 69.2383 78.5645 69.4102 78.6582C69.582 78.752 69.7832 78.7988 70.0137 78.7988C70.2285 78.7988 70.4121 78.7578 70.5645 78.6758C70.7168 78.5938 70.8398 78.4805 70.9336 78.3359C71.0273 78.1875 71.0957 78.0156 71.1387 77.8203C71.1855 77.6211 71.209 77.4062 71.209 77.1758C71.209 76.9453 71.1816 76.7363 71.127 76.5488C71.0723 76.3613 70.9883 76.1992 70.875 76.0625C70.7617 75.9258 70.6172 75.8203 70.4414 75.7461C70.2695 75.6719 70.0684 75.6348 69.8379 75.6348C69.5254 75.6348 69.2832 75.6836 69.1113 75.7812C68.9434 75.8789 68.8027 75.9902 68.6895 76.1152ZM78.3457 71.3809H78.5918V72.7285H78.4922C78.0469 72.7285 77.6504 72.7949 77.3027 72.9277C76.9551 73.0605 76.6602 73.25 76.418 73.4961C76.1797 73.7383 75.9961 74.0312 75.8672 74.375C75.7422 74.7188 75.6797 75.1035 75.6797 75.5293V76.9473C75.6797 77.252 75.709 77.5215 75.7676 77.7559C75.8301 77.9863 75.918 78.1797 76.0312 78.3359C76.1484 78.4883 76.2852 78.6035 76.4414 78.6816C76.5977 78.7559 76.7734 78.793 76.9688 78.793C77.1523 78.793 77.3184 78.7539 77.4668 78.6758C77.6191 78.5977 77.748 78.4883 77.8535 78.3477C77.9629 78.2031 78.0449 78.0352 78.0996 77.8438C78.1582 77.6484 78.1875 77.4355 78.1875 77.2051C78.1875 76.9746 78.1582 76.7617 78.0996 76.5664C78.0449 76.3711 77.9629 76.2031 77.8535 76.0625C77.7441 75.918 77.6113 75.8066 77.4551 75.7285C77.2988 75.6504 77.123 75.6113 76.9277 75.6113C76.6621 75.6113 76.4277 75.6738 76.2246 75.7988C76.0254 75.9199 75.8691 76.0762 75.7559 76.2676C75.6426 76.459 75.582 76.6602 75.5742 76.8711L75.0645 76.543C75.0762 76.2422 75.1387 75.957 75.252 75.6875C75.3691 75.418 75.5293 75.1797 75.7324 74.9727C75.9395 74.7617 76.1875 74.5977 76.4766 74.4805C76.7656 74.3594 77.0918 74.2988 77.4551 74.2988C77.8535 74.2988 78.2031 74.375 78.5039 74.5273C78.8086 74.6797 79.0625 74.8887 79.2656 75.1543C79.4688 75.4199 79.6211 75.7266 79.7227 76.0742C79.8242 76.4219 79.875 76.793 79.875 77.1875C79.875 77.6016 79.8066 77.9863 79.6699 78.3418C79.5371 78.6973 79.3438 79.0078 79.0898 79.2734C78.8398 79.5391 78.5391 79.7461 78.1875 79.8945C77.8359 80.043 77.4414 80.1172 77.0039 80.1172C76.5508 80.1172 76.1387 80.0352 75.7676 79.8711C75.4004 79.7031 75.084 79.4688 74.8184 79.168C74.5527 78.8672 74.3477 78.5098 74.2031 78.0957C74.0625 77.6816 73.9922 77.2285 73.9922 76.7363V76.0801C73.9922 75.3926 74.0918 74.7637 74.291 74.1934C74.4941 73.6191 74.7852 73.123 75.1641 72.7051C75.543 72.2832 76 71.957 76.5352 71.7266C77.0703 71.4961 77.6738 71.3809 78.3457 71.3809ZM81.0352 79.1855C81.0352 78.9355 81.1211 78.7266 81.293 78.5586C81.4688 78.3906 81.7012 78.3066 81.9902 78.3066C82.2793 78.3066 82.5098 78.3906 82.6816 78.5586C82.8574 78.7266 82.9453 78.9355 82.9453 79.1855C82.9453 79.4355 82.8574 79.6445 82.6816 79.8125C82.5098 79.9805 82.2793 80.0645 81.9902 80.0645C81.7012 80.0645 81.4688 79.9805 81.293 79.8125C81.1211 79.6445 81.0352 79.4355 81.0352 79.1855ZM90.1113 77.6621C90.1113 78.1973 89.9863 78.6484 89.7363 79.0156C89.4863 79.3789 89.1426 79.6543 88.7051 79.8418C88.2715 80.0254 87.7793 80.1172 87.2285 80.1172C86.6777 80.1172 86.1836 80.0254 85.7461 79.8418C85.3086 79.6543 84.9629 79.3789 84.709 79.0156C84.4551 78.6484 84.3281 78.1973 84.3281 77.6621C84.3281 77.3027 84.4004 76.9785 84.5449 76.6895C84.6895 76.3965 84.8906 76.1465 85.1484 75.9395C85.4102 75.7285 85.7168 75.5684 86.0684 75.459C86.4199 75.3457 86.8027 75.2891 87.2168 75.2891C87.7715 75.2891 88.2676 75.3867 88.7051 75.582C89.1426 75.7773 89.4863 76.0527 89.7363 76.4082C89.9863 76.7637 90.1113 77.1816 90.1113 77.6621ZM88.4121 77.5508C88.4121 77.2891 88.3613 77.0645 88.2598 76.877C88.1621 76.6855 88.0234 76.5391 87.8438 76.4375C87.6641 76.3359 87.4551 76.2852 87.2168 76.2852C86.9785 76.2852 86.7695 76.3359 86.5898 76.4375C86.4102 76.5391 86.2695 76.6855 86.168 76.877C86.0703 77.0645 86.0215 77.2891 86.0215 77.5508C86.0215 77.8086 86.0703 78.0312 86.168 78.2188C86.2695 78.4062 86.4102 78.5508 86.5898 78.6523C86.7734 78.75 86.9863 78.7988 87.2285 78.7988C87.4707 78.7988 87.6797 78.75 87.8555 78.6523C88.0352 78.5508 88.1719 78.4062 88.2656 78.2188C88.3633 78.0312 88.4121 77.8086 88.4121 77.5508ZM89.9297 73.7305C89.9297 74.1641 89.8145 74.5488 89.584 74.8848C89.3535 75.2168 89.0332 75.4766 88.623 75.6641C88.2168 75.8516 87.752 75.9453 87.2285 75.9453C86.7012 75.9453 86.2324 75.8516 85.8223 75.6641C85.4121 75.4766 85.0918 75.2168 84.8613 74.8848C84.6309 74.5488 84.5156 74.1641 84.5156 73.7305C84.5156 73.2148 84.6309 72.7812 84.8613 72.4297C85.0957 72.0742 85.416 71.8047 85.8223 71.6211C86.2324 71.4375 86.6973 71.3457 87.2168 71.3457C87.7441 71.3457 88.2109 71.4375 88.6172 71.6211C89.0273 71.8047 89.3477 72.0742 89.5781 72.4297C89.8125 72.7812 89.9297 73.2148 89.9297 73.7305ZM88.2422 73.8066C88.2422 73.5762 88.2012 73.377 88.1191 73.209C88.0371 73.0371 87.9199 72.9043 87.7676 72.8105C87.6191 72.7168 87.4355 72.6699 87.2168 72.6699C87.0059 72.6699 86.8242 72.7148 86.6719 72.8047C86.5234 72.8945 86.4082 73.0254 86.3262 73.1973C86.248 73.3652 86.209 73.5684 86.209 73.8066C86.209 74.0371 86.248 74.2402 86.3262 74.416C86.4082 74.5879 86.5254 74.7227 86.6777 74.8203C86.8301 74.918 87.0137 74.9668 87.2285 74.9668C87.4434 74.9668 87.625 74.918 87.7734 74.8203C87.9258 74.7227 88.041 74.5879 88.1191 74.416C88.2012 74.2402 88.2422 74.0371 88.2422 73.8066ZM97.002 77.6621C97.002 78.1973 96.877 78.6484 96.627 79.0156C96.377 79.3789 96.0332 79.6543 95.5957 79.8418C95.1621 80.0254 94.6699 80.1172 94.1191 80.1172C93.5684 80.1172 93.0742 80.0254 92.6367 79.8418C92.1992 79.6543 91.8535 79.3789 91.5996 79.0156C91.3457 78.6484 91.2188 78.1973 91.2188 77.6621C91.2188 77.3027 91.291 76.9785 91.4355 76.6895C91.5801 76.3965 91.7812 76.1465 92.0391 75.9395C92.3008 75.7285 92.6074 75.5684 92.959 75.459C93.3105 75.3457 93.6934 75.2891 94.1074 75.2891C94.6621 75.2891 95.1582 75.3867 95.5957 75.582C96.0332 75.7773 96.377 76.0527 96.627 76.4082C96.877 76.7637 97.002 77.1816 97.002 77.6621ZM95.3027 77.5508C95.3027 77.2891 95.252 77.0645 95.1504 76.877C95.0527 76.6855 94.9141 76.5391 94.7344 76.4375C94.5547 76.3359 94.3457 76.2852 94.1074 76.2852C93.8691 76.2852 93.6602 76.3359 93.4805 76.4375C93.3008 76.5391 93.1602 76.6855 93.0586 76.877C92.9609 77.0645 92.9121 77.2891 92.9121 77.5508C92.9121 77.8086 92.9609 78.0312 93.0586 78.2188C93.1602 78.4062 93.3008 78.5508 93.4805 78.6523C93.6641 78.75 93.877 78.7988 94.1191 78.7988C94.3613 78.7988 94.5703 78.75 94.7461 78.6523C94.9258 78.5508 95.0625 78.4062 95.1562 78.2188C95.2539 78.0312 95.3027 77.8086 95.3027 77.5508ZM96.8203 73.7305C96.8203 74.1641 96.7051 74.5488 96.4746 74.8848C96.2441 75.2168 95.9238 75.4766 95.5137 75.6641C95.1074 75.8516 94.6426 75.9453 94.1191 75.9453C93.5918 75.9453 93.123 75.8516 92.7129 75.6641C92.3027 75.4766 91.9824 75.2168 91.752 74.8848C91.5215 74.5488 91.4062 74.1641 91.4062 73.7305C91.4062 73.2148 91.5215 72.7812 91.752 72.4297C91.9863 72.0742 92.3066 71.8047 92.7129 71.6211C93.123 71.4375 93.5879 71.3457 94.1074 71.3457C94.6348 71.3457 95.1016 71.4375 95.5078 71.6211C95.918 71.8047 96.2383 72.0742 96.4688 72.4297C96.7031 72.7812 96.8203 73.2148 96.8203 73.7305ZM95.1328 73.8066C95.1328 73.5762 95.0918 73.377 95.0098 73.209C94.9277 73.0371 94.8105 72.9043 94.6582 72.8105C94.5098 72.7168 94.3262 72.6699 94.1074 72.6699C93.8965 72.6699 93.7148 72.7148 93.5625 72.8047C93.4141 72.8945 93.2988 73.0254 93.2168 73.1973C93.1387 73.3652 93.0996 73.5684 93.0996 73.8066C93.0996 74.0371 93.1387 74.2402 93.2168 74.416C93.2988 74.5879 93.416 74.7227 93.5684 74.8203C93.7207 74.918 93.9043 74.9668 94.1191 74.9668C94.334 74.9668 94.5156 74.918 94.6641 74.8203C94.8164 74.7227 94.9316 74.5879 95.0098 74.416C95.0918 74.2402 95.1328 74.0371 95.1328 73.8066Z" fill="black"/>
<path d="M125.068 35.1895C123.664 32.5029 122.078 29.9156 120.32 27.4459L101.778 40.6414C102.933 42.264 103.975 43.9639 104.897 45.7289L125.068 35.1895Z" fill="#5179C7"/>
</g>
<defs>
<clipPath id="clip0_823_76">
<rect width="133" height="133" fill="white"/>
</clipPath>
</defs>
</svg>
