<svg width="133" height="133" viewBox="0 0 133 133" fill="none" xmlns="http://www.w3.org/2000/svg">
<g clip-path="url(#clip0_823_76)">
<path d="M66.35 110C90.4572 110 110 90.4572 110 66.35C110 42.2428 90.4572 22.7 66.35 22.7C42.2428 22.7 22.7 42.2428 22.7 66.35C22.7 90.4572 42.2428 110 66.35 110ZM132.7 66.35C132.7 102.994 102.994 132.7 66.35 132.7C29.7059 132.7 0 102.994 0 66.35C0 29.7059 29.7059 0 66.35 0C102.994 0 132.7 29.7059 132.7 66.35Z" fill="#324A83"/>
<path d="M42.6797 50.9297H40.8517V56H40.1055V50.9297H38.2812V50.3125H42.6797V50.9297ZM42.8281 53.8477C42.8281 53.4336 42.909 53.0612 43.0704 52.7305C43.2345 52.3997 43.4609 52.1445 43.75 51.9648C44.0417 51.7852 44.3738 51.6953 44.7462 51.6953C45.3217 51.6953 45.7865 51.8945 46.1406 52.293C46.4974 52.6914 46.6758 53.2214 46.6758 53.8828V53.9336C46.6758 54.3451 46.5964 54.7148 46.4375 55.043C46.2812 55.3685 46.056 55.6224 45.7617 55.8047C45.4701 55.987 45.1341 56.0781 44.7539 56.0781C44.181 56.0781 43.7162 55.8789 43.3595 55.4805C43.0053 55.082 42.8281 54.5547 42.8281 53.8984V53.8477ZM43.5547 53.9336C43.5547 54.4023 43.6628 54.7786 43.8789 55.0625C44.0977 55.3464 44.3893 55.4883 44.7539 55.4883C45.1211 55.4883 45.4128 55.3451 45.6289 55.0586C45.8451 54.7695 45.9531 54.3659 45.9531 53.8477C45.9531 53.3841 45.8425 53.0091 45.6212 52.7227C45.4024 52.4336 45.1108 52.2891 44.7462 52.2891C44.3894 52.2891 44.1017 52.431 43.8829 52.7148C43.6642 52.9987 43.5547 53.4049 43.5547 53.9336ZM48.5625 50.75V51.7734H49.3517V52.332H48.5625V54.9531C48.5625 55.1224 48.5977 55.25 48.668 55.3359C48.7383 55.4193 48.8582 55.4609 49.0274 55.4609C49.1108 55.4609 49.2254 55.4453 49.3712 55.4141V56C49.1811 56.0521 48.9961 56.0781 48.8164 56.0781C48.4935 56.0781 48.25 55.9805 48.0859 55.7852C47.9219 55.5898 47.8399 55.3125 47.8399 54.9531V52.332H47.0704V51.7734H47.8399V50.75H48.5625ZM52.8087 56C52.767 55.9167 52.7332 55.7682 52.7071 55.5547C52.3712 55.9036 51.9701 56.0781 51.5039 56.0781C51.0872 56.0781 50.7449 55.9609 50.4767 55.7266C50.211 55.4896 50.0781 55.1901 50.0781 54.8281C50.0781 54.388 50.2448 54.0469 50.5781 53.8047C50.9141 53.5599 51.3854 53.4375 51.9922 53.4375H52.6954V53.1055C52.6954 52.8529 52.6198 52.6523 52.4688 52.5039C52.3177 52.3529 52.0951 52.2773 51.8008 52.2773C51.543 52.2773 51.3269 52.3424 51.1524 52.4727C50.978 52.6029 50.8906 52.7604 50.8906 52.9453H50.1642C50.1642 52.7344 50.2383 52.5312 50.3867 52.3359C50.5378 52.138 50.741 51.9818 50.9962 51.8672C51.254 51.7526 51.5365 51.6953 51.8438 51.6953C52.3307 51.6953 52.7122 51.8177 52.9883 52.0625C53.2643 52.3047 53.4076 52.6393 53.418 53.0664V55.0117C53.418 55.3997 53.4674 55.7083 53.5664 55.9375V56H52.8087ZM51.6095 55.4492C51.836 55.4492 52.0508 55.3906 52.2539 55.2734C52.457 55.1562 52.6043 55.0039 52.6954 54.8164V53.9492H52.1289C51.2435 53.9492 50.8008 54.2083 50.8008 54.7266C50.8008 54.9531 50.8764 55.1302 51.0274 55.2578C51.1785 55.3854 51.3725 55.4492 51.6095 55.4492ZM55.3359 56H54.6133V50H55.3359V56ZM61.8087 53.3711H59.3438V55.3867H62.2071V56H58.5938V50.3125H62.168V50.9297H59.3438V52.7578H61.8087V53.3711ZM65.4883 54.8789C65.4883 54.6836 65.4142 54.5326 65.2657 54.4258C65.1199 54.3164 64.8634 54.2227 64.4962 54.1445C64.1316 54.0664 63.8411 53.9727 63.625 53.8633C63.4115 53.7539 63.2526 53.6237 63.1484 53.4727C63.0469 53.3216 62.9962 53.1419 62.9962 52.9336C62.9962 52.5872 63.142 52.2943 63.4337 52.0547C63.728 51.8151 64.103 51.6953 64.5587 51.6953C65.0379 51.6953 65.4259 51.819 65.7228 52.0664C66.0222 52.3138 66.1719 52.6302 66.1719 53.0156H65.4453C65.4453 52.8177 65.3607 52.6471 65.1914 52.5039C65.0247 52.3607 64.8139 52.2891 64.5587 52.2891C64.2957 52.2891 64.0898 52.3464 63.9414 52.4609C63.793 52.5755 63.7188 52.7253 63.7188 52.9102C63.7188 53.0846 63.7878 53.2161 63.9258 53.3047C64.0638 53.3932 64.3125 53.4779 64.6719 53.5586C65.0339 53.6393 65.3268 53.7357 65.5508 53.8477C65.7747 53.9596 65.9401 54.0951 66.0469 54.2539C66.1562 54.4102 66.2109 54.6016 66.2109 54.8281C66.2109 55.2057 66.0599 55.5091 65.7578 55.7383C65.4557 55.9648 65.0639 56.0781 64.5821 56.0781C64.2436 56.0781 63.9441 56.0182 63.6837 55.8984C63.4233 55.7786 63.2189 55.612 63.0704 55.3984C62.9246 55.1823 62.8517 54.9492 62.8517 54.6992H63.5742C63.5872 54.9414 63.6836 55.1341 63.8633 55.2773C64.0456 55.418 64.2853 55.4883 64.5821 55.4883C64.8556 55.4883 65.0742 55.4336 65.2383 55.3242C65.4049 55.2122 65.4883 55.0638 65.4883 54.8789ZM68.1328 50.75V51.7734H68.9219V52.332H68.1328V54.9531C68.1328 55.1224 68.168 55.25 68.2383 55.3359C68.3086 55.4193 68.4285 55.4609 68.5978 55.4609C68.6811 55.4609 68.7956 55.4453 68.9414 55.4141V56C68.7513 56.0521 68.5665 56.0781 68.3868 56.0781C68.0639 56.0781 67.8203 55.9805 67.6562 55.7852C67.4922 55.5898 67.4103 55.3125 67.4103 54.9531V52.332H66.6407V51.7734H67.4103V50.75H68.1328ZM70.5548 56H69.8321V51.7734H70.5548V56ZM69.7734 50.6523C69.7734 50.5352 69.8086 50.4362 69.8789 50.3555C69.9518 50.2747 70.0587 50.2344 70.1993 50.2344C70.3399 50.2344 70.4467 50.2747 70.5196 50.3555C70.5925 50.4362 70.6289 50.5352 70.6289 50.6523C70.6289 50.7695 70.5925 50.8672 70.5196 50.9453C70.4467 51.0234 70.3399 51.0625 70.1993 51.0625C70.0587 51.0625 69.9518 51.0234 69.8789 50.9453C69.8086 50.8672 69.7734 50.7695 69.7734 50.6523ZM72.3946 51.7734L72.4142 52.2422C72.7241 51.8776 73.1419 51.6953 73.668 51.6953C74.2591 51.6953 74.6615 51.9219 74.875 52.375C75.0156 52.1719 75.1979 52.0078 75.4219 51.8828C75.6484 51.7578 75.9155 51.6953 76.2228 51.6953C77.1498 51.6953 77.6212 52.1862 77.6368 53.168V56H76.9142V53.2109C76.9142 52.9089 76.8452 52.6836 76.7071 52.5352C76.5691 52.3841 76.3373 52.3086 76.0118 52.3086C75.7436 52.3086 75.5209 52.3893 75.3439 52.5508C75.1668 52.7096 75.0639 52.9245 75.0353 53.1953V56H74.3087V53.2305C74.3087 52.6159 74.0078 52.3086 73.4062 52.3086C72.9323 52.3086 72.6082 52.5104 72.4337 52.9141V56H71.7109V51.7734H72.3946ZM81.3398 56C81.2982 55.9167 81.2643 55.7682 81.2383 55.5547C80.9023 55.9036 80.5014 56.0781 80.0353 56.0781C79.6186 56.0781 79.276 55.9609 79.0078 55.7266C78.7422 55.4896 78.6094 55.1901 78.6094 54.8281C78.6094 54.388 78.776 54.0469 79.1094 53.8047C79.4453 53.5599 79.9167 53.4375 80.5234 53.4375H81.2267V53.1055C81.2267 52.8529 81.151 52.6523 81 52.5039C80.849 52.3529 80.6264 52.2773 80.3321 52.2773C80.0743 52.2773 79.8582 52.3424 79.6837 52.4727C79.5092 52.6029 79.4219 52.7604 79.4219 52.9453H78.6953C78.6953 52.7344 78.7695 52.5312 78.918 52.3359C79.069 52.138 79.2721 51.9818 79.5273 51.8672C79.7852 51.7526 80.0677 51.6953 80.375 51.6953C80.862 51.6953 81.2436 51.8177 81.5196 52.0625C81.7957 52.3047 81.9389 52.6393 81.9493 53.0664V55.0117C81.9493 55.3997 81.9988 55.7083 82.0978 55.9375V56H81.3398ZM80.1407 55.4492C80.3673 55.4492 80.5821 55.3906 80.7853 55.2734C80.9884 55.1562 81.1355 55.0039 81.2267 54.8164V53.9492H80.6603C79.7748 53.9492 79.3321 54.2083 79.3321 54.7266C79.3321 54.9531 79.4077 55.1302 79.5587 55.2578C79.7097 55.3854 79.9037 55.4492 80.1407 55.4492ZM84.0625 50.75V51.7734H84.8517V52.332H84.0625V54.9531C84.0625 55.1224 84.0977 55.25 84.168 55.3359C84.2383 55.4193 84.3581 55.4609 84.5273 55.4609C84.6107 55.4609 84.7254 55.4453 84.8712 55.4141V56C84.6811 56.0521 84.4961 56.0781 84.3164 56.0781C83.9935 56.0781 83.75 55.9805 83.5859 55.7852C83.4219 55.5898 83.3398 55.3125 83.3398 54.9531V52.332H82.5703V51.7734H83.3398V50.75H84.0625ZM87.4532 56.0781C86.8803 56.0781 86.4142 55.8906 86.0548 55.5156C85.6954 55.138 85.5157 54.6341 85.5157 54.0039V53.8711C85.5157 53.4518 85.5951 53.0781 85.7539 52.75C85.9154 52.4193 86.1393 52.1615 86.4258 51.9766C86.7148 51.7891 87.0273 51.6953 87.3633 51.6953C87.9128 51.6953 88.3399 51.8763 88.6446 52.2383C88.9493 52.6003 89.1017 53.1185 89.1017 53.793V54.0938H86.2383C86.2487 54.5104 86.3699 54.8477 86.6017 55.1055C86.836 55.3607 87.1329 55.4883 87.4923 55.4883C87.7475 55.4883 87.9636 55.4362 88.1407 55.332C88.3178 55.2279 88.4727 55.0898 88.6055 54.918L89.0469 55.2617C88.6927 55.806 88.1616 56.0781 87.4532 56.0781ZM87.3633 52.2891C87.0716 52.2891 86.8268 52.3958 86.6289 52.6094C86.431 52.8203 86.3087 53.1172 86.2618 53.5H88.3789V53.4453C88.3581 53.0781 88.2592 52.7943 88.0821 52.5938C87.905 52.3906 87.6654 52.2891 87.3633 52.2891ZM89.7657 53.8516C89.7657 53.2031 89.9194 52.6823 90.2267 52.2891C90.534 51.8932 90.9363 51.6953 91.4337 51.6953C91.9285 51.6953 92.3203 51.8646 92.6094 52.2031V50H93.3321V56H92.668L92.6328 55.5469C92.3438 55.901 91.9414 56.0781 91.4258 56.0781C90.9362 56.0781 90.5366 55.8776 90.2267 55.4766C89.9194 55.0755 89.7657 54.5521 89.7657 53.9062V53.8516ZM90.4883 53.9336C90.4883 54.4128 90.5873 54.7878 90.7853 55.0586C90.9832 55.3294 91.2565 55.4648 91.6055 55.4648C92.0638 55.4648 92.3984 55.2591 92.6094 54.8477V52.9062C92.3932 52.5078 92.0612 52.3086 91.6133 52.3086C91.2591 52.3086 90.9832 52.4453 90.7853 52.7188C90.5873 52.9922 90.4883 53.3971 90.4883 53.9336ZM46.9805 64H46.2267L43.3633 59.6172V64H42.6095V58.3125H43.3633L46.2345 62.7148V58.3125H46.9805V64ZM49.9531 64.0781C49.3802 64.0781 48.9141 63.8906 48.5547 63.5156C48.1953 63.138 48.0156 62.6341 48.0156 62.0039V61.8711C48.0156 61.4518 48.0951 61.0781 48.2539 60.75C48.4154 60.4193 48.6393 60.1615 48.9258 59.9766C49.2148 59.7891 49.5273 59.6953 49.8633 59.6953C50.4128 59.6953 50.8399 59.8763 51.1446 60.2383C51.4493 60.6003 51.6017 61.1185 51.6017 61.793V62.0938H48.7383C48.7487 62.5104 48.8699 62.8477 49.1017 63.1055C49.336 63.3607 49.6328 63.4883 49.9922 63.4883C50.2474 63.4883 50.4635 63.4362 50.6406 63.332C50.8177 63.2279 50.9727 63.0898 51.1055 62.918L51.547 63.2617C51.1928 63.806 50.6615 64.0781 49.9531 64.0781ZM49.8633 60.2891C49.5716 60.2891 49.3268 60.3958 49.1289 60.6094C48.931 60.8203 48.8086 61.1172 48.7617 61.5H50.8789V61.4453C50.8581 61.0781 50.7592 60.7943 50.5821 60.5938C50.405 60.3906 50.1654 60.2891 49.8633 60.2891ZM53.422 58.75V59.7734H54.2109V60.332H53.422V62.9531C53.422 63.1224 53.4571 63.25 53.5274 63.3359C53.5978 63.4193 53.7174 63.4609 53.8867 63.4609C53.9701 63.4609 54.0846 63.4453 54.2305 63.4141V64C54.0404 64.0521 53.8555 64.0781 53.6758 64.0781C53.3529 64.0781 53.1095 63.9805 52.9454 63.7852C52.7813 63.5898 52.6992 63.3125 52.6992 62.9531V60.332H51.9297V59.7734H52.6992V58.75H53.422ZM57.9062 61.7734V64H57.1562V58.3125H59.2539C59.8763 58.3125 60.3634 58.4714 60.7149 58.7891C61.0691 59.1068 61.2462 59.5273 61.2462 60.0508C61.2462 60.6029 61.073 61.0286 60.7267 61.3281C60.3829 61.625 59.8894 61.7734 59.2462 61.7734H57.9062ZM57.9062 61.1602H59.2539C59.6549 61.1602 59.9622 61.0664 60.1758 60.8789C60.3893 60.6888 60.4962 60.4154 60.4962 60.0586C60.4962 59.7201 60.3893 59.4492 60.1758 59.2461C59.9622 59.043 59.6694 58.9375 59.297 58.9297H57.9062V61.1602ZM64.1328 60.4219C64.0234 60.4036 63.905 60.3945 63.7774 60.3945C63.3035 60.3945 62.9818 60.5964 62.8125 61V64H62.0899V59.7734H62.793L62.8047 60.2617C63.0417 59.8841 63.3776 59.6953 63.8125 59.6953C63.9531 59.6953 64.0599 59.7135 64.1328 59.75V60.4219ZM64.5312 61.8477C64.5312 61.4336 64.612 61.0612 64.7734 60.7305C64.9375 60.3997 65.1642 60.1445 65.4532 59.9648C65.7449 59.7852 66.0769 59.6953 66.4493 59.6953C67.0248 59.6953 67.4897 59.8945 67.8439 60.293C68.2006 60.6914 68.3789 61.2214 68.3789 61.8828V61.9336C68.3789 62.3451 68.2996 62.7148 68.1407 63.043C67.9845 63.3685 67.7591 63.6224 67.4648 63.8047C67.1732 63.987 66.8373 64.0781 66.4571 64.0781C65.8842 64.0781 65.4193 63.8789 65.0625 63.4805C64.7083 63.082 64.5312 62.5547 64.5312 61.8984V61.8477ZM65.2578 61.9336C65.2578 62.4023 65.366 62.7786 65.5821 63.0625C65.8009 63.3464 66.0925 63.4883 66.4571 63.4883C66.8243 63.4883 67.116 63.3451 67.3321 63.0586C67.5483 62.7695 67.6562 62.3659 67.6562 61.8477C67.6562 61.3841 67.5457 61.0091 67.3243 60.7227C67.1056 60.4336 66.8139 60.2891 66.4493 60.2891C66.0925 60.2891 65.8047 60.431 65.5859 60.7148C65.3672 60.9987 65.2578 61.4049 65.2578 61.9336ZM70.9805 63.4883C71.2383 63.4883 71.4635 63.4102 71.6562 63.2539C71.849 63.0977 71.9558 62.9023 71.9767 62.668H72.6603C72.6472 62.9102 72.5639 63.1406 72.4103 63.3594C72.2566 63.5781 72.0508 63.7526 71.793 63.8828C71.5378 64.013 71.2669 64.0781 70.9805 64.0781C70.4049 64.0781 69.9466 63.8867 69.6055 63.5039C69.2669 63.1185 69.0978 62.5924 69.0978 61.9258V61.8047C69.0978 61.3932 69.1733 61.0273 69.3243 60.707C69.4754 60.3867 69.6915 60.138 69.9728 59.9609C70.2566 59.7839 70.5912 59.6953 70.9767 59.6953C71.4506 59.6953 71.8438 59.8372 72.1562 60.1211C72.4714 60.4049 72.6394 60.7734 72.6603 61.2266H71.9767C71.9558 60.9531 71.8517 60.7292 71.6642 60.5547C71.4793 60.3776 71.2501 60.2891 70.9767 60.2891C70.6095 60.2891 70.3243 60.4219 70.1212 60.6875C69.9207 60.9505 69.8203 61.332 69.8203 61.832V61.9688C69.8203 62.4557 69.9207 62.8307 70.1212 63.0938C70.3217 63.3568 70.6081 63.4883 70.9805 63.4883ZM75.2267 64.0781C74.6537 64.0781 74.1876 63.8906 73.8282 63.5156C73.4689 63.138 73.2892 62.6341 73.2892 62.0039V61.8711C73.2892 61.4518 73.3685 61.0781 73.5273 60.75C73.6888 60.4193 73.9129 60.1615 74.1993 59.9766C74.4884 59.7891 74.8009 59.6953 75.1368 59.6953C75.6863 59.6953 76.1133 59.8763 76.418 60.2383C76.7227 60.6003 76.875 61.1185 76.875 61.793V62.0938H74.0118C74.0222 62.5104 74.1432 62.8477 74.375 63.1055C74.6094 63.3607 74.9063 63.4883 75.2657 63.4883C75.5209 63.4883 75.7371 63.4362 75.9142 63.332C76.0912 63.2279 76.2461 63.0898 76.3789 62.918L76.8203 63.2617C76.4661 63.806 75.935 64.0781 75.2267 64.0781ZM75.1368 60.2891C74.8452 60.2891 74.6003 60.3958 74.4023 60.6094C74.2044 60.8203 74.0821 61.1172 74.0353 61.5H76.1523V61.4453C76.1315 61.0781 76.0326 60.7943 75.8555 60.5938C75.6784 60.3906 75.4389 60.2891 75.1368 60.2891ZM79.4689 64.0781C78.8959 64.0781 78.4297 63.8906 78.0703 63.5156C77.7109 63.138 77.5312 62.6341 77.5312 62.0039V61.8711C77.5312 61.4518 77.6108 61.0781 77.7696 60.75C77.9311 60.4193 78.1549 60.1615 78.4414 59.9766C78.7305 59.7891 79.043 59.6953 79.3789 59.6953C79.9284 59.6953 80.3556 59.8763 80.6603 60.2383C80.9649 60.6003 81.1173 61.1185 81.1173 61.793V62.0938H78.2539C78.2643 62.5104 78.3855 62.8477 78.6173 63.1055C78.8517 63.3607 79.1484 63.4883 79.5078 63.4883C79.763 63.4883 79.9792 63.4362 80.1562 63.332C80.3333 63.2279 80.4884 63.0898 80.6212 62.918L81.0625 63.2617C80.7083 63.806 80.1772 64.0781 79.4689 64.0781ZM79.3789 60.2891C79.0872 60.2891 78.8425 60.3958 78.6446 60.6094C78.4467 60.8203 78.3242 61.1172 78.2773 61.5H80.3946V61.4453C80.3738 61.0781 80.2748 60.7943 80.0978 60.5938C79.9207 60.3906 79.681 60.2891 79.3789 60.2891ZM81.7812 61.8516C81.7812 61.2031 81.935 60.6823 82.2423 60.2891C82.5496 59.8932 82.9519 59.6953 83.4493 59.6953C83.9441 59.6953 84.3359 59.8646 84.625 60.2031V58H85.3478V64H84.6837L84.6484 63.5469C84.3594 63.901 83.957 64.0781 83.4414 64.0781C82.9518 64.0781 82.5522 63.8776 82.2423 63.4766C81.935 63.0755 81.7812 62.5521 81.7812 61.9062V61.8516ZM82.5039 61.9336C82.5039 62.4128 82.6029 62.7878 82.8008 63.0586C82.9987 63.3294 83.2722 63.4648 83.6212 63.4648C84.0795 63.4648 84.4141 63.2591 84.625 62.8477V60.9062C84.4089 60.5078 84.0768 60.3086 83.6289 60.3086C83.2747 60.3086 82.9987 60.4453 82.8008 60.7188C82.6029 60.9922 82.5039 61.3971 82.5039 61.9336ZM88.9337 62.8789C88.9337 62.6836 88.8594 62.5326 88.7109 62.4258C88.5651 62.3164 88.3086 62.2227 87.9414 62.1445C87.5768 62.0664 87.2865 61.9727 87.0703 61.8633C86.8568 61.7539 86.698 61.6237 86.5939 61.4727C86.4923 61.3216 86.4414 61.1419 86.4414 60.9336C86.4414 60.5872 86.5872 60.2943 86.8789 60.0547C87.1732 59.8151 87.5482 59.6953 88.0039 59.6953C88.4831 59.6953 88.8711 59.819 89.168 60.0664C89.4674 60.3138 89.6173 60.6302 89.6173 61.0156H88.8907C88.8907 60.8177 88.8061 60.6471 88.6368 60.5039C88.4702 60.3607 88.2591 60.2891 88.0039 60.2891C87.7409 60.2891 87.5353 60.3464 87.3868 60.4609C87.2384 60.5755 87.1642 60.7253 87.1642 60.9102C87.1642 61.0846 87.2332 61.2161 87.3712 61.3047C87.5092 61.3932 87.7579 61.4779 88.1173 61.5586C88.4793 61.6393 88.7722 61.7357 88.9962 61.8477C89.2202 61.9596 89.3855 62.0951 89.4923 62.2539C89.6017 62.4102 89.6562 62.6016 89.6562 62.8281C89.6562 63.2057 89.5053 63.5091 89.2032 63.7383C88.9011 63.9648 88.5091 64.0781 88.0273 64.0781C87.6888 64.0781 87.3893 64.0182 87.1289 63.8984C86.8685 63.7786 86.6642 63.612 86.5157 63.3984C86.3699 63.1823 86.2969 62.9492 86.2969 62.6992H87.0196C87.0327 62.9414 87.129 63.1341 87.3087 63.2773C87.491 63.418 87.7305 63.4883 88.0273 63.4883C88.3008 63.4883 88.5196 63.4336 88.6837 63.3242C88.8504 63.2122 88.9337 63.0638 88.9337 62.8789Z" fill="#999999"/>
<path d="M43.1074 70.1152V71.8438H42.1934V70.1152H43.1074ZM42.9961 79.6836V81.2598H42.082V79.6836H42.9961ZM43.6406 77.7617C43.6406 77.5391 43.5996 77.3496 43.5176 77.1934C43.4395 77.0371 43.3105 76.8984 43.1309 76.7773C42.9551 76.6562 42.7168 76.5391 42.416 76.4258C41.9082 76.2305 41.4609 76.0234 41.0742 75.8047C40.6914 75.582 40.3926 75.3066 40.1777 74.9785C39.9629 74.6465 39.8555 74.2266 39.8555 73.7188C39.8555 73.2344 39.9707 72.8145 40.2012 72.459C40.4316 72.1035 40.75 71.8301 41.1562 71.6387C41.5664 71.4434 42.043 71.3457 42.5859 71.3457C43 71.3457 43.375 71.4082 43.7109 71.5332C44.0469 71.6543 44.3359 71.834 44.5781 72.0723C44.8203 72.3066 45.0059 72.5938 45.1348 72.9336C45.2637 73.2734 45.3281 73.6621 45.3281 74.0996H43.6465C43.6465 73.8652 43.6211 73.6582 43.5703 73.4785C43.5195 73.2988 43.4453 73.1484 43.3477 73.0273C43.2539 72.9062 43.1406 72.8164 43.0078 72.7578C42.875 72.6953 42.7285 72.6641 42.5684 72.6641C42.3301 72.6641 42.1348 72.7109 41.9824 72.8047C41.8301 72.8984 41.7188 73.0254 41.6484 73.1855C41.582 73.3418 41.5488 73.5215 41.5488 73.7246C41.5488 73.9238 41.584 74.0977 41.6543 74.2461C41.7285 74.3945 41.8555 74.5312 42.0352 74.6562C42.2148 74.7773 42.4609 74.9023 42.7734 75.0312C43.2812 75.2266 43.7266 75.4375 44.1094 75.6641C44.4922 75.8906 44.791 76.168 45.0059 76.4961C45.2207 76.8242 45.3281 77.2422 45.3281 77.75C45.3281 78.2539 45.2109 78.6836 44.9766 79.0391C44.7422 79.3906 44.4141 79.6602 43.9922 79.8477C43.5703 80.0312 43.082 80.123 42.5273 80.123C42.168 80.123 41.8105 80.0762 41.4551 79.9824C41.0996 79.8848 40.7773 79.7285 40.4883 79.5137C40.1992 79.2988 39.9688 79.0137 39.7969 78.6582C39.625 78.2988 39.5391 77.8574 39.5391 77.334H41.2266C41.2266 77.6191 41.2637 77.8574 41.3379 78.0488C41.4121 78.2363 41.5098 78.3867 41.6309 78.5C41.7559 78.6094 41.8965 78.6875 42.0527 78.7344C42.209 78.7812 42.3672 78.8047 42.5273 78.8047C42.7773 78.8047 42.9824 78.7598 43.1426 78.6699C43.3066 78.5801 43.4297 78.457 43.5117 78.3008C43.5977 78.1406 43.6406 77.9609 43.6406 77.7617ZM50.5898 71.4512V80H48.9023V73.3965L46.875 74.041V72.7109L50.4082 71.4512H50.5898ZM55.0371 78.5762L55.0312 79.707C55.0312 80.1406 54.9219 80.5781 54.7031 81.0195C54.4883 81.4609 54.2148 81.8223 53.8828 82.1035L53.0039 81.6523C53.1016 81.4727 53.1973 81.293 53.291 81.1133C53.3848 80.9336 53.4629 80.7363 53.5254 80.5215C53.5879 80.3066 53.6191 80.0625 53.6191 79.7891V78.5762H55.0371ZM60.6738 71.3809H60.9199V72.7285H60.8203C60.375 72.7285 59.9785 72.7949 59.6309 72.9277C59.2832 73.0605 58.9883 73.25 58.7461 73.4961C58.5078 73.7383 58.3242 74.0312 58.1953 74.375C58.0703 74.7188 58.0078 75.1035 58.0078 75.5293V76.9473C58.0078 77.252 58.0371 77.5215 58.0957 77.7559C58.1582 77.9863 58.2461 78.1797 58.3594 78.3359C58.4766 78.4883 58.6133 78.6035 58.7695 78.6816C58.9258 78.7559 59.1016 78.793 59.2969 78.793C59.4805 78.793 59.6465 78.7539 59.7949 78.6758C59.9473 78.5977 60.0762 78.4883 60.1816 78.3477C60.291 78.2031 60.373 78.0352 60.4277 77.8438C60.4863 77.6484 60.5156 77.4355 60.5156 77.2051C60.5156 76.9746 60.4863 76.7617 60.4277 76.5664C60.373 76.3711 60.291 76.2031 60.1816 76.0625C60.0723 75.918 59.9395 75.8066 59.7832 75.7285C59.627 75.6504 59.4512 75.6113 59.2559 75.6113C58.9902 75.6113 58.7559 75.6738 58.5527 75.7988C58.3535 75.9199 58.1973 76.0762 58.084 76.2676C57.9707 76.459 57.9102 76.6602 57.9023 76.8711L57.3926 76.543C57.4043 76.2422 57.4668 75.957 57.5801 75.6875C57.6973 75.418 57.8574 75.1797 58.0605 74.9727C58.2676 74.7617 58.5156 74.5977 58.8047 74.4805C59.0938 74.3594 59.4199 74.2988 59.7832 74.2988C60.1816 74.2988 60.5312 74.375 60.832 74.5273C61.1367 74.6797 61.3906 74.8887 61.5938 75.1543C61.7969 75.4199 61.9492 75.7266 62.0508 76.0742C62.1523 76.4219 62.2031 76.793 62.2031 77.1875C62.2031 77.6016 62.1348 77.9863 61.998 78.3418C61.8652 78.6973 61.6719 79.0078 61.418 79.2734C61.168 79.5391 60.8672 79.7461 60.5156 79.8945C60.1641 80.043 59.7695 80.1172 59.332 80.1172C58.8789 80.1172 58.4668 80.0352 58.0957 79.8711C57.7285 79.7031 57.4121 79.4688 57.1465 79.168C56.8809 78.8672 56.6758 78.5098 56.5312 78.0957C56.3906 77.6816 56.3203 77.2285 56.3203 76.7363V76.0801C56.3203 75.3926 56.4199 74.7637 56.6191 74.1934C56.8223 73.6191 57.1133 73.123 57.4922 72.7051C57.8711 72.2832 58.3281 71.957 58.8633 71.7266C59.3984 71.4961 60.002 71.3809 60.6738 71.3809ZM69.0059 71.4688V72.377L65.707 80H63.9258L67.2246 72.7871H62.9766V71.4688H69.0059ZM75.8438 74.9844V76.4609C75.8438 77.1016 75.7754 77.6543 75.6387 78.1191C75.502 78.5801 75.3047 78.959 75.0469 79.2559C74.793 79.5488 74.4902 79.7656 74.1387 79.9062C73.7871 80.0469 73.3965 80.1172 72.9668 80.1172C72.623 80.1172 72.3027 80.0742 72.0059 79.9883C71.709 79.8984 71.4414 79.7598 71.2031 79.5723C70.9688 79.3848 70.7656 79.1484 70.5938 78.8633C70.4258 78.5742 70.2969 78.2305 70.207 77.832C70.1172 77.4336 70.0723 76.9766 70.0723 76.4609V74.9844C70.0723 74.3438 70.1406 73.7949 70.2773 73.3379C70.418 72.877 70.6152 72.5 70.8691 72.207C71.127 71.9141 71.4316 71.6992 71.7832 71.5625C72.1348 71.4219 72.5254 71.3516 72.9551 71.3516C73.2988 71.3516 73.6172 71.3965 73.9102 71.4863C74.207 71.5723 74.4746 71.707 74.7129 71.8906C74.9512 72.0742 75.1543 72.3105 75.3223 72.5996C75.4902 72.8848 75.6191 73.2266 75.709 73.625C75.7988 74.0195 75.8438 74.4727 75.8438 74.9844ZM74.1504 76.6836V74.7559C74.1504 74.4473 74.1328 74.1777 74.0977 73.9473C74.0664 73.7168 74.0176 73.5215 73.9512 73.3613C73.8848 73.1973 73.8027 73.0645 73.7051 72.9629C73.6074 72.8613 73.4961 72.7871 73.3711 72.7402C73.2461 72.6934 73.1074 72.6699 72.9551 72.6699C72.7637 72.6699 72.5938 72.707 72.4453 72.7812C72.3008 72.8555 72.1777 72.9746 72.0762 73.1387C71.9746 73.2988 71.8965 73.5137 71.8418 73.7832C71.791 74.0488 71.7656 74.373 71.7656 74.7559V76.6836C71.7656 76.9922 71.7812 77.2637 71.8125 77.498C71.8477 77.7324 71.8984 77.9336 71.9648 78.1016C72.0352 78.2656 72.1172 78.4004 72.2109 78.5059C72.3086 78.6074 72.4199 78.6816 72.5449 78.7285C72.6738 78.7754 72.8145 78.7988 72.9668 78.7988C73.1543 78.7988 73.3203 78.7617 73.4648 78.6875C73.6133 78.6094 73.7383 78.4883 73.8398 78.3242C73.9453 78.1562 74.0234 77.9375 74.0742 77.668C74.125 77.3984 74.1504 77.0703 74.1504 76.6836ZM77.1445 79.1855C77.1445 78.9355 77.2305 78.7266 77.4023 78.5586C77.5781 78.3906 77.8105 78.3066 78.0996 78.3066C78.3887 78.3066 78.6191 78.3906 78.791 78.5586C78.9668 78.7266 79.0547 78.9355 79.0547 79.1855C79.0547 79.4355 78.9668 79.6445 78.791 79.8125C78.6191 79.9805 78.3887 80.0645 78.0996 80.0645C77.8105 80.0645 77.5781 79.9805 77.4023 79.8125C77.2305 79.6445 77.1445 79.4355 77.1445 79.1855ZM84.8262 71.3809H85.0723V72.7285H84.9727C84.5273 72.7285 84.1309 72.7949 83.7832 72.9277C83.4355 73.0605 83.1406 73.25 82.8984 73.4961C82.6602 73.7383 82.4766 74.0312 82.3477 74.375C82.2227 74.7188 82.1602 75.1035 82.1602 75.5293V76.9473C82.1602 77.252 82.1895 77.5215 82.248 77.7559C82.3105 77.9863 82.3984 78.1797 82.5117 78.3359C82.6289 78.4883 82.7656 78.6035 82.9219 78.6816C83.0781 78.7559 83.2539 78.793 83.4492 78.793C83.6328 78.793 83.7988 78.7539 83.9473 78.6758C84.0996 78.5977 84.2285 78.4883 84.334 78.3477C84.4434 78.2031 84.5254 78.0352 84.5801 77.8438C84.6387 77.6484 84.668 77.4355 84.668 77.2051C84.668 76.9746 84.6387 76.7617 84.5801 76.5664C84.5254 76.3711 84.4434 76.2031 84.334 76.0625C84.2246 75.918 84.0918 75.8066 83.9355 75.7285C83.7793 75.6504 83.6035 75.6113 83.4082 75.6113C83.1426 75.6113 82.9082 75.6738 82.7051 75.7988C82.5059 75.9199 82.3496 76.0762 82.2363 76.2676C82.123 76.459 82.0625 76.6602 82.0547 76.8711L81.5449 76.543C81.5566 76.2422 81.6191 75.957 81.7324 75.6875C81.8496 75.418 82.0098 75.1797 82.2129 74.9727C82.4199 74.7617 82.668 74.5977 82.957 74.4805C83.2461 74.3594 83.5723 74.2988 83.9355 74.2988C84.334 74.2988 84.6836 74.375 84.9844 74.5273C85.2891 74.6797 85.543 74.8887 85.7461 75.1543C85.9492 75.4199 86.1016 75.7266 86.2031 76.0742C86.3047 76.4219 86.3555 76.793 86.3555 77.1875C86.3555 77.6016 86.2871 77.9863 86.1504 78.3418C86.0176 78.6973 85.8242 79.0078 85.5703 79.2734C85.3203 79.5391 85.0195 79.7461 84.668 79.8945C84.3164 80.043 83.9219 80.1172 83.4844 80.1172C83.0312 80.1172 82.6191 80.0352 82.248 79.8711C81.8809 79.7031 81.5645 79.4688 81.2988 79.168C81.0332 78.8672 80.8281 78.5098 80.6836 78.0957C80.543 77.6816 80.4727 77.2285 80.4727 76.7363V76.0801C80.4727 75.3926 80.5723 74.7637 80.7715 74.1934C80.9746 73.6191 81.2656 73.123 81.6445 72.7051C82.0234 72.2832 82.4805 71.957 83.0156 71.7266C83.5508 71.4961 84.1543 71.3809 84.8262 71.3809ZM89.0918 75.002H89.9941C90.2832 75.002 90.5215 74.9531 90.709 74.8555C90.8965 74.7539 91.0352 74.6133 91.125 74.4336C91.2188 74.25 91.2656 74.0371 91.2656 73.7949C91.2656 73.5762 91.2227 73.3828 91.1367 73.2148C91.0547 73.043 90.9277 72.9102 90.7559 72.8164C90.584 72.7188 90.3672 72.6699 90.1055 72.6699C89.8984 72.6699 89.707 72.7109 89.5312 72.793C89.3555 72.875 89.2148 72.9902 89.1094 73.1387C89.0039 73.2871 88.9512 73.4668 88.9512 73.6777H87.2578C87.2578 73.209 87.3828 72.8008 87.6328 72.4531C87.8867 72.1055 88.2266 71.834 88.6523 71.6387C89.0781 71.4434 89.5469 71.3457 90.0586 71.3457C90.6367 71.3457 91.1426 71.4395 91.5762 71.627C92.0098 71.8105 92.3477 72.082 92.5898 72.4414C92.832 72.8008 92.9531 73.2461 92.9531 73.7773C92.9531 74.0469 92.8906 74.3086 92.7656 74.5625C92.6406 74.8125 92.4609 75.0391 92.2266 75.2422C91.9961 75.4414 91.7148 75.6016 91.3828 75.7227C91.0508 75.8398 90.6777 75.8984 90.2637 75.8984H89.0918V75.002ZM89.0918 76.2852V75.4121H90.2637C90.7285 75.4121 91.1367 75.4648 91.4883 75.5703C91.8398 75.6758 92.1348 75.8281 92.373 76.0273C92.6113 76.2227 92.791 76.4551 92.9121 76.7246C93.0332 76.9902 93.0938 77.2852 93.0938 77.6094C93.0938 78.0078 93.0176 78.3633 92.8652 78.6758C92.7129 78.9844 92.498 79.2461 92.2207 79.4609C91.9473 79.6758 91.627 79.8398 91.2598 79.9531C90.8926 80.0625 90.4922 80.1172 90.0586 80.1172C89.6992 80.1172 89.3457 80.0684 88.998 79.9707C88.6543 79.8691 88.3418 79.7188 88.0605 79.5195C87.7832 79.3164 87.5605 79.0625 87.3926 78.7578C87.2285 78.4492 87.1465 78.084 87.1465 77.6621H88.8398C88.8398 77.8809 88.8945 78.0762 89.0039 78.248C89.1133 78.4199 89.2637 78.5547 89.4551 78.6523C89.6504 78.75 89.8672 78.7988 90.1055 78.7988C90.375 78.7988 90.6055 78.75 90.7969 78.6523C90.9922 78.5508 91.1406 78.4102 91.2422 78.2305C91.3477 78.0469 91.4004 77.834 91.4004 77.5918C91.4004 77.2793 91.3438 77.0293 91.2305 76.8418C91.1172 76.6504 90.9551 76.5098 90.7441 76.4199C90.5332 76.3301 90.2832 76.2852 89.9941 76.2852H89.0918Z" fill="black"/>
<path d="M125.068 35.1895C123.664 32.5029 122.078 29.9156 120.32 27.4459L101.778 40.6414C102.933 42.264 103.975 43.9639 104.897 45.7289L125.068 35.1895Z" fill="#5179C7"/>
</g>
<defs>
<clipPath id="clip0_823_76">
<rect width="133" height="133" fill="white"/>
</clipPath>
</defs>
</svg>
