<svg width="547" height="504" viewBox="0 0 547 504" fill="none" xmlns="http://www.w3.org/2000/svg">
<g clip-path="url(#clip0)">
<g clip-path="url(#clip1)">
<path d="M382.099 383.923L353.606 405.053H495.844L467.195 383.923H382.099Z" fill="#E4EBF7"/>
<path d="M467.194 405.033L495.844 405.053L467.194 383.923V405.033Z" fill="#A3B5D6"/>
<path d="M377.944 346.369L402.229 485.376C402.785 488.558 405.82 490.691 409.001 490.132L419.814 488.244C422.996 487.686 425.129 484.654 424.571 481.472L400.289 342.465L377.944 346.369Z" fill="#FFA940"/>
<path d="M381.221 322.787L377.947 346.383L400.289 342.479L389.832 321.284L381.221 322.787Z" fill="#FFE7BA"/>
<path d="M383.785 312.441C383.589 312.473 383.432 312.63 383.396 312.826L381.495 322.754L389.662 321.326L384.291 312.663C384.2 312.519 384.043 312.431 383.877 312.431C383.844 312.431 383.815 312.434 383.785 312.441Z" fill="#253368"/>
<path d="M384.687 345.272L409.965 489.966L419.085 488.372L393.811 343.674L384.687 345.272Z" fill="#FE9921"/>
<path d="M415.779 479.012L415.394 490.083C415.273 493.507 417.951 496.378 421.375 496.496C424.799 496.616 427.67 493.938 427.791 490.517L428.173 479.443L415.782 479.012H415.779Z" fill="#253368"/>
<path d="M427.127 313.322L426.445 317.239C426.294 318.095 426.873 318.915 427.729 319.062C428.588 319.212 429.404 318.637 429.555 317.778L430.237 313.861C430.388 313.002 429.813 312.186 428.954 312.035C428.862 312.022 428.771 312.012 428.679 312.012C427.928 312.012 427.261 312.551 427.127 313.322Z" fill="#50548B"/>
<path d="M392.565 468.83C392.007 472.015 394.143 475.046 397.328 475.602L403.741 476.719C406.926 477.271 409.958 475.141 410.51 471.956L433.952 337.366L416.004 334.24L392.565 468.83Z" fill="#597EF7"/>
<path d="M425.536 317.207L416.004 334.239L433.961 337.369L430.459 318.049C430.384 317.644 430.064 317.324 429.656 317.259L426.559 316.72C426.503 316.71 426.448 316.707 426.392 316.707C426.043 316.707 425.713 316.893 425.536 317.207Z" fill="#E4EBF7"/>
<path d="M350.713 331.564L344.538 335.857C343.833 336.347 343.572 337.268 343.915 338.055L347.658 346.627C348.054 347.542 349.118 347.957 350.033 347.558L356.792 344.608C357.707 344.207 358.125 343.145 357.726 342.23L353.401 332.319C353.186 331.826 352.758 331.453 352.235 331.306C352.078 331.264 351.912 331.241 351.751 331.241C351.382 331.241 351.023 331.349 350.713 331.564Z" fill="#FF7946"/>
<path d="M349.67 370.945L396.476 478.179L421.797 467.128L374.991 359.894L349.67 370.945Z" fill="#FF7946"/>
<path d="M349.67 370.945L353.77 380.33L379.09 369.282L374.99 359.894L349.67 370.945Z" fill="#253368"/>
<path d="M346.524 345.095L347.152 365.166L349.67 370.945L374.991 359.893L372.489 354.16L357.396 340.348L346.524 345.095Z" fill="#E4EBF7"/>
<path d="M347.146 365.267L349.667 371.042L374.985 359.988L372.463 354.215L347.146 365.267Z" fill="#F5F5F5"/>
<path d="M380.721 390.591L367.288 391.519C366.955 391.542 366.651 391.728 366.478 392.015C366.301 392.299 366.278 392.656 366.412 392.966L366.5 393.165C366.677 393.567 367.085 393.815 367.523 393.783L372.047 393.449C372.485 393.417 372.897 393.668 373.073 394.07L374.223 396.706C375.644 399.963 377.983 401.443 381.149 401.152C384.314 400.865 385.196 399.124 383.821 395.971L381.74 391.212C381.573 390.833 381.198 390.591 380.786 390.591C380.766 390.591 380.743 390.591 380.721 390.591ZM377.882 398.474C377.294 398.062 376.768 397.373 376.346 396.406L375.546 394.573C375.412 394.266 375.435 393.913 375.608 393.626C375.781 393.338 376.085 393.152 376.418 393.129L379.476 392.904C379.914 392.874 380.322 393.119 380.498 393.521L381.57 395.981C381.982 396.919 382.073 397.644 381.874 398.118C381.671 398.591 381.129 398.888 380.191 398.97C380.038 398.983 379.881 398.99 379.734 398.99C378.999 398.99 378.369 398.82 377.882 398.474Z" fill="white"/>
<path d="M385.944 402.616L372.662 403.887C372.335 403.919 372.038 404.106 371.871 404.39C371.701 404.674 371.682 405.024 371.809 405.324L375.331 413.39C375.514 413.805 375.945 414.053 376.396 414.001C376.719 413.965 377.01 413.772 377.173 413.491C377.336 413.207 377.356 412.864 377.222 412.563L374.935 407.317C374.808 407.013 374.828 406.667 374.994 406.382C375.161 406.102 375.455 405.912 375.781 405.883L378.297 405.654C378.741 405.612 379.159 405.857 379.339 406.265L381.779 411.851C381.962 412.266 382.397 412.517 382.847 412.468C383.171 412.429 383.458 412.237 383.625 411.952C383.785 411.671 383.805 411.325 383.674 411.025L381.766 406.654C381.635 406.35 381.658 406.004 381.825 405.723C381.992 405.442 382.286 405.252 382.612 405.22L384.729 405.007C385.173 404.965 385.595 405.206 385.774 405.615L388.365 411.544C388.548 411.962 388.979 412.207 389.43 412.155C389.757 412.116 390.047 411.926 390.207 411.639C390.371 411.348 390.387 411.002 390.247 410.701L386.983 403.227C386.817 402.848 386.447 402.609 386.042 402.609C386.01 402.609 385.977 402.613 385.944 402.616Z" fill="white"/>
<path d="M353.982 430.844V498.91C353.982 501.847 356.364 504.228 359.301 504.228H490.458C493.394 504.228 495.776 501.847 495.776 498.91V430.844H353.982Z" fill="#1B98EE"/>
<path d="M353.982 415.32V454.979L495.776 443.669V415.32H353.982Z" fill="#137BC2"/>
<g clip-path="url(#clip2)">
<path d="M435.175 413.752C443.764 418.711 454.899 415.522 460.031 406.634L469.327 390.533L453.767 381.549C445.179 376.591 434.043 379.78 428.912 388.668C423.78 397.556 426.586 408.794 435.175 413.752Z" fill="#0ACF83"/>
<path d="M466.191 324.099C471.34 315.181 482.489 311.968 491.078 316.926L506.637 325.91L487.982 358.221L472.423 349.238C463.834 344.279 461.042 333.017 466.191 324.099Z" fill="#F24E1E"/>
<path d="M506.637 325.91L522.196 334.893C530.785 339.852 533.577 351.114 528.428 360.032C523.279 368.95 512.13 372.163 503.541 367.204L487.982 358.221L506.637 325.91Z" fill="#FF7262"/>
<path d="M509.836 392.235C504.687 401.153 493.538 404.366 484.949 399.407C476.36 394.449 473.569 383.186 478.717 374.268C483.866 365.35 495.016 362.137 503.604 367.096C512.193 372.055 514.985 383.317 509.836 392.235Z" fill="#1ABCFE"/>
<path d="M447.598 356.302C452.747 347.384 463.896 344.171 472.485 349.129L488.045 358.113L469.39 390.424L453.83 381.441C445.241 376.482 442.449 365.22 447.598 356.302Z" fill="#A259FF"/>
</g>
<path d="M353.616 405.053L339.782 435.489C339.256 436.59 339.328 437.88 339.974 438.913C340.624 439.942 341.758 440.569 342.973 440.572H506.262C507.506 440.572 508.663 439.919 509.303 438.851C509.943 437.782 509.979 436.456 509.398 435.362L495.844 405.053H353.616Z" fill="#E4EBF7"/>
</g>
<g clip-path="url(#clip3)">
<path fill-rule="evenodd" clip-rule="evenodd" d="M542.009 66.8396H297.574V50.3352C297.574 46.755 300.551 43.8523 304.223 43.8523H535.361C539.033 43.8523 542.009 46.755 542.009 50.3352V66.8396Z" fill="#253368"/>
<path fill-rule="evenodd" clip-rule="evenodd" d="M314.714 54.645C314.714 56.8919 312.857 58.7136 310.567 58.7136C308.277 58.7136 306.421 56.8919 306.421 54.645C306.421 52.3981 308.277 50.5764 310.567 50.5764C312.857 50.5764 314.714 52.3981 314.714 54.645Z" fill="#FF7946"/>
<path fill-rule="evenodd" clip-rule="evenodd" d="M330.196 54.645C330.196 56.8919 328.34 58.7136 326.05 58.7136C323.76 58.7136 321.903 56.8919 321.903 54.645C321.903 52.3981 323.76 50.5764 326.05 50.5764C328.34 50.5764 330.196 52.3981 330.196 54.645Z" fill="#FAAD14"/>
<path fill-rule="evenodd" clip-rule="evenodd" d="M345.677 54.645C345.677 56.8919 343.821 58.7136 341.531 58.7136C339.241 58.7136 337.385 56.8919 337.385 54.645C337.385 52.3981 339.241 50.5764 341.531 50.5764C343.821 50.5764 345.677 52.3981 345.677 54.645Z" fill="#7CB305"/>
<path fill-rule="evenodd" clip-rule="evenodd" d="M304.741 231.255C300.647 231.255 297.328 228.27 297.328 224.589V65.8741H542.091V224.589C542.091 228.27 538.772 231.255 534.678 231.255H304.741Z" fill="#E4EBF7"/>
<path d="M524.795 78.0021H316.83C315.193 78.0021 313.866 79.3289 313.866 80.9657V213.958C313.866 215.595 315.193 216.922 316.83 216.922H524.795C526.432 216.922 527.758 215.595 527.758 213.958V80.9657C527.758 79.3289 526.432 78.0021 524.795 78.0021Z" fill="white"/>
<path d="M497.99 107.771H392.146C390.929 107.771 389.941 108.758 389.941 109.976V121.001C389.941 122.219 390.929 123.206 392.146 123.206H497.99C499.208 123.206 500.195 122.219 500.195 121.001V109.976C500.195 108.758 499.208 107.771 497.99 107.771Z" fill="#FAAD14"/>
<path d="M497.99 161.795H458.299C457.081 161.795 456.094 162.782 456.094 164V175.025C456.094 176.243 457.081 177.23 458.299 177.23H497.99C499.208 177.23 500.195 176.243 500.195 175.025V164C500.195 162.782 499.208 161.795 497.99 161.795Z" fill="#FF7946"/>
<path d="M497.99 137.539H458.299C457.081 137.539 456.094 138.526 456.094 139.744V150.77C456.094 151.987 457.081 152.975 458.299 152.975H497.99C499.208 152.975 500.195 151.987 500.195 150.77V139.744C500.195 138.526 499.208 137.539 497.99 137.539Z" fill="#597EF7"/>
<path fill-rule="evenodd" clip-rule="evenodd" d="M362.661 108.873H374.223L399.864 176.128H388.955L382.708 158.796H354.083L347.836 176.128H337.02L362.661 108.873ZM356.865 150.769H378.916L368.119 121.001H367.753L356.865 150.769ZM424.867 135.334C430.059 135.334 433.885 136.718 436.344 139.485C438.462 141.888 439.555 145.384 439.555 149.972V174.006H432.86V168.689C431.494 170.583 429.786 172.112 427.736 173.205C425.413 174.37 422.681 175.025 419.538 175.025C415.849 175.025 412.979 174.006 410.93 172.039C408.675 170.073 407.582 167.524 407.582 164.392C407.582 160.168 409.153 156.891 412.296 154.633C415.165 152.449 419.265 151.356 424.457 151.21L432.382 150.992V149.463C432.382 144.219 429.717 141.597 424.388 141.597C422.134 141.597 420.289 142.034 418.923 142.908C417.283 143.928 416.258 145.457 415.849 147.569L408.675 146.914C409.427 142.835 411.339 139.776 414.346 137.883C416.942 136.135 420.494 135.334 424.867 135.334ZM434.043 157.385L426.473 157.596C419.736 157.737 416.402 160.135 416.402 164.647C416.402 166.058 416.958 167.186 418.138 168.102C419.25 169.019 420.778 169.513 422.653 169.513C425.778 169.513 428.417 168.525 430.64 166.622C432.862 164.718 434.043 162.32 434.043 159.5V157.385Z" fill="#253368"/>
<path d="M500.378 191.442C500.902 191.442 501.327 191.666 501.327 191.942C501.327 192.206 500.94 192.422 500.449 192.441L500.378 192.442H338.276C337.752 192.442 337.327 192.218 337.327 191.942C337.327 191.678 337.714 191.462 338.206 191.443L338.276 191.442H500.378Z" fill="#253368"/>
<path d="M536.643 51.9775H304.357C300.376 51.9775 297.148 55.2048 297.148 59.1859V225.777C297.148 229.758 300.376 232.985 304.357 232.985H536.643C540.624 232.985 543.852 229.758 543.852 225.777V59.1859C543.852 55.2048 540.624 51.9775 536.643 51.9775Z" fill="#E4EBF7"/>
<path fill-rule="evenodd" clip-rule="evenodd" d="M371.607 213.42V88.1158C371.607 86.7537 372.712 85.6495 374.074 85.6495H525.969C527.331 85.6495 528.435 86.7537 528.435 88.1158V213.883C528.435 214.989 527.514 215.887 526.378 215.887H374.074C372.712 215.887 371.607 214.782 371.607 213.42Z" fill="white"/>
<path fill-rule="evenodd" clip-rule="evenodd" d="M402.9 110.656H393.924C393.229 110.656 392.666 110.108 392.666 109.431C392.666 108.755 393.229 108.206 393.924 108.206H402.9C403.594 108.206 404.157 108.755 404.157 109.431C404.157 110.108 403.594 110.656 402.9 110.656Z" fill="white"/>
<path fill-rule="evenodd" clip-rule="evenodd" d="M403.045 116.536H394.069C393.374 116.536 392.812 115.987 392.812 115.311C392.812 114.634 393.374 114.086 394.069 114.086H403.045C403.74 114.086 404.303 114.634 404.303 115.311C404.303 115.987 403.74 116.536 403.045 116.536Z" fill="white"/>
<path d="M513.205 195.229C513.716 195.229 514.13 195.643 514.13 196.154C514.13 196.647 513.743 197.051 513.256 197.077L513.205 197.078H386.397C385.886 197.078 385.472 196.664 385.472 196.154C385.472 195.66 385.859 195.256 386.346 195.23L386.397 195.229H513.205Z" fill="#E4EBF7"/>
<path d="M492.939 203.691C493.45 203.691 493.864 204.105 493.864 204.616C493.864 205.109 493.477 205.513 492.99 205.539L492.939 205.541H386.397C385.886 205.541 385.472 205.127 385.472 204.616C385.472 204.122 385.859 203.719 386.346 203.692L386.397 203.691H492.939Z" fill="#E4EBF7"/>
<path d="M303.757 43.8223H537.12C540.769 43.8223 543.728 46.7157 543.728 50.2849V69.5435H297.148V50.2849C297.148 46.7157 300.107 43.8223 303.757 43.8223Z" fill="#253368"/>
<path d="M311.04 61.203C313.645 61.203 315.756 59.1378 315.756 56.5902C315.756 54.0427 313.645 51.9775 311.04 51.9775C308.435 51.9775 306.323 54.0427 306.323 56.5902C306.323 59.1378 308.435 61.203 311.04 61.203Z" fill="#FF7946"/>
<path d="M329.389 61.203C331.994 61.203 334.106 59.1378 334.106 56.5902C334.106 54.0427 331.994 51.9775 329.389 51.9775C326.785 51.9775 324.673 54.0427 324.673 56.5902C324.673 59.1378 326.785 61.203 329.389 61.203Z" fill="#FAAD14"/>
<path d="M346.72 61.203C349.325 61.203 351.437 59.1378 351.437 56.5902C351.437 54.0427 349.325 51.9775 346.72 51.9775C344.116 51.9775 342.004 54.0427 342.004 56.5902C342.004 59.1378 344.116 61.203 346.72 61.203Z" fill="#7CB305"/>
<path d="M380.718 148.186L377.684 145.954L380.718 143.727L383.752 145.954L380.718 148.186Z" fill="white"/>
<path fill-rule="evenodd" clip-rule="evenodd" d="M473.009 181.388C473.009 182.991 471.691 184.305 470.081 184.305H451.942C450.331 184.305 449.014 182.991 449.014 181.388V109.384C449.014 107.779 450.331 106.467 451.942 106.467H470.081C471.691 106.467 473.009 107.779 473.009 109.384V181.388Z" fill="#FF7946"/>
<path fill-rule="evenodd" clip-rule="evenodd" d="M391.893 101.265C390.985 101.265 390.249 100.512 390.249 99.5839C390.249 98.6556 390.985 97.903 391.893 97.903H422.039C422.947 97.903 423.683 98.6556 423.683 99.5839C423.683 100.512 422.947 101.265 422.039 101.265H391.893Z" fill="#CCD7EE"/>
<path fill-rule="evenodd" clip-rule="evenodd" d="M392.269 108.964C391.362 108.964 390.626 108.212 390.626 107.283C390.626 106.355 391.362 105.602 392.269 105.602H404.003C404.911 105.602 405.647 106.355 405.647 107.283C405.647 108.212 404.911 108.964 404.003 108.964H392.269Z" fill="#CCD7EE"/>
<path fill-rule="evenodd" clip-rule="evenodd" d="M415.2 181.326C415.2 182.93 413.883 184.244 412.272 184.244H394.134C392.524 184.244 391.206 182.93 391.206 181.326V152.919C391.206 151.315 392.524 150.002 394.134 150.002H412.272C413.883 150.002 415.2 151.315 415.2 152.919V181.326Z" fill="#ADC6FF"/>
<path fill-rule="evenodd" clip-rule="evenodd" d="M444.103 181.352C444.103 182.956 442.786 184.27 441.176 184.27H423.037C421.427 184.27 420.109 182.956 420.109 181.352V129.367C420.109 127.763 421.427 126.451 423.037 126.451H441.176C442.786 126.451 444.103 127.763 444.103 129.367V181.352Z" fill="#597EF7"/>
<path fill-rule="evenodd" clip-rule="evenodd" d="M501.912 181.352C501.912 182.956 500.595 184.27 498.984 184.27H480.846C479.235 184.27 477.918 182.956 477.918 181.352V129.367C477.918 127.763 479.235 126.451 480.846 126.451H498.984C500.595 126.451 501.912 127.763 501.912 129.367V181.352Z" fill="#FAAD14"/>
<path d="M359.652 85.6184H316.199C314.686 85.6184 313.459 86.8453 313.459 88.3586V213.366C313.459 214.879 314.686 216.106 316.199 216.106H359.652C361.165 216.106 362.392 214.879 362.392 213.366V88.3586C362.392 86.8453 361.165 85.6184 359.652 85.6184Z" fill="#597EF7"/>
<path d="M350.313 137.61H325.21C324.35 137.61 323.653 138.307 323.653 139.166V143.016C323.653 143.876 324.35 144.572 325.21 144.572H350.313C351.173 144.572 351.87 143.876 351.87 143.016V139.166C351.87 138.307 351.173 137.61 350.313 137.61Z" fill="white"/>
<path d="M350.337 150.863H325.186C324.34 150.863 323.653 151.55 323.653 152.396V156.082C323.653 156.929 324.34 157.615 325.186 157.615H350.337C351.183 157.615 351.87 156.929 351.87 156.082V152.396C351.87 151.55 351.183 150.863 350.337 150.863Z" fill="#ADC6FF"/>
<path d="M350.337 164.116H325.186C324.34 164.116 323.653 164.802 323.653 165.649V169.335C323.653 170.182 324.34 170.868 325.186 170.868H350.337C351.183 170.868 351.87 170.182 351.87 169.335V165.649C351.87 164.802 351.183 164.116 350.337 164.116Z" fill="#FF7946"/>
<path d="M350.337 177.368H325.186C324.34 177.368 323.653 178.054 323.653 178.901V182.587C323.653 183.434 324.34 184.12 325.186 184.12H350.337C351.183 184.12 351.87 183.434 351.87 182.587V178.901C351.87 178.054 351.183 177.368 350.337 177.368Z" fill="#FAAD14"/>
<path d="M338.296 123.348C345.257 123.348 350.901 117.64 350.901 110.6C350.901 103.56 345.257 97.853 338.296 97.853C331.335 97.853 325.692 103.56 325.692 110.6C325.692 117.64 331.335 123.348 338.296 123.348Z" fill="white"/>
<path d="M338.173 123.326C341.805 123.328 345.253 121.705 347.59 118.892C345.749 115.356 342.122 113.143 338.171 113.143C334.219 113.143 330.593 115.356 328.751 118.892C331.089 121.706 334.539 123.329 338.173 123.326Z" fill="#253368"/>
<path d="M337.569 113.557C340.187 113.557 342.31 111.411 342.31 108.763C342.31 106.115 340.187 103.969 337.569 103.969C334.951 103.969 332.829 106.115 332.829 108.763C332.829 111.411 334.951 113.557 337.569 113.557Z" fill="#253368"/>
</g>
<g clip-path="url(#clip4)">
<path fill-rule="evenodd" clip-rule="evenodd" d="M87.9126 1015.08C76.9143 1013.72 68.9541 1006.4 69.8764 995.361L89.628 756.733C91.05 739.722 106.342 727.309 123.286 729.406C140.234 731.504 152.035 747.27 149.266 764.115L108.333 1000.43C106.536 1011.36 98.9108 1016.44 87.9126 1015.08Z" fill="#FFC999"/>
<path fill-rule="evenodd" clip-rule="evenodd" d="M222.632 1011.7C233.712 1011.96 243.02 1003.43 243.721 992.374L258.71 755.881C259.791 738.845 246.478 724.332 229.409 723.929C212.335 723.526 198.356 737.399 198.634 754.47L202.478 991.405C202.657 1002.48 211.552 1011.44 222.632 1011.7Z" fill="#FFC999"/>
<path fill-rule="evenodd" clip-rule="evenodd" d="M234.608 503.035C254.723 503.507 270.504 520.442 269.552 540.534L259.322 756.544C258.534 773.183 244.607 786.151 227.951 785.758C211.294 785.365 197.994 771.756 197.991 755.103L197.937 538.85C197.932 518.734 214.494 502.563 234.608 503.035Z" fill="#FFC999"/>
<path fill-rule="evenodd" clip-rule="evenodd" d="M150.442 510.123C130.474 507.653 112.386 522.099 110.39 542.115L88.9253 757.3C87.272 773.874 99.1528 788.738 115.688 790.783C132.222 792.829 147.37 781.31 149.811 764.835L181.483 550.913C184.429 531.014 170.41 512.596 150.442 510.123Z" fill="#FFC999"/>
<g opacity="0.5">
<path fill-rule="evenodd" clip-rule="evenodd" d="M94.3833 8.00013C42.6561 8.70729 0.821257 50.4943 0.000165602 102.275C-0.0118939 103.064 0.636281 103.718 1.42663 103.718L94.3038 103.822C95.0835 103.822 95.7179 103.19 95.7179 102.408L95.8218 9.43116C95.8218 8.63995 95.1737 7.98955 94.3833 8.00013Z" fill="#F08B7D"/>
<path fill-rule="evenodd" clip-rule="evenodd" d="M0.000123202 113.158C0.707291 164.886 42.4943 206.72 94.2746 207.541C95.0643 207.554 95.7178 206.905 95.7178 206.115L95.8218 113.238C95.8218 112.458 95.1898 111.824 94.4078 111.824L1.43116 111.72C0.63995 111.72 -0.0104589 112.368 0.000123202 113.158Z" fill="#5CC5BD"/>
<path fill-rule="evenodd" clip-rule="evenodd" d="M169.077 39.3416C151.555 20.4403 128.534 9.88494 105.28 8.00489C104.386 7.93362 103.614 8.65123 103.602 9.5507L102.456 100.445C102.451 100.843 102.599 101.229 102.869 101.519L166.339 169.98C166.929 170.616 167.942 170.653 168.566 170.051C204.215 135.794 204.569 77.6234 169.077 39.3416Z" fill="#F7C243"/>
</g>
<path fill-rule="evenodd" clip-rule="evenodd" d="M289.939 168.496C289.939 168.496 315.926 160.382 327.456 187.371C354.735 192.62 352.205 221.859 352.205 221.859C352.205 221.859 368.687 241.872 344.776 257.298C346.34 280.256 319.958 280.256 319.958 280.256C319.958 280.256 316.585 298.726 295.883 294.653C277.415 314.425 237.141 317.492 219.818 299.701C195.174 325.06 142.398 307.357 145.455 287.317C112.456 290.565 91.0633 258.443 105.505 225.944C87.0683 205.014 101.636 188.589 101.636 188.589C101.636 188.589 88.448 135.848 124.334 122.723C138.758 90.8803 183.616 107.442 183.616 107.442C183.616 107.442 209.976 97.4239 223.537 119.517C254.754 119.329 256.005 136.3 260.596 149.981C288.109 147.166 289.939 168.496 289.939 168.496Z" fill="#253368"/>
<path fill-rule="evenodd" clip-rule="evenodd" d="M201.222 155.901C180.461 163.066 171.382 147.944 171.382 147.944C171.382 147.944 158.925 126.596 158.905 140.93C158.893 148.547 145.831 140.53 141.818 149.291C139.119 155.185 149.1 160.628 139.83 176.68C134.457 185.977 161.891 188.323 148.041 206.093C148.041 206.093 162.579 222.756 143.666 231.974L145.033 254.017C145.828 266.846 157.52 276.191 170.216 274.14C182.318 272.187 190.416 260.623 188.113 248.585L183.072 222.246C213.938 217.311 208.658 174.66 201.222 155.901Z" fill="#FFC999"/>
<path fill-rule="evenodd" clip-rule="evenodd" d="M379.42 255.736L395.082 200.405C395.082 200.405 420.733 155.51 429.996 158.271C438.6 162.036 419.152 174.887 415.296 187.571C423.485 186.985 419.766 199.162 419.766 199.162C419.766 199.162 426.284 198.926 424.532 208.847C430.585 212.428 425.732 223.816 425.732 223.816C425.732 223.816 413.571 253.81 400.096 273.816C400.096 273.816 377.742 291.073 379.42 255.736Z" fill="#FFC999"/>
<path fill-rule="evenodd" clip-rule="evenodd" d="M382.9 237.041C382.9 237.041 385.237 218.064 386.984 208.399C388.732 198.731 384.648 181.273 391.7 185.898C396.441 189.009 395.616 199.395 395.444 207.054C395.275 214.711 407.648 232.863 398.428 245.428C392.198 253.92 382.375 255.034 382.9 237.041Z" fill="#FFC999"/>
<path fill-rule="evenodd" clip-rule="evenodd" d="M397.28 251.969C390.858 247.702 382.214 249.24 377.66 255.461L289.728 375.527C282.012 386.827 285.022 402.253 296.423 409.825C307.924 417.462 323.459 414.129 330.81 402.447L401.986 270.834C405.533 264.276 403.492 256.097 397.28 251.969Z" fill="#FFC999"/>
<path d="M165.454 184.773C165.903 184.153 166.771 184.014 167.391 184.463L167.566 184.582C167.683 184.657 167.842 184.756 168.041 184.872C168.613 185.205 169.28 185.54 170.03 185.854C173.51 187.311 177.409 187.793 181.512 186.723C182.253 186.529 183.011 186.973 183.204 187.714C183.398 188.455 182.953 189.213 182.212 189.406C177.465 190.644 172.961 190.088 168.958 188.413C167.467 187.788 166.38 187.155 165.764 186.71C165.144 186.261 165.005 185.394 165.454 184.773Z" fill="#F5222D"/>
<path d="M164.514 162.823C165.242 162.707 165.926 163.202 166.042 163.93C166.851 168.994 163.702 173.75 158.938 174.515C154.176 175.274 149.698 171.735 148.89 166.672C148.773 165.944 149.269 165.26 149.998 165.144C150.726 165.028 151.41 165.524 151.526 166.251C152.11 169.905 155.263 172.398 158.516 171.879C161.772 171.356 163.99 168.007 163.406 164.351C163.289 163.623 163.785 162.939 164.514 162.823Z" fill="#253368"/>
<path d="M197.918 158.409C198.608 158.298 199.258 158.769 199.369 159.459C200.17 164.462 197.406 169.153 193.05 169.849C188.694 170.545 184.605 166.952 183.803 161.95C183.693 161.259 184.163 160.61 184.854 160.499C185.544 160.388 186.194 160.859 186.305 161.549C186.9 165.265 189.792 167.805 192.65 167.348C195.508 166.891 197.463 163.575 196.867 159.86C196.757 159.169 197.227 158.52 197.918 158.409Z" fill="#253368"/>
<path d="M150.6 149.383C154.983 147.685 159.608 147.602 163.909 148.468L164.601 148.617C165.243 148.765 165.733 148.905 166.047 149.012C166.746 149.248 167.12 150.006 166.883 150.704C166.646 151.402 165.888 151.776 165.19 151.539L164.896 151.448C164.547 151.346 164.033 151.216 163.381 151.085C159.537 150.31 155.404 150.385 151.565 151.871C149.776 152.564 148.122 153.549 146.623 154.855C146.067 155.34 145.223 155.282 144.739 154.726C144.254 154.171 144.312 153.328 144.868 152.843C146.605 151.329 148.528 150.185 150.6 149.383Z" fill="#253368"/>
<path fill-rule="evenodd" clip-rule="evenodd" d="M325.301 407.733C336.642 399.83 339.424 384.233 331.516 372.895L254.474 262.43C246.566 251.095 230.966 248.312 219.624 256.215C208.286 264.118 205.504 279.715 213.409 291.052L290.454 401.518C298.36 412.855 313.96 415.636 325.301 407.733Z" fill="#FFC999"/>
<path d="M212.363 290.817C212.681 290.595 213.106 290.64 213.372 290.904L213.464 291.013L245.665 337.184L285.771 308.584C286.087 308.359 286.512 308.399 286.781 308.66L286.874 308.768C287.099 309.084 287.059 309.509 286.798 309.778L286.689 309.871L245.933 338.935C245.615 339.162 245.186 339.119 244.918 338.854L244.826 338.744L212.167 291.917C211.917 291.559 212.005 291.067 212.363 290.817Z" fill="#4E5C93"/>
<path fill-rule="evenodd" clip-rule="evenodd" d="M246.069 337.88L213.408 291.051C205.534 279.763 208.331 264.087 219.625 256.216C230.917 248.345 246.599 251.141 254.472 262.431L286.823 308.813L246.069 337.88Z" fill="#1B98EE"/>
<path fill-rule="evenodd" clip-rule="evenodd" d="M235.085 296.787C240.433 308.435 250.339 328.486 251.57 341.732C253.569 363.209 239.582 379.189 239.582 379.189C239.582 379.189 239.441 372.874 238.083 428.516C174.013 439.751 133.162 427.805 133.162 427.805L134.41 413.055L124.006 378.19C124.006 378.19 117.684 365.205 104.695 336.24C95.6654 316.102 96.2919 291.138 97.515 277.79C98.0396 272.071 95.3223 260.132 100.998 259.24C120.282 256.208 133.665 254.575 133.665 254.575L136.011 247.366C136.325 245.184 138.194 243.563 140.399 243.563H189.981C192.004 243.563 193.77 244.933 194.272 246.894L197.747 254.575L223.878 255.507C228.455 256.405 232.413 270.739 232.89 275.377L235.085 296.787Z" fill="#1B98EE"/>
<path d="M133.036 256.545C133.44 256.225 134.008 256.254 134.377 256.59L134.492 256.713L179.258 313.138L196.632 260.504C196.793 260.015 197.284 259.727 197.777 259.805L197.941 259.844C198.43 260.006 198.719 260.497 198.641 260.989L198.601 261.153L180.627 315.614C180.385 316.345 179.476 316.553 178.939 316.052L178.83 315.934L132.868 258.001C132.512 257.552 132.588 256.9 133.036 256.545Z" fill="#CCD7EE"/>
<path fill-rule="evenodd" clip-rule="evenodd" d="M192.474 319.671C197.177 327.598 195.056 337.542 187.74 341.881C180.424 346.218 170.678 343.305 165.977 335.377C161.274 327.447 163.392 317.504 170.711 313.167C178.027 308.83 187.77 311.743 192.474 319.671Z" fill="#CCD7EE"/>
<path fill-rule="evenodd" clip-rule="evenodd" d="M194.163 319.632C198.867 327.56 196.746 337.503 189.43 341.84C182.113 346.179 172.368 343.266 167.664 335.336C162.963 327.408 165.081 317.465 172.4 313.128C179.714 308.791 189.46 311.704 194.163 319.632Z" fill="#E4EBF7"/>
<path fill-rule="evenodd" clip-rule="evenodd" d="M191.177 321.013C194.829 327.169 193.183 334.888 187.5 338.255C181.82 341.623 174.255 339.364 170.605 333.208C166.953 327.052 168.596 319.333 174.279 315.965C179.96 312.595 187.525 314.857 191.177 321.013Z" fill="#FAAD14"/>
<path d="M97.5373 276.999C97.9737 277.012 98.3176 277.376 98.3053 277.812L98.2363 280.955L98.2257 281.554C98.1187 287.815 98.1074 294.431 98.2538 300.622L98.3009 302.404C98.4977 309.122 98.8831 314.522 99.4881 318.154C100.176 322.272 102.814 329.268 106.903 338.284C107.617 339.86 108.37 341.482 109.156 343.145C111.321 347.725 113.642 352.404 115.963 356.93L117.135 359.202L119.02 362.8L119.108 362.98L135.911 413.062L135.948 413.391L134.518 427.926L135.761 428.169C136.116 428.237 136.493 428.306 136.892 428.378L137.506 428.488C140.512 429.02 143.996 429.551 147.915 430.047C174.675 433.436 204.964 433.452 236.167 427.887L237.438 427.656L237.545 423.612C237.625 420.964 237.745 417.326 237.899 412.841L238.513 395.502L239.048 380.912L239.147 380.558L239.53 379.847L240.142 378.673C240.315 378.336 240.495 377.981 240.68 377.611L240.963 377.043C242.33 374.282 243.697 371.286 244.972 368.165C246.786 363.728 248.26 359.408 249.275 355.352C250.257 351.429 250.779 347.861 250.779 344.731C250.779 336.898 249.74 330.886 247.408 324.684C246.241 321.579 244.742 318.374 242.582 314.282L241.507 312.28C240.055 309.618 237.251 304.563 235.628 301.64L234.392 299.414L234.295 299.063L233.795 285.829C233.779 285.393 234.119 285.026 234.556 285.01C234.943 284.995 235.276 285.262 235.357 285.628L235.375 285.77L235.867 298.814L242.344 310.517L243.536 312.707L244.411 314.366C246.372 318.127 247.774 321.165 248.888 324.128C251.289 330.512 252.361 336.712 252.361 344.731C252.361 348.004 251.82 351.697 250.809 355.735C249.774 359.872 248.276 364.261 246.436 368.763C245.33 371.47 244.156 374.082 242.972 376.533L242.38 377.744C242.09 378.331 241.811 378.883 241.548 379.395L240.62 381.157L239.327 417.363C239.137 423.058 239.027 426.799 239.014 428.099L239.013 428.317C239.013 428.697 238.741 429.024 238.367 429.094C206.313 435.039 175.173 435.092 147.717 431.616C144.166 431.166 140.968 430.687 138.154 430.205L137.231 430.045C136.593 429.932 136.005 429.824 135.466 429.722L133.492 429.327C133.15 429.252 132.904 428.963 132.875 428.625L132.875 428.478L134.357 413.402L117.661 363.604L116.806 361.988C116.127 360.696 115.37 359.24 114.555 357.651C112.228 353.111 109.9 348.417 107.726 343.82L106.568 341.346C106.379 340.939 106.193 340.535 106.009 340.133L105.463 338.937C101.317 329.796 98.6462 322.713 97.9285 318.414C97.2555 314.373 96.8533 308.277 96.6732 300.659C96.5471 295.331 96.5374 289.695 96.6048 284.239L96.6663 280.348L96.7248 277.767C96.7371 277.331 97.1008 276.987 97.5373 276.999Z" fill="#4E5C93"/>
<path fill-rule="evenodd" clip-rule="evenodd" d="M50.3555 426.365L49.6419 426.089C36.9532 421.163 30.661 406.888 35.5859 394.204L82.5745 273.213C87.5018 260.529 101.784 254.239 114.473 259.165L115.186 259.44C127.875 264.366 134.167 278.641 129.24 291.328L82.2538 412.313C77.3265 425 63.0442 431.291 50.3555 426.365Z" fill="#FFC999"/>
<path fill-rule="evenodd" clip-rule="evenodd" d="M134.165 439.602C111.654 441.364 45.2721 581.815 25.0879 632.665C27.7753 642.907 57.1454 662.729 57.1454 662.729C57.1454 662.729 55.3902 670.881 54.3063 675.779C73.516 691.572 110.667 700.151 110.667 700.151L110.749 707.157C170.148 734.5 249.689 708.296 249.689 708.296C249.689 708.296 251.173 706.777 250.109 701.282C277.078 700.969 334.826 666.765 334.826 666.765L326.617 649.843L350.369 625.54C350.369 625.54 286.229 507.587 266.487 474.593C249.155 445.631 232.899 437.29 232.899 437.29C232.899 437.29 174.106 436.475 134.165 439.602Z" fill="#137BC2"/>
<path fill-rule="evenodd" clip-rule="evenodd" d="M237.199 439.599L235.504 426.736C235.504 426.736 184.699 427.039 134.871 424.544C133.613 430.255 132.166 440.531 132.166 440.531C136.355 437.092 181.616 447.137 237.199 439.599Z" fill="#137BC2"/>
<path d="M235.347 464.685C235.794 464.466 236.324 464.611 236.602 465.004L236.685 465.144L334.712 665.335C334.92 665.76 334.803 666.272 334.43 666.563L333.815 667.03L332.812 667.766C332.567 667.943 332.307 668.129 332.032 668.324C330.074 669.714 327.771 671.26 325.136 672.925C317.614 677.676 308.94 682.426 299.228 686.859C284.131 693.749 267.93 699.224 250.818 702.758C250.277 702.87 249.748 702.522 249.636 701.981C249.524 701.44 249.872 700.91 250.414 700.799C267.372 697.297 283.43 691.869 298.397 685.039C308.023 680.645 316.619 675.939 324.067 671.234C326.381 669.771 328.435 668.403 330.218 667.155L331.267 666.413L332.551 665.474L234.888 466.023C234.669 465.577 234.814 465.047 235.207 464.768L235.347 464.685Z" fill="#253368"/>
<path d="M116.733 506.26C116.929 505.743 117.506 505.483 118.023 505.678C118.488 505.854 118.746 506.339 118.65 506.811L118.605 506.967L54.5419 676.384L55.5931 677.035L56.8674 677.802C57.9761 678.461 59.2008 679.166 60.5349 679.91C65.876 682.889 71.8611 685.868 78.3466 688.649C88.9167 693.181 99.7633 696.73 110.613 698.923C111.155 699.033 111.505 699.56 111.396 700.102C111.286 700.643 110.758 700.994 110.217 700.884C99.2218 698.662 88.2468 695.07 77.5577 690.488C71.0053 687.678 64.9588 684.668 59.56 681.658C57.939 680.754 56.4763 679.905 55.183 679.126L53.8405 678.306L52.7689 677.627C52.4207 677.399 52.255 676.983 52.3388 676.585L52.3821 676.438L116.733 506.26Z" fill="#253368"/>
<path d="M159.672 443.384L159.834 443.406C160.322 443.503 160.655 443.94 160.638 444.421L160.611 444.625L156.778 463.968C155.458 470.664 154.05 477.834 152.571 485.408L151.757 489.579C145.585 521.228 139.413 553.456 133.595 584.621L132.259 591.793C131.549 595.617 130.847 599.404 130.156 603.153L126.452 623.366C120.995 653.385 116.365 679.935 112.737 702.212L111.883 707.479L113.251 707.933C114.7 708.404 116.158 708.857 117.624 709.293L119.83 709.932C155.455 720.016 193.528 719.445 229.484 712.419C235.19 711.304 240.336 710.11 244.837 708.916L246.138 708.566C246.764 708.395 247.355 708.23 247.908 708.071L249.532 707.593L204.924 484.087C204.827 483.6 205.102 483.124 205.553 482.955L205.71 482.91C206.198 482.813 206.673 483.088 206.842 483.539L206.887 483.696L251.673 708.088C251.772 708.586 251.483 709.08 250.999 709.236L249.533 709.683L248.46 709.994C247.712 710.208 246.898 710.434 246.02 710.671L245.35 710.85C240.807 712.054 235.618 713.259 229.868 714.382C193.63 721.463 155.256 722.04 119.285 711.857C116.302 711.013 113.353 710.097 110.44 709.107C109.978 708.95 109.697 708.483 109.774 708.001L111.016 700.33C114.608 678.363 119.15 652.341 124.483 623.009L126.817 610.238C127.948 604.075 129.107 597.802 130.292 591.428C136.053 560.43 142.197 528.244 148.368 496.511L153.715 469.165L158.657 444.19C158.754 443.703 159.191 443.369 159.672 443.384Z" fill="#253368"/>
<path d="M183.679 447.239C184.175 447.213 184.608 447.552 184.712 448.022L184.734 448.183L195.26 634.805C195.291 635.357 194.869 635.829 194.317 635.862C193.821 635.888 193.388 635.549 193.284 635.079L193.262 634.918L182.736 448.296C182.705 447.744 183.127 447.272 183.679 447.239Z" fill="#253368"/>
<path d="M210.428 442.466C210.903 442.319 211.404 442.543 211.619 442.974L211.68 443.125L251.201 570.318C251.365 570.846 251.07 571.406 250.542 571.57C250.067 571.718 249.565 571.494 249.35 571.063L249.289 570.912L209.769 443.718C209.605 443.191 209.9 442.63 210.428 442.466Z" fill="#253368"/>
<path d="M137.516 439.531C159.94 440.579 181.708 441.051 201.088 441.049L207.699 441.03C214.529 440.989 220.561 440.886 225.166 440.743L227.357 440.667C228.025 440.641 228.629 440.615 229.161 440.589L230.232 440.531C230.589 440.509 230.883 440.488 231.108 440.468L231.376 440.439L231.491 440.395C231.638 440.349 231.797 440.337 231.955 440.364L232.113 440.405L232.241 440.42C232.482 440.464 232.509 440.62 232.715 441.792L232.305 442.221C232.18 442.339 232.143 442.342 232.053 442.348C231.976 442.371 231.893 442.388 231.794 442.403L231.63 442.425C231.492 442.442 231.316 442.459 231.103 442.476L230.354 442.528C229.393 442.587 228.039 442.647 226.379 442.705L222.935 442.807C218.41 442.924 212.823 443.006 206.625 443.036L205.525 443.041C185.029 443.121 161.607 442.66 137.422 441.529C136.87 441.503 136.444 441.035 136.469 440.483C136.495 439.932 136.964 439.505 137.516 439.531Z" fill="#253368"/>
<path fill-rule="evenodd" clip-rule="evenodd" d="M110.478 339.638L131.147 286.42C136.129 273.591 129.705 259.02 116.872 254.04C104.039 249.06 89.4634 255.479 84.4789 268.308L64.0088 321.022L110.478 339.638Z" fill="#1B98EE"/>
<path d="M189.789 259.983C190.226 259.983 190.58 260.336 190.58 260.773C190.58 261.161 190.3 261.483 189.931 261.55L189.789 261.563H147.382C146.946 261.563 146.592 261.209 146.592 260.773C146.592 260.385 146.871 260.062 147.24 259.995L147.382 259.983H189.789Z" fill="#4E5C93"/>
<path d="M131.082 286.397C131.24 285.99 131.699 285.788 132.106 285.946C132.467 286.087 132.667 286.464 132.596 286.832L132.556 286.969L111.887 340.185C111.746 340.549 111.364 340.749 110.994 340.674L110.856 340.632L64.3873 322.016C63.982 321.853 63.7852 321.393 63.9476 320.988C64.0919 320.628 64.4716 320.432 64.8388 320.508L64.9755 320.549L110.703 338.867L131.082 286.397Z" fill="#4E5C93"/>
<path fill-rule="evenodd" clip-rule="evenodd" d="M180.555 430.152L221.552 318.39C222.228 316.548 224.008 315.343 225.97 315.4L327.612 318.3C330.769 318.39 332.882 321.581 331.736 324.523L289.272 433.206C288.591 434.956 286.905 436.107 285.028 436.109L184.848 436.286C181.671 436.291 179.461 433.132 180.555 430.152Z" fill="#4E5C93"/>
<path fill-rule="evenodd" clip-rule="evenodd" d="M185.967 428.996L226.251 319.182C227.069 316.95 229.222 315.493 231.598 315.561L334.498 318.498C336.706 318.56 338.185 320.789 337.38 322.847L294.331 433.037C293.575 434.973 291.711 436.248 289.633 436.253L191.165 436.424C187.32 436.431 184.642 432.607 185.967 428.996Z" fill="#253368"/>
<path fill-rule="evenodd" clip-rule="evenodd" d="M239.886 326.654C240.982 327.981 240.475 330.21 238.75 331.632C237.027 333.056 234.742 333.133 233.646 331.806C232.55 330.479 233.057 328.25 234.78 326.828C236.505 325.404 238.79 325.327 239.886 326.654Z" fill="#4E5C93"/>
<path fill-rule="evenodd" clip-rule="evenodd" d="M238.466 327.933C239.035 328.622 238.771 329.78 237.876 330.518C236.981 331.256 235.793 331.298 235.226 330.61C234.657 329.919 234.92 328.761 235.815 328.023C236.708 327.285 237.896 327.245 238.466 327.933Z" fill="#FFC999"/>
<path fill-rule="evenodd" clip-rule="evenodd" d="M219.305 428.478C218.214 436.107 211.31 441.53 203.635 440.787L55.4773 426.43C41.906 424.66 32.3969 412.145 34.336 398.603C36.29 384.937 49.123 375.57 62.7365 377.864L208.356 412.406C215.616 414.128 220.361 421.096 219.305 428.478Z" fill="#FFC999"/>
<path fill-rule="evenodd" clip-rule="evenodd" d="M219.329 446.473C219.329 446.473 185.333 443.029 180.96 427.896C177 414.193 190.198 408.596 190.198 408.596C190.198 408.596 202.437 400.957 218.258 398.32C228.682 396.585 248.841 395.293 250.492 400.644C252.647 407.62 229.746 407.754 229.704 413.067C229.661 418.517 234.395 418.84 244.916 423.115C251.494 425.787 255.593 424.129 260.737 427.457C270.79 433.96 258.964 453.3 219.329 446.473Z" fill="#FFC999"/>
<path d="M178.892 160.795C179.378 160.753 179.812 161.071 179.929 161.529L179.998 161.963C180.023 162.092 180.059 162.257 180.109 162.455C180.284 163.149 180.562 163.956 180.968 164.864C182.145 167.501 184.113 170.394 187.062 173.448C187.452 173.851 187.425 174.497 187.003 174.866L185.727 175.973C183.866 177.572 182.243 178.898 180.855 179.973L179.873 180.719L178.859 181.452C178.834 181.469 178.812 181.484 178.794 181.496C178.344 181.798 177.734 181.678 177.433 181.228C177.131 180.778 177.251 180.169 177.701 179.868L178.172 179.536L178.703 179.146C178.893 179.003 179.098 178.849 179.316 178.682L179.653 178.422C180.864 177.485 182.262 176.349 183.847 175L184.944 174.058L184.533 173.61C182.212 171.025 180.542 168.537 179.425 166.2L179.177 165.663C178.397 163.917 178.068 162.613 178.001 161.858C177.954 161.319 178.353 160.843 178.892 160.795Z" fill="#DD936F"/>
<path d="M162.469 220.157C162.65 219.647 163.21 219.379 163.721 219.56C170.229 221.86 176.703 222.503 182.952 221.592C183.488 221.513 183.986 221.884 184.064 222.42C184.142 222.956 183.771 223.454 183.235 223.532C176.67 224.49 169.874 223.814 163.067 221.408C162.557 221.228 162.289 220.668 162.469 220.157Z" fill="#DD936F"/>
<path d="M415.97 186.86C416.363 187.234 416.378 187.854 416.005 188.247L415.551 188.736L414.97 189.38C414.767 189.608 414.555 189.849 414.335 190.102C413.075 191.552 411.816 193.101 410.642 194.684C409.479 196.253 408.465 197.771 407.642 199.203C404.836 204.086 404.603 207.205 407.271 208.317C407.771 208.526 408.008 209.1 407.799 209.599C407.591 210.099 407.016 210.335 406.517 210.127C402.293 208.366 402.618 204.009 405.941 198.227C406.806 196.722 407.861 195.143 409.066 193.517C410.272 191.889 411.563 190.301 412.854 188.816L413.812 187.734L414.584 186.895C414.957 186.503 415.578 186.487 415.97 186.86Z" fill="#DD936F"/>
<path d="M419.768 198.933C420.097 199.363 420.016 199.978 419.586 200.308L419.108 200.684L418.497 201.179C418.283 201.355 418.06 201.541 417.828 201.736C416.501 202.853 415.175 204.051 413.941 205.279C412.626 206.586 411.495 207.851 410.602 209.038C408.223 212.202 407.852 214.287 409.553 215.33C410.262 215.764 411.059 215.861 411.979 215.647C413.324 215.334 414.843 214.376 416.396 212.972C417.101 212.335 417.765 211.649 418.366 210.964L418.824 210.427C418.949 210.275 419.046 210.153 419.112 210.067C419.44 209.636 420.055 209.553 420.486 209.881C420.917 210.209 421 210.824 420.672 211.255L420.344 211.666C420.204 211.835 420.036 212.034 419.841 212.256C419.193 212.995 418.478 213.734 417.712 214.426C415.934 216.034 414.159 217.153 412.424 217.556C411.027 217.882 409.703 217.722 408.528 217.002C405.464 215.124 406.051 211.828 409.034 207.86C409.989 206.589 411.181 205.258 412.557 203.889C413.834 202.619 415.199 201.386 416.564 200.237L417.253 199.663L418.393 198.752C418.823 198.422 419.438 198.503 419.768 198.933Z" fill="#DD936F"/>
<path d="M422.195 208.602C422.73 208.517 423.232 208.882 423.317 209.417C423.401 209.952 423.036 210.454 422.501 210.538C421.189 210.746 419.512 211.93 417.507 214.291C413.292 219.247 412.419 222.436 413.673 223.169C414.969 223.927 418.047 222.525 420.025 219.697C420.723 218.699 422.255 219.616 421.704 220.702C419.241 225.561 416.354 228.948 412.764 231.582L411.868 232.217C410.365 233.26 409.815 233.557 405.665 235.745L404.696 236.269C399.065 239.384 396.792 242.12 395.491 248.602C395.384 249.133 394.867 249.477 394.336 249.37C393.805 249.264 393.461 248.747 393.568 248.216C395.037 240.899 397.789 237.765 404.246 234.28L408.034 232.265C409.478 231.478 409.985 231.142 411.096 230.365C413.245 228.862 415.126 227.096 416.814 224.885L416.88 224.794L416.639 224.893C415.278 225.41 413.955 225.479 412.917 224.985L412.682 224.861C409.886 223.226 411.098 218.8 416.012 213.021C418.293 210.337 420.332 208.896 422.195 208.602Z" fill="#DD936F"/>
<path d="M395.576 196.503C396.062 196.463 396.494 196.784 396.609 197.242L396.635 197.399L397.824 211.757L398.192 212.408L398.464 212.915C399.027 213.981 399.589 215.168 400.114 216.447C401.638 220.161 402.548 223.888 402.528 227.402C402.513 230.145 401.923 232.647 400.673 234.837C400.405 235.307 399.806 235.471 399.335 235.202C398.865 234.934 398.701 234.335 398.97 233.865C400.041 231.988 400.554 229.815 400.567 227.392C400.585 224.173 399.733 220.686 398.299 217.191C397.9 216.217 397.477 215.298 397.05 214.451L396.73 213.83C396.411 213.226 396.166 212.8 396.03 212.58C395.977 212.493 395.937 212.397 395.913 212.298L395.888 212.147L394.68 197.561C394.635 197.021 395.036 196.548 395.576 196.503Z" fill="#DD936F"/>
<path d="M230.831 426.977C231.155 426.543 231.769 426.453 232.203 426.776L232.456 426.955C232.761 427.164 233.224 427.458 233.84 427.815C235.225 428.617 236.86 429.422 238.735 430.174C245.212 432.773 252.8 434.103 261.371 433.474C261.911 433.434 262.381 433.84 262.421 434.38C262.46 434.92 262.054 435.39 261.514 435.429C252.632 436.081 244.748 434.7 238.004 431.994C236.04 431.206 234.32 430.36 232.856 429.511C232.469 429.287 232.12 429.074 231.81 428.876L231.513 428.682C231.28 428.528 231.119 428.414 231.031 428.349C230.597 428.025 230.507 427.411 230.831 426.977Z" fill="#DD936F"/>
<path d="M225.804 435.514C226.033 435.024 226.617 434.812 227.108 435.042C227.596 435.27 228.091 435.49 228.591 435.701C236.119 438.877 243.989 439.846 250.616 439.57L251.375 439.532C251.813 439.508 252.114 439.483 252.264 439.468C252.802 439.411 253.285 439.803 253.341 440.341C253.397 440.88 253.005 441.362 252.467 441.418L251.909 441.464C251.784 441.472 251.643 441.481 251.487 441.49C244.433 441.89 235.967 440.941 227.828 437.507C227.305 437.287 226.788 437.057 226.276 436.818C225.785 436.588 225.574 436.004 225.804 435.514Z" fill="#DD936F"/>
<path d="M217.371 440.379C217.65 439.915 218.253 439.765 218.717 440.044L218.94 440.17C219.213 440.317 219.64 440.526 220.223 440.782C221.545 441.361 223.161 441.942 225.08 442.487C229.311 443.688 234.371 444.531 240.294 444.853C240.834 444.883 241.249 445.345 241.219 445.886C241.19 446.426 240.728 446.841 240.187 446.811C234.119 446.481 228.916 445.614 224.545 444.373C222.539 443.804 220.839 443.192 219.436 442.578C218.58 442.203 218.006 441.905 217.705 441.724C217.241 441.445 217.092 440.843 217.371 440.379Z" fill="#DD936F"/>
</g>
<g opacity="0.25">
<path d="M449.232 262.87C449.232 268.424 453.735 272.927 459.289 272.927C464.843 272.927 469.346 268.424 469.346 262.87C469.346 257.316 464.843 252.813 459.289 252.813C453.735 252.813 449.232 257.316 449.232 262.87Z" fill="#597EF7"/>
</g>
<g opacity="0.25">
<path d="M456.854 300.697C456.854 303.912 459.46 306.519 462.676 306.519C465.891 306.519 468.498 303.912 468.498 300.697C468.498 297.481 465.891 294.874 462.676 294.874C459.46 294.874 456.854 297.481 456.854 300.697Z" fill="#597EF7"/>
</g>
<g opacity="0.25">
<path d="M413.487 293.533L413.487 293.18C413.487 289.867 416.173 287.182 419.486 287.182C422.799 287.182 425.485 289.867 425.485 293.18V293.533C425.485 296.846 422.799 299.532 419.486 299.532C416.173 299.532 413.487 296.846 413.487 293.533Z" fill="#597EF7"/>
</g>
</g>
<defs>
<clipPath id="clip0">
<rect width="547" height="504" fill="white"/>
</clipPath>
<clipPath id="clip1">
<rect width="256.885" height="256.885" fill="white" transform="translate(308.827 279.525)"/>
</clipPath>
<clipPath id="clip2">
<rect width="127.777" height="127.777" fill="white" transform="translate(455.305 287.051) rotate(30)"/>
</clipPath>
<clipPath id="clip3">
<rect width="274.952" height="274.952" fill="white" transform="translate(282.292 0.0566406)"/>
</clipPath>
<clipPath id="clip4">
<rect width="639.673" height="570.229" fill="white" transform="translate(0 -66)"/>
</clipPath>
</defs>
</svg>
