<svg width="580" height="549" viewBox="0 0 580 549" fill="none" xmlns="http://www.w3.org/2000/svg">
<g style="mix-blend-mode:multiply">
<rect width="142.841" height="40.7345" transform="matrix(0.867518 0.497405 -0.867518 0.497405 353.552 423.299)" fill="#EFEAE8"/>
</g>
<rect width="404.129" height="221.485" transform="matrix(0.867518 0.497405 -0.867518 0.497405 228.072 237)" stroke="black" stroke-width="2" stroke-linejoin="bevel"/>
<rect width="196.679" height="221.485" transform="matrix(0.867518 0.497405 -0.867518 0.497405 228.071 237)" stroke="black" stroke-width="2" stroke-linejoin="bevel"/>
<g style="mix-blend-mode:multiply">
<rect width="111.312" height="40.7345" transform="matrix(0.867518 0.497405 -0.867518 0.497405 427.088 333.129)" fill="#EFEAE8"/>
</g>
<g style="mix-blend-mode:multiply">
<rect width="269.987" height="22.834" rx="8.29015" transform="matrix(0.867518 0.497405 -0.867518 0.497405 168.816 310.019)" fill="#EFEAE8"/>
</g>
<g style="mix-blend-mode:multiply">
<rect width="97.6205" height="97.7673" rx="8.29015" transform="matrix(0.867518 0.497405 -0.867518 0.497405 277.066 368.396)" fill="#EFEAE8"/>
</g>
<rect width="95.2333" height="95.2333" transform="matrix(-0.867589 0.497282 0.867589 0.497282 274.981 310.052)" fill="#FCF9F4" stroke="black" stroke-width="1.65803" stroke-linejoin="bevel"/>
<path d="M281.548 401.155L281.492 436.044L357.549 392.297L357.604 357.408L281.548 401.155Z" fill="#FFF3EC" stroke="black" stroke-width="1.65803" stroke-linejoin="bevel"/>
<path d="M268.079 400.964L268.135 435.99L192.416 392.437L192.36 357.411L268.079 400.964Z" fill="#EFEAE8" stroke="black" stroke-width="1.65803" stroke-linejoin="bevel"/>
<path d="M202.724 363.37L202.772 398.404L192.409 392.444L192.361 357.411L202.724 363.37Z" fill="#FCF9F4" stroke="black" stroke-width="1.65803" stroke-linejoin="bevel"/>
<path d="M281.545 400.994C279.408 401.908 277.108 402.379 274.783 402.379C272.458 402.379 270.158 401.908 268.021 400.994V435.896C270.159 436.805 272.459 437.273 274.783 437.273C277.107 437.273 279.407 436.805 281.545 435.896V400.994Z" fill="#FCF9F4" stroke="black" stroke-width="1.65803"/>
<path d="M274.822 359.951C272.196 359.951 270.067 358.685 270.067 357.123C270.067 355.56 272.196 354.294 274.822 354.294C277.448 354.294 279.576 355.56 279.576 357.123C279.576 358.685 277.448 359.951 274.822 359.951Z" fill="#FCF9F4" stroke="black" stroke-width="1.65803"/>
<rect width="106.011" height="22.6554" transform="matrix(0.867518 0.497405 -0.867518 0.497405 433.43 117.543)" fill="#FCF9F4" stroke="black" stroke-width="2" stroke-linejoin="bevel"/>
<path d="M505.065 181.792L505.236 293.773L413.55 241.021L413.379 129.04L505.065 181.792Z" fill="#FCF9F4" stroke="black" stroke-width="2" stroke-linejoin="bevel"/>
<path d="M505.42 181.745L505.249 293.749L525.198 282.27L525.369 170.266L505.42 181.745Z" fill="#FFF3EC" stroke="black" stroke-width="2" stroke-linejoin="bevel"/>
<rect width="85.7794" height="39.1601" rx="19.5801" transform="matrix(0.866006 0.500033 3.76492e-05 1 419.14 167.614)" fill="#FCF9F4" stroke="black" stroke-width="2"/>
<circle cx="15.8505" cy="15.8505" r="15.8505" transform="matrix(0.866006 0.500033 3.76549e-05 1 460.929 196)" fill="#ED914A" stroke="black" stroke-width="2"/>
<rect width="299.032" height="26.3217" transform="matrix(0.867518 0.497405 -0.867518 0.497405 174.753 79.0122)" fill="#FCF9F4" stroke="black" stroke-width="1.65803" stroke-linejoin="bevel"/>
<path d="M410.362 240.798L410.695 458.829L152.25 310.132L151.917 92.1012L410.362 240.798Z" fill="#EFEAE8" stroke="black" stroke-width="2" stroke-linejoin="bevel"/>
<path d="M410.425 281.914L410.637 420.471L152.192 271.775L151.98 133.218L410.425 281.914Z" fill="#EFEAE8" stroke="black" stroke-width="2" stroke-linejoin="bevel"/>
<path d="M410.425 281.914L410.637 420.471L345.55 383.024L345.338 244.467L410.425 281.914Z" fill="#EFEAE8" stroke="black" stroke-width="2" stroke-linejoin="bevel"/>
<path d="M371.736 282.248L371.771 304.682L353.959 294.434L353.925 272L371.736 282.248Z" fill="#EFEAE8" stroke="black" stroke-width="2" stroke-linejoin="bevel"/>
<path d="M371.736 319.248L371.771 341.682L353.959 331.434L353.925 309L371.736 319.248Z" fill="#EFEAE8" stroke="black" stroke-width="2" stroke-linejoin="bevel"/>
<path d="M410.662 436.885L410.696 458.829L152.251 310.133L152.218 288.189L410.662 436.885Z" stroke="black" stroke-width="2" stroke-linejoin="bevel"/>
<path d="M403.925 307.926L376.672 292.49" stroke="black" stroke-width="2" stroke-linejoin="bevel"/>
<path d="M403.925 344.926L376.672 329.49" stroke="black" stroke-width="2" stroke-linejoin="bevel"/>
<path d="M403.925 314.678L376.672 299.243" stroke="black" stroke-width="2" stroke-linejoin="bevel"/>
<path d="M403.925 351.678L376.672 336.243" stroke="black" stroke-width="2" stroke-linejoin="bevel"/>
<path d="M166.668 128.367C169.022 129.726 170.931 128.624 170.931 125.906C170.93 123.188 169.022 119.882 166.668 118.523C164.314 117.164 162.406 118.266 162.406 120.984C162.406 123.702 164.315 127.007 166.668 128.367Z" fill="black"/>
<path d="M184.033 138.393C186.387 139.752 188.295 138.65 188.295 135.932C188.295 133.214 186.387 129.909 184.033 128.549C181.679 127.19 179.77 128.292 179.77 131.01C179.771 133.728 181.679 137.034 184.033 138.393Z" fill="black"/>
<path d="M201.398 148.42C203.752 149.779 205.66 148.677 205.66 145.959C205.66 143.241 203.751 139.935 201.397 138.576C199.043 137.217 197.135 138.319 197.135 141.037C197.135 143.755 199.044 147.06 201.398 148.42Z" fill="black"/>
<path d="M192.401 262.356L192.421 275.217L170.945 262.86L170.925 250L192.401 262.356Z" fill="#EFEAE8" stroke="black" stroke-width="2" stroke-linejoin="bevel"/>
<path d="M221.491 268.605L221.527 291.66L200.051 279.304L200.015 256.249L221.491 268.605Z" fill="#EFEAE8" stroke="black" stroke-width="2" stroke-linejoin="bevel"/>
<path d="M250.576 271.177L250.633 308.608L229.157 296.252L229.1 258.82L250.576 271.177Z" fill="#EFEAE8" stroke="black" stroke-width="2" stroke-linejoin="bevel"/>
<path d="M279.661 273.685L279.74 325.351L258.263 312.995L258.184 261.328L279.661 273.685Z" fill="#EFEAE8" stroke="black" stroke-width="2" stroke-linejoin="bevel"/>
<path d="M308.743 276.113L308.844 342.075L287.368 329.719L287.267 263.757L308.743 276.113Z" fill="#EFEAE8" stroke="black" stroke-width="2" stroke-linejoin="bevel"/>
<path d="M185.489 271.253C207.826 285.719 266.795 306.481 323.977 273.806" stroke="black" stroke-width="1.65803"/>
<path d="M328.444 280.188L320.786 268.062H334.826L328.444 280.188Z" fill="black" stroke="black" stroke-width="1.65803"/>
<circle cx="181.023" cy="268.062" r="4.91469" fill="black" stroke="black" stroke-width="1.65803"/>
<rect width="64.0972" height="19.8762" transform="matrix(0.867518 0.497405 -0.867518 0.497405 128.244 156.63)" fill="#FCF9F4" stroke="black" stroke-width="1.65803" stroke-linejoin="bevel"/>
<path d="M165.874 198.364L165.978 266.432L110.865 234.723L110.761 166.655L165.874 198.364Z" fill="#FCF9F4" stroke="black" stroke-width="2" stroke-linejoin="bevel"/>
<path d="M166.412 198.753L166.309 266.243L183.745 256.209L183.849 188.719L166.412 198.753Z" fill="#FFF3EC" stroke="black" stroke-width="1.65803" stroke-linejoin="bevel"/>
<path d="M138.808 220.542L140.515 221.49L140.286 219.55L138.178 201.694C142.545 204.023 147.029 208.549 150.3 214.63L150.301 214.631C153.216 220.035 154.515 225.487 154.315 229.902C154.113 234.34 152.427 237.523 149.603 238.833C146.747 240.157 142.935 239.487 138.957 236.955C135.01 234.443 131.088 230.199 128.178 224.803L128.174 224.795L128.169 224.787C126.031 220.994 124.711 216.802 124.287 212.481L138.808 220.542Z" stroke="black" stroke-width="2"/>
<path d="M130.346 191.619L132.315 208.848L118.4 201.123C118.464 196.401 120.153 192.987 123.152 191.556C124.378 191.069 125.692 190.842 127.01 190.889C128.159 190.93 129.289 191.178 130.346 191.619Z" stroke="black" stroke-width="2"/>
<path d="M411.075 241.314L410.743 458.789L433.835 445.501L434.167 228.026L411.075 241.314Z" fill="#FFF3EC" stroke="black" stroke-width="2" stroke-linejoin="bevel"/>
<rect width="152.945" height="19.8762" transform="matrix(0.867518 0.497405 -0.867518 0.497405 332.975 343.339)" fill="#FCF9F4" stroke="black" stroke-width="2" stroke-linejoin="bevel"/>
<path d="M447.679 429.266L447.783 497.334L315.762 421.375L315.658 353.307L447.679 429.266Z" fill="#FCF9F4" stroke="black" stroke-width="2" stroke-linejoin="bevel"/>
<path d="M428.557 445.48L372.057 413.48" stroke="black" stroke-width="2" stroke-linejoin="bevel"/>
<path d="M428.557 459.48L372.057 427.48" stroke="black" stroke-width="2" stroke-linejoin="bevel"/>
<path d="M360.057 392.064L359.949 434L323.057 412.936L323.187 371L360.057 392.064Z" fill="#ED914A"/>
<path d="M448.219 429.655L448.116 497.144L465.553 487.11L465.656 419.621L448.219 429.655Z" fill="#FFF3EC" stroke="black" stroke-width="2" stroke-linejoin="bevel"/>
<g style="mix-blend-mode:multiply">
<rect width="61.9261" height="56.9665" transform="matrix(0.867295 0.497795 -0.867295 0.497795 73.5529 354.282)" fill="#EFEAE8"/>
</g>
<rect width="73.9978" height="73.9978" transform="matrix(-0.867365 0.497672 0.867365 0.497672 76.9473 300)" fill="#FCF9F4" stroke="black" stroke-width="2" stroke-linejoin="bevel"/>
<rect width="37.975" height="37.975" transform="matrix(-0.867365 0.497672 0.867365 0.497672 76.9471 317.928)" fill="#EFEAE8" stroke="black" stroke-width="2" stroke-linejoin="bevel"/>
<path d="M43.8193 336.698L76.9475 317.933L109.951 336.698L106.253 338.986L76.9475 322.172L47.6418 338.986L43.8193 336.698Z" fill="black" stroke="black" stroke-width="2" stroke-linejoin="bevel"/>
<path d="M82.0418 370.838L82.0045 397.975L141.093 363.962L141.13 336.825L82.0418 370.838Z" fill="#FFF3EC" stroke="black" stroke-width="2" stroke-linejoin="bevel"/>
<path d="M71.5916 370.689L71.629 397.932L12.8032 364.07L12.7659 336.827L71.5916 370.689Z" fill="#FCF9F4" stroke="black" stroke-width="2" stroke-linejoin="bevel"/>
<path d="M20.8166 341.462L20.854 368.705L12.8035 364.071L12.7661 336.828L20.8166 341.462Z" fill="#FCF9F4" stroke="black" stroke-width="2" stroke-linejoin="bevel"/>
<path d="M82.0454 370.719C80.3854 371.43 78.5984 371.796 76.7926 371.796C74.9868 371.796 73.1998 371.43 71.5398 370.719V397.86C73.2009 398.567 74.9875 398.931 76.7926 398.931C78.5977 398.931 80.3843 398.567 82.0454 397.86V370.719Z" fill="#FCF9F4" stroke="black" stroke-width="2"/>
<path d="M76.8228 338.803C74.783 338.803 73.1294 337.818 73.1294 336.604C73.1294 335.389 74.783 334.404 76.8228 334.404C78.8626 334.404 80.5162 335.389 80.5162 336.604C80.5162 337.818 78.8626 338.803 76.8228 338.803Z" fill="#FCF9F4" stroke="black" stroke-width="2"/>
</svg>
