<svg width="133" height="133" viewBox="0 0 133 133" fill="none" xmlns="http://www.w3.org/2000/svg">
<path d="M39.6289 73.7559C39.6289 73.4355 39.5391 73.1816 39.3594 72.9941C39.1836 72.8027 38.8828 72.627 38.457 72.4668C38.0312 72.3066 37.6641 72.1484 37.3555 71.9922C37.0469 71.832 36.7812 71.6504 36.5586 71.4473C36.3398 71.2402 36.168 70.998 36.043 70.7207C35.9219 70.4434 35.8613 70.1133 35.8613 69.7305C35.8613 69.0703 36.0723 68.5293 36.4941 68.1074C36.916 67.6855 37.4766 67.4395 38.1758 67.3691V66.1152H39.1133V67.3867C39.8047 67.4844 40.3457 67.7734 40.7363 68.2539C41.127 68.7305 41.3223 69.3496 41.3223 70.1113H39.6289C39.6289 69.6426 39.5312 69.293 39.3359 69.0625C39.1445 68.8281 38.8867 68.7109 38.5625 68.7109C38.2422 68.7109 37.9941 68.8027 37.8184 68.9863C37.6426 69.166 37.5547 69.416 37.5547 69.7363C37.5547 70.0332 37.6406 70.2715 37.8125 70.4512C37.9844 70.6309 38.3027 70.8145 38.7676 71.002C39.2363 71.1895 39.6211 71.3672 39.9219 71.5352C40.2227 71.6992 40.4766 71.8867 40.6836 72.0977C40.8906 72.3047 41.0488 72.543 41.1582 72.8125C41.2676 73.0781 41.3223 73.3887 41.3223 73.7441C41.3223 74.4082 41.1152 74.9473 40.7012 75.3613C40.2871 75.7754 39.7168 76.0195 38.9902 76.0938V77.2598H38.0586V76.0996C37.2578 76.0137 36.6367 75.7305 36.1953 75.25C35.7578 74.7656 35.5391 74.123 35.5391 73.3223H37.2324C37.2324 73.7871 37.3418 74.1445 37.5605 74.3945C37.7832 74.6406 38.1016 74.7637 38.5156 74.7637C38.8594 74.7637 39.1309 74.6738 39.3301 74.4941C39.5293 74.3105 39.6289 74.0645 39.6289 73.7559ZM46.584 76H44.8906V69.4727L42.8691 70.0996V68.7227L46.4023 67.457H46.584V76ZM54.3711 72.7891H55.3379V74.1543H54.3711V76H52.6777V74.1543H49.1797L49.1035 73.0879L52.6602 67.4688H54.3711V72.7891ZM50.791 72.7891H52.6777V69.7773L52.5664 69.9707L50.791 72.7891ZM56.7617 78.1387L55.877 77.6758L56.0879 77.2949C56.3496 76.8184 56.4844 76.3438 56.4922 75.8711V74.5586H57.9219L57.916 75.7305C57.9121 76.1641 57.8027 76.6016 57.5879 77.043C57.373 77.4844 57.0977 77.8496 56.7617 78.1387ZM64.9824 68.418L61.6836 76H59.8965L63.2012 68.8398H58.959V67.4688H64.9824V68.418ZM71.8145 72.4727C71.8145 73.6523 71.5703 74.5547 71.082 75.1797C70.5938 75.8047 69.8789 76.1172 68.9375 76.1172C68.0078 76.1172 67.2969 75.8105 66.8047 75.1973C66.3125 74.584 66.0605 73.7051 66.0488 72.5605V70.9902C66.0488 69.7988 66.2949 68.8945 66.7871 68.2773C67.2832 67.6602 67.9961 67.3516 68.9258 67.3516C69.8555 67.3516 70.5664 67.6582 71.0586 68.2715C71.5508 68.8809 71.8027 69.7578 71.8145 70.9023V72.4727ZM70.1211 70.75C70.1211 70.043 70.0234 69.5293 69.8281 69.209C69.6367 68.8848 69.3359 68.7227 68.9258 68.7227C68.5273 68.7227 68.2324 68.877 68.041 69.1855C67.8535 69.4902 67.7539 69.9688 67.7422 70.6211V72.6953C67.7422 73.3906 67.8359 73.9082 68.0234 74.248C68.2148 74.584 68.5195 74.752 68.9375 74.752C69.3516 74.752 69.6504 74.5898 69.834 74.2656C70.0176 73.9414 70.1133 73.4453 70.1211 72.7773V70.75ZM73.2148 71.8047L73.707 67.4688H78.4883V68.8809H75.0957L74.8848 70.7148C75.2871 70.5 75.7148 70.3926 76.168 70.3926C76.9805 70.3926 77.6172 70.6445 78.0781 71.1484C78.5391 71.6523 78.7695 72.3574 78.7695 73.2637C78.7695 73.8145 78.6523 74.3086 78.418 74.7461C78.1875 75.1797 77.8555 75.5176 77.4219 75.7598C76.9883 75.998 76.4766 76.1172 75.8867 76.1172C75.3711 76.1172 74.8926 76.0137 74.4512 75.8066C74.0098 75.5957 73.6602 75.3008 73.4023 74.9219C73.1484 74.543 73.0137 74.1113 72.998 73.627H74.6738C74.709 73.9824 74.832 74.2598 75.043 74.459C75.2578 74.6543 75.5371 74.752 75.8809 74.752C76.2637 74.752 76.5586 74.6152 76.7656 74.3418C76.9727 74.0645 77.0762 73.6738 77.0762 73.1699C77.0762 72.6855 76.957 72.3145 76.7188 72.0566C76.4805 71.7988 76.1426 71.6699 75.7051 71.6699C75.3027 71.6699 74.9766 71.7754 74.7266 71.9863L74.5625 72.1387L73.2148 71.8047ZM80.0117 75.168C80.0117 74.8984 80.1016 74.6797 80.2812 74.5117C80.4648 74.3438 80.6934 74.2598 80.9668 74.2598C81.2441 74.2598 81.4727 74.3438 81.6523 74.5117C81.8359 74.6797 81.9277 74.8984 81.9277 75.168C81.9277 75.4336 81.8379 75.6504 81.6582 75.8184C81.4785 75.9824 81.248 76.0645 80.9668 76.0645C80.6895 76.0645 80.4609 75.9824 80.2812 75.8184C80.1016 75.6504 80.0117 75.4336 80.0117 75.168ZM83.5977 71.8047L84.0898 67.4688H88.8711V68.8809H85.4785L85.2676 70.7148C85.6699 70.5 86.0977 70.3926 86.5508 70.3926C87.3633 70.3926 88 70.6445 88.4609 71.1484C88.9219 71.6523 89.1523 72.3574 89.1523 73.2637C89.1523 73.8145 89.0352 74.3086 88.8008 74.7461C88.5703 75.1797 88.2383 75.5176 87.8047 75.7598C87.3711 75.998 86.8594 76.1172 86.2695 76.1172C85.7539 76.1172 85.2754 76.0137 84.834 75.8066C84.3926 75.5957 84.043 75.3008 83.7852 74.9219C83.5312 74.543 83.3965 74.1113 83.3809 73.627H85.0566C85.0918 73.9824 85.2148 74.2598 85.4258 74.459C85.6406 74.6543 85.9199 74.752 86.2637 74.752C86.6465 74.752 86.9414 74.6152 87.1484 74.3418C87.3555 74.0645 87.459 73.6738 87.459 73.1699C87.459 72.6855 87.3398 72.3145 87.1016 72.0566C86.8633 71.7988 86.5254 71.6699 86.0879 71.6699C85.6855 71.6699 85.3594 71.7754 85.1094 71.9863L84.9453 72.1387L83.5977 71.8047ZM95.9785 72.4727C95.9785 73.6523 95.7344 74.5547 95.2461 75.1797C94.7578 75.8047 94.043 76.1172 93.1016 76.1172C92.1719 76.1172 91.4609 75.8105 90.9688 75.1973C90.4766 74.584 90.2246 73.7051 90.2129 72.5605V70.9902C90.2129 69.7988 90.459 68.8945 90.9512 68.2773C91.4473 67.6602 92.1602 67.3516 93.0898 67.3516C94.0195 67.3516 94.7305 67.6582 95.2227 68.2715C95.7148 68.8809 95.9668 69.7578 95.9785 70.9023V72.4727ZM94.2852 70.75C94.2852 70.043 94.1875 69.5293 93.9922 69.209C93.8008 68.8848 93.5 68.7227 93.0898 68.7227C92.6914 68.7227 92.3965 68.877 92.2051 69.1855C92.0176 69.4902 91.918 69.9688 91.9062 70.6211V72.6953C91.9062 73.3906 92 73.9082 92.1875 74.248C92.3789 74.584 92.6836 74.752 93.1016 74.752C93.5156 74.752 93.8145 74.5898 93.998 74.2656C94.1816 73.9414 94.2773 73.4453 94.2852 72.7773V70.75Z" fill="black"/>
<path d="M42.5127 58.5635H40.9131V63H40.2603V58.5635H38.6641V58.0234H42.5127V58.5635ZM42.6426 61.1167C42.6426 60.7544 42.7132 60.4285 42.8545 60.1392C42.998 59.8498 43.1963 59.6265 43.4492 59.4692C43.7044 59.312 43.995 59.2334 44.3208 59.2334C44.8244 59.2334 45.2311 59.4077 45.541 59.7563C45.8532 60.105 46.0093 60.5687 46.0093 61.1475V61.1919C46.0093 61.5519 45.9398 61.8755 45.8008 62.1626C45.6641 62.4474 45.467 62.6696 45.2095 62.8291C44.9543 62.9886 44.6603 63.0684 44.3276 63.0684C43.8263 63.0684 43.4196 62.894 43.1074 62.5454C42.7975 62.1968 42.6426 61.7354 42.6426 61.1611V61.1167ZM43.2783 61.1919C43.2783 61.6021 43.3729 61.9313 43.562 62.1797C43.7534 62.4281 44.0086 62.5522 44.3276 62.5522C44.6489 62.5522 44.9041 62.4269 45.0933 62.1763C45.2824 61.9233 45.377 61.5701 45.377 61.1167C45.377 60.7111 45.2801 60.383 45.0864 60.1323C44.895 59.8794 44.6398 59.7529 44.3208 59.7529C44.0086 59.7529 43.7568 59.8771 43.5654 60.1255C43.374 60.3739 43.2783 60.7293 43.2783 61.1919ZM47.6602 58.4062V59.3018H48.3506V59.7905H47.6602V62.084C47.6602 62.2321 47.6909 62.3438 47.7524 62.4189C47.814 62.4919 47.9188 62.5283 48.0669 62.5283C48.1398 62.5283 48.2401 62.5146 48.3677 62.4873V63C48.2013 63.0456 48.0396 63.0684 47.8823 63.0684C47.5998 63.0684 47.3867 62.9829 47.2432 62.812C47.0996 62.6411 47.0278 62.3984 47.0278 62.084V59.7905H46.3545V59.3018H47.0278V58.4062H47.6602ZM51.3755 63C51.339 62.9271 51.3094 62.7972 51.2866 62.6104C50.9927 62.9157 50.6418 63.0684 50.2339 63.0684C49.8693 63.0684 49.5697 62.9658 49.335 62.7607C49.1025 62.5534 48.9863 62.2913 48.9863 61.9746C48.9863 61.5895 49.1322 61.291 49.4238 61.0791C49.7178 60.8649 50.1302 60.7578 50.6611 60.7578H51.2764V60.4673C51.2764 60.2463 51.2103 60.0708 51.0781 59.9409C50.946 59.8088 50.7511 59.7427 50.4937 59.7427C50.2681 59.7427 50.0789 59.7996 49.9263 59.9136C49.7736 60.0275 49.6973 60.1654 49.6973 60.3271H49.0615C49.0615 60.1426 49.1265 59.9648 49.2563 59.7939C49.3885 59.6208 49.5662 59.484 49.7896 59.3838C50.0151 59.2835 50.2624 59.2334 50.5312 59.2334C50.9574 59.2334 51.2912 59.3405 51.5327 59.5547C51.7743 59.7666 51.8996 60.0594 51.9087 60.4331V62.1353C51.9087 62.4748 51.952 62.7448 52.0386 62.9453V63H51.3755ZM50.3262 62.5181C50.5244 62.5181 50.7124 62.4668 50.8901 62.3643C51.0679 62.2617 51.1966 62.1284 51.2764 61.9644V61.2056H50.7808C50.006 61.2056 49.6187 61.4323 49.6187 61.8857C49.6187 62.084 49.6847 62.2389 49.8169 62.3506C49.9491 62.4622 50.1188 62.5181 50.3262 62.5181ZM53.5869 63H52.9546V57.75H53.5869V63ZM59.4692 61.1919C59.4692 61.757 59.3394 62.2116 59.0796 62.5557C58.8198 62.8975 58.4712 63.0684 58.0337 63.0684C57.5666 63.0684 57.2054 62.9032 56.9502 62.5728L56.9194 63H56.3384V57.75H56.9707V59.7085C57.2259 59.3918 57.578 59.2334 58.0269 59.2334C58.4757 59.2334 58.8278 59.4032 59.083 59.7427C59.3405 60.0822 59.4692 60.547 59.4692 61.1372V61.1919ZM58.8369 61.1201C58.8369 60.6895 58.7537 60.3568 58.5874 60.1221C58.4211 59.8874 58.1818 59.77 57.8696 59.77C57.4526 59.77 57.153 59.9637 56.9707 60.3511V61.9507C57.1644 62.3381 57.4663 62.5317 57.8765 62.5317C58.1795 62.5317 58.4154 62.4144 58.584 62.1797C58.7526 61.945 58.8369 61.5918 58.8369 61.1201ZM61.8037 63.0684C61.3024 63.0684 60.8945 62.9043 60.5801 62.5762C60.2656 62.2458 60.1084 61.8049 60.1084 61.2534V61.1372C60.1084 60.7703 60.1779 60.4434 60.3169 60.1562C60.4582 59.8669 60.6541 59.6413 60.9048 59.4795C61.1577 59.3154 61.4312 59.2334 61.7251 59.2334C62.2059 59.2334 62.5796 59.3918 62.8462 59.7085C63.1128 60.0252 63.2461 60.4787 63.2461 61.0688V61.332H60.7407C60.7498 61.6966 60.8558 61.9917 61.0586 62.2173C61.2637 62.4406 61.5234 62.5522 61.8379 62.5522C62.0612 62.5522 62.2503 62.5067 62.4053 62.4155C62.5602 62.3244 62.6958 62.2036 62.812 62.0532L63.1982 62.354C62.8883 62.8302 62.4235 63.0684 61.8037 63.0684ZM61.7251 59.7529C61.4699 59.7529 61.2557 59.8464 61.0825 60.0332C60.9093 60.2178 60.8022 60.4775 60.7612 60.8125H62.6138V60.7646C62.5955 60.4434 62.509 60.195 62.354 60.0195C62.1991 59.8418 61.9894 59.7529 61.7251 59.7529ZM64.292 63V59.7905H63.7075V59.3018H64.292V58.9224C64.292 58.5259 64.3979 58.2194 64.6099 58.0029C64.8218 57.7865 65.1214 57.6782 65.5088 57.6782C65.6546 57.6782 65.7993 57.6976 65.9429 57.7363L65.9087 58.249C65.8016 58.2285 65.6877 58.2183 65.5669 58.2183C65.3618 58.2183 65.2035 58.2786 65.0918 58.3994C64.9801 58.5179 64.9243 58.6888 64.9243 58.9121V59.3018H65.7139V59.7905H64.9243V63H64.292ZM66.2471 61.1167C66.2471 60.7544 66.3177 60.4285 66.459 60.1392C66.6025 59.8498 66.8008 59.6265 67.0537 59.4692C67.3089 59.312 67.5994 59.2334 67.9253 59.2334C68.4289 59.2334 68.8356 59.4077 69.1455 59.7563C69.4577 60.105 69.6138 60.5687 69.6138 61.1475V61.1919C69.6138 61.5519 69.5443 61.8755 69.4053 62.1626C69.2686 62.4474 69.0715 62.6696 68.814 62.8291C68.5588 62.9886 68.2648 63.0684 67.9321 63.0684C67.4308 63.0684 67.0241 62.894 66.7119 62.5454C66.402 62.1968 66.2471 61.7354 66.2471 61.1611V61.1167ZM66.8828 61.1919C66.8828 61.6021 66.9774 61.9313 67.1665 62.1797C67.3579 62.4281 67.6131 62.5522 67.9321 62.5522C68.2534 62.5522 68.5086 62.4269 68.6978 62.1763C68.8869 61.9233 68.9814 61.5701 68.9814 61.1167C68.9814 60.7111 68.8846 60.383 68.6909 60.1323C68.4995 59.8794 68.2443 59.7529 67.9253 59.7529C67.6131 59.7529 67.3613 59.8771 67.1699 60.1255C66.9785 60.3739 66.8828 60.7293 66.8828 61.1919ZM72.1943 59.8691C72.0986 59.8532 71.995 59.8452 71.8833 59.8452C71.4686 59.8452 71.1872 60.0218 71.0391 60.375V63H70.4067V59.3018H71.022L71.0322 59.729C71.2396 59.3986 71.5335 59.2334 71.9141 59.2334C72.0371 59.2334 72.1305 59.2493 72.1943 59.2812V59.8691ZM74.2451 63.0684C73.7438 63.0684 73.3359 62.9043 73.0215 62.5762C72.707 62.2458 72.5498 61.8049 72.5498 61.2534V61.1372C72.5498 60.7703 72.6193 60.4434 72.7583 60.1562C72.8996 59.8669 73.0955 59.6413 73.3462 59.4795C73.5991 59.3154 73.8726 59.2334 74.1665 59.2334C74.6473 59.2334 75.021 59.3918 75.2876 59.7085C75.5542 60.0252 75.6875 60.4787 75.6875 61.0688V61.332H73.1821C73.1912 61.6966 73.2972 61.9917 73.5 62.2173C73.7051 62.4406 73.9648 62.5522 74.2793 62.5522C74.5026 62.5522 74.6917 62.5067 74.8467 62.4155C75.0016 62.3244 75.1372 62.2036 75.2534 62.0532L75.6396 62.354C75.3298 62.8302 74.8649 63.0684 74.2451 63.0684ZM74.1665 59.7529C73.9113 59.7529 73.6971 59.8464 73.5239 60.0332C73.3507 60.2178 73.2437 60.4775 73.2026 60.8125H75.0552V60.7646C75.0369 60.4434 74.9504 60.195 74.7954 60.0195C74.6405 59.8418 74.4308 59.7529 74.1665 59.7529ZM79.0166 58.4062V59.3018H79.707V59.7905H79.0166V62.084C79.0166 62.2321 79.0474 62.3438 79.1089 62.4189C79.1704 62.4919 79.2752 62.5283 79.4233 62.5283C79.4963 62.5283 79.5965 62.5146 79.7241 62.4873V63C79.5578 63.0456 79.396 63.0684 79.2388 63.0684C78.9562 63.0684 78.7432 62.9829 78.5996 62.812C78.4561 62.6411 78.3843 62.3984 78.3843 62.084V59.7905H77.7109V59.3018H78.3843V58.4062H79.0166ZM82.7319 63C82.6955 62.9271 82.6659 62.7972 82.6431 62.6104C82.3491 62.9157 81.9982 63.0684 81.5903 63.0684C81.2257 63.0684 80.9261 62.9658 80.6914 62.7607C80.459 62.5534 80.3428 62.2913 80.3428 61.9746C80.3428 61.5895 80.4886 61.291 80.7803 61.0791C81.0742 60.8649 81.4867 60.7578 82.0176 60.7578H82.6328V60.4673C82.6328 60.2463 82.5667 60.0708 82.4346 59.9409C82.3024 59.8088 82.1076 59.7427 81.8501 59.7427C81.6245 59.7427 81.4354 59.7996 81.2827 59.9136C81.13 60.0275 81.0537 60.1654 81.0537 60.3271H80.418C80.418 60.1426 80.4829 59.9648 80.6128 59.7939C80.745 59.6208 80.9227 59.484 81.146 59.3838C81.3716 59.2835 81.6188 59.2334 81.8877 59.2334C82.3138 59.2334 82.6476 59.3405 82.8892 59.5547C83.1307 59.7666 83.256 60.0594 83.2651 60.4331V62.1353C83.2651 62.4748 83.3084 62.7448 83.395 62.9453V63H82.7319ZM81.6826 62.5181C81.8809 62.5181 82.0688 62.4668 82.2466 62.3643C82.4243 62.2617 82.5531 62.1284 82.6328 61.9644V61.2056H82.1372C81.3625 61.2056 80.9751 61.4323 80.9751 61.8857C80.9751 62.084 81.0412 62.2389 81.1733 62.3506C81.3055 62.4622 81.4753 62.5181 81.6826 62.5181ZM85.4971 60.6519L86.3174 59.3018H87.0557L85.8457 61.1304L87.0933 63H86.3618L85.5073 61.6157L84.6528 63H83.918L85.1655 61.1304L83.9556 59.3018H84.687L85.4971 60.6519ZM89.1953 63.0684C88.694 63.0684 88.2861 62.9043 87.9717 62.5762C87.6572 62.2458 87.5 61.8049 87.5 61.2534V61.1372C87.5 60.7703 87.5695 60.4434 87.7085 60.1562C87.8498 59.8669 88.0457 59.6413 88.2964 59.4795C88.5493 59.3154 88.8228 59.2334 89.1167 59.2334C89.5975 59.2334 89.9712 59.3918 90.2378 59.7085C90.5044 60.0252 90.6377 60.4787 90.6377 61.0688V61.332H88.1323C88.1414 61.6966 88.2474 61.9917 88.4502 62.2173C88.6553 62.4406 88.915 62.5522 89.2295 62.5522C89.4528 62.5522 89.6419 62.5067 89.7969 62.4155C89.9518 62.3244 90.0874 62.2036 90.2036 62.0532L90.5898 62.354C90.2799 62.8302 89.8151 63.0684 89.1953 63.0684ZM89.1167 59.7529C88.8615 59.7529 88.6473 59.8464 88.4741 60.0332C88.3009 60.2178 88.1938 60.4775 88.1528 60.8125H90.0054V60.7646C89.9871 60.4434 89.9006 60.195 89.7456 60.0195C89.5907 59.8418 89.381 59.7529 89.1167 59.7529ZM93.5259 62.019C93.5259 61.8481 93.4609 61.716 93.3311 61.6226C93.2035 61.5269 92.979 61.4448 92.6577 61.3765C92.3387 61.3081 92.0846 61.2261 91.8955 61.1304C91.7087 61.0347 91.5697 60.9207 91.4785 60.7886C91.3896 60.6564 91.3452 60.4992 91.3452 60.3169C91.3452 60.0138 91.4728 59.7575 91.728 59.5479C91.9855 59.3382 92.3136 59.2334 92.7124 59.2334C93.1317 59.2334 93.4712 59.3416 93.731 59.5581C93.993 59.7746 94.124 60.0514 94.124 60.3887H93.4883C93.4883 60.2155 93.4142 60.0662 93.2661 59.9409C93.1203 59.8156 92.9357 59.7529 92.7124 59.7529C92.4823 59.7529 92.3022 59.8031 92.1724 59.9033C92.0425 60.0036 91.9775 60.1346 91.9775 60.2964C91.9775 60.4491 92.0379 60.5641 92.1587 60.6416C92.2795 60.7191 92.4971 60.7931 92.8115 60.8638C93.1283 60.9344 93.3846 61.0187 93.5806 61.1167C93.7765 61.2147 93.9212 61.3332 94.0146 61.4722C94.1104 61.6089 94.1582 61.7764 94.1582 61.9746C94.1582 62.305 94.026 62.5705 93.7617 62.771C93.4974 62.9692 93.1545 63.0684 92.7329 63.0684C92.4367 63.0684 92.1746 63.016 91.9468 62.9111C91.7189 62.8063 91.54 62.6605 91.4102 62.4736C91.2826 62.2845 91.2188 62.0806 91.2188 61.8618H91.8511C91.8625 62.0737 91.9468 62.2424 92.104 62.3677C92.2635 62.4907 92.4731 62.5522 92.7329 62.5522C92.9722 62.5522 93.1636 62.5044 93.3071 62.4087C93.453 62.3107 93.5259 62.1808 93.5259 62.019Z" fill="black"/>
<path d="M119.775 26.7002C130.094 40.5133 134.645 57.7945 132.468 74.8986C130.29 92.0026 121.554 107.592 108.103 118.379C94.6518 129.166 77.5368 134.307 60.3681 132.717C43.1994 131.127 27.3194 122.931 16.0778 109.857C4.83611 96.7837 -0.888305 79.855 0.112008 62.642C1.11232 45.4289 8.75915 29.2772 21.4395 17.5939C34.1199 5.91066 50.8424 -0.390802 68.0796 0.0187637C85.3169 0.42833 101.721 7.5169 113.832 19.7892L97.4781 35.9287C89.5516 27.8967 78.8153 23.2574 67.5338 22.9893C56.2524 22.7212 45.3078 26.8454 37.0088 34.4919C28.7097 42.1384 23.705 52.7094 23.0503 63.975C22.3956 75.2406 26.1422 86.3201 33.4996 94.8765C40.8571 103.433 51.2502 108.797 62.4868 109.838C73.7233 110.878 84.9248 107.514 93.7284 100.454C102.532 93.3941 108.249 83.191 109.674 71.9967C111.1 60.8024 108.121 49.4922 101.367 40.4518L119.775 26.7002Z" fill="#324B83"/>
<path d="M117.402 23.7072C118.323 24.8021 119.208 25.9265 120.056 27.0785L101.551 40.6994C100.996 39.9454 100.417 39.2095 99.8145 38.4929L117.402 23.7072Z" fill="#597AC1"/>
<path d="M113.523 19.4774C115.02 20.9743 116.444 22.5419 117.791 24.1747L100.069 38.7989C99.1875 37.7302 98.2551 36.7043 97.2754 35.7246L113.523 19.4774Z" fill="#7D97CE"/>
</svg>
