<svg width="133" height="133" viewBox="0 0 133 133" fill="none" xmlns="http://www.w3.org/2000/svg">
<path d="M39.6289 76.7559C39.6289 76.4355 39.5391 76.1816 39.3594 75.9941C39.1836 75.8027 38.8828 75.627 38.457 75.4668C38.0312 75.3066 37.6641 75.1484 37.3555 74.9922C37.0469 74.832 36.7812 74.6504 36.5586 74.4473C36.3398 74.2402 36.168 73.998 36.043 73.7207C35.9219 73.4434 35.8613 73.1133 35.8613 72.7305C35.8613 72.0703 36.0723 71.5293 36.4941 71.1074C36.916 70.6855 37.4766 70.4395 38.1758 70.3691V69.1152H39.1133V70.3867C39.8047 70.4844 40.3457 70.7734 40.7363 71.2539C41.127 71.7305 41.3223 72.3496 41.3223 73.1113H39.6289C39.6289 72.6426 39.5312 72.293 39.3359 72.0625C39.1445 71.8281 38.8867 71.7109 38.5625 71.7109C38.2422 71.7109 37.9941 71.8027 37.8184 71.9863C37.6426 72.166 37.5547 72.416 37.5547 72.7363C37.5547 73.0332 37.6406 73.2715 37.8125 73.4512C37.9844 73.6309 38.3027 73.8145 38.7676 74.002C39.2363 74.1895 39.6211 74.3672 39.9219 74.5352C40.2227 74.6992 40.4766 74.8867 40.6836 75.0977C40.8906 75.3047 41.0488 75.543 41.1582 75.8125C41.2676 76.0781 41.3223 76.3887 41.3223 76.7441C41.3223 77.4082 41.1152 77.9473 40.7012 78.3613C40.2871 78.7754 39.7168 79.0195 38.9902 79.0938V80.2598H38.0586V79.0996C37.2578 79.0137 36.6367 78.7305 36.1953 78.25C35.7578 77.7656 35.5391 77.123 35.5391 76.3223H37.2324C37.2324 76.7871 37.3418 77.1445 37.5605 77.3945C37.7832 77.6406 38.1016 77.7637 38.5156 77.7637C38.8594 77.7637 39.1309 77.6738 39.3301 77.4941C39.5293 77.3105 39.6289 77.0645 39.6289 76.7559ZM46.584 79H44.8906V72.4727L42.8691 73.0996V71.7227L46.4023 70.457H46.584V79ZM54.3711 75.7891H55.3379V77.1543H54.3711V79H52.6777V77.1543H49.1797L49.1035 76.0879L52.6602 70.4688H54.3711V75.7891ZM50.791 75.7891H52.6777V72.7773L52.5664 72.9707L50.791 75.7891ZM56.7617 81.1387L55.877 80.6758L56.0879 80.2949C56.3496 79.8184 56.4844 79.3438 56.4922 78.8711V77.5586H57.9219L57.916 78.7305C57.9121 79.1641 57.8027 79.6016 57.5879 80.043C57.373 80.4844 57.0977 80.8496 56.7617 81.1387ZM64.9824 71.418L61.6836 79H59.8965L63.2012 71.8398H58.959V70.4688H64.9824V71.418ZM71.8145 75.4727C71.8145 76.6523 71.5703 77.5547 71.082 78.1797C70.5938 78.8047 69.8789 79.1172 68.9375 79.1172C68.0078 79.1172 67.2969 78.8105 66.8047 78.1973C66.3125 77.584 66.0605 76.7051 66.0488 75.5605V73.9902C66.0488 72.7988 66.2949 71.8945 66.7871 71.2773C67.2832 70.6602 67.9961 70.3516 68.9258 70.3516C69.8555 70.3516 70.5664 70.6582 71.0586 71.2715C71.5508 71.8809 71.8027 72.7578 71.8145 73.9023V75.4727ZM70.1211 73.75C70.1211 73.043 70.0234 72.5293 69.8281 72.209C69.6367 71.8848 69.3359 71.7227 68.9258 71.7227C68.5273 71.7227 68.2324 71.877 68.041 72.1855C67.8535 72.4902 67.7539 72.9688 67.7422 73.6211V75.6953C67.7422 76.3906 67.8359 76.9082 68.0234 77.248C68.2148 77.584 68.5195 77.752 68.9375 77.752C69.3516 77.752 69.6504 77.5898 69.834 77.2656C70.0176 76.9414 70.1133 76.4453 70.1211 75.7773V73.75ZM73.2148 74.8047L73.707 70.4688H78.4883V71.8809H75.0957L74.8848 73.7148C75.2871 73.5 75.7148 73.3926 76.168 73.3926C76.9805 73.3926 77.6172 73.6445 78.0781 74.1484C78.5391 74.6523 78.7695 75.3574 78.7695 76.2637C78.7695 76.8145 78.6523 77.3086 78.418 77.7461C78.1875 78.1797 77.8555 78.5176 77.4219 78.7598C76.9883 78.998 76.4766 79.1172 75.8867 79.1172C75.3711 79.1172 74.8926 79.0137 74.4512 78.8066C74.0098 78.5957 73.6602 78.3008 73.4023 77.9219C73.1484 77.543 73.0137 77.1113 72.998 76.627H74.6738C74.709 76.9824 74.832 77.2598 75.043 77.459C75.2578 77.6543 75.5371 77.752 75.8809 77.752C76.2637 77.752 76.5586 77.6152 76.7656 77.3418C76.9727 77.0645 77.0762 76.6738 77.0762 76.1699C77.0762 75.6855 76.957 75.3145 76.7188 75.0566C76.4805 74.7988 76.1426 74.6699 75.7051 74.6699C75.3027 74.6699 74.9766 74.7754 74.7266 74.9863L74.5625 75.1387L73.2148 74.8047ZM80.0117 78.168C80.0117 77.8984 80.1016 77.6797 80.2812 77.5117C80.4648 77.3438 80.6934 77.2598 80.9668 77.2598C81.2441 77.2598 81.4727 77.3438 81.6523 77.5117C81.8359 77.6797 81.9277 77.8984 81.9277 78.168C81.9277 78.4336 81.8379 78.6504 81.6582 78.8184C81.4785 78.9824 81.248 79.0645 80.9668 79.0645C80.6895 79.0645 80.4609 78.9824 80.2812 78.8184C80.1016 78.6504 80.0117 78.4336 80.0117 78.168ZM83.5977 74.8047L84.0898 70.4688H88.8711V71.8809H85.4785L85.2676 73.7148C85.6699 73.5 86.0977 73.3926 86.5508 73.3926C87.3633 73.3926 88 73.6445 88.4609 74.1484C88.9219 74.6523 89.1523 75.3574 89.1523 76.2637C89.1523 76.8145 89.0352 77.3086 88.8008 77.7461C88.5703 78.1797 88.2383 78.5176 87.8047 78.7598C87.3711 78.998 86.8594 79.1172 86.2695 79.1172C85.7539 79.1172 85.2754 79.0137 84.834 78.8066C84.3926 78.5957 84.043 78.3008 83.7852 77.9219C83.5312 77.543 83.3965 77.1113 83.3809 76.627H85.0566C85.0918 76.9824 85.2148 77.2598 85.4258 77.459C85.6406 77.6543 85.9199 77.752 86.2637 77.752C86.6465 77.752 86.9414 77.6152 87.1484 77.3418C87.3555 77.0645 87.459 76.6738 87.459 76.1699C87.459 75.6855 87.3398 75.3145 87.1016 75.0566C86.8633 74.7988 86.5254 74.6699 86.0879 74.6699C85.6855 74.6699 85.3594 74.7754 85.1094 74.9863L84.9453 75.1387L83.5977 74.8047ZM95.9785 75.4727C95.9785 76.6523 95.7344 77.5547 95.2461 78.1797C94.7578 78.8047 94.043 79.1172 93.1016 79.1172C92.1719 79.1172 91.4609 78.8105 90.9688 78.1973C90.4766 77.584 90.2246 76.7051 90.2129 75.5605V73.9902C90.2129 72.7988 90.459 71.8945 90.9512 71.2773C91.4473 70.6602 92.1602 70.3516 93.0898 70.3516C94.0195 70.3516 94.7305 70.6582 95.2227 71.2715C95.7148 71.8809 95.9668 72.7578 95.9785 73.9023V75.4727ZM94.2852 73.75C94.2852 73.043 94.1875 72.5293 93.9922 72.209C93.8008 71.8848 93.5 71.7227 93.0898 71.7227C92.6914 71.7227 92.3965 71.877 92.2051 72.1855C92.0176 72.4902 91.918 72.9688 91.9062 73.6211V75.6953C91.9062 76.3906 92 76.9082 92.1875 77.248C92.3789 77.584 92.6836 77.752 93.1016 77.752C93.5156 77.752 93.8145 77.5898 93.998 77.2656C94.1816 76.9414 94.2773 76.4453 94.2852 75.7773V73.75Z" fill="black"/>
<path d="M45.2266 52.5635H43.627V57H42.9741V52.5635H41.3779V52.0234H45.2266V52.5635ZM45.3564 55.1167C45.3564 54.7544 45.4271 54.4285 45.5684 54.1392C45.7119 53.8498 45.9102 53.6265 46.1631 53.4692C46.4183 53.312 46.7088 53.2334 47.0347 53.2334C47.5382 53.2334 47.945 53.4077 48.2549 53.7563C48.5671 54.105 48.7231 54.5687 48.7231 55.1475V55.1919C48.7231 55.5519 48.6536 55.8755 48.5146 56.1626C48.3779 56.4474 48.1808 56.6696 47.9233 56.8291C47.6681 56.9886 47.3742 57.0684 47.0415 57.0684C46.5402 57.0684 46.1335 56.894 45.8213 56.5454C45.5114 56.1968 45.3564 55.7354 45.3564 55.1611V55.1167ZM45.9922 55.1919C45.9922 55.6021 46.0868 55.9313 46.2759 56.1797C46.4673 56.4281 46.7225 56.5522 47.0415 56.5522C47.3628 56.5522 47.618 56.4269 47.8071 56.1763C47.9963 55.9233 48.0908 55.5701 48.0908 55.1167C48.0908 54.7111 47.994 54.383 47.8003 54.1323C47.6089 53.8794 47.3537 53.7529 47.0347 53.7529C46.7225 53.7529 46.4707 53.8771 46.2793 54.1255C46.0879 54.3739 45.9922 54.7293 45.9922 55.1919ZM50.374 52.4062V53.3018H51.0645V53.7905H50.374V56.084C50.374 56.2321 50.4048 56.3438 50.4663 56.4189C50.5278 56.4919 50.6326 56.5283 50.7808 56.5283C50.8537 56.5283 50.9539 56.5146 51.0815 56.4873V57C50.9152 57.0456 50.7534 57.0684 50.5962 57.0684C50.3136 57.0684 50.1006 56.9829 49.957 56.812C49.8135 56.6411 49.7417 56.3984 49.7417 56.084V53.7905H49.0684V53.3018H49.7417V52.4062H50.374ZM54.0894 57C54.0529 56.9271 54.0233 56.7972 54.0005 56.6104C53.7065 56.9157 53.3556 57.0684 52.9478 57.0684C52.5832 57.0684 52.2835 56.9658 52.0488 56.7607C51.8164 56.5534 51.7002 56.2913 51.7002 55.9746C51.7002 55.5895 51.846 55.291 52.1377 55.0791C52.4316 54.8649 52.8441 54.7578 53.375 54.7578H53.9902V54.4673C53.9902 54.2463 53.9242 54.0708 53.792 53.9409C53.6598 53.8088 53.465 53.7427 53.2075 53.7427C52.9819 53.7427 52.7928 53.7996 52.6401 53.9136C52.4875 54.0275 52.4111 54.1654 52.4111 54.3271H51.7754C51.7754 54.1426 51.8403 53.9648 51.9702 53.7939C52.1024 53.6208 52.2801 53.484 52.5034 53.3838C52.729 53.2835 52.9762 53.2334 53.2451 53.2334C53.6712 53.2334 54.005 53.3405 54.2466 53.5547C54.4881 53.7666 54.6134 54.0594 54.6226 54.4331V56.1353C54.6226 56.4748 54.6659 56.7448 54.7524 56.9453V57H54.0894ZM53.04 56.5181C53.2383 56.5181 53.4263 56.4668 53.604 56.3643C53.7817 56.2617 53.9105 56.1284 53.9902 55.9644V55.2056H53.4946C52.7199 55.2056 52.3325 55.4323 52.3325 55.8857C52.3325 56.084 52.3986 56.2389 52.5308 56.3506C52.6629 56.4622 52.8327 56.5181 53.04 56.5181ZM56.3008 57H55.6685V51.75H56.3008V57ZM61.9644 54.6997H59.8076V56.4634H62.313V57H59.1514V52.0234H62.2788V52.5635H59.8076V54.1631H61.9644V54.6997ZM65.1841 56.019C65.1841 55.8481 65.1191 55.716 64.9893 55.6226C64.8617 55.5269 64.6372 55.4448 64.3159 55.3765C63.9969 55.3081 63.7428 55.2261 63.5537 55.1304C63.3669 55.0347 63.2279 54.9207 63.1367 54.7886C63.0479 54.6564 63.0034 54.4992 63.0034 54.3169C63.0034 54.0138 63.131 53.7575 63.3862 53.5479C63.6437 53.3382 63.9718 53.2334 64.3706 53.2334C64.7899 53.2334 65.1294 53.3416 65.3892 53.5581C65.6512 53.7746 65.7822 54.0514 65.7822 54.3887H65.1465C65.1465 54.2155 65.0724 54.0662 64.9243 53.9409C64.7785 53.8156 64.5939 53.7529 64.3706 53.7529C64.1405 53.7529 63.9604 53.8031 63.8306 53.9033C63.7007 54.0036 63.6357 54.1346 63.6357 54.2964C63.6357 54.4491 63.6961 54.5641 63.8169 54.6416C63.9377 54.7191 64.1553 54.7931 64.4697 54.8638C64.7865 54.9344 65.0428 55.0187 65.2388 55.1167C65.4347 55.2147 65.5794 55.3332 65.6729 55.4722C65.7686 55.6089 65.8164 55.7764 65.8164 55.9746C65.8164 56.305 65.6842 56.5705 65.4199 56.771C65.1556 56.9692 64.8127 57.0684 64.3911 57.0684C64.0949 57.0684 63.8328 57.016 63.605 56.9111C63.3771 56.8063 63.1982 56.6605 63.0684 56.4736C62.9408 56.2845 62.877 56.0806 62.877 55.8618H63.5093C63.5207 56.0737 63.605 56.2424 63.7622 56.3677C63.9217 56.4907 64.1313 56.5522 64.3911 56.5522C64.6304 56.5522 64.8218 56.5044 64.9653 56.4087C65.1112 56.3107 65.1841 56.1808 65.1841 56.019ZM67.498 52.4062V53.3018H68.1885V53.7905H67.498V56.084C67.498 56.2321 67.5288 56.3438 67.5903 56.4189C67.6519 56.4919 67.7567 56.5283 67.9048 56.5283C67.9777 56.5283 68.078 56.5146 68.2056 56.4873V57C68.0392 57.0456 67.8774 57.0684 67.7202 57.0684C67.4377 57.0684 67.2246 56.9829 67.0811 56.812C66.9375 56.6411 66.8657 56.3984 66.8657 56.084V53.7905H66.1924V53.3018H66.8657V52.4062H67.498ZM69.6172 57H68.9849V53.3018H69.6172V57ZM68.9336 52.3208C68.9336 52.2183 68.9644 52.1317 69.0259 52.061C69.0897 51.9904 69.1831 51.9551 69.3062 51.9551C69.4292 51.9551 69.5226 51.9904 69.5864 52.061C69.6502 52.1317 69.6821 52.2183 69.6821 52.3208C69.6821 52.4233 69.6502 52.5088 69.5864 52.5771C69.5226 52.6455 69.4292 52.6797 69.3062 52.6797C69.1831 52.6797 69.0897 52.6455 69.0259 52.5771C68.9644 52.5088 68.9336 52.4233 68.9336 52.3208ZM71.2271 53.3018L71.2441 53.7119C71.5153 53.3929 71.881 53.2334 72.3413 53.2334C72.8586 53.2334 73.2106 53.4316 73.3975 53.8281C73.5205 53.6504 73.68 53.5068 73.876 53.3975C74.0742 53.2881 74.3078 53.2334 74.5767 53.2334C75.3879 53.2334 75.8003 53.6629 75.814 54.522V57H75.1816V54.5596C75.1816 54.2952 75.1213 54.0981 75.0005 53.9683C74.8797 53.8361 74.6769 53.77 74.3921 53.77C74.1574 53.77 73.9626 53.8407 73.8076 53.9819C73.6527 54.1209 73.5627 54.3089 73.5376 54.5459V57H72.9019V54.5767C72.9019 54.0389 72.6387 53.77 72.1123 53.77C71.6976 53.77 71.4139 53.9466 71.2612 54.2998V57H70.6289V53.3018H71.2271ZM79.0542 57C79.0177 56.9271 78.9881 56.7972 78.9653 56.6104C78.6714 56.9157 78.3205 57.0684 77.9126 57.0684C77.548 57.0684 77.2484 56.9658 77.0137 56.7607C76.7812 56.5534 76.665 56.2913 76.665 55.9746C76.665 55.5895 76.8109 55.291 77.1025 55.0791C77.3965 54.8649 77.8089 54.7578 78.3398 54.7578H78.9551V54.4673C78.9551 54.2463 78.889 54.0708 78.7568 53.9409C78.6247 53.8088 78.4299 53.7427 78.1724 53.7427C77.9468 53.7427 77.7576 53.7996 77.605 53.9136C77.4523 54.0275 77.376 54.1654 77.376 54.3271H76.7402C76.7402 54.1426 76.8052 53.9648 76.9351 53.7939C77.0672 53.6208 77.245 53.484 77.4683 53.3838C77.6938 53.2835 77.9411 53.2334 78.21 53.2334C78.6361 53.2334 78.9699 53.3405 79.2114 53.5547C79.453 53.7666 79.5783 54.0594 79.5874 54.4331V56.1353C79.5874 56.4748 79.6307 56.7448 79.7173 56.9453V57H79.0542ZM78.0049 56.5181C78.2031 56.5181 78.3911 56.4668 78.5688 56.3643C78.7466 56.2617 78.8753 56.1284 78.9551 55.9644V55.2056H78.4595C77.6847 55.2056 77.2974 55.4323 77.2974 55.8857C77.2974 56.084 77.3634 56.2389 77.4956 56.3506C77.6278 56.4622 77.7975 56.5181 78.0049 56.5181ZM81.4365 52.4062V53.3018H82.127V53.7905H81.4365V56.084C81.4365 56.2321 81.4673 56.3438 81.5288 56.4189C81.5903 56.4919 81.6951 56.5283 81.8433 56.5283C81.9162 56.5283 82.0164 56.5146 82.144 56.4873V57C81.9777 57.0456 81.8159 57.0684 81.6587 57.0684C81.3761 57.0684 81.1631 56.9829 81.0195 56.812C80.876 56.6411 80.8042 56.3984 80.8042 56.084V53.7905H80.1309V53.3018H80.8042V52.4062H81.4365ZM84.4033 57.0684C83.902 57.0684 83.4941 56.9043 83.1797 56.5762C82.8652 56.2458 82.708 55.8049 82.708 55.2534V55.1372C82.708 54.7703 82.7775 54.4434 82.9165 54.1562C83.0578 53.8669 83.2537 53.6413 83.5044 53.4795C83.7573 53.3154 84.0308 53.2334 84.3247 53.2334C84.8055 53.2334 85.1792 53.3918 85.4458 53.7085C85.7124 54.0252 85.8457 54.4787 85.8457 55.0688V55.332H83.3403C83.3494 55.6966 83.4554 55.9917 83.6582 56.2173C83.8633 56.4406 84.123 56.5522 84.4375 56.5522C84.6608 56.5522 84.8499 56.5067 85.0049 56.4155C85.1598 56.3244 85.2954 56.2036 85.4116 56.0532L85.7979 56.354C85.488 56.8302 85.0231 57.0684 84.4033 57.0684ZM84.3247 53.7529C84.0695 53.7529 83.8553 53.8464 83.6821 54.0332C83.509 54.2178 83.4019 54.4775 83.3608 54.8125H85.2134V54.7646C85.1951 54.4434 85.1086 54.195 84.9536 54.0195C84.7987 53.8418 84.589 53.7529 84.3247 53.7529ZM86.4268 55.1201C86.4268 54.5527 86.5612 54.097 86.8301 53.7529C87.099 53.4066 87.451 53.2334 87.8862 53.2334C88.3192 53.2334 88.6621 53.3815 88.915 53.6777V51.75H89.5474V57H88.9663L88.9355 56.6035C88.6826 56.9134 88.3306 57.0684 87.8794 57.0684C87.451 57.0684 87.1012 56.8929 86.8301 56.542C86.5612 56.1911 86.4268 55.7331 86.4268 55.168V55.1201ZM87.0591 55.1919C87.0591 55.6112 87.1457 55.9393 87.3188 56.1763C87.492 56.4132 87.7313 56.5317 88.0366 56.5317C88.4377 56.5317 88.7305 56.3517 88.915 55.9917V54.293C88.7259 53.9443 88.4354 53.77 88.0435 53.77C87.7336 53.77 87.492 53.8896 87.3188 54.1289C87.1457 54.3682 87.0591 54.7225 87.0591 55.1919ZM49.8579 65H49.1982L46.6929 61.165V65H46.0332V60.0234H46.6929L49.2051 63.8755V60.0234H49.8579V65ZM52.459 65.0684C51.9577 65.0684 51.5498 64.9043 51.2354 64.5762C50.9209 64.2458 50.7637 63.8049 50.7637 63.2534V63.1372C50.7637 62.7703 50.8332 62.4434 50.9722 62.1562C51.1134 61.8669 51.3094 61.6413 51.5601 61.4795C51.813 61.3154 52.0864 61.2334 52.3804 61.2334C52.8612 61.2334 53.2349 61.3918 53.5015 61.7085C53.7681 62.0252 53.9014 62.4787 53.9014 63.0688V63.332H51.396C51.4051 63.6966 51.5111 63.9917 51.7139 64.2173C51.9189 64.4406 52.1787 64.5522 52.4932 64.5522C52.7165 64.5522 52.9056 64.5067 53.0605 64.4155C53.2155 64.3244 53.3511 64.2036 53.4673 64.0532L53.8535 64.354C53.5436 64.8302 53.0788 65.0684 52.459 65.0684ZM52.3804 61.7529C52.1252 61.7529 51.911 61.8464 51.7378 62.0332C51.5646 62.2178 51.4575 62.4775 51.4165 62.8125H53.269V62.7646C53.2508 62.4434 53.1642 62.195 53.0093 62.0195C52.8543 61.8418 52.6447 61.7529 52.3804 61.7529ZM55.4941 60.4062V61.3018H56.1846V61.7905H55.4941V64.084C55.4941 64.2321 55.5249 64.3438 55.5864 64.4189C55.6479 64.4919 55.7528 64.5283 55.9009 64.5283C55.9738 64.5283 56.0741 64.5146 56.2017 64.4873V65C56.0353 65.0456 55.8735 65.0684 55.7163 65.0684C55.4338 65.0684 55.2207 64.9829 55.0771 64.812C54.9336 64.6411 54.8618 64.3984 54.8618 64.084V61.7905H54.1885V61.3018H54.8618V60.4062H55.4941ZM59.418 63.0518V65H58.7617V60.0234H60.5972C61.1418 60.0234 61.5679 60.1624 61.8755 60.4404C62.1854 60.7184 62.3403 61.0864 62.3403 61.5444C62.3403 62.0275 62.1888 62.4001 61.8857 62.6621C61.585 62.9219 61.1532 63.0518 60.5903 63.0518H59.418ZM59.418 62.5151H60.5972C60.9481 62.5151 61.217 62.4331 61.4038 62.269C61.5907 62.1027 61.6841 61.8634 61.6841 61.5513C61.6841 61.255 61.5907 61.0181 61.4038 60.8403C61.217 60.6626 60.9606 60.5703 60.6348 60.5635H59.418V62.5151ZM64.8662 61.8691C64.7705 61.8532 64.6668 61.8452 64.5552 61.8452C64.1405 61.8452 63.859 62.0218 63.7109 62.375V65H63.0786V61.3018H63.6938L63.7041 61.729C63.9115 61.3986 64.2054 61.2334 64.5859 61.2334C64.709 61.2334 64.8024 61.2493 64.8662 61.2812V61.8691ZM65.2148 63.1167C65.2148 62.7544 65.2855 62.4285 65.4268 62.1392C65.5703 61.8498 65.7686 61.6265 66.0215 61.4692C66.2767 61.312 66.5672 61.2334 66.8931 61.2334C67.3966 61.2334 67.8034 61.4077 68.1133 61.7563C68.4255 62.105 68.5815 62.5687 68.5815 63.1475V63.1919C68.5815 63.5519 68.512 63.8755 68.373 64.1626C68.2363 64.4474 68.0392 64.6696 67.7817 64.8291C67.5265 64.9886 67.2326 65.0684 66.8999 65.0684C66.3986 65.0684 65.9919 64.894 65.6797 64.5454C65.3698 64.1968 65.2148 63.7354 65.2148 63.1611V63.1167ZM65.8506 63.1919C65.8506 63.6021 65.9451 63.9313 66.1343 64.1797C66.3257 64.4281 66.5809 64.5522 66.8999 64.5522C67.2212 64.5522 67.4764 64.4269 67.6655 64.1763C67.8547 63.9233 67.9492 63.5701 67.9492 63.1167C67.9492 62.7111 67.8524 62.383 67.6587 62.1323C67.4673 61.8794 67.2121 61.7529 66.8931 61.7529C66.5809 61.7529 66.3291 61.8771 66.1377 62.1255C65.9463 62.3739 65.8506 62.7293 65.8506 63.1919ZM70.8579 64.5522C71.0835 64.5522 71.2806 64.4839 71.4492 64.3472C71.6178 64.2104 71.7113 64.0396 71.7295 63.8345H72.3276C72.3162 64.0464 72.2433 64.248 72.1089 64.4395C71.9744 64.6309 71.7944 64.7835 71.5688 64.8975C71.3455 65.0114 71.1086 65.0684 70.8579 65.0684C70.3543 65.0684 69.9533 64.9009 69.6548 64.5659C69.3586 64.2287 69.2104 63.7684 69.2104 63.1851V63.0791C69.2104 62.7191 69.2765 62.3989 69.4087 62.1187C69.5409 61.8384 69.73 61.6208 69.9761 61.4658C70.2244 61.3109 70.5173 61.2334 70.8545 61.2334C71.2692 61.2334 71.6133 61.3576 71.8867 61.606C72.1624 61.8543 72.3094 62.1768 72.3276 62.5732H71.7295C71.7113 62.334 71.6201 62.138 71.4561 61.9854C71.2943 61.8304 71.0938 61.7529 70.8545 61.7529C70.5332 61.7529 70.2837 61.8691 70.106 62.1016C69.9305 62.3317 69.8428 62.6655 69.8428 63.103V63.2227C69.8428 63.6488 69.9305 63.9769 70.106 64.207C70.2814 64.4372 70.5321 64.5522 70.8579 64.5522ZM74.5732 65.0684C74.0719 65.0684 73.6641 64.9043 73.3496 64.5762C73.0352 64.2458 72.8779 63.8049 72.8779 63.2534V63.1372C72.8779 62.7703 72.9474 62.4434 73.0864 62.1562C73.2277 61.8669 73.4237 61.6413 73.6743 61.4795C73.9272 61.3154 74.2007 61.2334 74.4946 61.2334C74.9754 61.2334 75.3491 61.3918 75.6157 61.7085C75.8823 62.0252 76.0156 62.4787 76.0156 63.0688V63.332H73.5103C73.5194 63.6966 73.6253 63.9917 73.8281 64.2173C74.0332 64.4406 74.293 64.5522 74.6074 64.5522C74.8307 64.5522 75.0199 64.5067 75.1748 64.4155C75.3298 64.3244 75.4653 64.2036 75.5815 64.0532L75.9678 64.354C75.6579 64.8302 75.193 65.0684 74.5732 65.0684ZM74.4946 61.7529C74.2394 61.7529 74.0252 61.8464 73.8521 62.0332C73.6789 62.2178 73.5718 62.4775 73.5308 62.8125H75.3833V62.7646C75.3651 62.4434 75.2785 62.195 75.1235 62.0195C74.9686 61.8418 74.759 61.7529 74.4946 61.7529ZM78.2852 65.0684C77.7839 65.0684 77.376 64.9043 77.0615 64.5762C76.7471 64.2458 76.5898 63.8049 76.5898 63.2534V63.1372C76.5898 62.7703 76.6593 62.4434 76.7983 62.1562C76.9396 61.8669 77.1356 61.6413 77.3862 61.4795C77.6392 61.3154 77.9126 61.2334 78.2065 61.2334C78.6873 61.2334 79.061 61.3918 79.3276 61.7085C79.5942 62.0252 79.7275 62.4787 79.7275 63.0688V63.332H77.2222C77.2313 63.6966 77.3372 63.9917 77.54 64.2173C77.7451 64.4406 78.0049 64.5522 78.3193 64.5522C78.5426 64.5522 78.7318 64.5067 78.8867 64.4155C79.0417 64.3244 79.1772 64.2036 79.2935 64.0532L79.6797 64.354C79.3698 64.8302 78.9049 65.0684 78.2852 65.0684ZM78.2065 61.7529C77.9513 61.7529 77.7371 61.8464 77.564 62.0332C77.3908 62.2178 77.2837 62.4775 77.2427 62.8125H79.0952V62.7646C79.077 62.4434 78.9904 62.195 78.8354 62.0195C78.6805 61.8418 78.4709 61.7529 78.2065 61.7529ZM80.3086 63.1201C80.3086 62.5527 80.443 62.097 80.7119 61.7529C80.9808 61.4066 81.3328 61.2334 81.7681 61.2334C82.201 61.2334 82.5439 61.3815 82.7969 61.6777V59.75H83.4292V65H82.8481L82.8174 64.6035C82.5645 64.9134 82.2124 65.0684 81.7612 65.0684C81.3328 65.0684 80.9831 64.8929 80.7119 64.542C80.443 64.1911 80.3086 63.7331 80.3086 63.168V63.1201ZM80.9409 63.1919C80.9409 63.6112 81.0275 63.9393 81.2007 64.1763C81.3739 64.4132 81.6131 64.5317 81.9185 64.5317C82.3195 64.5317 82.6123 64.3517 82.7969 63.9917V62.293C82.6077 61.9443 82.3172 61.77 81.9253 61.77C81.6154 61.77 81.3739 61.8896 81.2007 62.1289C81.0275 62.3682 80.9409 62.7225 80.9409 63.1919ZM86.5669 64.019C86.5669 63.8481 86.502 63.716 86.3721 63.6226C86.2445 63.5269 86.02 63.4448 85.6987 63.3765C85.3797 63.3081 85.1257 63.2261 84.9365 63.1304C84.7497 63.0347 84.6107 62.9207 84.5195 62.7886C84.4307 62.6564 84.3862 62.4992 84.3862 62.3169C84.3862 62.0138 84.5138 61.7575 84.769 61.5479C85.0265 61.3382 85.3547 61.2334 85.7534 61.2334C86.1727 61.2334 86.5122 61.3416 86.772 61.5581C87.034 61.7746 87.165 62.0514 87.165 62.3887H86.5293C86.5293 62.2155 86.4552 62.0662 86.3071 61.9409C86.1613 61.8156 85.9767 61.7529 85.7534 61.7529C85.5233 61.7529 85.3433 61.8031 85.2134 61.9033C85.0835 62.0036 85.0186 62.1346 85.0186 62.2964C85.0186 62.4491 85.0789 62.5641 85.1997 62.6416C85.3205 62.7191 85.5381 62.7931 85.8525 62.8638C86.1693 62.9344 86.4256 63.0187 86.6216 63.1167C86.8175 63.2147 86.9622 63.3332 87.0557 63.4722C87.1514 63.6089 87.1992 63.7764 87.1992 63.9746C87.1992 64.305 87.0671 64.5705 86.8027 64.771C86.5384 64.9692 86.1955 65.0684 85.7739 65.0684C85.4777 65.0684 85.2157 65.016 84.9878 64.9111C84.7599 64.8063 84.5811 64.6605 84.4512 64.4736C84.3236 64.2845 84.2598 64.0806 84.2598 63.8618H84.8921C84.9035 64.0737 84.9878 64.2424 85.145 64.3677C85.3045 64.4907 85.5142 64.5522 85.7739 64.5522C86.0132 64.5522 86.2046 64.5044 86.3481 64.4087C86.494 64.3107 86.5669 64.1808 86.5669 64.019Z" fill="black"/>
<path d="M119.835 26.7804C130.161 40.646 134.681 57.988 132.438 75.1301C130.194 92.2722 121.363 107.867 107.816 118.608C94.2694 129.349 77.0722 134.392 59.8701 132.669C42.6679 130.945 26.8132 122.59 15.6669 109.375C4.52056 96.1595 -1.04109 79.1228 0.160931 61.8764C1.36296 44.6299 9.23415 28.5295 22.1059 16.9882C34.9777 5.4469 51.8382 -0.627979 69.1131 0.0513605C86.388 0.7307 102.719 8.11085 114.645 20.6273L98.01 36.4772C90.2049 28.2854 79.5163 23.4552 68.2102 23.0106C56.9041 22.566 45.8693 26.5419 37.4449 34.0955C29.0206 41.649 23.869 52.1865 23.0823 63.4739C22.2956 74.7614 25.9356 85.9115 33.2307 94.5607C40.5258 103.21 50.9024 108.678 62.1608 109.806C73.4193 110.934 84.6746 107.633 93.5406 100.604C102.407 93.5737 108.187 83.3674 109.655 72.1483C111.123 60.9291 108.165 49.5791 101.407 40.5043L119.835 26.7804Z" fill="#324B83"/>
<path d="M117.402 23.7072C118.323 24.8021 119.208 25.9265 120.056 27.0785L101.551 40.6994C100.996 39.9454 100.417 39.2095 99.8145 38.4929L117.402 23.7072Z" fill="#597AC1"/>
<path d="M113.523 19.4774C115.02 20.9743 116.444 22.5419 117.791 24.1747L100.069 38.7989C99.1875 37.7302 98.2551 36.7043 97.2754 35.7246L113.523 19.4774Z" fill="#7D97CE"/>
</svg>
