<svg width="275" height="275" viewBox="0 0 275 275" fill="none" xmlns="http://www.w3.org/2000/svg">
<path d="M275 137.5C275 162.466 268.203 186.961 255.337 208.356C242.472 229.752 224.024 247.241 201.973 258.947C179.922 270.654 155.1 276.135 130.169 274.804C105.239 273.473 81.1415 265.38 60.4622 251.392L92.1292 204.576C104.308 212.814 118.5 217.58 133.183 218.364C147.865 219.148 162.484 215.92 175.471 209.025C188.458 202.131 199.322 191.831 206.899 179.23C214.476 166.629 218.479 152.203 218.479 137.5H275Z" fill="#0F2535"/>
<path d="M60.6448 251.515C40.8932 238.201 24.9392 219.985 14.3458 198.65C3.75247 177.315 -1.11679 153.594 0.215119 129.812C1.54703 106.029 9.03442 83.0002 21.9437 62.9816C34.8529 42.9631 52.7413 26.6416 73.8559 15.6161C94.9706 4.59066 118.587 -0.76045 142.392 0.0870599C166.197 0.93457 189.374 7.95163 209.651 20.4507C229.928 32.9498 246.61 50.5022 258.063 71.388C269.516 92.2739 275.347 115.777 274.984 139.594L218.47 138.733C218.684 124.706 215.25 110.864 208.505 98.5639C201.76 86.2634 191.935 75.926 179.993 68.5648C168.05 61.2036 154.401 57.0709 140.381 56.5718C126.362 56.0727 112.453 59.2241 100.017 65.7175C87.582 72.2108 77.0469 81.8233 69.4441 93.613C61.8413 105.403 57.4316 118.965 56.6472 132.972C55.8628 146.979 58.7305 160.949 64.9694 173.514C71.2082 186.079 80.6042 196.807 92.2368 204.648L60.6448 251.515Z" fill="#F4BE36"/>
<path d="M72.5312 134.023H82.1861V138H85.1193V134.023H87.8139V131.418H85.1193V117.636H81.331L72.5312 131.537V134.023ZM82.206 131.418H75.7528V131.259L82.0469 121.295H82.206V131.418ZM94.4212 135.216H91.5575L91.4581 136.33C91.2294 139.024 90.593 141.739 90.3246 142.972H92.4325C92.9098 141.669 93.9638 138.686 94.272 136.3L94.4212 135.216ZM104.958 138.278C109.115 138.278 112.167 135.793 112.157 132.412C112.167 129.837 110.606 127.987 107.902 127.57V127.411C110.029 126.864 111.412 125.193 111.402 122.906C111.412 119.913 108.956 117.358 105.038 117.358C101.299 117.358 98.2965 119.615 98.1971 122.926H101.17C101.24 121.057 103 119.923 104.998 119.923C107.076 119.923 108.439 121.186 108.429 123.065C108.439 125.034 106.858 126.327 104.6 126.327H102.88V128.832H104.6C107.424 128.832 109.055 130.264 109.055 132.312C109.055 134.291 107.335 135.634 104.939 135.634C102.731 135.634 101.011 134.5 100.892 132.69H97.7695C97.8988 136.011 100.842 138.278 104.958 138.278ZM115.916 138H129.319V135.365H120.152V135.216L124.199 130.98C127.927 127.212 128.991 125.412 128.991 123.135C128.991 119.864 126.326 117.358 122.488 117.358C118.68 117.358 115.896 119.824 115.896 123.543H118.829C118.819 121.355 120.231 119.923 122.429 119.923C124.497 119.923 126.068 121.196 126.068 123.224C126.068 125.024 124.994 126.317 122.806 128.634L115.916 135.773V138ZM132.223 134.023H141.877V138H144.811V134.023H147.505V131.418H144.811V117.636H141.022L132.223 131.537V134.023ZM141.897 131.418H135.444V131.259L141.738 121.295H141.897V131.418ZM154.113 135.216H151.249L151.15 136.33C150.921 139.024 150.284 141.739 150.016 142.972H152.124C152.601 141.669 153.655 138.686 153.963 136.3L154.113 135.216ZM158.271 138H171.675V135.365H162.507V135.216L166.554 130.98C170.283 127.212 171.347 125.412 171.347 123.135C171.347 119.864 168.682 117.358 164.844 117.358C161.036 117.358 158.251 119.824 158.251 123.543H161.185C161.175 121.355 162.587 119.923 164.784 119.923C166.852 119.923 168.423 121.196 168.423 123.224C168.423 125.024 167.349 126.317 165.162 128.634L158.271 135.773V138ZM175.443 138H188.847V135.365H179.679V135.216L183.726 130.98C187.455 127.212 188.518 125.412 188.518 123.135C188.518 119.864 185.854 117.358 182.016 117.358C178.207 117.358 175.423 119.824 175.423 123.543H178.357C178.347 121.355 179.759 119.923 181.956 119.923C184.024 119.923 185.595 121.196 185.595 123.224C185.595 125.024 184.521 126.317 182.334 128.634L175.443 135.773V138ZM200.341 117.636H197.348L192.267 120.957V123.901L197.139 120.719H197.259V138H200.341V117.636Z" fill="#333333"/>
<path d="M97.6165 152.141H100.788V161H102.32V152.141H105.496V150.818H97.6165V152.141ZM109.228 161.154C111.38 161.154 112.787 159.578 112.787 157.217C112.787 154.84 111.38 153.264 109.228 153.264C107.075 153.264 105.668 154.84 105.668 157.217C105.668 159.578 107.075 161.154 109.228 161.154ZM109.233 159.906C107.826 159.906 107.169 158.678 107.169 157.212C107.169 155.75 107.826 154.507 109.233 154.507C110.63 154.507 111.286 155.75 111.286 157.212C111.286 158.678 110.63 159.906 109.233 159.906ZM118.011 153.364H116.445V151.534H114.959V153.364H113.84V154.557H114.959V159.066C114.954 160.453 116.013 161.124 117.186 161.099C117.658 161.094 117.976 161.005 118.15 160.94L117.882 159.712C117.782 159.732 117.599 159.777 117.36 159.777C116.878 159.777 116.445 159.618 116.445 158.758V154.557H118.011V153.364ZM121.878 161.169C123.141 161.169 123.852 160.528 124.135 159.956H124.195V161H125.646V155.929C125.646 153.707 123.896 153.264 122.683 153.264C121.301 153.264 120.028 153.821 119.531 155.213L120.928 155.531C121.147 154.989 121.704 154.467 122.703 154.467C123.663 154.467 124.155 154.969 124.155 155.835V155.869C124.155 156.411 123.598 156.401 122.226 156.56C120.779 156.729 119.298 157.107 119.298 158.842C119.298 160.344 120.426 161.169 121.878 161.169ZM122.201 159.976C121.361 159.976 120.754 159.598 120.754 158.862C120.754 158.067 121.46 157.783 122.32 157.669C122.803 157.604 123.946 157.475 124.16 157.261V158.246C124.16 159.151 123.439 159.976 122.201 159.976ZM129.113 150.818H127.626V161H129.113V150.818ZM140.54 155.228C140.232 154.04 139.302 153.264 137.651 153.264C135.926 153.264 134.703 154.174 134.703 155.526C134.703 156.61 135.36 157.331 136.791 157.649L138.084 157.933C138.82 158.097 139.163 158.425 139.163 158.902C139.163 159.494 138.531 159.956 137.557 159.956C136.667 159.956 136.095 159.573 135.916 158.822L134.48 159.041C134.728 160.393 135.852 161.154 137.567 161.154C139.411 161.154 140.689 160.175 140.689 158.793C140.689 157.714 140.003 157.048 138.601 156.724L137.388 156.446C136.548 156.247 136.185 155.964 136.19 155.447C136.185 154.86 136.821 154.442 137.666 154.442C138.591 154.442 139.019 154.955 139.193 155.467L140.54 155.228ZM143.81 156.466C143.81 155.248 144.581 154.552 145.64 154.552C146.664 154.552 147.275 155.203 147.275 156.322V161H148.762V156.143C148.762 154.239 147.718 153.264 146.147 153.264C144.958 153.264 144.243 153.781 143.885 154.607H143.79V150.818H142.324V161H143.81V156.466ZM152.968 161.169C154.23 161.169 154.941 160.528 155.225 159.956H155.284V161H156.736V155.929C156.736 153.707 154.986 153.264 153.773 153.264C152.391 153.264 151.118 153.821 150.621 155.213L152.018 155.531C152.237 154.989 152.794 154.467 153.793 154.467C154.752 154.467 155.245 154.969 155.245 155.835V155.869C155.245 156.411 154.688 156.401 153.316 156.56C151.869 156.729 150.387 157.107 150.387 158.842C150.387 160.344 151.516 161.169 152.968 161.169ZM153.291 159.976C152.451 159.976 151.844 159.598 151.844 158.862C151.844 158.067 152.55 157.783 153.41 157.669C153.892 157.604 155.036 157.475 155.25 157.261V158.246C155.25 159.151 154.529 159.976 153.291 159.976ZM158.716 161H160.203V156.337C160.203 155.337 160.973 154.616 162.027 154.616C162.335 154.616 162.683 154.671 162.803 154.706V153.284C162.654 153.264 162.36 153.249 162.171 153.249C161.276 153.249 160.511 153.756 160.232 154.577H160.153V153.364H158.716V161ZM167.107 161.154C168.772 161.154 169.951 160.334 170.289 159.091L168.882 158.837C168.613 159.558 167.967 159.926 167.122 159.926C165.849 159.926 164.994 159.101 164.954 157.629H170.383V157.102C170.383 154.343 168.733 153.264 167.002 153.264C164.875 153.264 163.473 154.885 163.473 157.232C163.473 159.603 164.855 161.154 167.107 161.154ZM164.959 156.516C165.019 155.432 165.804 154.492 167.012 154.492C168.166 154.492 168.922 155.347 168.926 156.516H164.959ZM177.755 155.228C177.447 154.04 176.517 153.264 174.866 153.264C173.141 153.264 171.918 154.174 171.918 155.526C171.918 156.61 172.574 157.331 174.006 157.649L175.299 157.933C176.035 158.097 176.378 158.425 176.378 158.902C176.378 159.494 175.746 159.956 174.772 159.956C173.882 159.956 173.31 159.573 173.131 158.822L171.694 159.041C171.943 160.393 173.067 161.154 174.782 161.154C176.626 161.154 177.904 160.175 177.904 158.793C177.904 157.714 177.218 157.048 175.816 156.724L174.603 156.446C173.763 156.247 173.4 155.964 173.405 155.447C173.4 154.86 174.036 154.442 174.881 154.442C175.806 154.442 176.233 154.955 176.407 155.467L177.755 155.228Z" fill="#333333"/>
</svg>
