<svg width="277" height="277" viewBox="0 0 277 277" fill="none" xmlns="http://www.w3.org/2000/svg">
<path d="M137.989 1.00082C162.954 0.907973 187.474 7.61414 208.918 20.3998C230.361 33.1855 247.919 51.5682 259.707 73.5756C271.495 95.5831 277.069 120.385 275.831 145.32C274.592 170.255 266.589 194.382 252.678 215.114L205.744 183.621C213.937 171.411 218.651 157.202 219.38 142.516C220.109 127.831 216.826 113.224 209.884 100.263C202.941 87.3021 192.601 76.4758 179.972 68.9458C167.343 61.4158 152.902 57.4663 138.199 57.5209L137.989 1.00082Z" fill="#0F2535"/>
<path d="M252.8 214.931C239.56 234.731 221.403 250.753 200.107 261.426C178.812 272.098 155.11 277.056 131.322 275.812C107.535 274.569 84.4783 267.167 64.4119 254.333C44.3455 241.498 27.9575 223.67 16.8536 202.597C5.74974 181.523 0.310832 157.927 1.06981 134.119C1.82879 110.311 8.75961 87.1085 21.1832 66.785C33.6068 46.4615 51.097 29.714 71.9401 18.1835C92.7833 6.65291 116.264 0.734802 140.083 1.00899L139.432 57.5257C125.404 57.3643 111.576 60.8497 99.3001 67.6405C87.0247 74.4313 76.724 84.2946 69.4072 96.264C62.0905 108.233 58.0086 121.898 57.5616 135.92C57.1146 149.941 60.3178 163.838 66.8574 176.249C73.3969 188.66 83.0485 199.16 94.8664 206.719C106.684 214.277 120.263 218.637 134.273 219.369C148.282 220.101 162.242 217.182 174.783 210.896C187.325 204.611 198.018 195.175 205.816 183.513L252.8 214.931Z" fill="#F4BE36"/>
<path d="M80.6804 139.278C84.777 139.278 87.7003 136.385 87.6903 132.418C87.7003 128.48 84.956 125.616 81.2472 125.616C79.7358 125.616 78.3338 126.193 77.5384 126.969H77.419L78.0653 121.271H86.706V118.636H75.5099L74.3665 128.898L77.1804 129.315C77.946 128.629 79.3182 128.162 80.5511 128.162C82.9673 128.182 84.7173 129.991 84.7173 132.477C84.7173 134.923 83.017 136.693 80.6804 136.693C78.7116 136.693 77.1506 135.44 76.9915 133.69H74.0085C74.1278 136.932 76.9418 139.278 80.6804 139.278ZM94.5188 136.216H91.6552L91.5558 137.33C91.3271 140.024 90.6907 142.739 90.4222 143.972H92.5302C93.0075 142.669 94.0614 139.686 94.3697 137.3L94.5188 136.216ZM104.875 139.278C109.11 139.278 112.103 136.872 112.123 133.571C112.103 131.006 110.304 128.848 108.027 128.44V128.321C110.005 127.844 111.348 125.984 111.368 123.787C111.348 120.675 108.603 118.358 104.875 118.358C101.106 118.358 98.3619 120.675 98.3817 123.787C98.3619 125.974 99.7042 127.844 101.723 128.321V128.44C99.4059 128.848 97.6062 131.006 97.6261 133.571C97.6062 136.872 100.599 139.278 104.875 139.278ZM104.875 136.763C102.329 136.763 100.718 135.411 100.738 133.372C100.718 131.254 102.468 129.743 104.875 129.743C107.241 129.743 108.991 131.254 109.011 133.372C108.991 135.411 107.39 136.763 104.875 136.763ZM104.875 127.287C102.816 127.287 101.355 125.984 101.375 124.045C101.355 122.136 102.767 120.874 104.875 120.874C106.943 120.874 108.355 122.136 108.375 124.045C108.355 125.984 106.903 127.287 104.875 127.287ZM115.258 135.023H124.913V139H127.846V135.023H130.54V132.418H127.846V118.636H124.058L115.258 132.537V135.023ZM124.933 132.418H118.479V132.259L124.773 122.295H124.933V132.418ZM141.095 139.338C145.798 139.338 148.553 135.5 148.553 128.828C148.553 122.206 145.759 118.358 141.095 118.358C136.422 118.358 133.638 122.196 133.628 128.828C133.628 135.49 136.382 139.328 141.095 139.338ZM141.095 136.683C138.341 136.683 136.68 133.919 136.68 128.828C136.69 123.757 138.351 120.963 141.095 120.963C143.83 120.963 145.5 123.757 145.5 128.828C145.5 133.919 143.839 136.683 141.095 136.683ZM155.222 136.216H152.358L152.259 137.33C152.03 140.024 151.394 142.739 151.125 143.972H153.233C153.711 142.669 154.765 139.686 155.073 137.3L155.222 136.216ZM165.724 139.278C169.98 139.318 172.804 136.256 172.794 132.348C172.804 128.45 169.97 125.656 166.44 125.656C164.293 125.656 162.433 126.69 161.389 128.411H161.24C161.25 123.787 163 121.043 165.983 121.043C167.942 121.043 169.175 122.236 169.592 123.926H172.625C172.158 120.705 169.622 118.358 165.983 118.358C161.25 118.358 158.297 122.425 158.297 129.504C158.287 137.001 162.105 139.249 165.724 139.278ZM165.714 136.693C163.348 136.693 161.618 134.705 161.618 132.418C161.628 130.141 163.438 128.152 165.784 128.152C168.111 128.152 169.821 130.031 169.811 132.388C169.821 134.794 168.041 136.693 165.714 136.693ZM176.416 139H189.819V136.365H180.652V136.216L184.699 131.98C188.427 128.212 189.491 126.412 189.491 124.135C189.491 120.864 186.826 118.358 182.988 118.358C179.18 118.358 176.396 120.824 176.396 124.543H179.329C179.319 122.355 180.731 120.923 182.929 120.923C184.997 120.923 186.568 122.196 186.568 124.224C186.568 126.024 185.494 127.317 183.306 129.634L176.416 136.773V139ZM200.677 139.338C205.38 139.338 208.135 135.5 208.135 128.828C208.135 122.206 205.341 118.358 200.677 118.358C196.004 118.358 193.22 122.196 193.21 128.828C193.21 135.49 195.964 139.328 200.677 139.338ZM200.677 136.683C197.923 136.683 196.262 133.919 196.262 128.828C196.272 123.757 197.933 120.963 200.677 120.963C203.412 120.963 205.082 123.757 205.082 128.828C205.082 133.919 203.422 136.683 200.677 136.683Z" fill="#333333"/>
<path d="M98.6165 153.141H101.788V162H103.32V153.141H106.496V151.818H98.6165V153.141ZM110.228 162.154C112.38 162.154 113.787 160.578 113.787 158.217C113.787 155.84 112.38 154.264 110.228 154.264C108.075 154.264 106.668 155.84 106.668 158.217C106.668 160.578 108.075 162.154 110.228 162.154ZM110.233 160.906C108.826 160.906 108.169 159.678 108.169 158.212C108.169 156.75 108.826 155.507 110.233 155.507C111.63 155.507 112.286 156.75 112.286 158.212C112.286 159.678 111.63 160.906 110.233 160.906ZM119.011 154.364H117.445V152.534H115.959V154.364H114.84V155.557H115.959V160.066C115.954 161.453 117.013 162.124 118.186 162.099C118.658 162.094 118.976 162.005 119.15 161.94L118.882 160.712C118.782 160.732 118.599 160.777 118.36 160.777C117.878 160.777 117.445 160.618 117.445 159.758V155.557H119.011V154.364ZM122.878 162.169C124.141 162.169 124.852 161.528 125.135 160.956H125.195V162H126.646V156.929C126.646 154.707 124.896 154.264 123.683 154.264C122.301 154.264 121.028 154.821 120.531 156.213L121.928 156.531C122.147 155.989 122.704 155.467 123.703 155.467C124.663 155.467 125.155 155.969 125.155 156.835V156.869C125.155 157.411 124.598 157.401 123.226 157.56C121.779 157.729 120.298 158.107 120.298 159.842C120.298 161.344 121.426 162.169 122.878 162.169ZM123.201 160.976C122.361 160.976 121.754 160.598 121.754 159.862C121.754 159.067 122.46 158.783 123.32 158.669C123.803 158.604 124.946 158.475 125.16 158.261V159.246C125.16 160.151 124.439 160.976 123.201 160.976ZM130.113 151.818H128.626V162H130.113V151.818ZM141.54 156.228C141.232 155.04 140.302 154.264 138.651 154.264C136.926 154.264 135.703 155.174 135.703 156.526C135.703 157.61 136.36 158.331 137.791 158.649L139.084 158.933C139.82 159.097 140.163 159.425 140.163 159.902C140.163 160.494 139.531 160.956 138.557 160.956C137.667 160.956 137.095 160.573 136.916 159.822L135.48 160.041C135.728 161.393 136.852 162.154 138.567 162.154C140.411 162.154 141.689 161.175 141.689 159.793C141.689 158.714 141.003 158.048 139.601 157.724L138.388 157.446C137.548 157.247 137.185 156.964 137.19 156.447C137.185 155.86 137.821 155.442 138.666 155.442C139.591 155.442 140.019 155.955 140.193 156.467L141.54 156.228ZM144.81 157.466C144.81 156.248 145.581 155.552 146.64 155.552C147.664 155.552 148.275 156.203 148.275 157.322V162H149.762V157.143C149.762 155.239 148.718 154.264 147.147 154.264C145.958 154.264 145.243 154.781 144.885 155.607H144.79V151.818H143.324V162H144.81V157.466ZM153.968 162.169C155.23 162.169 155.941 161.528 156.225 160.956H156.284V162H157.736V156.929C157.736 154.707 155.986 154.264 154.773 154.264C153.391 154.264 152.118 154.821 151.621 156.213L153.018 156.531C153.237 155.989 153.794 155.467 154.793 155.467C155.752 155.467 156.245 155.969 156.245 156.835V156.869C156.245 157.411 155.688 157.401 154.316 157.56C152.869 157.729 151.387 158.107 151.387 159.842C151.387 161.344 152.516 162.169 153.968 162.169ZM154.291 160.976C153.451 160.976 152.844 160.598 152.844 159.862C152.844 159.067 153.55 158.783 154.41 158.669C154.892 158.604 156.036 158.475 156.25 158.261V159.246C156.25 160.151 155.529 160.976 154.291 160.976ZM159.716 162H161.203V157.337C161.203 156.337 161.973 155.616 163.027 155.616C163.335 155.616 163.683 155.671 163.803 155.706V154.284C163.654 154.264 163.36 154.249 163.171 154.249C162.276 154.249 161.511 154.756 161.232 155.577H161.153V154.364H159.716V162ZM168.107 162.154C169.772 162.154 170.951 161.334 171.289 160.091L169.882 159.837C169.613 160.558 168.967 160.926 168.122 160.926C166.849 160.926 165.994 160.101 165.954 158.629H171.383V158.102C171.383 155.343 169.733 154.264 168.002 154.264C165.875 154.264 164.473 155.885 164.473 158.232C164.473 160.603 165.855 162.154 168.107 162.154ZM165.959 157.516C166.019 156.432 166.804 155.492 168.012 155.492C169.166 155.492 169.922 156.347 169.926 157.516H165.959ZM178.755 156.228C178.447 155.04 177.517 154.264 175.866 154.264C174.141 154.264 172.918 155.174 172.918 156.526C172.918 157.61 173.574 158.331 175.006 158.649L176.299 158.933C177.035 159.097 177.378 159.425 177.378 159.902C177.378 160.494 176.746 160.956 175.772 160.956C174.882 160.956 174.31 160.573 174.131 159.822L172.694 160.041C172.943 161.393 174.067 162.154 175.782 162.154C177.626 162.154 178.904 161.175 178.904 159.793C178.904 158.714 178.218 158.048 176.816 157.724L175.603 157.446C174.763 157.247 174.4 156.964 174.405 156.447C174.4 155.86 175.036 155.442 175.881 155.442C176.806 155.442 177.233 155.955 177.407 156.467L178.755 156.228Z" fill="#333333"/>
</svg>
