<svg width="275" height="275" viewBox="0 0 275 275" fill="none" xmlns="http://www.w3.org/2000/svg">
<path d="M275 137.5C275 162.466 268.203 186.961 255.337 208.356C242.472 229.752 224.024 247.241 201.973 258.947C179.922 270.654 155.1 276.135 130.169 274.804C105.239 273.473 81.1415 265.38 60.4622 251.392L92.1292 204.576C104.308 212.814 118.5 217.58 133.183 218.364C147.865 219.148 162.484 215.92 175.471 209.025C188.458 202.131 199.322 191.831 206.899 179.23C214.476 166.629 218.479 152.203 218.479 137.5H275Z" fill="#0F2535"/>
<path d="M60.6448 251.515C40.8932 238.201 24.9392 219.985 14.3458 198.65C3.75247 177.315 -1.11679 153.594 0.215119 129.812C1.54703 106.029 9.03442 83.0002 21.9437 62.9816C34.8529 42.9631 52.7413 26.6416 73.8559 15.6161C94.9706 4.59066 118.587 -0.76045 142.392 0.0870599C166.197 0.93457 189.374 7.95163 209.651 20.4507C229.928 32.9498 246.61 50.5022 258.063 71.388C269.516 92.2739 275.347 115.777 274.984 139.594L218.47 138.733C218.684 124.706 215.25 110.864 208.505 98.5639C201.76 86.2634 191.935 75.926 179.993 68.5648C168.05 61.2036 154.401 57.0709 140.381 56.5718C126.362 56.0727 112.453 59.2241 100.017 65.7175C87.582 72.2108 77.0469 81.8233 69.4441 93.613C61.8413 105.403 57.4316 118.965 56.6472 132.972C55.8628 146.979 58.7305 160.949 64.9694 173.514C71.2082 186.079 80.6042 196.807 92.2368 204.648L60.6448 251.515Z" fill="#F4BE36"/>
<path d="M79.6804 138.278C83.777 138.278 86.7003 135.385 86.6903 131.418C86.7003 127.48 83.956 124.616 80.2472 124.616C78.7358 124.616 77.3338 125.193 76.5384 125.969H76.419L77.0653 120.271H85.706V117.636H74.5099L73.3665 127.898L76.1804 128.315C76.946 127.629 78.3182 127.162 79.5511 127.162C81.9673 127.182 83.7173 128.991 83.7173 131.477C83.7173 133.923 82.017 135.693 79.6804 135.693C77.7116 135.693 76.1506 134.44 75.9915 132.69H73.0085C73.1278 135.932 75.9418 138.278 79.6804 138.278ZM93.5188 135.216H90.6552L90.5558 136.33C90.3271 139.024 89.6907 141.739 89.4222 142.972H91.5302C92.0075 141.669 93.0614 138.686 93.3697 136.3L93.5188 135.216ZM103.875 138.278C108.11 138.278 111.103 135.872 111.123 132.571C111.103 130.006 109.304 127.848 107.027 127.44V127.321C109.005 126.844 110.348 124.984 110.368 122.787C110.348 119.675 107.603 117.358 103.875 117.358C100.106 117.358 97.3619 119.675 97.3817 122.787C97.3619 124.974 98.7042 126.844 100.723 127.321V127.44C98.4059 127.848 96.6062 130.006 96.6261 132.571C96.6062 135.872 99.5991 138.278 103.875 138.278ZM103.875 135.763C101.329 135.763 99.7184 134.411 99.7383 132.372C99.7184 130.254 101.468 128.743 103.875 128.743C106.241 128.743 107.991 130.254 108.011 132.372C107.991 134.411 106.39 135.763 103.875 135.763ZM103.875 126.287C101.816 126.287 100.355 124.984 100.375 123.045C100.355 121.136 101.767 119.874 103.875 119.874C105.943 119.874 107.355 121.136 107.375 123.045C107.355 124.984 105.903 126.287 103.875 126.287ZM114.258 134.023H123.913V138H126.846V134.023H129.54V131.418H126.846V117.636H123.058L114.258 131.537V134.023ZM123.933 131.418H117.479V131.259L123.773 121.295H123.933V131.418ZM140.095 138.338C144.798 138.338 147.553 134.5 147.553 127.828C147.553 121.206 144.759 117.358 140.095 117.358C135.422 117.358 132.638 121.196 132.628 127.828C132.628 134.49 135.382 138.328 140.095 138.338ZM140.095 135.683C137.341 135.683 135.68 132.919 135.68 127.828C135.69 122.757 137.351 119.963 140.095 119.963C142.83 119.963 144.5 122.757 144.5 127.828C144.5 132.919 142.839 135.683 140.095 135.683ZM154.222 135.216H151.358L151.259 136.33C151.03 139.024 150.394 141.739 150.125 142.972H152.233C152.711 141.669 153.765 138.686 154.073 136.3L154.222 135.216ZM164.724 138.278C168.98 138.318 171.804 135.256 171.794 131.348C171.804 127.45 168.97 124.656 165.44 124.656C163.293 124.656 161.433 125.69 160.389 127.411H160.24C160.25 122.787 162 120.043 164.983 120.043C166.942 120.043 168.175 121.236 168.592 122.926H171.625C171.158 119.705 168.622 117.358 164.983 117.358C160.25 117.358 157.297 121.425 157.297 128.504C157.287 136.001 161.105 138.249 164.724 138.278ZM164.714 135.693C162.348 135.693 160.618 133.705 160.618 131.418C160.628 129.141 162.438 127.152 164.784 127.152C167.111 127.152 168.821 129.031 168.811 131.388C168.821 133.794 167.041 135.693 164.714 135.693ZM175.416 138H188.819V135.365H179.652V135.216L183.699 130.98C187.427 127.212 188.491 125.412 188.491 123.135C188.491 119.864 185.826 117.358 181.988 117.358C178.18 117.358 175.396 119.824 175.396 123.543H178.329C178.319 121.355 179.731 119.923 181.929 119.923C183.997 119.923 185.568 121.196 185.568 123.224C185.568 125.024 184.494 126.317 182.306 128.634L175.416 135.773V138ZM199.677 138.338C204.38 138.338 207.135 134.5 207.135 127.828C207.135 121.206 204.341 117.358 199.677 117.358C195.004 117.358 192.22 121.196 192.21 127.828C192.21 134.49 194.964 138.328 199.677 138.338ZM199.677 135.683C196.923 135.683 195.262 132.919 195.262 127.828C195.272 122.757 196.933 119.963 199.677 119.963C202.412 119.963 204.082 122.757 204.082 127.828C204.082 132.919 202.422 135.683 199.677 135.683Z" fill="#333333"/>
<path d="M97.6165 152.141H100.788V161H102.32V152.141H105.496V150.818H97.6165V152.141ZM109.228 161.154C111.38 161.154 112.787 159.578 112.787 157.217C112.787 154.84 111.38 153.264 109.228 153.264C107.075 153.264 105.668 154.84 105.668 157.217C105.668 159.578 107.075 161.154 109.228 161.154ZM109.233 159.906C107.826 159.906 107.169 158.678 107.169 157.212C107.169 155.75 107.826 154.507 109.233 154.507C110.63 154.507 111.286 155.75 111.286 157.212C111.286 158.678 110.63 159.906 109.233 159.906ZM118.011 153.364H116.445V151.534H114.959V153.364H113.84V154.557H114.959V159.066C114.954 160.453 116.013 161.124 117.186 161.099C117.658 161.094 117.976 161.005 118.15 160.94L117.882 159.712C117.782 159.732 117.599 159.777 117.36 159.777C116.878 159.777 116.445 159.618 116.445 158.758V154.557H118.011V153.364ZM121.878 161.169C123.141 161.169 123.852 160.528 124.135 159.956H124.195V161H125.646V155.929C125.646 153.707 123.896 153.264 122.683 153.264C121.301 153.264 120.028 153.821 119.531 155.213L120.928 155.531C121.147 154.989 121.704 154.467 122.703 154.467C123.663 154.467 124.155 154.969 124.155 155.835V155.869C124.155 156.411 123.598 156.401 122.226 156.56C120.779 156.729 119.298 157.107 119.298 158.842C119.298 160.344 120.426 161.169 121.878 161.169ZM122.201 159.976C121.361 159.976 120.754 159.598 120.754 158.862C120.754 158.067 121.46 157.783 122.32 157.669C122.803 157.604 123.946 157.475 124.16 157.261V158.246C124.16 159.151 123.439 159.976 122.201 159.976ZM129.113 150.818H127.626V161H129.113V150.818ZM140.54 155.228C140.232 154.04 139.302 153.264 137.651 153.264C135.926 153.264 134.703 154.174 134.703 155.526C134.703 156.61 135.36 157.331 136.791 157.649L138.084 157.933C138.82 158.097 139.163 158.425 139.163 158.902C139.163 159.494 138.531 159.956 137.557 159.956C136.667 159.956 136.095 159.573 135.916 158.822L134.48 159.041C134.728 160.393 135.852 161.154 137.567 161.154C139.411 161.154 140.689 160.175 140.689 158.793C140.689 157.714 140.003 157.048 138.601 156.724L137.388 156.446C136.548 156.247 136.185 155.964 136.19 155.447C136.185 154.86 136.821 154.442 137.666 154.442C138.591 154.442 139.019 154.955 139.193 155.467L140.54 155.228ZM143.81 156.466C143.81 155.248 144.581 154.552 145.64 154.552C146.664 154.552 147.275 155.203 147.275 156.322V161H148.762V156.143C148.762 154.239 147.718 153.264 146.147 153.264C144.958 153.264 144.243 153.781 143.885 154.607H143.79V150.818H142.324V161H143.81V156.466ZM152.968 161.169C154.23 161.169 154.941 160.528 155.225 159.956H155.284V161H156.736V155.929C156.736 153.707 154.986 153.264 153.773 153.264C152.391 153.264 151.118 153.821 150.621 155.213L152.018 155.531C152.237 154.989 152.794 154.467 153.793 154.467C154.752 154.467 155.245 154.969 155.245 155.835V155.869C155.245 156.411 154.688 156.401 153.316 156.56C151.869 156.729 150.387 157.107 150.387 158.842C150.387 160.344 151.516 161.169 152.968 161.169ZM153.291 159.976C152.451 159.976 151.844 159.598 151.844 158.862C151.844 158.067 152.55 157.783 153.41 157.669C153.892 157.604 155.036 157.475 155.25 157.261V158.246C155.25 159.151 154.529 159.976 153.291 159.976ZM158.716 161H160.203V156.337C160.203 155.337 160.973 154.616 162.027 154.616C162.335 154.616 162.683 154.671 162.803 154.706V153.284C162.654 153.264 162.36 153.249 162.171 153.249C161.276 153.249 160.511 153.756 160.232 154.577H160.153V153.364H158.716V161ZM167.107 161.154C168.772 161.154 169.951 160.334 170.289 159.091L168.882 158.837C168.613 159.558 167.967 159.926 167.122 159.926C165.849 159.926 164.994 159.101 164.954 157.629H170.383V157.102C170.383 154.343 168.733 153.264 167.002 153.264C164.875 153.264 163.473 154.885 163.473 157.232C163.473 159.603 164.855 161.154 167.107 161.154ZM164.959 156.516C165.019 155.432 165.804 154.492 167.012 154.492C168.166 154.492 168.922 155.347 168.926 156.516H164.959ZM177.755 155.228C177.447 154.04 176.517 153.264 174.866 153.264C173.141 153.264 171.918 154.174 171.918 155.526C171.918 156.61 172.574 157.331 174.006 157.649L175.299 157.933C176.035 158.097 176.378 158.425 176.378 158.902C176.378 159.494 175.746 159.956 174.772 159.956C173.882 159.956 173.31 159.573 173.131 158.822L171.694 159.041C171.943 160.393 173.067 161.154 174.782 161.154C176.626 161.154 177.904 160.175 177.904 158.793C177.904 157.714 177.218 157.048 175.816 156.724L174.603 156.446C173.763 156.247 173.4 155.964 173.405 155.447C173.4 154.86 174.036 154.442 174.881 154.442C175.806 154.442 176.233 154.955 176.407 155.467L177.755 155.228Z" fill="#333333"/>
</svg>
