<svg width="609" height="645" viewBox="0 0 609 645" fill="none" xmlns="http://www.w3.org/2000/svg">
<g opacity="0.5">
<circle cx="242.98" cy="127.047" r="9.31083" fill="#9DA3F5"/>
<circle cx="219.702" cy="127.047" r="9.31083" fill="#F7C243"/>
<ellipse cx="196.193" cy="127.047" rx="9.5436" ry="9.31083" fill="#5CC5BD"/>
<circle cx="172.683" cy="127.047" r="9.31083" fill="#F08B7D"/>
</g>
<path d="M188.964 570.459C260.094 611.564 375.448 611.615 446.615 570.572C517.781 529.53 517.81 462.936 446.68 421.831C375.55 380.725 260.196 380.674 189.03 421.717C117.863 462.759 117.834 529.353 188.964 570.459ZM327.535 490.543C332.897 493.641 332.895 498.661 327.53 501.755C322.166 504.848 313.471 504.845 308.109 501.746C302.747 498.648 302.75 493.628 308.114 490.534C313.478 487.441 322.173 487.445 327.535 490.543Z" fill="black"/>
<path d="M188.968 560.071C260.098 601.176 375.452 601.227 446.619 560.184C517.785 519.142 517.814 452.548 446.684 411.443C375.554 370.337 260.2 370.286 189.033 411.329C117.867 452.371 117.838 518.965 188.968 560.071ZM327.539 480.155C332.901 483.253 332.898 488.273 327.534 491.367C322.17 494.46 313.475 494.457 308.113 491.358C302.751 488.26 302.754 483.24 308.118 480.146C313.482 477.053 322.177 477.057 327.539 480.155Z" fill="#EBF6FD"/>
<path d="M322.343 582.344C293.079 582.789 264.115 578.822 238.308 570.836L256.376 551.365C276.319 557.536 298.702 560.602 321.316 560.258L322.343 582.344Z" fill="white"/>
<path d="M449.042 534.732C466.104 520.942 476.271 504.709 478.435 487.805C480.599 470.901 474.676 453.976 461.312 438.879L450.061 442.196C462.371 456.103 467.827 471.693 465.834 487.264C463.84 502.834 454.475 517.788 438.759 530.49L449.042 534.732Z" fill="#C6E9FF"/>
<path d="M421.305 551.993C426.812 549.341 432.004 546.479 436.846 543.426L427.524 538.498C423.064 541.311 418.281 543.947 413.209 546.39L421.305 551.993Z" fill="black"/>
<path fill-rule="evenodd" clip-rule="evenodd" d="M218.5 420.977C219.197 421.327 219.197 421.327 219.572 420.597C220.049 420.433 220.624 420.763 221.056 420.325C221.54 420.446 222.019 420.611 222.511 420.679C223.305 420.788 223.715 421.403 224.164 421.921C224.468 422.272 224.787 422.625 225.065 423.007C225.391 423.453 225.78 423.853 226.107 424.298C226.403 424.702 226.656 425.138 226.918 425.566C226.991 425.684 227.085 425.829 227.074 425.954C227.046 426.286 227.161 426.509 227.396 426.747C227.85 427.205 227.814 427.877 227.972 428.448C228.117 428.981 228.033 429.588 227.986 430.157C227.968 430.374 227.939 430.838 227.461 430.496C227.427 430.471 227.26 430.649 227.145 430.717C227.023 430.787 226.816 430.923 226.773 430.885C226.269 430.442 226.145 430.758 225.914 431.196C225.575 431.841 225.367 431.794 224.456 431.63C223.901 431.531 223.313 431.513 222.988 431.032C222.11 429.729 221.211 428.436 221.09 426.772C221.042 426.105 220.856 425.409 220.306 424.929C219.832 424.516 219.518 423.925 218.871 423.694C218.676 423.625 218.533 423.392 218.382 423.221C218.059 422.855 217.887 422.448 217.878 421.934C217.87 421.4 218.292 421.28 218.5 420.977" fill="#CAEAFF"/>
<path fill-rule="evenodd" clip-rule="evenodd" d="M292.946 464.521C292.378 463.952 291.901 463.394 291.344 462.932C289.749 461.607 288.992 459.733 288.038 457.988C287.609 457.205 287.732 456.326 287.751 455.478C287.755 455.331 287.958 455.189 288.077 455.034C288.239 455.356 288.391 455.656 288.613 456.095L288.613 454.527C288.947 454.362 289.277 454.272 289.502 454.067C289.782 453.813 290.097 453.863 290.353 453.928C290.652 454.003 290.906 454.252 291.206 454.443C291.03 455.266 291.353 455.955 291.755 456.674C292.114 456.576 292.538 456.832 292.898 456.463C292.974 456.385 293.225 456.379 293.332 456.443C294.213 456.974 295.295 457.256 295.74 458.345C295.82 458.541 295.909 458.795 296.07 458.882C296.312 459.014 296.094 459.424 296.511 459.44C296.854 459.453 296.635 459.803 296.696 459.993C296.772 460.229 296.876 460.46 296.917 460.702C296.955 460.924 296.925 461.157 296.925 461.387C296.043 462.143 295.475 463.107 295.04 464.181C294.334 464.295 293.618 464.411 292.946 464.521" fill="#CAEAFF"/>
<path fill-rule="evenodd" clip-rule="evenodd" d="M197.283 410.914C197.493 410.629 197.656 410.391 197.837 410.167C197.903 410.086 198.005 410.028 198.1 409.975C198.37 409.824 198.563 410.252 198.865 410.066C199.101 409.92 199.379 409.789 199.649 409.763C199.873 409.742 200.205 410.012 200.326 409.925C200.594 409.732 200.755 409.674 200.988 409.936C201.031 409.984 201.19 409.948 201.289 409.924C202.021 409.748 202.021 409.745 202.413 410.457C202.466 410.303 202.513 410.17 202.597 409.927C202.713 410.24 202.826 410.463 202.874 410.699C202.933 410.987 202.947 411.286 202.961 411.581C202.974 411.878 202.963 412.175 203.13 412.481L203.241 411.376C203.28 411.375 203.32 411.373 203.36 411.372C203.381 411.567 203.419 411.763 203.42 411.959C203.426 412.952 203.379 413.948 203.435 414.938C203.484 415.811 203.335 416.602 202.841 417.324C202.656 417.147 202.481 416.878 202.27 417.306C202.039 417.774 201.67 417.738 201.194 417.524C201.114 418.032 201.078 418.632 200.236 418.44L200.237 417.166C200.181 417.155 200.124 417.144 200.068 417.132C199.934 417.567 199.801 418.001 199.664 418.448C199.287 418.196 198.979 417.928 199.04 417.398C199.057 417.249 198.884 417.086 198.828 416.92C198.586 416.198 198.59 416.196 197.99 416.179C197.876 416.175 197.761 416.178 197.647 416.178L197.332 416.178C197.041 415.887 196.779 415.608 196.499 415.348C195.903 414.796 195.713 414.066 195.618 413.308C195.571 412.931 195.652 412.538 195.599 412.164C195.54 411.751 195.753 411.446 195.941 411.155C196.316 410.576 196.52 410.559 197.283 410.914" fill="#CAEAFF"/>
<path fill-rule="evenodd" clip-rule="evenodd" d="M264.279 420.036C263.789 420.369 263.317 420.702 262.825 421.003C262.777 421.032 262.606 420.858 262.422 420.729C262.309 420.932 262.232 421.118 262.113 421.269C261.972 421.448 261.791 421.596 261.631 421.76C261.308 422.093 260.996 422.464 260.518 421.958C260.481 421.919 260.37 421.957 260.294 421.949C259.757 421.891 259.245 422.025 258.705 421.592C258.27 421.244 257.716 421.003 257.307 420.576C256.924 420.175 256.527 419.798 256.26 419.289C255.85 418.507 255.445 417.734 255.592 416.817C255.629 416.587 255.787 416.376 255.93 416.068C256.218 416.305 256.414 416.465 256.642 416.653C256.829 416.033 256.791 415.311 257.367 414.765C257.592 414.933 257.81 415.096 258.081 415.299L258.082 414.461C258.837 414.333 259.523 414.073 260.279 414.119C260.713 414.146 261.088 414.283 261.363 414.547C261.716 414.885 262.148 415.127 262.436 415.56C262.696 415.952 263.052 416.28 263.325 416.683C263.773 417.347 263.925 418.123 264.252 418.829C264.409 419.166 264.279 419.636 264.279 420.036" fill="#CAEAFF"/>
<path fill-rule="evenodd" clip-rule="evenodd" d="M215.611 441.979L215.61 444.445C215.839 443.822 215.8 443.192 215.82 442.566C215.827 442.314 215.708 442.001 216.014 441.851C216.329 441.695 216.663 441.541 217.003 441.491C217.12 441.474 217.343 441.751 217.409 441.933C217.481 442.128 217.426 442.369 217.425 442.615C217.616 442.536 217.729 442.443 217.831 442.455C218.041 442.478 218.329 442.673 218.436 442.594C219.033 442.155 219.687 442.444 220.305 442.41C220.584 442.394 221.006 442.581 221.14 442.808C221.469 443.366 222.132 443.537 222.479 444.194C222.49 444.475 222.527 444.821 222.818 445.195C223.2 445.684 223.526 446.292 223.407 447.007C223.352 447.34 223.397 447.69 223.397 448.095C222.614 448.56 221.799 449.011 221.018 449.514C220.2 450.041 219.457 449.687 218.761 449.322C218.254 449.056 217.573 448.931 217.402 448.221C216.267 447.71 216.066 446.514 215.46 445.61C215.053 445.003 215.066 444.296 214.951 443.653C214.856 443.122 215.231 442.506 215.398 441.928C215.469 441.945 215.541 441.962 215.611 441.979" fill="#CAEAFF"/>
<path fill-rule="evenodd" clip-rule="evenodd" d="M237.836 454.421C237.353 453.937 236.841 453.424 236.264 452.847C236.264 452.465 236.224 452.009 236.284 451.567C236.307 451.403 236.545 451.237 236.721 451.141C236.788 451.104 236.96 451.26 237.086 451.328C237.253 450.998 237.351 450.551 237.915 450.66C238.02 450.681 238.168 450.687 238.24 450.63C238.521 450.402 238.827 450.17 239.186 450.27C239.83 450.45 240.548 450.555 241.05 451C242.042 451.88 242.986 452.835 243.479 454.105C243.773 454.863 244.039 455.645 244.181 456.44C244.243 456.788 244.149 457.266 243.752 457.543C243.099 458 242.471 458.493 241.804 458.927C241.577 459.075 241.256 459.177 240.991 459.154C239.322 459.009 238.133 458.223 237.64 456.337C237.568 456.062 237.396 455.776 237.433 455.519C237.487 455.147 237.691 454.796 237.836 454.421" fill="#CAEAFF"/>
<path fill-rule="evenodd" clip-rule="evenodd" d="M240.683 495.93C240.638 495.7 240.592 495.47 240.547 495.239C240.543 496.154 239.578 496.495 239.368 497.272C239.292 497.55 238.881 497.674 238.711 497.519C238.434 497.268 238.244 497.451 238.088 497.553C237.671 497.824 237.317 497.798 236.892 497.549C235.666 496.832 234.401 496.172 233.678 494.858C232.807 494.386 232.553 493.428 232.012 492.7C231.749 492.346 231.665 491.858 231.482 491.383C231.802 490.917 232.267 491.041 232.829 491.321C232.775 491.056 232.79 490.812 232.679 490.662C232.525 490.455 232.69 490.374 232.777 490.337C233.173 490.172 233.582 490.051 233.909 489.738C233.988 489.662 234.214 489.692 234.353 489.734C234.603 489.81 234.817 489.97 235.095 489.744C235.174 489.681 235.43 489.808 235.591 489.879C236.973 490.487 238.225 491.249 239.043 492.598C239.153 492.78 239.402 492.973 239.588 493.146C240.12 493.641 240.22 494.363 240.632 494.896C240.906 495.252 240.846 495.563 240.683 495.93" fill="#CAEAFF"/>
<path fill-rule="evenodd" clip-rule="evenodd" d="M310.447 442.396C310.477 442.184 310.508 441.971 310.541 441.738C310.625 441.799 310.699 441.823 310.718 441.87C311.012 442.59 311.379 443.281 311.552 444.051C311.66 444.536 311.799 445 311.33 445.377C311.01 445.634 311.334 446.372 310.616 446.33C310.277 446.874 309.734 446.82 309.215 446.782C309.098 447.146 309.025 447.501 308.872 447.817C308.699 448.174 308.149 448.274 307.558 448.105C307.424 448.067 307.294 447.936 307.17 447.947C306.214 448.03 306.215 448.037 305.813 447.283C305.613 446.906 305.37 446.547 305.214 446.153C305.025 445.672 304.73 445.372 304.245 445.165C303.526 444.857 303.058 444.232 302.934 443.489C302.822 442.817 303.137 442.2 303.738 441.716C304.035 442.105 304.331 442.492 304.747 443.035C304.747 442.479 304.741 442.106 304.749 441.733C304.757 441.361 304.797 441.437 305.385 441.173C305.804 440.984 306.412 441.213 306.654 440.631C307.068 440.615 307.483 440.6 307.897 440.585C308.663 440.555 309.342 440.638 309.698 441.489C309.839 441.827 310.179 442.081 310.447 442.396" fill="#CAEAFF"/>
<path fill-rule="evenodd" clip-rule="evenodd" d="M197.175 447.928C196.268 447.731 195.95 447.088 195.868 446.523C195.762 445.801 195.518 445.092 195.577 444.329C195.653 443.34 195.648 442.337 195.574 441.348C195.539 440.868 195.847 440.513 195.84 440.065C195.838 439.948 196 439.722 196.077 439.727C196.669 439.761 196.95 439.121 197.57 439.117C197.981 439.115 198.39 438.73 198.85 438.489C199.304 438.944 200.271 438.383 200.638 439.384C200.397 440.088 200.997 440.706 201.2 441.427C201.229 441.528 201.334 441.617 201.335 441.713C201.344 442.848 201.34 443.983 201.339 445.216C201.156 445.053 201.076 444.982 200.879 444.807C200.941 445.073 200.929 445.278 201.02 445.347C201.116 445.421 201.321 445.339 201.458 445.385C201.52 445.406 201.554 445.57 201.56 445.672C201.564 445.719 201.462 445.822 201.425 445.815C201.147 445.76 200.873 445.684 200.573 445.609C200.367 446.053 200.148 446.527 199.984 446.881C199.671 446.858 199.484 446.843 199.298 446.829C199.625 447.16 199.249 447.278 199.112 447.481C198.974 447.687 198.872 447.918 198.762 448.123C198.039 448.045 197.77 447.579 197.577 446.961C197.44 447.292 197.316 447.588 197.175 447.928" fill="#CAEAFF"/>
<path fill-rule="evenodd" clip-rule="evenodd" d="M281.725 500.801C281.13 500.783 280.568 500.623 280.28 501.281C279.795 500.642 279.738 500.188 280.232 499.68C280.574 499.33 280.799 498.892 281.234 498.589C281.614 498.324 281.755 497.737 282.083 497.364C282.335 497.077 282.713 496.9 283.035 496.675C283.136 496.773 283.245 496.88 283.416 497.048C283.234 497.177 283.055 497.304 282.876 497.431C282.896 497.477 282.916 497.523 282.936 497.569C283.198 497.528 283.46 497.487 283.754 497.44C283.832 497.558 283.923 497.86 284.118 497.961C285.29 498.572 286.037 499.59 286.748 500.636C286.982 500.979 287.062 501.423 287.25 501.802C287.714 502.741 287.833 502.914 287.692 503.766C287.589 504.383 287.477 505.04 286.992 505.542C286.801 505.74 286.597 506.026 286.587 506.279C286.561 506.92 286.209 507.022 285.692 506.989C285.548 506.98 285.395 506.998 285.254 507.036C284.351 507.278 284.258 507.253 283.809 506.561C283.143 505.536 282.825 504.365 282.438 503.227C282.164 502.422 281.956 501.595 281.725 500.801" fill="#CAEAFF"/>
<path fill-rule="evenodd" clip-rule="evenodd" d="M267.119 488.189C266.48 487.826 265.834 487.509 265.314 486.984C264.345 486.005 263.305 485.087 262.411 484.043C261.471 482.946 260.476 481.865 259.91 480.579C259.97 480.071 260.631 480.611 260.644 480.012C260.648 479.841 261.067 479.676 261.299 479.514C261.877 479.111 262.199 479.044 262.619 479.492C263.034 479.934 263.514 480.092 264.057 480.208C264.896 480.386 265.474 481.03 266.192 481.427C266.96 481.851 267.507 482.534 268.13 483.127C268.453 483.434 268.855 483.669 269.132 484.009C269.411 484.351 269.668 484.762 269.766 485.182C269.826 485.437 269.634 485.823 269.438 486.051C269.197 486.332 269.082 486.738 268.66 486.873C268.415 486.952 268.45 487.225 268.402 487.45C268.347 487.708 268.275 488.022 267.827 487.698C267.514 487.471 267.25 487.792 267.119 488.189" fill="#CAEAFF"/>
<path fill-rule="evenodd" clip-rule="evenodd" d="M276.183 454.773C275.982 454.806 275.772 454.841 275.481 454.889C275.596 455.104 275.678 455.256 275.763 455.416C275.217 455.962 274.649 456.529 274.063 457.115C273.969 457.115 273.854 457.098 273.745 457.117C272.456 457.355 271.598 456.624 270.883 455.742C270.324 455.053 269.844 454.294 269.47 453.466C269.237 452.949 269.028 452.472 269.196 451.77C269.586 452.63 269.934 453.395 270.282 454.161C270.344 454.14 270.406 454.121 270.469 454.1C270.44 453.955 270.436 453.798 270.38 453.664C270.147 453.111 269.882 452.57 269.663 452.011C269.566 451.764 269.358 451.456 269.889 451.341C270.053 451.306 270.149 450.953 270.274 450.743C270.384 450.56 270.49 450.374 270.577 450.226C271.114 450.177 271.119 450.646 271.454 450.84C271.376 450.544 271.298 450.249 271.195 449.859C271.367 449.723 271.597 449.541 271.827 449.359C271.972 449.503 272.164 449.733 272.342 449.31C272.536 448.852 272.821 448.674 273.284 448.975C273.326 449.002 273.413 449.023 273.441 449C273.978 448.559 274.294 448.999 274.542 449.337C275.133 450.145 275.412 451.115 275.766 452.038C275.85 452.254 276.031 452.763 275.42 452.787C275.386 452.788 275.359 452.978 275.329 453.08C275.456 453.111 275.652 453.21 275.7 453.161C276.043 452.818 276.227 453.266 276.193 453.345C275.987 453.829 276.464 454.296 276.183 454.773" fill="#CAEAFF"/>
<path fill-rule="evenodd" clip-rule="evenodd" d="M272.033 430.254C272.168 430.389 272.303 430.525 272.508 430.729C272.546 430.405 272.577 430.137 272.611 429.844C273.084 429.746 273.571 429.621 274.066 429.548C274.366 429.504 274.682 429.505 274.98 429.551C275.207 429.587 275.028 430.011 275.453 430.048C275.727 430.072 275.937 430.538 276.132 430.863C276.291 431.126 276.053 431.696 276.655 431.662C276.675 432.035 276.696 432.408 276.717 432.781C276.719 432.817 276.727 432.853 276.733 432.889L278.439 434.597C278.622 434.597 278.815 434.574 279 434.603C279.286 434.649 279.593 434.932 279.446 435.107C279.121 435.496 279.704 435.766 279.472 436.084C278.584 436.35 278.304 436.379 277.581 436.252C277.762 436.644 277.919 436.985 278.117 437.414C278.001 437.525 277.849 437.795 277.699 437.794C276.753 437.786 275.756 438.026 274.913 437.354C274.684 437.171 274.408 437.028 274.23 436.805C273.825 436.297 273.462 435.755 273.092 435.219C272.909 434.954 272.754 434.671 272.578 434.401C272.307 433.984 272.388 433.382 271.891 433.083C271.966 432.577 271.681 432.194 271.499 431.757C271.251 431.163 271.405 430.595 272.033 430.254" fill="#CAEAFF"/>
<path fill-rule="evenodd" clip-rule="evenodd" d="M236.582 413.208C237.03 413.209 237.336 413.208 237.642 413.209C238.052 413.21 238.496 413.141 238.589 413.734C238.599 413.799 238.753 413.9 238.826 413.89C239.311 413.818 239.437 414.277 239.734 414.479C240.54 415.027 240.658 415.929 240.859 416.763C240.974 417.239 240.82 417.58 240.279 417.903C239.671 418.267 238.91 418.492 238.493 419.153C238.125 419.16 237.823 419.735 237.393 419.274C237.331 419.208 237.193 419.185 237.091 419.187C235.64 419.214 234.733 418.381 233.976 417.271C233.592 416.708 233.11 416.205 232.96 415.512C232.898 415.227 232.862 414.936 232.842 414.645C232.835 414.55 232.891 414.385 232.957 414.361C233.541 414.153 233.965 413.655 234.531 413.453C235.229 413.204 235.975 413.129 236.582 413.208" fill="#CAEAFF"/>
<path fill-rule="evenodd" clip-rule="evenodd" d="M234.715 468.938C234.883 469.202 235.007 469.397 235.247 469.775C235.301 469.375 235.321 469.238 235.337 469.1C235.388 468.645 235.387 468.646 235.962 468.587C236.035 468.58 236.145 468.59 236.171 468.549C236.434 468.135 236.844 468.02 237.257 468.144C237.726 468.286 238.229 468.463 238.594 468.771C240.017 469.971 240.854 471.579 241.504 473.286C241.614 473.577 241.519 473.946 241.519 474.275C241.348 474.256 241.214 474.241 241.08 474.226C241.109 474.638 241.015 474.943 240.533 475.04C240.389 475.07 240.191 475.285 240.177 475.431C240.128 475.927 239.619 475.685 239.441 475.943C239.157 475.491 238.668 476.038 238.349 475.715C238.043 475.405 237.624 475.167 237.422 474.803C236.977 474.003 236.552 473.17 236.291 472.299C236.158 471.853 235.961 471.557 235.617 471.355C235.06 471.027 234.627 470.612 234.355 470.022C234.129 469.53 234.119 469.534 234.715 468.938" fill="#CAEAFF"/>
<path fill-rule="evenodd" clip-rule="evenodd" d="M256.255 455.585C256.255 455.47 256.228 455.312 256.265 455.169C256.29 455.074 256.453 455.009 256.467 454.918C256.483 454.818 256.366 454.703 256.364 454.595C256.364 454.498 256.499 454.38 256.473 454.309C256.424 454.178 256.316 454.056 256.204 453.965C256.13 453.904 256.007 453.903 255.854 453.862C255.926 454.111 255.983 454.312 256.041 454.513C255.636 454.265 255.185 454.068 255.384 453.472C255.551 453.544 255.716 453.615 255.92 453.703C255.986 452.985 255.321 453.358 255.065 453.018C255.44 453.063 255.69 452.805 256.067 452.855C256.242 452.878 256.469 452.507 256.737 452.253C257.109 452.557 257.526 452.897 258.014 453.296C258.062 453.005 258.096 452.797 258.137 452.545C258.689 452.439 259.254 452.33 259.826 452.22C260.119 452.595 260.349 452.937 260.628 453.231C260.871 453.486 261.205 453.656 261.438 453.917C262.098 454.654 262.396 455.583 262.667 456.503C262.764 456.832 262.871 457.353 262.242 457.441C262.245 458.045 261.608 458.135 261.32 458.518C260.96 458.997 260.323 459.079 259.636 458.801C258.606 458.385 257.93 457.581 257.273 456.798C256.944 456.405 256.574 456.035 256.255 455.585" fill="#CAEAFF"/>
<path fill-rule="evenodd" clip-rule="evenodd" d="M275.183 470.492C275.368 470.556 275.547 470.616 275.752 470.686C275.794 469.72 274.796 469.449 274.657 468.559C274.859 468.648 275.024 468.686 275.143 468.781C275.334 468.934 275.495 469.123 275.734 469.362C275.652 468.877 275.599 468.766 275.322 468.434C275.927 467.704 275.927 467.704 276.64 467.702C277.032 468.144 277.367 468.726 277.869 469.033C278.424 469.373 278.587 469.952 278.996 470.367C279.387 470.764 279.646 471.305 279.905 471.813C280.047 472.091 280.168 472.446 280.121 472.739C280.062 473.108 279.904 473.651 279.643 473.756C279.213 473.929 279.309 474.233 279.174 474.494C278.988 474.851 278.735 475.198 278.27 475.274C277.998 475.319 277.674 475.526 277.475 475.436C276.99 475.217 276.489 474.938 276.131 474.556C275.455 473.835 274.85 473.041 274.272 472.237C274.126 472.035 274.194 471.682 274.151 471.284C274.344 471.439 274.42 471.501 274.583 471.632C274.499 471.046 275.011 470.845 275.183 470.492" fill="#CAEAFF"/>
<path fill-rule="evenodd" clip-rule="evenodd" d="M269.123 512.627C268.809 512.454 268.658 512.371 268.511 512.29C268.253 513.223 268.188 513.272 267.426 512.935C267.627 513.404 267.788 513.779 267.964 514.187C267.764 514.302 267.56 514.421 267.354 514.541C266.982 514.168 266.604 513.79 266.192 513.377C265.943 513.937 266.627 514.196 266.559 514.736C265.945 514.821 265.589 514.404 265.236 514.019C265.043 513.809 264.939 513.517 264.74 513.314C263.854 512.414 263.058 511.441 262.317 510.421C262.25 510.33 262.158 510.256 262.075 510.177C261.628 509.75 261.159 509.337 261.126 508.642C261.573 508.369 261.81 508.79 262.114 509.051C262.423 508.54 261.708 508.472 261.74 508.095C261.768 507.641 262.632 508.22 262.413 507.478L263.657 507.479C264.013 507.729 264.374 507.978 264.727 508.235C265.082 508.494 265.317 508.865 265.752 509.075C266.174 509.28 266.453 509.763 266.824 510.091C267.067 510.304 267.22 510.598 267.607 510.694C267.888 510.764 268.037 511.189 268.462 511.134C268.581 511.119 268.794 511.333 268.854 511.485C268.969 511.775 269.005 512.095 269.123 512.627" fill="#CAEAFF"/>
<path fill-rule="evenodd" clip-rule="evenodd" d="M261.262 435.781C261.658 435.808 261.931 435.603 262.292 435.864C262.108 435.927 261.975 435.973 261.83 436.023C261.965 436.484 262.116 436.941 262.227 437.408C262.255 437.528 262.192 437.764 262.109 437.799C261.648 437.994 261.508 438.489 261.149 438.761C260.99 438.881 260.752 438.92 260.544 438.944C260.44 438.955 260.318 438.798 260.214 438.809C260.087 438.822 259.971 438.933 259.837 439.009C259.64 438.312 259.65 438.284 258.874 438.019C258.409 437.86 258.313 437.404 257.984 437.116C257.91 437.273 257.839 437.425 257.759 437.595C257.643 437.474 257.448 437.363 257.449 437.254C257.455 435.885 257.454 435.854 256.83 435.034C256.477 435.652 257.152 436.011 257.188 436.616C257.021 436.59 256.771 436.609 256.742 436.538C256.449 435.824 256.002 435.15 256.461 434.294C256.603 434.028 256.629 433.889 256.949 433.884C257.146 433.881 257.358 433.765 257.534 433.654C257.989 433.366 258.428 433.053 258.915 432.722C259.026 432.888 259.129 433.042 259.104 433.004C259.487 433.272 259.888 432.552 259.952 433.303C259.97 433.516 260.447 433.008 260.447 433.566C260.447 433.782 260.843 433.998 261.042 434.197C260.971 434.382 260.903 434.558 260.835 434.734C260.892 434.773 260.948 434.812 261.005 434.851C261.105 434.661 261.205 434.472 261.331 434.233C261.536 434.582 261.655 434.783 261.811 435.049C261.641 435.275 261.452 435.528 261.262 435.781" fill="#CAEAFF"/>
<path fill-rule="evenodd" clip-rule="evenodd" d="M222.629 470.082C222.365 469.748 222.155 469.484 221.923 469.19C221.804 469.432 221.729 469.586 221.631 469.786C221.189 469.579 220.892 469.236 220.638 468.879C220.079 468.09 219.647 467.22 219.08 466.429C218.732 465.943 218.711 465.333 218.849 464.701C219.373 464.595 219.486 465.21 219.923 465.366L219.923 464.248C220.748 464.132 221.543 464.02 222.272 463.918C223.036 464.605 223.539 465.347 223.896 466.204C224.099 466.692 224.519 467.059 224.647 467.618C224.697 467.839 224.414 468.135 224.762 468.3C224.768 468.302 224.658 468.571 224.655 468.57C224.086 468.364 223.895 469.189 223.348 469.057C223.312 469.048 223.215 469.259 223.161 469.375C223.101 469.502 223.074 469.648 222.999 469.765C222.945 469.853 222.838 469.907 222.629 470.082" fill="#CAEAFF"/>
<path fill-rule="evenodd" clip-rule="evenodd" d="M248.071 483.989C248.235 484.369 248.355 484.646 248.526 485.041C248.634 484.753 248.685 484.621 248.738 484.482C248.789 484.513 248.873 484.535 248.884 484.576C248.988 484.97 249.175 485.307 249.459 485.606C249.629 485.785 249.752 486.016 249.868 486.238C250.072 486.631 250.362 486.9 250.831 486.983C250.905 486.834 250.981 486.68 251.016 486.608C251.233 486.771 251.47 486.948 251.646 487.08C251.646 487.224 251.661 487.285 251.643 487.297C251.435 487.432 251.222 487.559 251.028 487.678C251.084 487.992 251.135 488.276 251.211 488.702C250.867 488.535 250.679 488.443 250.407 488.31C250.257 488.613 250.106 488.917 249.944 489.244C249.789 489.261 249.609 489.282 249.387 489.307L249.387 489.817C248.81 490.249 248.338 490.191 247.837 489.735C247.292 489.237 246.678 488.817 246.122 488.225C246.356 488.07 246.582 487.921 246.83 487.758C246.703 487.294 246.477 486.881 246.149 486.476C245.822 486.071 245.643 485.546 245.408 485.09C245.745 484.675 246.01 484.982 246.319 485.112C246.332 484.997 246.386 484.873 246.349 484.79C246.119 484.271 246.219 484.015 246.707 483.993C247.165 483.972 247.625 483.989 248.071 483.989" fill="#CAEAFF"/>
<path fill-rule="evenodd" clip-rule="evenodd" d="M215.37 488.517C215.562 488.802 215.719 489.035 215.915 489.326C215.966 489.167 216.036 489.064 216.02 488.979C215.942 488.564 215.841 488.154 215.735 487.685L216.403 487.686C216.46 487.806 216.531 487.953 216.671 488.244L216.671 487.305C216.802 487.26 216.913 487.246 216.991 487.188C217.169 487.055 217.452 486.754 217.481 486.778C217.772 487.018 218.133 486.873 218.416 486.982C218.838 487.144 219.239 487.427 219.233 487.965C219.232 488.126 219.018 488.305 219.05 488.44C219.077 488.55 219.371 488.575 219.459 488.699C219.531 488.801 219.537 489.073 219.463 489.132C219.165 489.37 219.231 489.677 219.251 489.965C219.276 490.325 219.119 490.544 218.799 490.634C218.458 490.731 218.378 490.949 218.306 491.276C218.205 491.737 217.888 492.044 217.353 492.021C217.168 492.013 216.977 492.017 216.797 492.056C216.34 492.156 215.765 492.046 215.623 491.711C215.276 490.894 214.773 490.121 214.867 489.16C214.904 488.785 215.129 488.678 215.37 488.517" fill="#CAEAFF"/>
<path fill-rule="evenodd" clip-rule="evenodd" d="M252.223 467.863C252.509 467.947 252.807 468.035 253.174 468.142C253.329 467.772 253.375 467.416 253.048 467.086C253.451 466.72 253.718 467.272 254.113 467.212C254.15 467.013 254.189 466.803 254.227 466.597C254.537 466.266 254.815 466.877 255.189 466.589C255.571 466.295 255.667 466.931 255.992 467.004C256.175 467.045 256.345 467.235 256.475 467.395C256.906 467.925 256.973 468.673 257.554 469.136C257.693 469.246 257.619 469.626 257.65 469.963C257.006 469.647 256.966 470.669 256.346 470.426C256.155 470.735 256.335 471.295 255.637 471.361C255.563 471.236 255.448 471.039 255.284 470.758C255.144 471.05 255.076 471.192 255.006 471.338C254.615 471.43 254.436 471.093 254.308 470.879C253.881 470.164 253.329 469.618 252.614 469.19C252.175 468.927 251.933 468.498 252.223 467.863" fill="#CAEAFF"/>
<path fill-rule="evenodd" clip-rule="evenodd" d="M246.647 437.337C246.105 437.761 245.705 438.074 245.189 438.479L244.223 438.479C243.848 437.935 243.726 437.22 243.172 436.771C243.114 436.014 242.591 435.545 242.137 435.018C241.993 434.85 242.024 434.53 241.963 434.218C242.129 434.171 242.293 434.175 242.379 434.094C243.261 433.27 244.092 433.734 244.794 434.297C245.394 434.777 245.9 435.412 246.325 436.058C246.565 436.425 246.559 436.953 246.647 437.337" fill="#CAEAFF"/>
<path fill-rule="evenodd" clip-rule="evenodd" d="M386.406 55.0537C386.886 55.0537 387.227 55.0711 387.566 55.0493C388.024 55.0198 388.284 55.2795 388.481 55.6332C388.566 55.7844 388.62 56.0262 388.429 56.0795C388.079 56.1774 387.789 56.0029 387.524 55.7466C387.254 55.4869 386.756 55.6371 386.406 55.0537M389.309 75.4864C390.813 75.6172 391.987 76.3814 393.029 77.3994C391.584 77.1547 390.514 76.1909 389.309 75.4864M379.486 99.4498C378.922 99.2759 378.365 99.0719 377.793 98.9338C376.009 98.504 374.867 97.0683 373.393 96.1534C373.125 95.9872 373.017 95.6141 373.19 95.3302C373.4 94.9828 373.664 95.2304 373.816 95.4252C375.292 97.3314 377.494 98.1401 379.486 99.4498M372.474 111.429C371.357 111.082 370.221 110.788 369.128 110.379C364.752 108.74 360.912 106.15 357.154 103.446C356.834 103.216 356.072 102.564 356.736 101.729C361.215 106.248 366.878 108.748 372.474 111.429M385.075 50.8495C388.906 50.5118 400.993 59.3854 402.744 63.3926C397.567 58.206 392.073 53.471 385.075 50.8495M379.13 52.5064C379.074 53.1649 378.635 53.9862 379.938 53.5215C380.63 53.2744 381.023 54.4097 381.963 54.5163C382.468 54.573 383.292 54.8409 383.953 55.058C384.385 55.2005 384.934 55.0328 385.086 55.6744C385.133 55.8721 385.271 56.0121 385.463 55.9016C386.444 55.3381 387.085 56.1328 387.788 56.5146C390.657 58.0753 393.423 59.8551 395.841 62.0176C399.296 65.1071 402.564 68.4191 405.327 72.1777C405.379 72.2485 405.406 72.3662 405.473 72.3938C406.095 72.6502 405.363 74.3916 406.814 73.6803C408.795 72.7098 409.248 71.8434 408.496 70.3713C407.611 68.6405 406.647 66.9436 405.624 65.2893C401.918 59.2945 396.734 54.8356 390.667 51.4161C386.58 49.1131 382.075 47.984 377.395 47.6507C373.788 47.3934 370.176 47.3352 366.622 48.1687C365.384 48.4584 364.101 48.7303 362.987 49.3001C362.403 49.5991 361.8 49.7464 361.271 49.9964C359.219 50.9665 356.863 51.4011 355.255 53.2579C354.862 53.711 354.044 53.6659 353.427 54.0802C347.609 57.9886 343.941 63.3531 342.838 70.2337C341.76 76.951 341.508 83.7256 343.119 90.441C343.482 91.9513 344.19 93.2819 344.884 94.6634C345.68 96.2503 346.72 97.7267 347.29 99.4313C347.412 99.7962 347.568 100.213 347.843 100.453C349.489 101.891 350.636 103.768 352.187 105.296C353.941 107.023 355.859 108.487 357.909 109.839C359.526 110.905 361.013 112.19 362.576 113.331C364.484 114.723 366.808 115.406 369.047 116.181C371.114 116.896 373.253 117.241 375.396 117.597C375.749 117.655 376.042 117.863 376.307 117.443C376.379 117.329 376.625 117.216 376.742 117.255C380.122 118.374 384.619 117.303 387.338 115.892C390.754 114.118 393.879 111.895 396.362 108.979C398.368 106.624 399.768 103.85 400.539 100.767C401.132 98.3939 401.799 96.0487 402.207 93.6274C402.775 90.2617 401.864 87.2565 400.191 84.4219C398.785 82.0398 397.211 79.7677 395.547 77.5509C393.882 75.3312 391.427 74.4033 388.998 73.6319C386.085 72.7064 383.028 72.3013 379.929 72.4205C377.759 72.5038 375.917 73.2718 374.359 74.7604C372.216 76.8071 370.666 79.259 369.442 81.9361C368.42 84.1747 368.378 86.6271 367.916 88.9854C367.806 89.546 368.187 89.9487 368.862 89.9957C369.434 90.0354 369.885 90.2757 369.658 90.9992C369.568 90.9992 369.525 91.0026 369.483 90.9987C368.93 90.9502 368.852 89.8401 368.156 90.2956C367.526 90.7084 367.696 91.4716 367.75 92.1287C367.977 94.8921 368.999 97.3076 371.075 99.1702C372.795 100.713 374.324 102.434 376.685 103.243C381.451 104.878 383.811 103.492 387.284 100.278C388.425 99.2225 388.769 97.7301 389.303 96.3428C390.898 92.2057 387.783 89.4302 384.291 89.3924C384.668 90.8092 386.557 90.52 387.194 91.9886C386.004 91.6286 385.257 90.9323 384.369 90.5224C383.974 90.3397 383.277 89.8581 383.12 90.3552C382.935 90.9449 381.954 91.1848 382.63 92.3535C383.351 93.5988 384.147 94.9449 384.538 96.4048C384.871 97.6477 384.064 98.6226 382.824 98.5131C379.355 98.2079 376.364 96.7116 373.952 94.3339C372.393 92.7983 371.969 90.5514 372.142 88.3627C372.325 86.0616 372.431 83.728 373.381 81.548C373.667 80.8934 375.003 78.5365 375.589 78.097C376.032 77.7656 376.556 77.6071 377.138 77.6105C377.437 77.612 377.932 77.9303 377.984 77.189C378.008 76.8352 378.634 76.8241 378.658 77.1071C378.738 78.0563 379.468 77.8179 379.932 77.846C382.481 77.9982 384.855 78.9401 387.321 79.4547C388.327 79.665 389.209 80.3928 389.535 81.4961C389.684 81.9962 389.967 82.4192 390.354 82.6557C392.37 83.8835 392.917 86.0306 393.873 87.9543C394.439 89.0954 395.506 89.9404 395.902 91.2429C396.553 93.387 396.589 95.5622 396.12 97.6913C395.602 100.045 395.006 102.408 394.006 104.616C392.559 107.81 389.775 109.392 386.631 110.516C385.414 110.952 384.014 110.7 382.886 111.623C382.709 111.768 381.663 111.196 380.937 111.126C374.049 110.463 367.882 107.857 362.055 104.224C358.31 101.889 355.503 98.7157 353.04 95.1498C349.3 89.7345 348.192 83.5744 348.055 77.1817C347.986 73.9735 348.078 70.7546 348.496 67.5566C349.098 62.963 351.452 59.6622 355.52 57.4333C357.379 56.4143 359.293 55.4747 361.155 54.4722C361.905 54.0681 363.063 53.4847 364.392 53.7725C365.547 54.0225 366.911 53.366 368.232 53.3267C369.654 53.285 371.05 52.7322 372.504 53.1159C372.879 53.2148 372.963 53.0907 372.756 52.7147C372.596 52.424 372.961 52.2694 373.093 52.3881C374.279 53.4522 375.972 52.5301 377.251 53.5617C378.023 54.1844 378.263 52.706 379.13 52.5064" fill="#CEF5FF"/>
<path fill-rule="evenodd" clip-rule="evenodd" d="M394.684 238.358C393.897 238.974 393.527 239.867 393.368 240.871C393.281 241.425 392.775 241.5 392.395 241.597C392.066 241.682 391.762 241.693 391.496 241.964C391.386 242.077 391.042 242.101 390.898 242.013C390.437 241.731 389.943 241.526 389.517 241.15C388.017 239.83 386.918 238.196 385.89 236.53C384.84 234.83 383.742 233.149 382.939 231.305C382.689 230.731 382.679 230.736 383.308 230.291C383.82 231.264 384.297 232.253 384.849 233.197C385.287 233.947 385.816 234.642 386.35 235.426C386.476 235.11 386.473 234.908 386.278 234.627C385.217 233.092 384.209 231.523 383.411 229.726C383.538 229.643 383.693 229.542 383.846 229.442C383.882 229.473 383.961 229.541 384.096 229.659L384.097 229.019C384.476 228.943 384.82 228.875 385.268 228.787C385.617 228.95 385.782 229.568 386.357 229.644C386.338 230.269 386.884 230.581 387.158 231.037C387.499 231.604 387.96 232.097 388.286 232.515C388.655 232.466 388.931 232.415 389.21 232.396C390.187 232.327 390.163 232.358 390.772 232.895C391.448 233.492 391.91 234.327 392.783 234.707C392.839 234.731 392.901 234.816 392.904 234.876C392.931 235.504 393.283 235.732 393.872 235.885C394.366 236.013 394.507 236.534 394.53 237.047C394.547 237.44 394.619 237.831 394.684 238.358" fill="#D9F0FF"/>
<path fill-rule="evenodd" clip-rule="evenodd" d="M307.473 165.4C308.172 165.751 308.172 165.751 308.549 165.018C309.028 164.854 309.606 165.185 310.039 164.745C310.526 164.867 311.006 165.032 311.5 165.101C312.298 165.211 312.71 165.828 313.16 166.348C313.466 166.701 313.786 167.055 314.066 167.438C314.392 167.887 314.783 168.288 315.111 168.735C315.408 169.141 315.662 169.579 315.926 170.008C315.999 170.127 316.093 170.272 316.083 170.398C316.054 170.731 316.17 170.956 316.406 171.195C316.862 171.655 316.826 172.329 316.984 172.903C317.131 173.437 317.046 174.047 316.998 174.619C316.981 174.837 316.952 175.303 316.471 174.959C316.437 174.934 316.269 175.113 316.154 175.181C316.032 175.252 315.824 175.388 315.781 175.35C315.274 174.905 315.15 175.223 314.918 175.663C314.577 176.31 314.369 176.262 313.453 176.099C312.896 175.999 312.306 175.981 311.98 175.497C311.098 174.19 310.195 172.891 310.073 171.22C310.025 170.55 309.838 169.851 309.286 169.369C308.81 168.954 308.495 168.361 307.845 168.129C307.649 168.059 307.506 167.825 307.353 167.653C307.03 167.286 306.856 166.878 306.848 166.361C306.839 165.825 307.263 165.705 307.473 165.4" fill="#D9F0FF"/>
<path fill-rule="evenodd" clip-rule="evenodd" d="M382.234 209.128C381.663 208.556 381.184 207.997 380.625 207.533C379.023 206.202 378.263 204.32 377.305 202.568C376.875 201.781 376.998 200.898 377.017 200.047C377.02 199.9 377.224 199.756 377.344 199.602C377.507 199.924 377.659 200.226 377.882 200.667L377.883 199.092C378.218 198.926 378.549 198.835 378.775 198.63C379.056 198.375 379.373 198.425 379.63 198.49C379.93 198.566 380.185 198.816 380.486 199.007C380.309 199.834 380.634 200.526 381.037 201.248C381.398 201.15 381.824 201.407 382.186 201.036C382.262 200.958 382.514 200.951 382.622 201.017C383.507 201.55 384.592 201.833 385.04 202.926C385.12 203.123 385.209 203.378 385.371 203.466C385.614 203.598 385.395 204.01 385.814 204.026C386.158 204.039 385.938 204.39 386 204.581C386.076 204.818 386.181 205.05 386.222 205.293C386.26 205.516 386.23 205.75 386.23 205.981C385.343 206.741 384.773 207.708 384.336 208.786C383.628 208.901 382.908 209.018 382.234 209.128" fill="#D9F0FF"/>
<path fill-rule="evenodd" clip-rule="evenodd" d="M286.166 155.294C286.377 155.008 286.541 154.769 286.722 154.544C286.789 154.463 286.891 154.405 286.986 154.352C287.258 154.2 287.451 154.63 287.755 154.443C287.992 154.296 288.271 154.165 288.542 154.139C288.767 154.117 289.101 154.389 289.222 154.302C289.491 154.108 289.653 154.049 289.887 154.312C289.93 154.36 290.09 154.324 290.189 154.3C290.925 154.123 290.924 154.121 291.317 154.836C291.371 154.681 291.418 154.547 291.503 154.303C291.619 154.618 291.733 154.842 291.781 155.079C291.84 155.368 291.854 155.668 291.868 155.964C291.882 156.262 291.87 156.561 292.037 156.868L292.15 155.759C292.189 155.757 292.229 155.755 292.268 155.754C292.29 155.95 292.328 156.147 292.329 156.343C292.335 157.341 292.288 158.341 292.344 159.335C292.394 160.212 292.243 161.006 291.748 161.731C291.562 161.554 291.386 161.284 291.174 161.714C290.943 162.183 290.572 162.148 290.093 161.932C290.014 162.443 289.977 163.045 289.132 162.852L289.132 161.573C289.076 161.562 289.019 161.55 288.963 161.539C288.829 161.975 288.695 162.411 288.557 162.86C288.179 162.607 287.869 162.338 287.931 161.805C287.948 161.656 287.774 161.493 287.718 161.326C287.475 160.601 287.478 160.599 286.876 160.581C286.761 160.578 286.646 160.581 286.531 160.581L286.215 160.581C285.923 160.289 285.66 160.008 285.379 159.747C284.78 159.193 284.589 158.46 284.494 157.698C284.447 157.32 284.528 156.926 284.475 156.549C284.416 156.135 284.63 155.829 284.818 155.537C285.195 154.955 285.4 154.938 286.166 155.294" fill="#D9F0FF"/>
<path fill-rule="evenodd" clip-rule="evenodd" d="M353.446 164.455C352.954 164.789 352.48 165.124 351.986 165.425C351.938 165.455 351.766 165.281 351.581 165.151C351.467 165.355 351.39 165.541 351.27 165.693C351.129 165.873 350.947 166.021 350.787 166.186C350.462 166.521 350.148 166.894 349.669 166.385C349.632 166.346 349.52 166.384 349.444 166.376C348.905 166.318 348.391 166.452 347.848 166.018C347.411 165.668 346.855 165.426 346.445 164.997C346.06 164.594 345.661 164.216 345.393 163.704C344.981 162.92 344.575 162.143 344.722 161.222C344.759 160.992 344.917 160.78 345.061 160.47C345.351 160.708 345.547 160.869 345.777 161.058C345.965 160.434 345.927 159.71 346.504 159.161C346.73 159.331 346.949 159.494 347.222 159.698L347.222 158.857C347.981 158.727 348.669 158.467 349.429 158.513C349.865 158.54 350.241 158.678 350.517 158.942C350.871 159.282 351.305 159.525 351.595 159.96C351.856 160.353 352.213 160.683 352.488 161.088C352.938 161.755 353.09 162.533 353.419 163.243C353.576 163.581 353.446 164.053 353.446 164.455" fill="#D9F0FF"/>
<path fill-rule="evenodd" clip-rule="evenodd" d="M304.573 186.491L304.572 188.967C304.802 188.341 304.763 187.709 304.782 187.081C304.79 186.828 304.67 186.513 304.977 186.362C305.294 186.205 305.629 186.051 305.971 186.001C306.088 185.983 306.312 186.262 306.379 186.444C306.451 186.64 306.395 186.882 306.395 187.13C306.586 187.05 306.7 186.957 306.802 186.969C307.013 186.992 307.302 187.187 307.41 187.109C308.01 186.668 308.667 186.958 309.286 186.923C309.567 186.908 309.991 187.096 310.126 187.323C310.455 187.884 311.121 188.056 311.47 188.715C311.481 188.997 311.518 189.345 311.811 189.72C312.194 190.212 312.521 190.822 312.402 191.541C312.347 191.875 312.392 192.225 312.392 192.633C311.605 193.099 310.787 193.552 310.002 194.058C309.181 194.587 308.435 194.231 307.737 193.865C307.227 193.597 306.543 193.472 306.371 192.76C305.231 192.246 305.029 191.045 304.421 190.137C304.012 189.527 304.026 188.817 303.91 188.172C303.814 187.638 304.191 187.02 304.359 186.44C304.431 186.457 304.502 186.474 304.573 186.491" fill="#D9F0FF"/>
<path fill-rule="evenodd" clip-rule="evenodd" d="M326.891 198.985C326.406 198.499 325.891 197.984 325.312 197.405C325.312 197.021 325.272 196.563 325.332 196.12C325.355 195.955 325.594 195.788 325.771 195.691C325.838 195.654 326.011 195.811 326.137 195.88C326.305 195.548 326.403 195.099 326.97 195.209C327.075 195.229 327.224 195.236 327.296 195.178C327.579 194.95 327.886 194.717 328.247 194.817C328.893 194.998 329.614 195.103 330.118 195.55C331.115 196.433 332.062 197.393 332.558 198.668C332.853 199.429 333.12 200.214 333.262 201.013C333.324 201.362 333.23 201.842 332.832 202.12C332.176 202.579 331.545 203.075 330.875 203.511C330.647 203.659 330.325 203.762 330.059 203.739C328.383 203.593 327.188 202.803 326.694 200.909C326.622 200.634 326.449 200.346 326.486 200.088C326.54 199.715 326.744 199.362 326.891 198.985" fill="#D9F0FF"/>
<path fill-rule="evenodd" clip-rule="evenodd" d="M329.75 240.671C329.705 240.439 329.659 240.208 329.614 239.977C329.61 240.895 328.641 241.238 328.429 242.018C328.354 242.297 327.941 242.422 327.77 242.266C327.491 242.014 327.301 242.198 327.144 242.3C326.725 242.573 326.37 242.546 325.943 242.296C324.712 241.576 323.441 240.914 322.716 239.593C321.841 239.119 321.586 238.158 321.042 237.426C320.778 237.071 320.694 236.581 320.51 236.104C320.832 235.636 321.299 235.76 321.863 236.042C321.809 235.776 321.824 235.531 321.712 235.38C321.558 235.172 321.723 235.091 321.811 235.054C322.208 234.888 322.62 234.766 322.947 234.452C323.027 234.375 323.253 234.406 323.394 234.448C323.645 234.524 323.86 234.685 324.139 234.458C324.218 234.394 324.475 234.522 324.636 234.593C326.025 235.204 327.282 235.97 328.103 237.324C328.214 237.507 328.464 237.7 328.65 237.874C329.185 238.372 329.285 239.096 329.699 239.632C329.974 239.989 329.914 240.302 329.75 240.671" fill="#D9F0FF"/>
<path fill-rule="evenodd" clip-rule="evenodd" d="M399.809 186.909C399.839 186.696 399.87 186.483 399.904 186.249C399.987 186.31 400.062 186.334 400.081 186.381C400.377 187.104 400.745 187.798 400.919 188.572C401.027 189.058 401.166 189.524 400.695 189.903C400.375 190.161 400.7 190.902 399.978 190.861C399.638 191.407 399.093 191.352 398.572 191.314C398.454 191.68 398.381 192.036 398.227 192.354C398.054 192.712 397.501 192.812 396.908 192.643C396.773 192.604 396.642 192.473 396.518 192.484C395.558 192.567 395.559 192.574 395.156 191.817C394.954 191.439 394.711 191.078 394.554 190.682C394.364 190.2 394.068 189.899 393.581 189.69C392.858 189.381 392.389 188.753 392.265 188.007C392.152 187.332 392.468 186.713 393.071 186.227C393.37 186.617 393.667 187.006 394.085 187.551C394.085 186.993 394.079 186.618 394.087 186.243C394.095 185.871 394.135 185.947 394.725 185.681C395.147 185.492 395.757 185.722 396 185.137C396.416 185.121 396.832 185.106 397.248 185.091C398.017 185.06 398.699 185.144 399.057 185.999C399.199 186.338 399.539 186.593 399.809 186.909" fill="#D9F0FF"/>
<path fill-rule="evenodd" clip-rule="evenodd" d="M286.057 192.465C285.147 192.267 284.828 191.622 284.745 191.054C284.639 190.329 284.394 189.617 284.453 188.85C284.529 187.858 284.524 186.85 284.45 185.857C284.414 185.375 284.724 185.019 284.717 184.568C284.715 184.451 284.878 184.224 284.955 184.229C285.549 184.263 285.832 183.62 286.454 183.617C286.867 183.615 287.277 183.228 287.74 182.987C288.196 183.443 289.167 182.879 289.536 183.885C289.294 184.592 289.896 185.212 290.1 185.936C290.128 186.037 290.235 186.128 290.235 186.223C290.245 187.363 290.24 188.503 290.24 189.741C290.055 189.578 289.976 189.507 289.777 189.33C289.839 189.598 289.827 189.803 289.919 189.873C290.016 189.947 290.221 189.865 290.359 189.911C290.422 189.932 290.455 190.097 290.462 190.2C290.465 190.247 290.363 190.35 290.326 190.343C290.047 190.288 289.771 190.212 289.47 190.136C289.263 190.582 289.043 191.058 288.879 191.414C288.565 191.39 288.377 191.376 288.189 191.362C288.518 191.694 288.14 191.813 288.003 192.017C287.864 192.223 287.762 192.455 287.651 192.661C286.926 192.582 286.655 192.114 286.461 191.494C286.323 191.826 286.199 192.123 286.057 192.465" fill="#D9F0FF"/>
<path fill-rule="evenodd" clip-rule="evenodd" d="M370.964 245.561C370.367 245.544 369.802 245.383 369.513 246.044C369.026 245.402 368.969 244.946 369.465 244.436C369.808 244.084 370.034 243.645 370.471 243.341C370.853 243.075 370.994 242.485 371.323 242.11C371.576 241.822 371.956 241.644 372.28 241.418C372.381 241.517 372.49 241.624 372.662 241.793C372.48 241.923 372.3 242.051 372.12 242.178C372.14 242.224 372.16 242.27 372.18 242.316C372.443 242.275 372.706 242.233 373.002 242.187C373.081 242.305 373.172 242.608 373.368 242.71C374.544 243.323 375.294 244.346 376.009 245.396C376.244 245.741 376.324 246.186 376.513 246.567C376.978 247.51 377.098 247.684 376.956 248.54C376.853 249.159 376.74 249.819 376.254 250.323C376.062 250.522 375.857 250.809 375.847 251.063C375.821 251.706 375.468 251.809 374.948 251.776C374.803 251.766 374.649 251.785 374.508 251.823C373.602 252.066 373.508 252.041 373.057 251.346C372.388 250.317 372.069 249.141 371.68 247.998C371.405 247.19 371.196 246.359 370.964 245.561" fill="#D9F0FF"/>
<path fill-rule="evenodd" clip-rule="evenodd" d="M356.297 232.896C355.657 232.532 355.008 232.213 354.486 231.686C353.513 230.703 352.468 229.781 351.57 228.733C350.627 227.632 349.627 226.546 349.058 225.254C349.118 224.744 349.782 225.286 349.795 224.685C349.799 224.513 350.22 224.347 350.454 224.184C351.033 223.78 351.357 223.713 351.779 224.162C352.196 224.606 352.678 224.765 353.223 224.881C354.065 225.06 354.646 225.707 355.367 226.106C356.138 226.532 356.687 227.217 357.313 227.813C357.638 228.121 358.041 228.357 358.319 228.699C358.6 229.042 358.857 229.454 358.957 229.876C359.016 230.133 358.823 230.521 358.627 230.749C358.384 231.031 358.27 231.439 357.845 231.575C357.6 231.654 357.634 231.928 357.586 232.154C357.531 232.413 357.459 232.729 357.009 232.403C356.694 232.175 356.429 232.498 356.297 232.896" fill="#D9F0FF"/>
<path fill-rule="evenodd" clip-rule="evenodd" d="M402.751 226.244C401.437 225.702 400.872 224.694 400.311 223.716C399.817 222.855 399.368 221.959 399.001 221.038C398.635 220.118 397.997 219.247 398.282 218.089C399.114 218.669 399.044 219.777 399.843 220.518C399.697 219.346 399.089 218.441 398.787 217.206C399.206 217.436 399.359 217.52 399.545 217.622C399.581 217.421 399.618 217.21 399.656 217C400.004 216.935 400.347 216.87 400.752 216.793C400.859 216.965 401 217.218 401.168 217.454C401.82 218.369 401.824 218.365 403.01 218.787C403.143 218.835 403.267 218.912 403.387 218.988C404.305 219.569 405.141 220.223 405.647 221.232C405.833 221.606 406.088 222.291 406.076 222.688C406.074 222.781 406.151 222.891 406.219 222.969C406.392 223.17 406.314 223.34 406.135 223.441C405.617 223.733 405.392 224.308 404.931 224.653C404.735 224.799 404.7 224.995 404.664 225.237C404.615 225.567 403.967 225.995 403.666 225.925C403.48 225.882 403.359 225.539 403.105 225.792C402.972 225.924 402.87 226.089 402.751 226.244" fill="#D9F0FF"/>
<path fill-rule="evenodd" clip-rule="evenodd" d="M365.399 199.339C365.197 199.373 364.986 199.407 364.695 199.455C364.81 199.671 364.892 199.824 364.978 199.985C364.43 200.533 363.859 201.103 363.271 201.691C363.176 201.691 363.06 201.673 362.951 201.693C361.657 201.932 360.795 201.197 360.077 200.312C359.516 199.62 359.033 198.857 358.658 198.026C358.424 197.507 358.215 197.029 358.382 196.323C358.775 197.187 359.124 197.955 359.474 198.724C359.536 198.704 359.598 198.684 359.661 198.664C359.632 198.517 359.628 198.36 359.572 198.226C359.338 197.67 359.072 197.126 358.852 196.566C358.754 196.317 358.545 196.008 359.079 195.893C359.243 195.857 359.34 195.502 359.465 195.292C359.576 195.108 359.682 194.921 359.769 194.772C360.309 194.723 360.314 195.195 360.65 195.389C360.572 195.092 360.494 194.795 360.391 194.404C360.563 194.268 360.794 194.085 361.025 193.902C361.17 194.047 361.363 194.278 361.542 193.852C361.736 193.393 362.023 193.214 362.488 193.516C362.531 193.544 362.618 193.565 362.646 193.542C363.185 193.098 363.502 193.541 363.751 193.88C364.345 194.691 364.625 195.665 364.981 196.592C365.065 196.81 365.247 197.32 364.633 197.345C364.598 197.346 364.572 197.537 364.542 197.639C364.669 197.67 364.866 197.769 364.914 197.72C365.258 197.375 365.444 197.825 365.41 197.905C365.203 198.391 365.682 198.86 365.399 199.339" fill="#D9F0FF"/>
<path fill-rule="evenodd" clip-rule="evenodd" d="M361.233 174.717C361.368 174.852 361.504 174.988 361.71 175.194C361.748 174.868 361.779 174.599 361.814 174.305C362.288 174.206 362.778 174.081 363.275 174.007C363.575 173.963 363.893 173.964 364.192 174.011C364.421 174.046 364.241 174.472 364.667 174.509C364.943 174.533 365.154 175.001 365.35 175.327C365.509 175.592 365.27 176.164 365.874 176.13C365.895 176.505 365.915 176.879 365.937 177.254C365.938 177.29 365.947 177.326 365.952 177.363L367.666 179.078C367.85 179.078 368.044 179.054 368.23 179.083C368.516 179.13 368.825 179.414 368.678 179.59C368.351 179.981 368.936 180.251 368.704 180.571C367.812 180.838 367.53 180.867 366.804 180.74C366.986 181.133 367.144 181.476 367.343 181.906C367.227 182.018 367.074 182.289 366.923 182.288C365.973 182.28 364.972 182.521 364.125 181.846C363.895 181.663 363.618 181.519 363.439 181.295C363.032 180.785 362.668 180.24 362.296 179.702C362.113 179.436 361.957 179.152 361.781 178.881C361.508 178.462 361.59 177.858 361.09 177.558C361.166 177.049 360.879 176.664 360.696 176.226C360.447 175.629 360.602 175.059 361.233 174.717" fill="#D9F0FF"/>
<path fill-rule="evenodd" clip-rule="evenodd" d="M325.632 157.598C326.082 157.599 326.389 157.598 326.697 157.599C327.108 157.6 327.554 157.531 327.648 158.126C327.658 158.192 327.812 158.293 327.886 158.283C328.373 158.21 328.499 158.671 328.797 158.874C329.606 159.424 329.725 160.33 329.927 161.168C330.043 161.646 329.888 161.988 329.344 162.313C328.734 162.678 327.97 162.905 327.551 163.568C327.181 163.575 326.879 164.153 326.447 163.69C326.384 163.623 326.245 163.601 326.143 163.602C324.686 163.63 323.776 162.793 323.015 161.678C322.629 161.113 322.146 160.607 321.994 159.911C321.932 159.626 321.896 159.333 321.876 159.041C321.869 158.946 321.925 158.78 321.992 158.756C322.578 158.547 323.004 158.047 323.573 157.844C324.273 157.594 325.023 157.519 325.632 157.598" fill="#D9F0FF"/>
<path fill-rule="evenodd" clip-rule="evenodd" d="M323.757 213.564C323.926 213.829 324.05 214.025 324.291 214.404C324.345 214.002 324.366 213.865 324.382 213.727C324.433 213.27 324.432 213.271 325.01 213.212C325.082 213.204 325.194 213.214 325.219 213.173C325.483 212.758 325.895 212.642 326.31 212.767C326.781 212.909 327.286 213.087 327.653 213.396C329.082 214.601 329.922 216.217 330.575 217.93C330.685 218.223 330.59 218.593 330.59 218.923C330.418 218.904 330.284 218.889 330.149 218.874C330.178 219.288 330.084 219.595 329.6 219.692C329.455 219.722 329.257 219.938 329.242 220.084C329.193 220.582 328.682 220.339 328.503 220.599C328.218 220.145 327.727 220.694 327.406 220.369C327.099 220.059 326.679 219.819 326.476 219.454C326.029 218.651 325.601 217.814 325.34 216.939C325.206 216.492 325.008 216.194 324.663 215.991C324.104 215.662 323.669 215.245 323.396 214.653C323.168 214.158 323.159 214.163 323.757 213.564" fill="#D9F0FF"/>
<path fill-rule="evenodd" clip-rule="evenodd" d="M345.388 200.154C345.388 200.039 345.36 199.88 345.398 199.737C345.423 199.641 345.587 199.576 345.601 199.484C345.617 199.384 345.499 199.269 345.498 199.16C345.497 199.063 345.633 198.944 345.607 198.873C345.558 198.741 345.449 198.619 345.337 198.528C345.263 198.467 345.139 198.466 344.985 198.424C345.057 198.674 345.115 198.876 345.173 199.078C344.766 198.829 344.314 198.631 344.513 198.032C344.681 198.104 344.847 198.176 345.052 198.264C345.118 197.544 344.45 197.918 344.193 197.577C344.57 197.622 344.821 197.362 345.199 197.413C345.375 197.436 345.603 197.063 345.872 196.809C346.246 197.114 346.665 197.455 347.154 197.855C347.202 197.563 347.237 197.355 347.278 197.102C347.832 196.995 348.4 196.885 348.974 196.775C349.269 197.151 349.499 197.495 349.78 197.791C350.023 198.047 350.358 198.217 350.593 198.479C351.255 199.219 351.555 200.153 351.827 201.077C351.925 201.407 352.032 201.93 351.401 202.018C351.403 202.625 350.763 202.715 350.475 203.099C350.113 203.581 349.473 203.663 348.783 203.384C347.749 202.966 347.07 202.159 346.41 201.372C346.08 200.978 345.709 200.607 345.388 200.154" fill="#D9F0FF"/>
<path fill-rule="evenodd" clip-rule="evenodd" d="M364.395 215.125C364.581 215.188 364.761 215.249 364.967 215.32C365.009 214.349 364.006 214.077 363.867 213.183C364.07 213.273 364.236 213.311 364.355 213.406C364.547 213.56 364.709 213.75 364.948 213.99C364.867 213.503 364.813 213.391 364.535 213.058C365.142 212.325 365.142 212.325 365.859 212.323C366.252 212.767 366.588 213.352 367.093 213.66C367.65 214.001 367.814 214.582 368.224 214.999C368.617 215.398 368.877 215.941 369.137 216.451C369.28 216.73 369.401 217.087 369.355 217.381C369.295 217.752 369.137 218.297 368.874 218.402C368.443 218.576 368.539 218.881 368.403 219.143C368.217 219.502 367.962 219.85 367.495 219.927C367.222 219.972 366.897 220.18 366.697 220.089C366.21 219.87 365.707 219.59 365.347 219.206C364.668 218.481 364.061 217.684 363.48 216.877C363.334 216.675 363.402 216.319 363.359 215.919C363.552 216.076 363.629 216.138 363.793 216.269C363.708 215.681 364.223 215.479 364.395 215.125" fill="#D9F0FF"/>
<path fill-rule="evenodd" clip-rule="evenodd" d="M358.311 257.437C357.996 257.264 357.844 257.181 357.697 257.099C357.437 258.036 357.373 258.085 356.607 257.747C356.809 258.218 356.971 258.595 357.147 259.004C356.947 259.12 356.742 259.239 356.535 259.359C356.161 258.986 355.782 258.606 355.367 258.191C355.117 258.753 355.804 259.013 355.736 259.556C355.12 259.641 354.763 259.222 354.408 258.836C354.214 258.625 354.109 258.331 353.91 258.128C353.02 257.224 352.221 256.247 351.476 255.223C351.409 255.131 351.317 255.057 351.234 254.977C350.785 254.549 350.314 254.134 350.281 253.436C350.729 253.161 350.967 253.585 351.272 253.847C351.583 253.334 350.865 253.265 350.897 252.887C350.925 252.43 351.793 253.013 351.572 252.267L352.822 252.268C353.179 252.519 353.542 252.769 353.897 253.027C354.253 253.287 354.489 253.66 354.925 253.871C355.349 254.077 355.63 254.562 356.003 254.891C356.246 255.105 356.4 255.4 356.789 255.497C357.07 255.566 357.22 255.993 357.648 255.939C357.767 255.923 357.981 256.138 358.041 256.291C358.157 256.582 358.192 256.904 358.311 257.437" fill="#D9F0FF"/>
<path fill-rule="evenodd" clip-rule="evenodd" d="M350.417 180.267C350.814 180.293 351.088 180.088 351.451 180.35C351.267 180.414 351.133 180.46 350.987 180.51C351.123 180.972 351.274 181.432 351.386 181.901C351.414 182.021 351.351 182.258 351.267 182.293C350.804 182.489 350.664 182.986 350.304 183.259C350.144 183.38 349.905 183.419 349.696 183.443C349.592 183.454 349.469 183.296 349.364 183.307C349.237 183.321 349.12 183.432 348.986 183.508C348.788 182.808 348.799 182.78 348.019 182.514C347.552 182.355 347.456 181.896 347.125 181.607C347.051 181.765 346.979 181.917 346.899 182.088C346.783 181.966 346.587 181.856 346.588 181.746C346.594 180.371 346.593 180.34 345.966 179.516C345.612 180.137 346.289 180.497 346.326 181.105C346.158 181.079 345.907 181.098 345.878 181.027C345.583 180.31 345.134 179.633 345.596 178.773C345.739 178.507 345.765 178.367 346.086 178.361C346.284 178.358 346.497 178.242 346.673 178.13C347.13 177.842 347.571 177.527 348.06 177.194C348.171 177.361 348.275 177.516 348.25 177.478C348.635 177.747 349.037 177.024 349.101 177.778C349.12 177.992 349.598 177.482 349.598 178.042C349.598 178.259 349.996 178.476 350.196 178.676C350.124 178.861 350.057 179.038 349.988 179.215C350.045 179.254 350.102 179.294 350.159 179.333C350.259 179.142 350.36 178.952 350.486 178.712C350.692 179.062 350.812 179.265 350.969 179.531C350.798 179.759 350.608 180.013 350.417 180.267" fill="#D9F0FF"/>
<path fill-rule="evenodd" clip-rule="evenodd" d="M311.62 214.713C311.354 214.377 311.144 214.112 310.911 213.817C310.792 214.06 310.716 214.214 310.617 214.416C310.174 214.207 309.875 213.864 309.621 213.505C309.06 212.712 308.625 211.838 308.056 211.044C307.706 210.556 307.686 209.943 307.824 209.309C308.35 209.202 308.464 209.821 308.902 209.977L308.903 208.854C309.731 208.737 310.529 208.625 311.261 208.523C312.029 209.212 312.534 209.958 312.892 210.818C313.097 211.309 313.518 211.677 313.646 212.238C313.697 212.46 313.412 212.758 313.762 212.923C313.768 212.926 313.658 213.196 313.655 213.194C313.084 212.988 312.891 213.816 312.342 213.683C312.306 213.674 312.209 213.887 312.154 214.003C312.094 214.131 312.066 214.277 311.992 214.395C311.937 214.483 311.83 214.538 311.62 214.713" fill="#D9F0FF"/>
<path fill-rule="evenodd" clip-rule="evenodd" d="M337.168 228.679C337.333 229.061 337.453 229.339 337.625 229.735C337.734 229.446 337.784 229.314 337.838 229.173C337.889 229.205 337.974 229.227 337.985 229.269C338.089 229.664 338.277 230.002 338.562 230.303C338.733 230.483 338.856 230.714 338.973 230.937C339.178 231.332 339.469 231.602 339.94 231.686C340.014 231.536 340.09 231.381 340.126 231.309C340.344 231.473 340.581 231.651 340.758 231.783C340.758 231.927 340.773 231.989 340.756 232C340.547 232.136 340.333 232.264 340.138 232.383C340.194 232.698 340.245 232.984 340.321 233.412C339.976 233.244 339.787 233.151 339.514 233.018C339.363 233.322 339.212 233.628 339.049 233.956C338.894 233.973 338.712 233.994 338.49 234.019L338.49 234.532C337.91 234.966 337.436 234.907 336.934 234.449C336.386 233.949 335.769 233.527 335.211 232.932C335.446 232.777 335.673 232.628 335.922 232.463C335.795 231.998 335.567 231.583 335.238 231.176C334.91 230.77 334.73 230.242 334.494 229.784C334.832 229.368 335.099 229.676 335.409 229.807C335.422 229.691 335.476 229.567 335.439 229.483C335.208 228.962 335.308 228.705 335.798 228.683C336.259 228.662 336.721 228.679 337.168 228.679" fill="#D9F0FF"/>
<path fill-rule="evenodd" clip-rule="evenodd" d="M304.329 233.226C304.522 233.512 304.68 233.746 304.877 234.038C304.928 233.878 304.998 233.776 304.982 233.69C304.904 233.273 304.802 232.861 304.696 232.391L305.366 232.391C305.424 232.512 305.495 232.659 305.635 232.952L305.636 232.009C305.767 231.963 305.879 231.949 305.957 231.891C306.136 231.758 306.42 231.456 306.449 231.479C306.742 231.721 307.104 231.575 307.388 231.685C307.812 231.847 308.215 232.131 308.209 232.672C308.207 232.833 307.993 233.013 308.025 233.149C308.051 233.259 308.348 233.284 308.436 233.409C308.508 233.511 308.514 233.784 308.44 233.844C308.14 234.082 308.206 234.391 308.226 234.68C308.252 235.042 308.094 235.261 307.773 235.352C307.43 235.449 307.35 235.669 307.278 235.996C307.176 236.46 306.858 236.767 306.321 236.744C306.135 236.737 305.943 236.741 305.762 236.78C305.304 236.88 304.726 236.77 304.583 236.434C304.234 235.613 303.73 234.837 303.824 233.871C303.861 233.495 304.088 233.388 304.329 233.226" fill="#D9F0FF"/>
<path fill-rule="evenodd" clip-rule="evenodd" d="M341.338 212.485C341.625 212.569 341.925 212.657 342.293 212.765C342.449 212.393 342.495 212.036 342.166 211.704C342.571 211.336 342.84 211.89 343.236 211.831C343.273 211.63 343.312 211.42 343.35 211.213C343.661 210.881 343.941 211.495 344.316 211.205C344.7 210.909 344.797 211.549 345.123 211.622C345.306 211.663 345.477 211.854 345.608 212.015C346.041 212.546 346.108 213.298 346.692 213.763C346.831 213.873 346.757 214.255 346.788 214.594C346.141 214.275 346.101 215.302 345.478 215.058C345.286 215.368 345.467 215.931 344.766 215.998C344.692 215.872 344.576 215.674 344.411 215.392C344.271 215.685 344.203 215.827 344.133 215.974C343.74 216.067 343.56 215.728 343.432 215.513C343.003 214.795 342.448 214.246 341.731 213.817C341.289 213.553 341.047 213.123 341.338 212.485" fill="#D9F0FF"/>
<path fill-rule="evenodd" clip-rule="evenodd" d="M335.738 181.829C335.194 182.255 334.792 182.57 334.274 182.976L333.304 182.976C332.927 182.43 332.805 181.712 332.249 181.261C332.191 180.501 331.665 180.03 331.209 179.5C331.064 179.331 331.096 179.011 331.034 178.697C331.201 178.65 331.366 178.654 331.452 178.573C332.338 177.745 333.172 178.211 333.877 178.776C334.48 179.258 334.988 179.896 335.414 180.545C335.656 180.913 335.65 181.444 335.738 181.829" fill="#D9F0FF"/>
<path fill-rule="evenodd" clip-rule="evenodd" d="M324.985 341.792L289.614 362.144L293.009 364.12L328.381 343.768L324.985 341.792Z" fill="#C9C9C9"/>
<path fill-rule="evenodd" clip-rule="evenodd" d="M343.144 331.371L330.396 338.691L333.791 340.667L346.539 333.348L343.144 331.371Z" fill="#C9C9C9"/>
<path fill-rule="evenodd" clip-rule="evenodd" d="M357.19 323.286L348.536 328.263L351.951 330.239L360.604 325.263L357.19 323.286Z" fill="#C9C9C9"/>
<path fill-rule="evenodd" clip-rule="evenodd" d="M301.112 346.511L281.832 357.606L285.227 359.582L304.507 348.487L301.112 346.511Z" fill="#C9C9C9"/>
<path fill-rule="evenodd" clip-rule="evenodd" d="M330.148 329.834L306.521 343.427L309.917 345.403L333.543 331.81L330.148 329.834Z" fill="#C9C9C9"/>
<path fill-rule="evenodd" clip-rule="evenodd" d="M344.21 321.751L335.557 326.727L338.952 328.723L347.605 323.727L344.21 321.751Z" fill="#C9C9C9"/>
<path fill-rule="evenodd" clip-rule="evenodd" d="M357.599 314.071L348.945 319.047L352.34 321.024L360.994 316.047L357.599 314.071Z" fill="#C9C9C9"/>
<path fill-rule="evenodd" clip-rule="evenodd" d="M288.017 345.053L274.072 353.07L277.467 355.046L291.412 347.03L288.017 345.053Z" fill="#C9C9C9"/>
<path fill-rule="evenodd" clip-rule="evenodd" d="M298.179 339.195L293.427 341.945L296.823 343.921L301.594 341.191L298.179 339.195Z" fill="#C9C9C9"/>
<path fill-rule="evenodd" clip-rule="evenodd" d="M312.244 331.126L303.59 336.103L306.985 338.079L315.639 333.103L312.244 331.126Z" fill="#C9C9C9"/>
<path fill-rule="evenodd" clip-rule="evenodd" d="M317.772 318.939L266.29 348.547L269.685 350.523L321.187 320.916L317.772 318.939Z" fill="#C9C9C9"/>
<path fill-rule="evenodd" clip-rule="evenodd" d="M335.93 308.523L323.182 315.842L326.577 317.838L339.325 310.499L335.93 308.523Z" fill="#C9C9C9"/>
<path fill-rule="evenodd" clip-rule="evenodd" d="M272.473 335.987L258.528 344.004L261.923 345.999L275.868 337.963L272.473 335.987Z" fill="#C9C9C9"/>
<path fill-rule="evenodd" clip-rule="evenodd" d="M305.201 317.179L277.885 332.883L281.28 334.879L308.616 319.156L305.201 317.179Z" fill="#C9C9C9"/>
<path fill-rule="evenodd" clip-rule="evenodd" d="M319.263 309.097L310.609 314.074L314.005 316.05L322.658 311.073L319.263 309.097Z" fill="#C9C9C9"/>
<path fill-rule="evenodd" clip-rule="evenodd" d="M279.299 323.073L250.747 339.474L254.142 341.469L282.694 325.049L279.299 323.073Z" fill="#C9C9C9"/>
<path fill-rule="evenodd" clip-rule="evenodd" d="M305.339 308.101L284.687 319.971L288.102 321.967L308.734 310.077L305.339 308.101Z" fill="#C9C9C9"/>
<path fill-rule="evenodd" clip-rule="evenodd" d="M324.695 296.978L310.749 305.014L314.144 306.991L328.09 298.974L324.695 296.978Z" fill="#C9C9C9"/>
<path fill-rule="evenodd" clip-rule="evenodd" d="M252.621 329.396L242.983 334.953L246.378 336.929L256.016 331.391L252.621 329.396Z" fill="#C9C9C9"/>
<path fill-rule="evenodd" clip-rule="evenodd" d="M270.762 318.968L258.014 326.307L261.428 328.283L274.157 320.963L270.762 318.968Z" fill="#C9C9C9"/>
<path fill-rule="evenodd" clip-rule="evenodd" d="M296.689 304.07L276.173 315.882L279.568 317.858L300.084 306.046L296.689 304.07Z" fill="#C9C9C9"/>
<path fill-rule="evenodd" clip-rule="evenodd" d="M264.74 313.443L235.202 330.426L238.597 332.402L268.135 315.42L264.74 313.443Z" fill="#C9C9C9"/>
<path fill-rule="evenodd" clip-rule="evenodd" d="M297.814 294.427L270.131 310.344L273.546 312.34L301.209 296.423L297.814 294.427Z" fill="#C9C9C9"/>
<path fill-rule="evenodd" clip-rule="evenodd" d="M311.875 286.365L303.202 291.341L306.617 293.318L315.27 288.341L311.875 286.365Z" fill="#C9C9C9"/>
<path fill-rule="evenodd" clip-rule="evenodd" d="M325.362 278.608L316.708 283.584L320.103 285.56L328.757 280.584L325.362 278.608Z" fill="#C9C9C9"/>
<path fill-rule="evenodd" clip-rule="evenodd" d="M245.117 315.722L227.441 325.888L230.837 327.864L248.532 317.698L245.117 315.722Z" fill="#C9C9C9"/>
<path fill-rule="evenodd" clip-rule="evenodd" d="M396.753 300.564L421.287 286.447L424.702 288.443L400.168 302.54L396.753 300.564Z" fill="#C9C9C9"/>
<path fill-rule="evenodd" clip-rule="evenodd" d="M394.246 293.011L413.526 281.915L416.921 283.911L397.641 294.987L394.246 293.011Z" fill="#C9C9C9"/>
<path fill-rule="evenodd" clip-rule="evenodd" d="M391.796 285.419L405.742 277.402L409.156 279.378L395.191 287.395L391.796 285.419Z" fill="#C9C9C9"/>
<path fill-rule="evenodd" clip-rule="evenodd" d="M377.698 284.524L397.983 272.867L401.378 274.843L381.094 286.52L377.698 284.524Z" fill="#C9C9C9"/>
<path fill-rule="evenodd" clip-rule="evenodd" d="M376.253 276.352L390.199 268.335L393.613 270.312L379.648 278.348L376.253 276.352Z" fill="#C9C9C9"/>
<path fill-rule="evenodd" clip-rule="evenodd" d="M364.744 273.985L382.439 263.8L385.835 265.776L368.139 275.962L364.744 273.985Z" fill="#C9C9C9"/>
<path fill-rule="evenodd" clip-rule="evenodd" d="M365.018 264.826L374.656 259.269L378.051 261.264L368.413 266.803L365.018 264.826Z" fill="#C9C9C9"/>
<path fill-rule="evenodd" clip-rule="evenodd" d="M348.215 265.48L366.895 254.733L370.291 256.729L351.61 267.476L348.215 265.48Z" fill="#C9C9C9"/>
<path fill-rule="evenodd" clip-rule="evenodd" d="M341.42 260.383L359.115 250.217L362.51 252.193L344.834 262.359L341.42 260.383Z" fill="#C9C9C9"/>
<path fill-rule="evenodd" clip-rule="evenodd" d="M258.059 308.296L250.526 312.614L253.921 314.591L261.454 310.273L258.059 308.296Z" fill="#C9C9C9"/>
<path fill-rule="evenodd" clip-rule="evenodd" d="M280.391 295.448L263.45 305.188L266.864 307.165L283.787 297.424L280.391 295.448Z" fill="#C9C9C9"/>
<path fill-rule="evenodd" clip-rule="evenodd" d="M259.26 260.703L230.688 277.143L234.083 279.119L262.655 262.679L259.26 260.703Z" fill="#C9C9C9"/>
<path fill-rule="evenodd" clip-rule="evenodd" d="M278.828 249.468L267.586 255.936L270.981 257.912L282.242 251.445L278.828 249.468Z" fill="#C9C9C9"/>
<path d="M355.807 460.856C216.918 460.142 137.233 410.637 161.613 343.057C169.759 320.476 190.473 300.465 210.281 285.529" stroke="black" stroke-width="2"/>
<path d="M343.305 456.561L358.449 460.199L341.649 466.856" stroke="black" stroke-width="2"/>
<path d="M158.283 385.89C160.701 410.79 188.639 432.8 237.574 443.244L231.464 379.91C182.524 369.479 154.575 347.489 152.154 322.613L158.283 385.89Z" fill="black"/>
<path d="M159.637 286.761L157.991 234.31C158.326 244.833 164.131 255.121 174.974 264.188L177.152 317.115C165.964 307.931 159.975 297.469 159.637 286.761Z" fill="#02A1FE"/>
<path d="M219.424 419.3C212.925 410.015 198.454 423.372 195.081 426.675C195.081 426.675 201.841 430.992 235.168 443.495C268.496 455.997 309.209 461.775 323.572 459.113C324.038 458.398 320.277 448.052 316.674 442.201C312.17 434.888 301.3 428.615 283.688 435.17C266.076 441.724 263.224 426.392 250.705 422.236C239.303 418.45 227.548 430.906 219.424 419.3Z" fill="black"/>
<path fill-rule="evenodd" clip-rule="evenodd" d="M69.7398 161.836C69.7947 161.757 69.8494 161.677 69.9044 161.598C71.9425 162.93 73.9802 164.262 76.0184 165.594C75.9495 165.694 75.8808 165.794 75.8126 165.893C73.7884 164.541 71.764 163.189 69.7398 161.836M73.5722 183.592C75.2315 183.62 76.2287 183.083 77.0702 182.091C81.7381 176.579 82.4412 167.254 73.7374 162.556C69.6061 160.326 67.0352 157.139 67.0716 152.1C67.0838 150.345 66.8812 148.569 66.5438 146.855C66.3902 146.074 65.804 145.196 65.1508 144.806C64.8392 144.621 63.6869 145.32 63.317 145.885C62.703 146.824 62.0444 147.99 62.0535 149.04C62.0806 152.133 62.2129 155.257 62.71 158.291C63.1702 161.101 64.8402 163.175 67.073 165.071C69.3121 166.972 72.1652 167.758 74.2408 169.95C76.1722 171.988 76.8194 177.547 75.332 180.116C74.7305 181.155 74.2414 182.26 73.5722 183.592" fill="#C6EBF4"/>
<path fill-rule="evenodd" clip-rule="evenodd" d="M63.4292 187.733C63.9218 186.914 64.662 186.153 64.8658 185.265C65.8539 180.967 61.9784 175.358 57.5365 175.257C51.4871 175.119 48.8215 171.522 46.9472 166.587C46.3124 164.916 45.4013 163.317 44.4039 161.823C44.1226 161.401 42.8046 161.111 42.4605 161.382C41.7111 161.968 40.6352 163.16 40.8301 163.744C41.9828 167.189 43.0915 170.742 44.9309 173.849C46.9154 177.203 49.9827 179.549 54.3158 179.49C56.243 179.464 58.1911 179.425 59.8545 180.865C61.6488 182.42 62.5882 184.289 62.7253 186.597C62.7422 186.89 62.817 187.18 62.8646 187.472C63.053 187.559 63.2414 187.646 63.4292 187.733" fill="#C6EBF4"/>
<path fill-rule="evenodd" clip-rule="evenodd" d="M31.872 192.417C31.9402 192.321 32.0084 192.225 32.0768 192.13L42.0029 197.117C41.9524 197.221 41.9011 197.326 41.8504 197.431L31.872 192.417ZM57.561 199.966C58.0215 198.937 58.3456 198.212 58.6696 197.488C56.7353 198.601 56.4114 196.563 55.4631 196.009L57.0456 196.804C57.7808 196.27 55.5016 195.512 57.6146 195.251C55.7855 193.907 54.2947 192.359 52.0838 193.147C51.1242 193.49 49.6285 193.22 48.8944 194.865C48.8173 194.879 48.1992 194.829 47.77 195.089C44.3143 197.187 41.1988 195.932 38.1108 194.197C36.43 193.251 34.817 192.126 33.0355 191.44C31.6814 190.919 30.1148 190.843 28.6351 190.789C27.2139 190.738 26.4841 191.951 25.9236 193C25.7578 193.311 26.4162 194.455 26.926 194.668C30.2472 196.059 33.6316 197.298 36.9677 198.704C36.2787 198.299 35.5905 197.894 34.9015 197.488C34.9314 197.408 34.9626 197.328 34.9922 197.248C35.3413 197.362 35.6829 197.532 36.0397 197.576C36.6779 197.655 37.3261 197.708 37.9663 197.68C38.6714 197.649 39.3717 197.514 40.0614 197.749C39.5779 198.114 39.0947 198.479 38.8329 198.676C39.3928 199.189 39.6754 199.526 40.0292 199.748C40.3813 199.968 40.8473 200.264 41.1925 200.192C42.7253 199.871 44.2856 200.047 45.7604 198.952C47.6014 197.583 49.8563 196.765 51.951 195.747C52.2423 195.605 52.7244 195.531 52.9748 195.676C54.3541 196.471 55.7225 197.298 57.0155 198.223C57.3136 198.437 57.3019 199.082 57.561 199.966V199.966Z" fill="#C6EBF4"/>
<path d="M271.261 189.265C402.391 184.171 479.662 227.589 459.456 292.391C452.705 314.044 437.124 330.654 419.048 345.575" stroke="black" stroke-width="2"/>
<path d="M283.241 192.8L268.795 189.994L284.377 183.013" stroke="black" stroke-width="2"/>
<path d="M376.72 339.73L378.292 284.749C353.995 300.324 317.231 309.181 278.276 310.711L278.881 365.602C317.027 363.828 352.879 355.012 376.72 339.73Z" fill="#318BC0"/>
<path d="M331.463 324.962C324.273 326.885 311.991 329.283 301.012 330.415" stroke="white" stroke-width="2"/>
<path d="M331.508 334.18C326.355 335.559 318.586 337.181 310.555 338.407" stroke="white" stroke-width="2"/>
<circle r="13.3748" transform="matrix(-0.926109 0.377257 0.0217077 0.999764 353.424 323.903)" fill="black"/>
<path d="M344.871 336.926C346.345 337.895 348.143 338.32 350.107 338.164C352.07 338.008 354.137 337.277 356.126 336.034C358.114 334.791 359.962 333.075 361.507 331.039C363.051 329.002 364.244 326.708 364.979 324.359C365.714 322.01 365.97 319.678 365.723 317.571C365.476 315.464 364.733 313.646 363.562 312.279C362.391 310.912 360.826 310.037 359.007 309.732C357.188 309.427 355.171 309.702 353.134 310.532L353.424 323.903L344.871 336.926Z" fill="white"/>
<path d="M460.831 288.394L464.133 261.18C462.513 274.14 455.812 286.361 444.376 297.193L440.588 324.748C452.333 313.808 459.216 301.458 460.831 288.394Z" fill="black"/>
<path d="M496.858 213.9C496.134 238.148 470.53 261.255 423.861 274.534L425.665 212.859C472.34 199.594 497.955 176.505 498.685 152.279L496.858 213.9Z" fill="black"/>
<path d="M503.036 446.651C502.851 459.395 489.586 471.74 465.177 479.091L465.629 446.678C490.041 439.333 503.311 426.998 503.5 414.266L503.036 446.651Z" fill="black"/>
<path d="M499.378 130.587L499.577 153.283C499.491 136.521 488.956 119.663 467.124 104.977L466.925 82.2812C488.757 96.9674 499.292 113.825 499.378 130.587Z" fill="black"/>
<path d="M129.318 156.393L129.274 133.732C129.059 106.108 157.25 78.7561 209.589 61.6965C293.577 34.3262 409.1 43.5613 466.76 82.5417L466.959 105.238C409.144 66.2218 293.776 57.0223 209.633 84.357C157.294 101.417 129.258 128.804 129.318 156.393Z" fill="black"/>
<path d="M129.013 152.784L128.97 130.124C129.02 147.041 139.711 163.935 161.663 178.812L161.862 201.508C139.755 186.595 129.255 169.581 129.013 152.784Z" fill="#02A1FE"/>
<path d="M498.867 125.697L499.066 148.393C499.245 176.173 470.827 203.801 418.106 221.101C333.233 248.761 216.777 239.313 158.651 200.225L158.452 177.529C216.734 216.652 333.034 226.065 417.907 198.405C470.783 181.141 499.011 153.632 498.867 125.697Z" fill="#02A1FE"/>
<path d="M531.138 148.022L526.728 129.524C528.797 138.345 527.383 147.909 522.554 157.711L526.728 176.549C531.733 166.602 533.235 156.91 531.138 148.022Z" fill="#02A1FE"/>
<path d="M498.555 72.3954L502.965 90.8942C499.758 77.2212 487.999 65.4249 467.42 57.516L463.011 39.0172C483.589 46.9261 495.348 58.7224 498.555 72.3954Z" fill="black"/>
<path d="M114.54 412.281L115.397 441.821C115.71 453.339 127.916 464.297 150.143 470.586L149.274 441.056C127.06 434.764 114.874 423.801 114.54 412.281Z" fill="#318BC0"/>
<mask id="mask0" mask-type="alpha" maskUnits="userSpaceOnUse" x="104" y="544" width="126" height="75">
<path fill-rule="evenodd" clip-rule="evenodd" d="M104.903 599.101L220.267 618.131L229.313 563.291L113.95 544.26L104.903 599.101Z" fill="white"/>
</mask>
<g mask="url(#mask0)">
<path fill-rule="evenodd" clip-rule="evenodd" d="M118.944 554.643C118.438 554.106 117.896 553.581 117.801 552.797C118.267 553.359 118.857 553.837 118.944 554.643M152.158 586.299C154.688 587.626 157.01 589.291 159.446 590.772C162.938 592.896 166.421 595.038 170.099 596.845C172.359 597.955 174.483 599.317 176.788 600.367C182.164 602.817 187.469 605.412 192.973 607.589C197.39 609.337 201.784 611.14 206.247 612.77C210.204 614.214 214.266 615.306 218.307 616.467C218.874 616.63 219.463 616.734 220.034 616.523C220.096 615.965 219.349 616.288 219.391 615.795C219.828 615.627 220.613 616.37 220.679 615.614C220.733 614.996 220.374 614.259 219.573 613.878C218.46 613.348 217.237 613.348 216.103 612.938C211.074 611.121 205.993 609.453 201.069 607.34C198.041 606.041 194.948 604.863 192.058 603.292C190.456 602.422 188.644 602.068 187.14 601.028C186.77 600.772 186.262 600.756 186.105 600.156C186.046 599.934 185.584 599.326 185.112 600.006C185.012 600.149 184.766 599.934 184.59 599.843C182.687 598.866 180.637 598.098 178.91 596.875C177.228 595.684 175.355 594.891 173.632 593.804C172.415 593.037 170.867 592.893 169.653 592.009C169.152 591.644 168.565 591.398 168.165 590.895C167.955 590.793 167.746 590.692 167.537 590.59C166.062 589.992 164.672 589.253 163.492 588.164C161.941 587.539 160.537 586.679 159.295 585.557C157.732 584.739 156.148 583.981 154.963 582.574C154.471 581.989 153.69 581.655 153.066 581.174C150.939 579.536 148.831 577.875 146.701 576.243C146.307 575.941 145.972 575.476 145.372 575.551C144.109 574.962 143.1 574.05 142.177 573.03C141.282 571.961 140.053 571.291 138.982 570.441C137.602 569.345 136.26 568.289 135.223 566.807C134.37 565.588 132.986 564.829 131.932 563.739C129.63 561.357 127.156 559.06 125.368 556.315C123.423 553.33 120.735 550.94 119.024 547.806C118.588 547.006 118.366 546.105 117.728 545.393C117.078 544.669 115.587 544.289 114.585 544.905C113.766 545.408 113.391 546.234 113.711 547.264C114.258 549.028 115.061 550.68 115.962 552.277C119.839 559.144 124.887 565.1 130.447 570.639C135.879 576.051 141.75 580.951 147.973 585.43C151.14 587.709 154.474 589.726 157.768 591.811C161.158 593.956 164.572 596.051 168.124 597.909C171.287 599.563 174.514 601.093 177.732 602.637C181.501 604.446 185.292 606.202 189.149 607.792C198.4 611.606 207.718 615.25 217.515 617.474C218.175 617.624 218.809 618.191 219.615 617.702C219.18 617.009 218.483 616.839 217.798 616.675C212.784 615.475 207.9 613.879 203.033 612.172C195.861 609.657 188.976 606.47 182.007 603.484C178.636 602.04 175.43 600.216 172.119 598.628C167.775 596.545 163.626 594.11 159.494 591.655C157.022 590.188 154.585 588.631 152.359 586.783C152.197 586.649 152.073 586.507 152.179 586.28C151.533 586.385 151.166 585.885 150.726 585.581C147.298 583.219 143.993 580.693 140.736 578.1C138.692 576.472 136.767 574.706 134.761 573.035C132.65 571.276 130.758 569.238 128.899 567.205C128.372 566.629 127.384 566.258 127.483 565.202C126.259 564.883 125.901 563.772 125.331 562.855C126.121 563.571 126.926 564.274 127.455 565.225C127.673 565.392 127.919 565.531 128.105 565.728C133.583 571.57 139.573 576.839 145.962 581.66C148.021 583.214 150.092 584.752 152.158 586.299" fill="#C6EBF4"/>
</g>
<path d="M131.124 61.8356L145.131 40.844C138.581 39.9371 132.674 39.8122 127.468 40.3821L113.461 61.3737C118.663 60.7996 124.573 60.9288 131.124 61.8356Z" fill="black"/>
<path d="M533.529 497.297L536.958 476.731C531.715 478.27 527.223 480.181 523.495 482.377L520.067 502.943C523.791 500.745 528.287 498.837 533.529 497.297Z" fill="#E2D9CB"/>
<path d="M494.698 552.724C494.698 552.724 488.703 578.904 442.85 591.19" stroke="black" stroke-width="2"/>
</svg>
