<svg width="445" height="178" viewBox="0 0 445 178" fill="none" xmlns="http://www.w3.org/2000/svg">
<path d="M38 112.479L445 112.479" stroke="#E1E8ED"/>
<path d="M38 112.479L32 112.479" stroke="#8A9BA8"/>
<path d="M8.80328 115.578C10.2664 115.578 11.3104 114.545 11.3068 113.128C11.3104 111.722 10.3303 110.699 9.0057 110.699C8.46593 110.699 7.96522 110.905 7.68112 111.182H7.63851L7.86933 109.147H10.9553V108.206H6.95669L6.54831 111.871L7.55328 112.02C7.82672 111.775 8.31678 111.608 8.75712 111.608C9.62005 111.615 10.245 112.262 10.245 113.149C10.245 114.023 9.6378 114.655 8.80328 114.655C8.10016 114.655 7.54263 114.208 7.48581 113.583H6.42047C6.46308 114.74 7.46806 115.578 8.80328 115.578Z" fill="#8A9BA8"/>
<path d="M15.1358 115.6C16.8155 115.6 17.7992 114.229 17.7992 111.846C17.7992 109.481 16.8013 108.107 15.1358 108.107C13.4668 108.107 12.4725 109.477 12.4689 111.846C12.4689 114.225 13.4526 115.596 15.1358 115.6ZM15.1358 114.651C14.1522 114.651 13.5591 113.664 13.5591 111.846C13.5627 110.035 14.1557 109.037 15.1358 109.037C16.1124 109.037 16.709 110.035 16.709 111.846C16.709 113.664 16.116 114.651 15.1358 114.651Z" fill="#8A9BA8"/>
<path d="M19.1584 115.479H20.2557V113.217L21.1151 112.23L23.4659 115.479H24.7869L21.8431 111.48L24.7763 108.206H23.3949L20.3445 111.679H20.2557V108.206H19.1584V115.479Z" fill="#8A9BA8"/>
<path opacity="0.5" d="M445 144H364V162H442C443.657 162 445 160.657 445 159V144Z" fill="#E1E8ED"/>
<path d="M38 144H364V162H41C39.3432 162 38 160.657 38 159V144Z" fill="#E1E8ED"/>
<path d="M142 144.5H142.5V144V107C142.5 106.172 141.828 105.5 141 105.5H129C128.172 105.5 127.5 106.172 127.5 107V144V144.5H128H142Z" fill="#EAEFF8" stroke="#5279C7"/>
<path d="M38 144.5H445" stroke="#8A9BA8"/>
<path d="M0.0159523 18.0001H4.80288V17.059H1.52874V17.0058L2.97405 15.493C4.30573 14.1471 4.6857 13.5044 4.6857 12.6911C4.6857 11.5228 3.73399 10.6279 2.36325 10.6279C1.00317 10.6279 0.0088501 11.5086 0.0088501 12.8367H1.05644C1.05288 12.0555 1.55715 11.5441 2.34195 11.5441C3.08058 11.5441 3.64166 11.9987 3.64166 12.7231C3.64166 13.3659 3.25814 13.8275 2.47689 14.6549L0.0159523 17.2046V18.0001Z" fill="#8A9BA8"/>
<path d="M8.68073 18.1208C10.3604 18.1208 11.3441 16.7501 11.3441 14.3673C11.3441 12.0022 10.3462 10.6279 8.68073 10.6279C7.01169 10.6279 6.01737 11.9987 6.01382 14.3673C6.01382 16.7465 6.99749 18.1173 8.68073 18.1208ZM8.68073 17.1727C7.69706 17.1727 7.10402 16.1855 7.10402 14.3673C7.10757 12.5562 7.70061 11.5583 8.68073 11.5583C9.65729 11.5583 10.2539 12.5562 10.2539 14.3673C10.2539 16.1855 9.66084 17.1727 8.68073 17.1727Z" fill="#8A9BA8"/>
<path d="M15.1358 18.1208C16.8155 18.1208 17.7992 16.7501 17.7992 14.3673C17.7992 12.0022 16.8013 10.6279 15.1358 10.6279C13.4668 10.6279 12.4725 11.9987 12.4689 14.3673C12.4689 16.7465 13.4526 18.1173 15.1358 18.1208ZM15.1358 17.1727C14.1521 17.1727 13.5591 16.1855 13.5591 14.3673C13.5627 12.5562 14.1557 11.5583 15.1358 11.5583C16.1124 11.5583 16.709 12.5562 16.709 14.3673C16.709 16.1855 16.1159 17.1727 15.1358 17.1727Z" fill="#8A9BA8"/>
<path d="M19.1584 18.0001H20.2557V15.738L21.115 14.7508L23.4659 18.0001H24.7869L21.843 14.0015L24.7763 10.7274H23.3949L20.3444 14.2004H20.2557V10.7274H19.1584V18.0001Z" fill="#8A9BA8"/>
<path d="M38 14L32 14.0002" stroke="#8A9BA8"/>
<path d="M38 14L445 14" stroke="#E1E8ED"/>
<path d="M38 46.4929L445 46.493" stroke="#E1E8ED"/>
<path d="M38 46.4929L32 46.4931" stroke="#8A9BA8"/>
<path d="M4.43534 43.2203H3.36645L1.55182 44.4064V45.4575L3.29188 44.3211H3.33449V50.493H4.43534V43.2203Z" fill="#8A9BA8"/>
<path d="M8.80324 50.5924C10.2663 50.5924 11.3103 49.5591 11.3068 48.1422C11.3103 46.7359 10.3302 45.7132 9.00565 45.7132C8.46588 45.7132 7.96517 45.9191 7.68108 46.1961H7.63847L7.86929 44.1613H10.9552V43.2203H6.95665L6.54827 46.8851L7.55324 47.0342C7.82668 46.7892 8.31673 46.6223 8.75708 46.6223C9.62 46.6294 10.245 47.2757 10.245 48.1635C10.245 49.037 9.63776 49.6691 8.80324 49.6691C8.10011 49.6691 7.54259 49.2217 7.48577 48.5967H6.42043C6.46304 49.7544 7.46801 50.5924 8.80324 50.5924Z" fill="#8A9BA8"/>
<path d="M15.1358 50.6137C16.8155 50.6137 17.7992 49.243 17.7992 46.8602C17.7992 44.4951 16.8013 43.1208 15.1358 43.1208C13.4668 43.1208 12.4725 44.4916 12.4689 46.8602C12.4689 49.2395 13.4526 50.6102 15.1358 50.6137ZM15.1358 49.6656C14.1521 49.6656 13.5591 48.6784 13.5591 46.8602C13.5627 45.0491 14.1557 44.0512 15.1358 44.0512C16.1124 44.0512 16.709 45.0491 16.709 46.8602C16.709 48.6784 16.1159 49.6656 15.1358 49.6656Z" fill="#8A9BA8"/>
<path d="M19.1584 50.493H20.2557V48.2309L21.115 47.2437L23.4659 50.493H24.7869L21.843 46.4944L24.7763 43.2203H23.3949L20.3444 46.6933H20.2557V43.2203H19.1584V50.493Z" fill="#8A9BA8"/>
<path d="M38 78.9858L445 78.9859" stroke="#E1E8ED"/>
<path d="M38 78.9858L32 78.9861" stroke="#8A9BA8"/>
<path d="M4.18144 75.7132H3.11254L1.29791 76.8993V77.9504L3.03797 76.8141H3.08058V82.9859H4.18144V75.7132Z" fill="#8A9BA8"/>
<path d="M8.68073 83.1067C10.3604 83.1067 11.3441 81.7359 11.3441 79.3531C11.3441 76.9881 10.3462 75.6138 8.68073 75.6138C7.01169 75.6138 6.01737 76.9845 6.01382 79.3531C6.01382 81.7324 6.99749 83.1031 8.68073 83.1067ZM8.68073 82.1585C7.69706 82.1585 7.10402 81.1713 7.10402 79.3531C7.10757 77.542 7.70061 76.5442 8.68073 76.5442C9.65729 76.5442 10.2539 77.542 10.2539 79.3531C10.2539 81.1713 9.66084 82.1585 8.68073 82.1585Z" fill="#8A9BA8"/>
<path d="M15.1358 83.1067C16.8155 83.1067 17.7992 81.7359 17.7992 79.3531C17.7992 76.9881 16.8013 75.6138 15.1358 75.6138C13.4668 75.6138 12.4725 76.9845 12.4689 79.3531C12.4689 81.7324 13.4526 83.1031 15.1358 83.1067ZM15.1358 82.1585C14.1521 82.1585 13.5591 81.1713 13.5591 79.3531C13.5627 77.542 14.1557 76.5442 15.1358 76.5442C16.1124 76.5442 16.709 77.542 16.709 79.3531C16.709 81.1713 16.1159 82.1585 15.1358 82.1585Z" fill="#8A9BA8"/>
<path d="M19.1584 82.9859H20.2557V80.7239L21.115 79.7366L23.4659 82.9859H24.7869L21.843 78.9873L24.7763 75.7132H23.3949L20.3444 79.1862H20.2557V75.7132H19.1584V82.9859Z" fill="#8A9BA8"/>
<path d="M38 14L38 148" stroke="#8A9BA8"/>
<path d="M48 132C48 131.448 48.4477 131 49 131H61C61.5523 131 62 131.448 62 132V144H48V132Z" fill="#5279C7"/>
<path d="M68 109C68 108.448 68.4477 108 69 108H81C81.5523 108 82 108.448 82 109V144H68V109Z" fill="#5279C7"/>
<path d="M88 126C88 125.448 88.4477 125 89 125H101C101.552 125 102 125.448 102 126V144H88V126Z" fill="#5279C7"/>
<path d="M108 84C108 83.4477 108.448 83 109 83H121C121.552 83 122 83.4477 122 84V144H108V84Z" fill="#5279C7"/>
<mask id="mask0" mask-type="alpha" maskUnits="userSpaceOnUse" x="128" y="106" width="14" height="38">
<path d="M128 107C128 106.448 128.448 106 129 106H141C141.552 106 142 106.448 142 107V144H128V107Z" fill="#F3F6FB"/>
</mask>
<g mask="url(#mask0)">
<g opacity="0.3">
<line y1="-0.5" x2="39.9929" y2="-0.5" transform="matrix(0.629481 -0.777016 0.629481 0.777016 134.073 154.9)" stroke="#8A9BA8"/>
<line y1="-0.5" x2="39.9929" y2="-0.5" transform="matrix(0.629481 -0.777016 0.629481 0.777016 132.635 153.125)" stroke="#8A9BA8"/>
<line y1="-0.5" x2="39.9929" y2="-0.5" transform="matrix(0.629481 -0.777016 0.629481 0.777016 131.197 151.35)" stroke="#8A9BA8"/>
<line y1="-0.5" x2="39.9929" y2="-0.5" transform="matrix(0.629481 -0.777016 0.629481 0.777016 129.759 149.575)" stroke="#8A9BA8"/>
<line y1="-0.5" x2="39.9929" y2="-0.5" transform="matrix(0.629481 -0.777016 0.629481 0.777016 128.321 147.8)" stroke="#8A9BA8"/>
<line y1="-0.5" x2="39.9929" y2="-0.5" transform="matrix(0.629481 -0.777016 0.629481 0.777016 126.883 146.025)" stroke="#8A9BA8"/>
<line y1="-0.5" x2="39.9929" y2="-0.5" transform="matrix(0.629481 -0.777016 0.629481 0.777016 125.445 144.25)" stroke="#8A9BA8"/>
<line y1="-0.5" x2="39.9929" y2="-0.5" transform="matrix(0.629481 -0.777016 0.629481 0.777016 124.008 142.475)" stroke="#8A9BA8"/>
<line y1="-0.5" x2="39.9929" y2="-0.5" transform="matrix(0.629481 -0.777016 0.629481 0.777016 122.57 140.7)" stroke="#8A9BA8"/>
<line y1="-0.5" x2="39.9929" y2="-0.5" transform="matrix(0.629481 -0.777016 0.629481 0.777016 121.132 138.925)" stroke="#8A9BA8"/>
<line y1="-0.5" x2="39.9929" y2="-0.5" transform="matrix(0.629481 -0.777016 0.629481 0.777016 119.694 137.15)" stroke="#8A9BA8"/>
<line y1="-0.5" x2="39.9929" y2="-0.5" transform="matrix(0.629481 -0.777016 0.629481 0.777016 118.256 135.375)" stroke="#8A9BA8"/>
<line y1="-0.5" x2="39.9929" y2="-0.5" transform="matrix(0.629481 -0.777016 0.629481 0.777016 116.818 133.6)" stroke="#8A9BA8"/>
<line y1="-0.5" x2="39.9929" y2="-0.5" transform="matrix(0.629481 -0.777016 0.629481 0.777016 115.38 131.825)" stroke="#8A9BA8"/>
<line y1="-0.5" x2="39.9929" y2="-0.5" transform="matrix(0.629481 -0.777016 0.629481 0.777016 113.942 130.05)" stroke="#8A9BA8"/>
<line y1="-0.5" x2="39.9929" y2="-0.5" transform="matrix(0.629481 -0.777016 0.629481 0.777016 112.504 128.275)" stroke="#8A9BA8"/>
</g>
</g>
<path d="M54 148L54 144" stroke="#8A9BA8"/>
<path d="M74 148L74 144" stroke="#8A9BA8"/>
<path d="M94 148L94 144" stroke="#8A9BA8"/>
<path d="M114 148L114 144" stroke="#8A9BA8"/>
<path d="M134 148L134 144" stroke="#8A9BA8"/>
<path d="M154 148L154 144" stroke="#8A9BA8"/>
<path d="M174 148L174 144" stroke="#8A9BA8"/>
<path d="M194 148L194 144" stroke="#8A9BA8"/>
<path d="M214 148L214 144" stroke="#8A9BA8"/>
<path d="M234 148L234 144" stroke="#8A9BA8"/>
<path d="M254 148L254 144" stroke="#8A9BA8"/>
<path d="M274 148L274 144" stroke="#8A9BA8"/>
<path d="M294 148L294 144" stroke="#8A9BA8"/>
<path d="M314 148L314 144" stroke="#8A9BA8"/>
<path d="M334 148L334 144" stroke="#8A9BA8"/>
<path d="M354 148L354 144" stroke="#8A9BA8"/>
<path d="M374 148L374 144" stroke="#8A9BA8"/>
<path d="M394 148L394 144" stroke="#8A9BA8"/>
<path d="M414 148L414 144" stroke="#8A9BA8"/>
<path d="M434 148L434 144" stroke="#8A9BA8"/>
<path d="M51.3097 150.727H50.429L48.6108 151.935V152.83L50.3864 151.651H50.429V158H51.3097V150.727ZM55.8587 158.099C57.2685 158.099 58.3161 157.215 58.3161 156.026C58.3161 155.102 57.7692 154.431 56.853 154.278V154.222C57.5881 153.998 58.0462 153.394 58.0462 152.574C58.0462 151.544 57.233 150.628 55.8871 150.628C54.63 150.628 53.5859 151.402 53.5433 152.545H54.3956C54.4276 151.821 55.1165 151.395 55.8729 151.395C56.6754 151.395 57.1939 151.881 57.1939 152.616C57.1939 153.384 56.5938 153.881 55.7308 153.881H55.1484V154.662H55.7308C56.8352 154.662 57.4496 155.223 57.4496 156.026C57.4496 156.796 56.7784 157.318 55.8445 157.318C55.0028 157.318 54.3352 156.885 54.282 156.182H53.3871C53.4403 157.325 54.4489 158.099 55.8587 158.099Z" fill="#8A9BA8"/>
<path d="M37.8807 174H38.7614V170.747H41.9148V169.966H38.7614V167.509H42.2415V166.727H37.8807V174ZM45.5227 174.114C46.6307 174.114 47.4403 173.56 47.696 172.736L46.8864 172.509C46.6733 173.077 46.1797 173.361 45.5227 173.361C44.5391 173.361 43.8608 172.725 43.8217 171.557H47.7812V171.202C47.7812 169.17 46.5739 168.474 45.4375 168.474C43.9602 168.474 42.9801 169.639 42.9801 171.315C42.9801 172.991 43.946 174.114 45.5227 174.114ZM43.8217 170.832C43.8786 169.984 44.4787 169.227 45.4375 169.227C46.3466 169.227 46.929 169.909 46.929 170.832H43.8217ZM49.1697 174H49.9794V173.162H50.0788C50.2635 173.46 50.6186 174.114 51.6697 174.114C53.0334 174.114 53.9851 173.02 53.9851 171.287C53.9851 169.568 53.0334 168.474 51.6555 168.474C50.5902 168.474 50.2635 169.128 50.0788 169.412H50.0078V166.727H49.1697V174ZM49.9936 171.273C49.9936 170.051 50.5334 169.227 51.5561 169.227C52.6214 169.227 53.147 170.122 53.147 171.273C53.147 172.438 52.6072 173.361 51.5561 173.361C50.5476 173.361 49.9936 172.509 49.9936 171.273ZM55.267 174H56.1051V170.548C56.1051 169.81 56.6875 169.27 57.483 169.27C57.7067 169.27 57.9375 169.312 57.9943 169.327V168.474C57.8984 168.467 57.6783 168.46 57.554 168.46C56.9006 168.46 56.3324 168.83 56.1335 169.369H56.0767V168.545H55.267V174ZM62.4252 171.77C62.4252 172.793 61.644 173.261 61.019 173.261C60.323 173.261 59.8258 172.75 59.8258 171.955V168.545H58.9877V172.011C58.9877 173.403 59.7264 174.071 60.7491 174.071C61.573 174.071 62.1127 173.631 62.3684 173.077H62.4252V174H63.2633V168.545H62.4252V171.77ZM66.4034 174.128C67.3551 174.128 67.8523 173.616 68.0227 173.261H68.0653V174H68.9034V170.406C68.9034 168.673 67.5824 168.474 66.8864 168.474C66.0625 168.474 65.125 168.759 64.6989 169.753L65.4943 170.037C65.679 169.639 66.1158 169.213 66.9148 169.213C67.6854 169.213 68.0653 169.621 68.0653 170.321V170.349C68.0653 170.754 67.6534 170.719 66.6591 170.847C65.647 170.978 64.5426 171.202 64.5426 172.452C64.5426 173.517 65.3665 174.128 66.4034 174.128ZM66.5312 173.375C65.8636 173.375 65.3807 173.077 65.3807 172.494C65.3807 171.855 65.9631 171.656 66.6165 171.571C66.9716 171.528 67.9233 171.429 68.0653 171.259V172.026C68.0653 172.707 67.5256 173.375 66.5312 173.375ZM70.4331 174H71.2711V170.548C71.2711 169.81 71.8535 169.27 72.649 169.27C72.8727 169.27 73.1035 169.312 73.1603 169.327V168.474C73.0645 168.467 72.8443 168.46 72.72 168.46C72.0666 168.46 71.4984 168.83 71.2995 169.369H71.2427V168.545H70.4331V174ZM74.8596 176.045C75.6159 176.045 76.1486 175.644 76.4647 174.795L78.7871 168.56L77.8709 168.545L76.3652 172.892H76.3084L74.8027 168.545H73.8936L75.9107 174.028L75.7544 174.455C75.449 175.286 75.0726 175.364 74.4618 175.207L74.2488 175.946C74.334 175.989 74.5755 176.045 74.8596 176.045Z" fill="#8A9BA8"/>
<path d="M364.881 166.727V174H365.705V168.474H365.776L368.048 174H368.844L371.116 168.474H371.188V174H372.011V166.727H370.96L368.489 172.764H368.403L365.932 166.727H364.881ZM375.269 174.128C376.22 174.128 376.718 173.616 376.888 173.261H376.931V174H377.769V170.406C377.769 168.673 376.448 168.474 375.752 168.474C374.928 168.474 373.99 168.759 373.564 169.753L374.36 170.037C374.544 169.639 374.981 169.213 375.78 169.213C376.551 169.213 376.931 169.621 376.931 170.321V170.349C376.931 170.754 376.519 170.719 375.524 170.847C374.512 170.978 373.408 171.202 373.408 172.452C373.408 173.517 374.232 174.128 375.269 174.128ZM375.396 173.375C374.729 173.375 374.246 173.077 374.246 172.494C374.246 171.855 374.828 171.656 375.482 171.571C375.837 171.528 376.789 171.429 376.931 171.259V172.026C376.931 172.707 376.391 173.375 375.396 173.375ZM379.298 174H380.136V170.548C380.136 169.81 380.719 169.27 381.514 169.27C381.738 169.27 381.969 169.312 382.026 169.327V168.474C381.93 168.467 381.71 168.46 381.585 168.46C380.932 168.46 380.364 168.83 380.165 169.369H380.108V168.545H379.298V174ZM385.069 174.114C386.276 174.114 387.072 173.375 387.214 172.409H386.376C386.219 173.006 385.722 173.361 385.069 173.361C384.075 173.361 383.435 172.537 383.435 171.273C383.435 170.037 384.089 169.227 385.069 169.227C385.808 169.227 386.248 169.682 386.376 170.179H387.214C387.072 169.156 386.205 168.474 385.055 168.474C383.577 168.474 382.597 169.639 382.597 171.301C382.597 172.935 383.535 174.114 385.069 174.114ZM389.277 170.719C389.277 169.767 389.884 169.227 390.712 169.227C391.5 169.227 391.976 169.724 391.976 170.591V174H392.814V170.534C392.814 169.131 392.068 168.474 390.953 168.474C390.094 168.474 389.604 168.833 389.348 169.398H389.277V166.727H388.439V174H389.277V170.719Z" fill="#8A9BA8"/>
<path d="M71.3097 150.727H70.429L68.6108 151.935V152.83L70.3864 151.651H70.429V158H71.3097V150.727ZM73.2308 156.509H76.6541V158H77.4922V156.509H78.4865V155.727H77.4922V150.727H76.4268L73.2308 155.784V156.509ZM76.6541 155.727H74.1825V155.67L76.5973 151.849H76.6541V155.727Z" fill="#8A9BA8"/>
<path d="M91.3097 150.727H90.429L88.6108 151.935V152.83L90.3864 151.651H90.429V158H91.3097V150.727ZM95.674 158.099C97.0589 158.099 98.0746 157.077 98.0746 155.685C98.0746 154.275 97.0945 153.241 95.7592 153.241C95.2692 153.241 94.7933 153.415 94.495 153.653H94.4524L94.7081 151.509H97.7479V150.727H93.9695L93.5291 154.307L94.353 154.406C94.6548 154.19 95.1697 154.033 95.6172 154.037C96.544 154.044 97.2223 154.747 97.2223 155.699C97.2223 156.633 96.5689 157.318 95.674 157.318C94.9283 157.318 94.3352 156.839 94.2678 156.182H93.4155C93.4688 157.29 94.424 158.099 95.674 158.099Z" fill="#8A9BA8"/>
<path d="M111.31 150.727H110.429L108.611 151.935V152.83L110.386 151.651H110.429V158H111.31V150.727ZM115.816 158.099C117.286 158.117 118.245 157.009 118.245 155.656C118.245 154.25 117.205 153.241 115.958 153.241C115.209 153.241 114.566 153.607 114.168 154.207H114.112C114.115 152.435 114.804 151.409 115.93 151.409C116.697 151.409 117.158 151.892 117.322 152.545H118.188C118.011 151.416 117.151 150.628 115.93 150.628C114.293 150.628 113.288 152.077 113.288 154.648C113.288 157.336 114.623 158.085 115.816 158.099ZM115.816 157.318C114.903 157.318 114.236 156.54 114.239 155.67C114.243 154.8 114.942 154.023 115.844 154.023C116.736 154.023 117.393 154.754 117.393 155.656C117.393 156.58 116.707 157.318 115.816 157.318Z" fill="#8A9BA8"/>
<path d="M131.31 150.727H130.429L128.611 151.935V152.83L130.386 151.651H130.429V158H131.31V150.727ZM133.629 158H134.552L137.79 151.551V150.727H133.131V151.509H136.881V151.565L133.629 158Z" fill="#8A9BA8"/>
<path d="M151.31 150.727H150.429L148.611 151.935V152.83L150.386 151.651H150.429V158H151.31V150.727ZM155.731 158.099C157.183 158.099 158.195 157.251 158.202 156.068C158.195 155.148 157.581 154.367 156.796 154.222V154.179C157.478 154.001 157.925 153.334 157.933 152.56C157.925 151.452 156.995 150.628 155.731 150.628C154.452 150.628 153.522 151.452 153.529 152.56C153.522 153.334 153.969 154.001 154.665 154.179V154.222C153.866 154.367 153.252 155.148 153.259 156.068C153.252 157.251 154.264 158.099 155.731 158.099ZM155.731 157.318C154.733 157.318 154.119 156.807 154.126 156.026C154.119 155.205 154.797 154.619 155.731 154.619C156.651 154.619 157.329 155.205 157.336 156.026C157.329 156.807 156.714 157.318 155.731 157.318ZM155.731 153.866C154.935 153.866 154.374 153.369 154.381 152.616C154.374 151.878 154.914 151.395 155.731 151.395C156.533 151.395 157.073 151.878 157.08 152.616C157.073 153.369 156.512 153.866 155.731 153.866Z" fill="#8A9BA8"/>
<path d="M171.31 150.727H170.429L168.611 151.935V152.83L170.386 151.651H170.429V158H171.31V150.727ZM175.717 150.628C174.239 150.61 173.288 151.722 173.288 153.057C173.288 154.463 174.325 155.472 175.575 155.472C176.327 155.472 176.967 155.102 177.364 154.506H177.421C177.421 156.295 176.725 157.318 175.603 157.318C174.836 157.318 174.367 156.835 174.211 156.168H173.344C173.515 157.318 174.381 158.099 175.603 158.099C177.237 158.099 178.245 156.651 178.245 154.065C178.245 151.395 176.91 150.642 175.717 150.628ZM175.717 151.409C176.626 151.409 177.293 152.19 177.293 153.043C177.293 153.909 176.583 154.69 175.688 154.69C174.793 154.69 174.14 153.966 174.14 153.057C174.14 152.148 174.822 151.409 175.717 151.409Z" fill="#8A9BA8"/>
<path d="M188.753 158H193.341V157.219H189.96V157.162L191.594 155.415C192.844 154.076 193.213 153.451 193.213 152.645C193.213 151.523 192.304 150.628 191.026 150.628C189.751 150.628 188.781 151.494 188.781 152.773H189.619C189.619 151.945 190.156 151.395 190.997 151.395C191.786 151.395 192.389 151.878 192.389 152.645C192.389 153.316 191.995 153.813 191.153 154.733L188.753 157.361V158ZM197.18 158.099C198.785 158.099 199.708 156.739 199.708 154.364C199.708 152.006 198.771 150.628 197.18 150.628C195.589 150.628 194.651 152.006 194.651 154.364C194.651 156.739 195.575 158.099 197.18 158.099ZM197.18 157.318C196.121 157.318 195.504 156.256 195.504 154.364C195.504 152.474 196.129 151.395 197.18 151.395C198.231 151.395 198.856 152.474 198.856 154.364C198.856 156.256 198.238 157.318 197.18 157.318Z" fill="#8A9BA8"/>
<path d="M208.753 158H213.341V157.219H209.96V157.162L211.594 155.415C212.844 154.076 213.213 153.451 213.213 152.645C213.213 151.523 212.304 150.628 211.026 150.628C209.751 150.628 208.781 151.494 208.781 152.773H209.619C209.619 151.945 210.156 151.395 210.997 151.395C211.786 151.395 212.389 151.878 212.389 152.645C212.389 153.316 211.995 153.813 211.153 154.733L208.753 157.361V158ZM217.364 150.727H216.484L214.665 151.935V152.83L216.441 151.651H216.484V158H217.364V150.727Z" fill="#8A9BA8"/>
<path d="M228.753 158H233.341V157.219H229.96V157.162L231.594 155.415C232.844 154.076 233.213 153.451 233.213 152.645C233.213 151.523 232.304 150.628 231.026 150.628C229.751 150.628 228.781 151.494 228.781 152.773H229.619C229.619 151.945 230.156 151.395 230.997 151.395C231.786 151.395 232.389 151.878 232.389 152.645C232.389 153.316 231.995 153.813 231.153 154.733L228.753 157.361V158ZM234.808 158H239.396V157.219H236.015V157.162L237.648 155.415C238.898 154.076 239.268 153.451 239.268 152.645C239.268 151.523 238.359 150.628 237.08 150.628C235.805 150.628 234.836 151.494 234.836 152.773H235.674C235.674 151.945 236.21 151.395 237.052 151.395C237.84 151.395 238.444 151.878 238.444 152.645C238.444 153.316 238.05 153.813 237.208 154.733L234.808 157.361V158Z" fill="#8A9BA8"/>
<path d="M248.753 158H253.341V157.219H249.96V157.162L251.594 155.415C252.844 154.076 253.213 153.451 253.213 152.645C253.213 151.523 252.304 150.628 251.026 150.628C249.751 150.628 248.781 151.494 248.781 152.773H249.619C249.619 151.945 250.156 151.395 250.997 151.395C251.786 151.395 252.389 151.878 252.389 152.645C252.389 153.316 251.995 153.813 251.153 154.733L248.753 157.361V158ZM257.265 158.099C258.675 158.099 259.722 157.215 259.722 156.026C259.722 155.102 259.175 154.431 258.259 154.278V154.222C258.994 153.998 259.452 153.394 259.452 152.574C259.452 151.544 258.639 150.628 257.293 150.628C256.036 150.628 254.992 151.402 254.95 152.545H255.802C255.834 151.821 256.523 151.395 257.279 151.395C258.082 151.395 258.6 151.881 258.6 152.616C258.6 153.384 258 153.881 257.137 153.881H256.555V154.662H257.137C258.241 154.662 258.856 155.223 258.856 156.026C258.856 156.796 258.185 157.318 257.251 157.318C256.409 157.318 255.741 156.885 255.688 156.182H254.793C254.847 157.325 255.855 158.099 257.265 158.099Z" fill="#8A9BA8"/>
<path d="M268.753 158H273.341V157.219H269.96V157.162L271.594 155.415C272.844 154.076 273.213 153.451 273.213 152.645C273.213 151.523 272.304 150.628 271.026 150.628C269.751 150.628 268.781 151.494 268.781 152.773H269.619C269.619 151.945 270.156 151.395 270.997 151.395C271.786 151.395 272.389 151.878 272.389 152.645C272.389 153.316 271.995 153.813 271.153 154.733L268.753 157.361V158ZM274.481 156.509H277.904V158H278.742V156.509H279.737V155.727H278.742V150.727H277.677L274.481 155.784V156.509ZM277.904 155.727H275.433V155.67L277.847 151.849H277.904V155.727Z" fill="#8A9BA8"/>
<path d="M288.753 158H293.341V157.219H289.96V157.162L291.594 155.415C292.844 154.076 293.213 153.451 293.213 152.645C293.213 151.523 292.304 150.628 291.026 150.628C289.751 150.628 288.781 151.494 288.781 152.773H289.619C289.619 151.945 290.156 151.395 290.997 151.395C291.786 151.395 292.389 151.878 292.389 152.645C292.389 153.316 291.995 153.813 291.153 154.733L288.753 157.361V158ZM297.08 158.099C298.465 158.099 299.481 157.077 299.481 155.685C299.481 154.275 298.501 153.241 297.165 153.241C296.675 153.241 296.2 153.415 295.901 153.653H295.859L296.114 151.509H299.154V150.727H295.376L294.935 154.307L295.759 154.406C296.061 154.19 296.576 154.033 297.023 154.037C297.95 154.044 298.629 154.747 298.629 155.699C298.629 156.633 297.975 157.318 297.08 157.318C296.335 157.318 295.741 156.839 295.674 156.182H294.822C294.875 157.29 295.83 158.099 297.08 158.099Z" fill="#8A9BA8"/>
<path d="M308.753 158H313.341V157.219H309.96V157.162L311.594 155.415C312.844 154.076 313.213 153.451 313.213 152.645C313.213 151.523 312.304 150.628 311.026 150.628C309.751 150.628 308.781 151.494 308.781 152.773H309.619C309.619 151.945 310.156 151.395 310.997 151.395C311.786 151.395 312.389 151.878 312.389 152.645C312.389 153.316 311.995 153.813 311.153 154.733L308.753 157.361V158ZM317.222 158.099C318.692 158.117 319.651 157.009 319.651 155.656C319.651 154.25 318.611 153.241 317.364 153.241C316.615 153.241 315.972 153.607 315.575 154.207H315.518C315.521 152.435 316.21 151.409 317.336 151.409C318.103 151.409 318.565 151.892 318.728 152.545H319.594C319.417 151.416 318.558 150.628 317.336 150.628C315.699 150.628 314.694 152.077 314.694 154.648C314.694 157.336 316.029 158.085 317.222 158.099ZM317.222 157.318C316.31 157.318 315.642 156.54 315.646 155.67C315.649 154.8 316.349 154.023 317.251 154.023C318.142 154.023 318.799 154.754 318.799 155.656C318.799 156.58 318.114 157.318 317.222 157.318Z" fill="#8A9BA8"/>
<path d="M328.753 158H333.341V157.219H329.96V157.162L331.594 155.415C332.844 154.076 333.213 153.451 333.213 152.645C333.213 151.523 332.304 150.628 331.026 150.628C329.751 150.628 328.781 151.494 328.781 152.773H329.619C329.619 151.945 330.156 151.395 330.997 151.395C331.786 151.395 332.389 151.878 332.389 152.645C332.389 153.316 331.995 153.813 331.153 154.733L328.753 157.361V158ZM335.035 158H335.958L339.197 151.551V150.727H334.538V151.509H338.288V151.565L335.035 158Z" fill="#8A9BA8"/>
<path d="M348.753 158H353.341V157.219H349.96V157.162L351.594 155.415C352.844 154.076 353.213 153.451 353.213 152.645C353.213 151.523 352.304 150.628 351.026 150.628C349.751 150.628 348.781 151.494 348.781 152.773H349.619C349.619 151.945 350.156 151.395 350.997 151.395C351.786 151.395 352.389 151.878 352.389 152.645C352.389 153.316 351.995 153.813 351.153 154.733L348.753 157.361V158ZM357.137 158.099C358.589 158.099 359.602 157.251 359.609 156.068C359.602 155.148 358.987 154.367 358.202 154.222V154.179C358.884 154.001 359.332 153.334 359.339 152.56C359.332 151.452 358.401 150.628 357.137 150.628C355.859 150.628 354.928 151.452 354.935 152.56C354.928 153.334 355.376 154.001 356.072 154.179V154.222C355.273 154.367 354.658 155.148 354.665 156.068C354.658 157.251 355.67 158.099 357.137 158.099ZM357.137 157.318C356.139 157.318 355.525 156.807 355.532 156.026C355.525 155.205 356.203 154.619 357.137 154.619C358.057 154.619 358.735 155.205 358.742 156.026C358.735 156.807 358.121 157.318 357.137 157.318ZM357.137 153.866C356.342 153.866 355.781 153.369 355.788 152.616C355.781 151.878 356.32 151.395 357.137 151.395C357.94 151.395 358.479 151.878 358.487 152.616C358.479 153.369 357.918 153.866 357.137 153.866Z" fill="#8A9BA8"/>
<path d="M371.125 158.099C372.73 158.099 373.653 156.739 373.653 154.364C373.653 152.006 372.716 150.628 371.125 150.628C369.534 150.628 368.597 152.006 368.597 154.364C368.597 156.739 369.52 158.099 371.125 158.099ZM371.125 157.318C370.067 157.318 369.449 156.256 369.449 154.364C369.449 152.474 370.074 151.395 371.125 151.395C372.176 151.395 372.801 152.474 372.801 154.364C372.801 156.256 372.183 157.318 371.125 157.318ZM377.56 150.727H376.679L374.861 151.935V152.83L376.636 151.651H376.679V158H377.56V150.727Z" fill="#8A9BA8"/>
<path d="M391.125 158.099C392.73 158.099 393.653 156.739 393.653 154.364C393.653 152.006 392.716 150.628 391.125 150.628C389.534 150.628 388.597 152.006 388.597 154.364C388.597 156.739 389.52 158.099 391.125 158.099ZM391.125 157.318C390.067 157.318 389.449 156.256 389.449 154.364C389.449 152.474 390.074 151.395 391.125 151.395C392.176 151.395 392.801 152.474 392.801 154.364C392.801 156.256 392.183 157.318 391.125 157.318ZM395.003 158H399.591V157.219H396.21V157.162L397.844 155.415C399.094 154.076 399.463 153.451 399.463 152.645C399.463 151.523 398.554 150.628 397.276 150.628C396.001 150.628 395.031 151.494 395.031 152.773H395.869C395.869 151.945 396.406 151.395 397.247 151.395C398.036 151.395 398.639 151.878 398.639 152.645C398.639 153.316 398.245 153.813 397.403 154.733L395.003 157.361V158Z" fill="#8A9BA8"/>
<path d="M411.125 158.099C412.73 158.099 413.653 156.739 413.653 154.364C413.653 152.006 412.716 150.628 411.125 150.628C409.534 150.628 408.597 152.006 408.597 154.364C408.597 156.739 409.52 158.099 411.125 158.099ZM411.125 157.318C410.067 157.318 409.449 156.256 409.449 154.364C409.449 152.474 410.074 151.395 411.125 151.395C412.176 151.395 412.801 152.474 412.801 154.364C412.801 156.256 412.183 157.318 411.125 157.318ZM417.46 158.099C418.87 158.099 419.918 157.215 419.918 156.026C419.918 155.102 419.371 154.431 418.455 154.278V154.222C419.19 153.998 419.648 153.394 419.648 152.574C419.648 151.544 418.835 150.628 417.489 150.628C416.232 150.628 415.188 151.402 415.145 152.545H415.997C416.029 151.821 416.718 151.395 417.474 151.395C418.277 151.395 418.795 151.881 418.795 152.616C418.795 153.384 418.195 153.881 417.332 153.881H416.75V154.662H417.332C418.437 154.662 419.051 155.223 419.051 156.026C419.051 156.796 418.38 157.318 417.446 157.318C416.604 157.318 415.937 156.885 415.884 156.182H414.989C415.042 157.325 416.05 158.099 417.46 158.099Z" fill="#8A9BA8"/>
<path d="M431.125 158.099C432.73 158.099 433.653 156.739 433.653 154.364C433.653 152.006 432.716 150.628 431.125 150.628C429.534 150.628 428.597 152.006 428.597 154.364C428.597 156.739 429.52 158.099 431.125 158.099ZM431.125 157.318C430.067 157.318 429.449 156.256 429.449 154.364C429.449 152.474 430.074 151.395 431.125 151.395C432.176 151.395 432.801 152.474 432.801 154.364C432.801 156.256 432.183 157.318 431.125 157.318ZM434.832 156.509H438.256V158H439.094V156.509H440.088V155.727H439.094V150.727H438.028L434.832 155.784V156.509ZM438.256 155.727H435.784V155.67L438.199 151.849H438.256V155.727Z" fill="#8A9BA8"/>
</svg>
