<svg width="1084" height="359" viewBox="0 0 1084 359" fill="none" xmlns="http://www.w3.org/2000/svg">
<path opacity="0.76" d="M146.994 303.31L147.427 299.056H151.799V300.058H148.347L148.09 302.384C148.508 302.138 148.982 302.015 149.513 302.015C150.291 302.015 150.908 302.273 151.365 302.788C151.822 303.3 152.051 303.993 152.051 304.868C152.051 305.747 151.812 306.441 151.336 306.948C150.863 307.452 150.201 307.704 149.349 307.704C148.595 307.704 147.98 307.495 147.504 307.077C147.027 306.659 146.756 306.081 146.689 305.343H147.715C147.781 305.831 147.955 306.2 148.236 306.45C148.517 306.697 148.888 306.82 149.349 306.82C149.853 306.82 150.248 306.648 150.533 306.304C150.822 305.96 150.967 305.486 150.967 304.88C150.967 304.31 150.81 303.853 150.498 303.509C150.189 303.161 149.777 302.988 149.261 302.988C148.789 302.988 148.418 303.091 148.148 303.298L147.861 303.532L146.994 303.31ZM158.584 303.948C158.584 305.218 158.367 306.161 157.933 306.779C157.5 307.396 156.822 307.704 155.9 307.704C154.99 307.704 154.316 307.404 153.879 306.802C153.441 306.197 153.215 305.294 153.199 304.095V302.648C153.199 301.394 153.416 300.462 153.849 299.853C154.283 299.243 154.963 298.939 155.888 298.939C156.806 298.939 157.482 299.234 157.916 299.823C158.349 300.409 158.572 301.316 158.584 302.542V303.948ZM157.5 302.466C157.5 301.548 157.371 300.88 157.113 300.462C156.855 300.04 156.447 299.829 155.888 299.829C155.334 299.829 154.929 300.038 154.676 300.456C154.422 300.874 154.291 301.517 154.283 302.384V304.118C154.283 305.04 154.416 305.722 154.681 306.163C154.951 306.601 155.357 306.82 155.9 306.82C156.435 306.82 156.832 306.613 157.09 306.198C157.351 305.784 157.488 305.132 157.5 304.241V302.466ZM165.322 303.948C165.322 305.218 165.105 306.161 164.672 306.779C164.238 307.396 163.56 307.704 162.638 307.704C161.728 307.704 161.054 307.404 160.617 306.802C160.179 306.197 159.953 305.294 159.937 304.095V302.648C159.937 301.394 160.154 300.462 160.588 299.853C161.021 299.243 161.701 298.939 162.627 298.939C163.545 298.939 164.22 299.234 164.654 299.823C165.088 300.409 165.31 301.316 165.322 302.542V303.948ZM164.238 302.466C164.238 301.548 164.109 300.88 163.851 300.462C163.593 300.04 163.185 299.829 162.627 299.829C162.072 299.829 161.668 300.038 161.414 300.456C161.16 300.874 161.029 301.517 161.021 302.384V304.118C161.021 305.04 161.154 305.722 161.42 306.163C161.689 306.601 162.095 306.82 162.638 306.82C163.174 306.82 163.57 306.613 163.828 306.198C164.09 305.784 164.226 305.132 164.238 304.241V302.466Z" fill="#333333"/>
<path opacity="0.76" d="M304.91 307.587H303.82V300.363L301.634 301.165V300.181L304.74 299.015H304.91V307.587ZM313.435 303.948C313.435 305.218 313.218 306.161 312.785 306.779C312.351 307.396 311.673 307.704 310.751 307.704C309.841 307.704 309.167 307.404 308.73 306.802C308.292 306.197 308.066 305.294 308.05 304.095V302.648C308.05 301.394 308.267 300.462 308.701 299.853C309.134 299.243 309.814 298.939 310.74 298.939C311.658 298.939 312.333 299.234 312.767 299.823C313.201 300.409 313.423 301.316 313.435 302.542V303.948ZM312.351 302.466C312.351 301.548 312.222 300.88 311.964 300.462C311.707 300.04 311.298 299.829 310.74 299.829C310.185 299.829 309.781 300.038 309.527 300.456C309.273 300.874 309.142 301.517 309.134 302.384V304.118C309.134 305.04 309.267 305.722 309.533 306.163C309.802 306.601 310.208 306.82 310.751 306.82C311.287 306.82 311.683 306.613 311.941 306.198C312.203 305.784 312.339 305.132 312.351 304.241V302.466ZM317.273 303.62L316.23 304.704V307.587H315.105V299.056H316.23V303.275L320.021 299.056H321.38L318.023 302.823L321.644 307.587H320.296L317.273 303.62Z" fill="#333333"/>
<path opacity="0.76" d="M460.636 307.587H455.046V306.808L457.999 303.527C458.437 303.031 458.738 302.628 458.902 302.32C459.07 302.007 459.154 301.685 459.154 301.353C459.154 300.907 459.019 300.542 458.749 300.257C458.48 299.972 458.121 299.829 457.671 299.829C457.132 299.829 456.712 299.984 456.412 300.292C456.115 300.597 455.966 301.023 455.966 301.57H454.882C454.882 300.784 455.134 300.15 455.638 299.665C456.146 299.181 456.824 298.939 457.671 298.939C458.464 298.939 459.091 299.148 459.552 299.566C460.013 299.98 460.244 300.532 460.244 301.224C460.244 302.064 459.708 303.064 458.638 304.224L456.353 306.702H460.636V307.587ZM467.134 303.948C467.134 305.218 466.917 306.161 466.484 306.779C466.05 307.396 465.373 307.704 464.451 307.704C463.54 307.704 462.867 307.404 462.429 306.802C461.992 306.197 461.765 305.294 461.749 304.095V302.648C461.749 301.394 461.966 300.462 462.4 299.853C462.833 299.243 463.513 298.939 464.439 298.939C465.357 298.939 466.033 299.234 466.466 299.823C466.9 300.409 467.123 301.316 467.134 302.542V303.948ZM466.05 302.466C466.05 301.548 465.921 300.88 465.664 300.462C465.406 300.04 464.998 299.829 464.439 299.829C463.884 299.829 463.48 300.038 463.226 300.456C462.972 300.874 462.841 301.517 462.833 302.384V304.118C462.833 305.04 462.966 305.722 463.232 306.163C463.501 306.601 463.908 306.82 464.451 306.82C464.986 306.82 465.382 306.613 465.64 306.198C465.902 305.784 466.039 305.132 466.05 304.241V302.466ZM470.972 303.62L469.929 304.704V307.587H468.804V299.056H469.929V303.275L473.72 299.056H475.08L471.722 302.823L475.343 307.587H473.996L470.972 303.62Z" fill="#333333"/>
<path opacity="0.76" d="M611.094 302.794H611.909C612.42 302.786 612.823 302.652 613.116 302.39C613.409 302.128 613.555 301.775 613.555 301.329C613.555 300.329 613.057 299.829 612.061 299.829C611.592 299.829 611.217 299.964 610.936 300.234C610.659 300.499 610.52 300.853 610.52 301.294H609.436C609.436 300.618 609.682 300.058 610.174 299.613C610.67 299.163 611.299 298.939 612.061 298.939C612.866 298.939 613.496 299.152 613.953 299.577C614.41 300.003 614.639 300.595 614.639 301.353C614.639 301.724 614.518 302.083 614.276 302.431C614.037 302.779 613.711 303.038 613.297 303.21C613.766 303.359 614.127 303.605 614.381 303.948C614.639 304.292 614.768 304.712 614.768 305.208C614.768 305.974 614.518 306.581 614.018 307.031C613.518 307.48 612.868 307.704 612.067 307.704C611.266 307.704 610.614 307.488 610.11 307.054C609.61 306.62 609.36 306.048 609.36 305.337H610.45C610.45 305.786 610.596 306.146 610.889 306.415C611.182 306.685 611.575 306.82 612.067 306.82C612.59 306.82 612.991 306.683 613.268 306.409C613.545 306.136 613.684 305.743 613.684 305.232C613.684 304.736 613.532 304.355 613.227 304.089C612.922 303.823 612.483 303.687 611.909 303.679H611.094V302.794ZM621.606 303.948C621.606 305.218 621.389 306.161 620.955 306.779C620.522 307.396 619.844 307.704 618.922 307.704C618.012 307.704 617.338 307.404 616.901 306.802C616.463 306.197 616.237 305.294 616.221 304.095V302.648C616.221 301.394 616.438 300.462 616.871 299.853C617.305 299.243 617.985 298.939 618.91 298.939C619.828 298.939 620.504 299.234 620.938 299.823C621.371 300.409 621.594 301.316 621.606 302.542V303.948ZM620.522 302.466C620.522 301.548 620.393 300.88 620.135 300.462C619.877 300.04 619.469 299.829 618.91 299.829C618.356 299.829 617.952 300.038 617.698 300.456C617.444 300.874 617.313 301.517 617.305 302.384V304.118C617.305 305.04 617.438 305.722 617.703 306.163C617.973 306.601 618.379 306.82 618.922 306.82C619.457 306.82 619.854 306.613 620.112 306.198C620.373 305.784 620.51 305.132 620.522 304.241V302.466ZM625.444 303.62L624.401 304.704V307.587H623.276V299.056H624.401V303.275L628.192 299.056H629.551L626.194 302.823L629.815 307.587H628.467L625.444 303.62Z" fill="#333333"/>
<path opacity="0.76" d="M769.338 304.722H770.522V305.607H769.338V307.587H768.248V305.607H764.363V304.968L768.184 299.056H769.338V304.722ZM765.594 304.722H768.248V300.538L768.119 300.773L765.594 304.722ZM776.85 303.948C776.85 305.218 776.633 306.161 776.199 306.779C775.766 307.396 775.088 307.704 774.166 307.704C773.256 307.704 772.582 307.404 772.145 306.802C771.707 306.197 771.481 305.294 771.465 304.095V302.648C771.465 301.394 771.682 300.462 772.115 299.853C772.549 299.243 773.229 298.939 774.154 298.939C775.072 298.939 775.748 299.234 776.182 299.823C776.615 300.409 776.838 301.316 776.85 302.542V303.948ZM775.766 302.466C775.766 301.548 775.637 300.88 775.379 300.462C775.121 300.04 774.713 299.829 774.154 299.829C773.6 299.829 773.195 300.038 772.942 300.456C772.688 300.874 772.557 301.517 772.549 302.384V304.118C772.549 305.04 772.682 305.722 772.947 306.163C773.217 306.601 773.623 306.82 774.166 306.82C774.701 306.82 775.098 306.613 775.356 306.198C775.617 305.784 775.754 305.132 775.766 304.241V302.466ZM780.688 303.62L779.645 304.704V307.587H778.52V299.056H779.645V303.275L783.436 299.056H784.795L781.438 302.823L785.059 307.587H783.711L780.688 303.62Z" fill="#333333"/>
<path opacity="0.76" d="M918.959 303.31L919.393 299.056H923.764V300.058H920.313L920.055 302.384C920.473 302.138 920.947 302.015 921.479 302.015C922.256 302.015 922.873 302.273 923.33 302.788C923.787 303.3 924.016 303.993 924.016 304.868C924.016 305.747 923.777 306.441 923.301 306.948C922.828 307.452 922.166 307.704 921.315 307.704C920.561 307.704 919.945 307.495 919.469 307.077C918.992 306.659 918.721 306.081 918.654 305.343H919.68C919.746 305.831 919.92 306.2 920.201 306.45C920.483 306.697 920.854 306.82 921.315 306.82C921.818 306.82 922.213 306.648 922.498 306.304C922.787 305.96 922.932 305.486 922.932 304.88C922.932 304.31 922.775 303.853 922.463 303.509C922.154 303.161 921.742 302.988 921.227 302.988C920.754 302.988 920.383 303.091 920.113 303.298L919.826 303.532L918.959 303.31ZM930.549 303.948C930.549 305.218 930.332 306.161 929.899 306.779C929.465 307.396 928.787 307.704 927.865 307.704C926.955 307.704 926.281 307.404 925.844 306.802C925.406 306.197 925.18 305.294 925.164 304.095V302.648C925.164 301.394 925.381 300.462 925.815 299.853C926.248 299.243 926.928 298.939 927.854 298.939C928.772 298.939 929.447 299.234 929.881 299.823C930.315 300.409 930.537 301.316 930.549 302.542V303.948ZM929.465 302.466C929.465 301.548 929.336 300.88 929.078 300.462C928.82 300.04 928.412 299.829 927.854 299.829C927.299 299.829 926.895 300.038 926.641 300.456C926.387 300.874 926.256 301.517 926.248 302.384V304.118C926.248 305.04 926.381 305.722 926.647 306.163C926.916 306.601 927.322 306.82 927.865 306.82C928.4 306.82 928.797 306.613 929.055 306.198C929.316 305.784 929.453 305.132 929.465 304.241V302.466ZM934.387 303.62L933.344 304.704V307.587H932.219V299.056H933.344V303.275L937.135 299.056H938.494L935.137 302.823L938.758 307.587H937.41L934.387 303.62Z" fill="#333333"/>
<path opacity="0.76" d="M1067.39 299.05V299.97H1067.19C1066.35 299.986 1065.68 300.236 1065.18 300.72C1064.68 301.204 1064.39 301.886 1064.31 302.765C1064.76 302.249 1065.37 301.991 1066.15 301.991C1066.89 301.991 1067.49 302.253 1067.93 302.777C1068.37 303.3 1068.59 303.976 1068.59 304.804C1068.59 305.683 1068.35 306.386 1067.87 306.913C1067.4 307.441 1066.76 307.704 1065.95 307.704C1065.14 307.704 1064.47 307.392 1063.97 306.767C1063.46 306.138 1063.2 305.329 1063.2 304.341V303.925C1063.2 302.355 1063.54 301.156 1064.21 300.327C1064.88 299.495 1065.88 299.07 1067.2 299.05H1067.39ZM1065.97 302.894C1065.6 302.894 1065.26 303.005 1064.94 303.228C1064.63 303.45 1064.42 303.73 1064.29 304.066V304.464C1064.29 305.167 1064.45 305.734 1064.77 306.163C1065.09 306.593 1065.48 306.808 1065.95 306.808C1066.44 306.808 1066.82 306.628 1067.1 306.269C1067.38 305.909 1067.52 305.439 1067.52 304.857C1067.52 304.271 1067.38 303.798 1067.09 303.439C1066.81 303.075 1066.44 302.894 1065.97 302.894ZM1075.23 303.948C1075.23 305.218 1075.01 306.161 1074.58 306.779C1074.14 307.396 1073.47 307.704 1072.54 307.704C1071.63 307.704 1070.96 307.404 1070.52 306.802C1070.09 306.197 1069.86 305.294 1069.84 304.095V302.648C1069.84 301.394 1070.06 300.462 1070.49 299.853C1070.93 299.243 1071.61 298.939 1072.53 298.939C1073.45 298.939 1074.13 299.234 1074.56 299.823C1074.99 300.409 1075.22 301.316 1075.23 302.542V303.948ZM1074.14 302.466C1074.14 301.548 1074.01 300.88 1073.76 300.462C1073.5 300.04 1073.09 299.829 1072.53 299.829C1071.98 299.829 1071.57 300.038 1071.32 300.456C1071.07 300.874 1070.93 301.517 1070.93 302.384V304.118C1070.93 305.04 1071.06 305.722 1071.33 306.163C1071.59 306.601 1072 306.82 1072.54 306.82C1073.08 306.82 1073.48 306.613 1073.73 306.198C1074 305.784 1074.13 305.132 1074.14 304.241V302.466ZM1079.07 303.62L1078.02 304.704V307.587H1076.9V299.056H1078.02V303.275L1081.81 299.056H1083.17L1079.82 302.823L1083.44 307.587H1082.09L1079.07 303.62Z" fill="#333333"/>
<rect x="1.97559" y="0.660522" width="1081.3" height="1.54129" fill="#E3E3E3"/>
<rect x="1.97559" y="94" width="1081.3" height="1.54129" fill="#E3E3E3"/>
<rect x="1.97559" y="187" width="1081.3" height="1.54129" fill="#E3E3E3"/>
<rect x="1.97559" y="280" width="1081.3" height="1.54126" fill="#E3E3E3"/>
<rect y="0.660522" width="1.54471" height="289.761" fill="#E3E3E3"/>
<rect x="927.26" y="2.20184" width="1.54474" height="288.22" fill="#E3E3E3"/>
<rect x="1081" y="2.20184" width="1.54468" height="288.22" fill="#E3E3E3"/>
<rect x="153.358" y="2.20184" width="1.54471" height="288.22" fill="#E3E3E3"/>
<rect x="307.829" y="2.20184" width="1.54474" height="288.22" fill="#E3E3E3"/>
<rect x="463.846" y="2.20184" width="1.54474" height="288.22" fill="#E3E3E3"/>
<rect x="618.317" y="2.20184" width="1.54468" height="288.22" fill="#E3E3E3"/>
<rect x="771.244" y="2.20184" width="1.54468" height="288.22" fill="#E3E3E3"/>
<path opacity="0.76" d="M6.05859 303.948C6.05859 305.218 5.8418 306.161 5.4082 306.779C4.97461 307.396 4.29688 307.704 3.375 307.704C2.46484 307.704 1.79102 307.404 1.35352 306.802C0.916016 306.197 0.689453 305.294 0.673828 304.095V302.648C0.673828 301.394 0.890625 300.462 1.32422 299.853C1.75781 299.243 2.4375 298.939 3.36328 298.939C4.28125 298.939 4.95703 299.234 5.39062 299.823C5.82422 300.409 6.04688 301.316 6.05859 302.542V303.948ZM4.97461 302.466C4.97461 301.548 4.8457 300.88 4.58789 300.462C4.33008 300.04 3.92188 299.829 3.36328 299.829C2.80859 299.829 2.4043 300.038 2.15039 300.456C1.89648 300.874 1.76562 301.517 1.75781 302.384V304.118C1.75781 305.04 1.89062 305.722 2.15625 306.163C2.42578 306.601 2.83203 306.82 3.375 306.82C3.91016 306.82 4.30664 306.613 4.56445 306.198C4.82617 305.784 4.96289 305.132 4.97461 304.241V302.466Z" fill="#333333"/>
<rect x="7" y="8" width="1069" height="80" rx="2" fill="#345498"/>
<rect x="7" y="101" width="188" height="80" rx="2" fill="#039BF4"/>
<g clip-path="url(#clip0)">
<rect opacity="0.95" x="7" y="193" width="194" height="80" rx="2" fill="#41D4C7"/>
<mask id="mask0" mask-type="alpha" maskUnits="userSpaceOnUse" x="7" y="193" width="194" height="80">
<rect opacity="0.1" x="7" y="193" width="194" height="80" rx="2" fill="#41D4C7"/>
</mask>
<g mask="url(#mask0)">
<rect width="11.7758" height="95.5214" transform="matrix(0.626062 -0.779773 0.366286 0.930502 -28 194.117)" fill="#23857D"/>
<rect width="11.7758" height="95.5214" transform="matrix(0.626062 -0.779773 0.366286 0.930502 -9 194.117)" fill="#23857D"/>
<rect width="11.7758" height="95.5214" transform="matrix(0.626062 -0.779773 0.366286 0.930502 10 194.117)" fill="#23857D"/>
<rect width="11.7758" height="95.5214" transform="matrix(0.626062 -0.779773 0.366286 0.930502 29 194.117)" fill="#23857D"/>
</g>
</g>
<g clip-path="url(#clip1)">
<rect opacity="0.95" x="323" y="335" width="179.077" height="24" rx="2" fill="#41D4C7"/>
<mask id="mask1" mask-type="alpha" maskUnits="userSpaceOnUse" x="323" y="335" width="180" height="24">
<rect opacity="0.1" x="323" y="335" width="179.077" height="24" rx="2" fill="#41D4C7"/>
</mask>
<g mask="url(#mask1)">
<rect width="7.47696" height="44.0674" transform="matrix(0.910164 -0.414248 0.732894 0.680343 290.692 333.258)" fill="#23857D"/>
<rect width="7.47696" height="44.0674" transform="matrix(0.910164 -0.414248 0.732894 0.680343 308.231 333.258)" fill="#23857D"/>
<rect width="7.47696" height="44.0674" transform="matrix(0.910164 -0.414248 0.732894 0.680343 325.769 333.258)" fill="#23857D"/>
<rect width="7.47696" height="44.0674" transform="matrix(0.910164 -0.414248 0.732894 0.680343 343.308 333.258)" fill="#23857D"/>
</g>
</g>
<path opacity="0.76" d="M357.684 345.041H359.133C359.133 343.988 359.987 343.216 361.115 343.216C362.161 343.216 362.845 343.927 362.845 344.836C362.845 345.608 362.544 346.114 361.245 347.44L357.766 350.947V352H364.513V350.708H359.816V350.674L362.059 348.425C363.822 346.661 364.355 345.875 364.355 344.74C364.355 343.188 363.05 341.951 361.115 341.951C359.133 341.951 357.684 343.25 357.684 345.041ZM368.013 347.509H369.209C370.528 347.509 371.342 348.138 371.335 349.266C371.328 350.223 370.521 350.906 369.318 350.906C368.081 350.906 367.24 350.284 367.165 349.32H365.695C365.791 351.016 367.206 352.185 369.318 352.185C371.376 352.185 372.894 351.002 372.894 349.266C372.894 347.885 371.923 347.003 370.474 346.873V346.839C371.684 346.586 372.552 345.759 372.552 344.521C372.552 343.052 371.314 341.951 369.305 341.951C367.377 341.951 366.03 343.052 365.907 344.774H367.343C367.418 343.79 368.211 343.209 369.305 343.209C370.467 343.209 371.062 343.811 371.062 344.733C371.062 345.656 370.296 346.319 369.168 346.319H368.013V347.509ZM381.5 352.164C383.77 352.164 385.314 350.968 385.69 348.931H384.166C383.858 350.12 382.881 350.824 381.507 350.824C379.695 350.824 378.547 349.368 378.547 347.064C378.547 344.781 379.709 343.312 381.5 343.312C382.84 343.312 383.893 344.139 384.166 345.403H385.684C385.424 343.346 383.735 341.972 381.5 341.972C378.745 341.972 376.981 343.94 376.981 347.064C376.981 350.209 378.731 352.164 381.5 352.164ZM393.06 344.809H391.583V348.999C391.583 350.12 390.94 350.858 389.874 350.858C388.855 350.858 388.336 350.271 388.336 349.177V344.809H386.859V349.464C386.859 351.111 387.816 352.13 389.382 352.13C390.482 352.13 391.214 351.645 391.61 350.783H391.645V352H393.06V344.809ZM394.522 352H395.999V347.693C395.999 346.675 396.587 346.039 397.537 346.039C397.824 346.039 398.084 346.073 398.2 346.121V344.747C398.091 344.727 397.906 344.692 397.694 344.692C396.847 344.692 396.204 345.191 395.965 346.032H395.931V344.809H394.522V352ZM399.116 352H400.593V347.693C400.593 346.675 401.181 346.039 402.131 346.039C402.418 346.039 402.678 346.073 402.794 346.121V344.747C402.685 344.727 402.5 344.692 402.288 344.692C401.44 344.692 400.798 345.191 400.559 346.032H400.524V344.809H399.116V352ZM406.403 345.868C407.436 345.868 408.133 346.641 408.167 347.741H404.571C404.646 346.654 405.371 345.868 406.403 345.868ZM408.16 349.888C407.962 350.517 407.34 350.94 406.499 350.94C405.316 350.94 404.564 350.113 404.564 348.862V348.773H409.644V348.268C409.644 346.087 408.399 344.679 406.403 344.679C404.373 344.679 403.074 346.183 403.074 348.438C403.074 350.708 404.353 352.137 406.465 352.137C408.112 352.137 409.356 351.2 409.562 349.888H408.16ZM410.792 352H412.269V347.81C412.269 346.695 412.938 345.957 413.978 345.957C415.003 345.957 415.509 346.552 415.509 347.632V352H416.992V347.345C416.992 345.697 416.083 344.686 414.497 344.686C413.39 344.686 412.624 345.191 412.234 346.012H412.2V344.809H410.792V352ZM418.852 343.106V344.809H417.806V345.978H418.852V350.106C418.852 351.494 419.419 352.048 420.875 352.048C421.203 352.048 421.531 352.021 421.695 351.979V350.811C421.6 350.831 421.36 350.845 421.21 350.845C420.608 350.845 420.335 350.564 420.335 349.942V345.978H421.702V344.809H420.335V343.106H418.852ZM422.974 352H424.45V342.136H422.974V352ZM426.686 354.68C428.176 354.68 428.887 354.119 429.502 352.376L432.195 344.809H430.637L428.818 350.66H428.791L426.973 344.809H425.373L427.971 352.007C427.971 352.014 427.841 352.438 427.841 352.451C427.615 353.189 427.246 353.477 426.562 353.477C426.439 353.477 426.193 353.477 426.084 353.449V354.646C426.193 354.666 426.562 354.68 426.686 354.68ZM439.653 344.692C438.614 344.692 437.787 345.219 437.363 346.046H437.336V344.809H435.907V354.379H437.384V350.817H437.418C437.828 351.617 438.648 352.123 439.681 352.123C441.485 352.123 442.682 350.681 442.682 348.404C442.682 346.128 441.479 344.692 439.653 344.692ZM439.264 350.872C438.129 350.872 437.377 349.901 437.377 348.404C437.377 346.921 438.136 345.937 439.264 345.937C440.433 345.937 441.164 346.9 441.164 348.404C441.164 349.915 440.433 350.872 439.264 350.872ZM446.339 350.954C445.546 350.954 445.026 350.544 445.026 349.915C445.026 349.3 445.525 348.91 446.407 348.849L448.178 348.739V349.307C448.178 350.243 447.371 350.954 446.339 350.954ZM445.929 352.123C446.872 352.123 447.781 351.617 448.198 350.817H448.232V352H449.647V347.044C449.647 345.602 448.533 344.679 446.79 344.679C445.013 344.679 443.905 345.636 443.823 346.935H445.218C445.348 346.292 445.881 345.882 446.735 345.882C447.638 345.882 448.178 346.36 448.178 347.16V347.714L446.209 347.83C444.5 347.926 443.536 348.698 443.536 349.956C443.536 351.248 444.521 352.123 445.929 352.123ZM451.083 352H452.56V347.693C452.56 346.675 453.147 346.039 454.098 346.039C454.385 346.039 454.645 346.073 454.761 346.121V344.747C454.651 344.727 454.467 344.692 454.255 344.692C453.407 344.692 452.765 345.191 452.525 346.032H452.491V344.809H451.083V352ZM456.107 343.106V344.809H455.062V345.978H456.107V350.106C456.107 351.494 456.675 352.048 458.131 352.048C458.459 352.048 458.787 352.021 458.951 351.979V350.811C458.855 350.831 458.616 350.845 458.466 350.845C457.864 350.845 457.591 350.564 457.591 349.942V345.978H458.958V344.809H457.591V343.106H456.107ZM460.223 352H461.699V344.809H460.223V352ZM460.961 343.646C461.433 343.646 461.809 343.264 461.809 342.799C461.809 342.327 461.433 341.951 460.961 341.951C460.489 341.951 460.106 342.327 460.106 342.799C460.106 343.264 460.489 343.646 460.961 343.646ZM469.383 347.283C469.253 345.868 468.125 344.679 466.272 344.679C464.229 344.679 462.889 346.121 462.889 348.404C462.889 350.729 464.229 352.137 466.286 352.137C468.016 352.137 469.239 351.098 469.396 349.566H467.975C467.804 350.4 467.209 350.899 466.3 350.899C465.151 350.899 464.393 349.983 464.393 348.404C464.393 346.859 465.145 345.909 466.286 345.909C467.25 345.909 467.824 346.518 467.975 347.283H469.383ZM470.49 352H471.967V344.809H470.49V352ZM471.229 343.646C471.7 343.646 472.076 343.264 472.076 342.799C472.076 342.327 471.7 341.951 471.229 341.951C470.757 341.951 470.374 342.327 470.374 342.799C470.374 343.264 470.757 343.646 471.229 343.646ZM477.224 344.692C476.185 344.692 475.357 345.219 474.934 346.046H474.906V344.809H473.478V354.379H474.954V350.817H474.988C475.398 351.617 476.219 352.123 477.251 352.123C479.056 352.123 480.252 350.681 480.252 348.404C480.252 346.128 479.049 344.692 477.224 344.692ZM476.834 350.872C475.699 350.872 474.947 349.901 474.947 348.404C474.947 346.921 475.706 345.937 476.834 345.937C478.003 345.937 478.734 346.9 478.734 348.404C478.734 349.915 478.003 350.872 476.834 350.872ZM483.909 350.954C483.116 350.954 482.597 350.544 482.597 349.915C482.597 349.3 483.096 348.91 483.978 348.849L485.748 348.739V349.307C485.748 350.243 484.941 350.954 483.909 350.954ZM483.499 352.123C484.442 352.123 485.352 351.617 485.769 350.817H485.803V352H487.218V347.044C487.218 345.602 486.104 344.679 484.36 344.679C482.583 344.679 481.476 345.636 481.394 346.935H482.788C482.918 346.292 483.451 345.882 484.306 345.882C485.208 345.882 485.748 346.36 485.748 347.16V347.714L483.779 347.83C482.07 347.926 481.106 348.698 481.106 349.956C481.106 351.248 482.091 352.123 483.499 352.123ZM489.084 343.106V344.809H488.038V345.978H489.084V350.106C489.084 351.494 489.651 352.048 491.107 352.048C491.436 352.048 491.764 352.021 491.928 351.979V350.811C491.832 350.831 491.593 350.845 491.442 350.845C490.841 350.845 490.567 350.564 490.567 349.942V345.978H491.935V344.809H490.567V343.106H489.084ZM493.199 352H494.676V344.809H493.199V352ZM493.938 343.646C494.409 343.646 494.785 343.264 494.785 342.799C494.785 342.327 494.409 341.951 493.938 341.951C493.466 341.951 493.083 342.327 493.083 342.799C493.083 343.264 493.466 343.646 493.938 343.646ZM496.187 352H497.663V347.81C497.663 346.695 498.333 345.957 499.372 345.957C500.397 345.957 500.903 346.552 500.903 347.632V352H502.387V347.345C502.387 345.697 501.478 344.686 499.892 344.686C498.784 344.686 498.019 345.191 497.629 346.012H497.595V344.809H496.187V352ZM506.878 350.804C505.743 350.804 505.005 349.888 505.005 348.384C505.005 346.887 505.743 345.937 506.878 345.937C508.033 345.937 508.792 346.907 508.792 348.384C508.792 349.867 508.033 350.804 506.878 350.804ZM506.892 354.707C508.942 354.707 510.269 353.586 510.269 351.87V344.809H508.833V346.039H508.806C508.368 345.205 507.534 344.692 506.516 344.692C504.67 344.692 503.494 346.114 503.494 348.377C503.494 350.619 504.677 352.027 506.481 352.027C507.507 352.027 508.354 351.515 508.758 350.735H508.785V351.918C508.785 352.902 508.102 353.559 506.946 353.559C506.105 353.559 505.449 353.162 505.237 352.561H503.754C503.938 353.805 505.196 354.707 506.892 354.707Z" fill="#333333"/>
<rect x="166" y="335" width="24" height="24" rx="2" fill="#039BF4"/>
<path opacity="0.76" d="M204.293 352.185C206.426 352.185 207.916 350.783 207.916 348.767C207.916 346.88 206.556 345.513 204.669 345.513C203.698 345.513 202.878 345.889 202.434 346.552H202.399L202.7 343.428H207.342V342.136H201.463L200.978 347.823H202.317C202.734 347.099 203.438 346.723 204.32 346.723C205.551 346.723 206.419 347.591 206.419 348.808C206.419 350.038 205.558 350.906 204.307 350.906C203.206 350.906 202.372 350.236 202.263 349.259H200.8C200.889 350.981 202.324 352.185 204.293 352.185ZM212.77 352.185C215.142 352.185 216.536 350.195 216.536 347.051C216.536 343.927 215.128 341.951 212.77 341.951C210.411 341.951 208.989 343.934 208.989 347.058C208.989 350.202 210.391 352.185 212.77 352.185ZM212.77 350.899C211.341 350.899 210.541 349.443 210.541 347.058C210.541 344.706 211.361 343.236 212.77 343.236C214.178 343.236 214.991 344.699 214.991 347.058C214.991 349.45 214.191 350.899 212.77 350.899ZM221.506 352.185C223.878 352.185 225.272 350.195 225.272 347.051C225.272 343.927 223.864 341.951 221.506 341.951C219.147 341.951 217.726 343.934 217.726 347.058C217.726 350.202 219.127 352.185 221.506 352.185ZM221.506 350.899C220.077 350.899 219.277 349.443 219.277 347.058C219.277 344.706 220.098 343.236 221.506 343.236C222.914 343.236 223.728 344.699 223.728 347.058C223.728 349.45 222.928 350.899 221.506 350.899ZM234.084 352L237.604 342.136H235.971L233.277 350.277H233.236L230.55 342.136H228.889L232.409 352H234.084ZM238.391 352H239.867V344.809H238.391V352ZM239.129 343.646C239.601 343.646 239.977 343.264 239.977 342.799C239.977 342.327 239.601 341.951 239.129 341.951C238.657 341.951 238.274 342.327 238.274 342.799C238.274 343.264 238.657 343.646 239.129 343.646ZM244.386 345.868C245.418 345.868 246.115 346.641 246.149 347.741H242.554C242.629 346.654 243.354 345.868 244.386 345.868ZM246.143 349.888C245.944 350.517 245.322 350.94 244.481 350.94C243.299 350.94 242.547 350.113 242.547 348.862V348.773H247.626V348.268C247.626 346.087 246.382 344.679 244.386 344.679C242.355 344.679 241.057 346.183 241.057 348.438C241.057 350.708 242.335 352.137 244.447 352.137C246.095 352.137 247.339 351.2 247.544 349.888H246.143ZM258.263 344.809H256.8L255.487 350.469H255.453L253.949 344.809H252.527L251.03 350.469H251.003L249.69 344.809H248.214L250.189 352H251.714L253.211 346.613H253.245L254.756 352H256.294L258.263 344.809ZM262.132 345.868C263.164 345.868 263.861 346.641 263.896 347.741H260.3C260.375 346.654 261.1 345.868 262.132 345.868ZM263.889 349.888C263.69 350.517 263.068 350.94 262.228 350.94C261.045 350.94 260.293 350.113 260.293 348.862V348.773H265.372V348.268C265.372 346.087 264.128 344.679 262.132 344.679C260.102 344.679 258.803 346.183 258.803 348.438C258.803 350.708 260.081 352.137 262.193 352.137C263.841 352.137 265.085 351.2 265.29 349.888H263.889ZM269.221 352.123C270.267 352.123 271.087 351.597 271.511 350.776H271.538V352H272.974V342.136H271.49V346.005H271.463C271.06 345.212 270.239 344.692 269.207 344.692C267.402 344.692 266.199 346.135 266.199 348.404C266.199 350.674 267.402 352.123 269.221 352.123ZM269.61 345.937C270.745 345.937 271.504 346.914 271.504 348.404C271.504 349.908 270.745 350.872 269.61 350.872C268.441 350.872 267.71 349.922 267.71 348.404C267.71 346.894 268.441 345.937 269.61 345.937ZM280.425 352.137C282.482 352.137 283.836 350.722 283.836 348.404C283.836 346.094 282.476 344.679 280.425 344.679C278.374 344.679 277.014 346.094 277.014 348.404C277.014 350.722 278.367 352.137 280.425 352.137ZM280.425 350.92C279.27 350.92 278.518 350.004 278.518 348.404C278.518 346.812 279.27 345.896 280.425 345.896C281.58 345.896 282.332 346.812 282.332 348.404C282.332 350.004 281.587 350.92 280.425 350.92ZM285.408 352H286.892V345.978H288.327V344.822H286.871V344.146C286.871 343.51 287.172 343.188 287.814 343.188C288.013 343.188 288.211 343.202 288.354 343.229V342.136C288.163 342.102 287.828 342.067 287.527 342.067C286.064 342.067 285.408 342.724 285.408 344.118V344.822H284.417V345.978H285.408V352ZM289.92 352H291.403V345.978H292.839V344.822H291.383V344.146C291.383 343.51 291.684 343.188 292.326 343.188C292.524 343.188 292.723 343.202 292.866 343.229V342.136C292.675 342.102 292.34 342.067 292.039 342.067C290.576 342.067 289.92 342.724 289.92 344.118V344.822H288.929V345.978H289.92V352ZM296.708 345.868C297.74 345.868 298.438 346.641 298.472 347.741H294.876C294.951 346.654 295.676 345.868 296.708 345.868ZM298.465 349.888C298.267 350.517 297.645 350.94 296.804 350.94C295.621 350.94 294.869 350.113 294.869 348.862V348.773H299.948V348.268C299.948 346.087 298.704 344.679 296.708 344.679C294.678 344.679 293.379 346.183 293.379 348.438C293.379 350.708 294.657 352.137 296.77 352.137C298.417 352.137 299.661 351.2 299.866 349.888H298.465ZM301.097 352H302.573V347.693C302.573 346.675 303.161 346.039 304.111 346.039C304.398 346.039 304.658 346.073 304.774 346.121V344.747C304.665 344.727 304.48 344.692 304.269 344.692C303.421 344.692 302.778 345.191 302.539 346.032H302.505V344.809H301.097V352Z" fill="#333333"/>
<rect y="335" width="24" height="24" rx="2" fill="#345498"/>
<path opacity="0.76" d="M38.4775 352.191C40.5625 352.191 42.0801 350.756 42.0801 348.773C42.0801 346.907 40.7197 345.526 38.833 345.526C37.4932 345.526 36.4951 346.224 36.0986 347.119H36.0713C36.0918 344.665 36.9531 343.229 38.5186 343.229C39.4619 343.229 40.1455 343.708 40.4121 344.528H41.9502C41.6562 342.977 40.2959 341.944 38.5322 341.944C36.0645 341.944 34.6016 343.899 34.6016 347.201C34.6016 350.776 36.4678 352.191 38.4775 352.191ZM38.457 350.899C37.2881 350.899 36.3721 349.97 36.3721 348.794C36.3721 347.625 37.2676 346.771 38.4775 346.771C39.6875 346.771 40.5557 347.632 40.5557 348.828C40.5557 349.983 39.626 350.899 38.457 350.899ZM46.9883 352.185C49.3604 352.185 50.7549 350.195 50.7549 347.051C50.7549 343.927 49.3467 341.951 46.9883 341.951C44.6299 341.951 43.208 343.934 43.208 347.058C43.208 350.202 44.6094 352.185 46.9883 352.185ZM46.9883 350.899C45.5596 350.899 44.7598 349.443 44.7598 347.058C44.7598 344.706 45.5801 343.236 46.9883 343.236C48.3965 343.236 49.21 344.699 49.21 347.058C49.21 349.45 48.4102 350.899 46.9883 350.899ZM53.79 352V348.712L54.8018 347.557L58.2197 352H60.1201L55.8818 346.504L59.792 342.136H57.9736L53.8516 346.832H53.79V342.136H52.2588V352H53.79ZM70.21 350.674H65.4795V347.611H69.957V346.34H65.4795V343.455H70.21V342.136H63.9482V352H70.21V350.674ZM71.6592 352H73.1357V342.136H71.6592V352ZM74.7012 352H76.1777V344.809H74.7012V352ZM75.4395 343.646C75.9111 343.646 76.2871 343.264 76.2871 342.799C76.2871 342.327 75.9111 341.951 75.4395 341.951C74.9678 341.951 74.585 342.327 74.585 342.799C74.585 343.264 74.9678 343.646 75.4395 343.646ZM80.751 350.804C79.6162 350.804 78.8779 349.888 78.8779 348.384C78.8779 346.887 79.6162 345.937 80.751 345.937C81.9062 345.937 82.665 346.907 82.665 348.384C82.665 349.867 81.9062 350.804 80.751 350.804ZM80.7646 354.707C82.8154 354.707 84.1416 353.586 84.1416 351.87V344.809H82.7061V346.039H82.6787C82.2412 345.205 81.4072 344.692 80.3887 344.692C78.543 344.692 77.3672 346.114 77.3672 348.377C77.3672 350.619 78.5498 352.027 80.3545 352.027C81.3799 352.027 82.2275 351.515 82.6309 350.735H82.6582V351.918C82.6582 352.902 81.9746 353.559 80.8193 353.559C79.9785 353.559 79.3223 353.162 79.1104 352.561H77.627C77.8115 353.805 79.0693 354.707 80.7646 354.707ZM85.6523 352H87.1289V344.809H85.6523V352ZM86.3906 343.646C86.8623 343.646 87.2383 343.264 87.2383 342.799C87.2383 342.327 86.8623 341.951 86.3906 341.951C85.9189 341.951 85.5361 342.327 85.5361 342.799C85.5361 343.264 85.9189 343.646 86.3906 343.646ZM92.4678 352.123C94.293 352.123 95.4688 350.688 95.4688 348.404C95.4688 346.128 94.2861 344.692 92.4746 344.692C91.4561 344.692 90.6357 345.198 90.2051 346.032H90.1709V342.136H88.6943V352H90.1299V350.776H90.1572C90.6016 351.61 91.415 352.123 92.4678 352.123ZM92.0713 345.937C93.2334 345.937 93.9512 346.894 93.9512 348.404C93.9512 349.929 93.2334 350.872 92.0713 350.872C90.9502 350.872 90.1641 349.901 90.1641 348.404C90.1641 346.921 90.9502 345.937 92.0713 345.937ZM96.6787 352H98.1553V342.136H96.6787V352ZM102.681 345.868C103.713 345.868 104.41 346.641 104.444 347.741H100.849C100.924 346.654 101.648 345.868 102.681 345.868ZM104.438 349.888C104.239 350.517 103.617 350.94 102.776 350.94C101.594 350.94 100.842 350.113 100.842 348.862V348.773H105.921V348.268C105.921 346.087 104.677 344.679 102.681 344.679C100.65 344.679 99.3516 346.183 99.3516 348.438C99.3516 350.708 100.63 352.137 102.742 352.137C104.39 352.137 105.634 351.2 105.839 349.888H104.438ZM109.783 346.846C109.783 347.892 110.46 348.548 111.827 348.862L112.996 349.136C113.782 349.313 114.049 349.587 114.049 350.052C114.049 350.64 113.502 351.009 112.613 351.009C111.711 351.009 111.198 350.64 111.062 349.888H109.599C109.735 351.255 110.815 352.137 112.613 352.137C114.309 352.137 115.532 351.234 115.532 349.922C115.532 348.883 114.972 348.309 113.502 347.967L112.333 347.7C111.554 347.522 111.226 347.215 111.226 346.764C111.226 346.189 111.759 345.8 112.559 345.8C113.386 345.8 113.898 346.237 113.98 346.935H115.368C115.32 345.608 114.233 344.679 112.559 344.679C110.904 344.679 109.783 345.561 109.783 346.846ZM119.688 345.868C120.721 345.868 121.418 346.641 121.452 347.741H117.856C117.932 346.654 118.656 345.868 119.688 345.868ZM121.445 349.888C121.247 350.517 120.625 350.94 119.784 350.94C118.602 350.94 117.85 350.113 117.85 348.862V348.773H122.929V348.268C122.929 346.087 121.685 344.679 119.688 344.679C117.658 344.679 116.359 346.183 116.359 348.438C116.359 350.708 117.638 352.137 119.75 352.137C121.397 352.137 122.642 351.2 122.847 349.888H121.445ZM124.132 352H125.608V342.136H124.132V352ZM127.181 352H128.657V342.136H127.181V352ZM133.183 345.868C134.215 345.868 134.912 346.641 134.946 347.741H131.351C131.426 346.654 132.15 345.868 133.183 345.868ZM134.939 349.888C134.741 350.517 134.119 350.94 133.278 350.94C132.096 350.94 131.344 350.113 131.344 348.862V348.773H136.423V348.268C136.423 346.087 135.179 344.679 133.183 344.679C131.152 344.679 129.854 346.183 129.854 348.438C129.854 350.708 131.132 352.137 133.244 352.137C134.892 352.137 136.136 351.2 136.341 349.888H134.939ZM137.571 352H139.048V347.693C139.048 346.675 139.636 346.039 140.586 346.039C140.873 346.039 141.133 346.073 141.249 346.121V344.747C141.14 344.727 140.955 344.692 140.743 344.692C139.896 344.692 139.253 345.191 139.014 346.032H138.979V344.809H137.571V352ZM142.035 346.846C142.035 347.892 142.712 348.548 144.079 348.862L145.248 349.136C146.034 349.313 146.301 349.587 146.301 350.052C146.301 350.64 145.754 351.009 144.865 351.009C143.963 351.009 143.45 350.64 143.313 349.888H141.851C141.987 351.255 143.067 352.137 144.865 352.137C146.561 352.137 147.784 351.234 147.784 349.922C147.784 348.883 147.224 348.309 145.754 347.967L144.585 347.7C143.806 347.522 143.478 347.215 143.478 346.764C143.478 346.189 144.011 345.8 144.811 345.8C145.638 345.8 146.15 346.237 146.232 346.935H147.62C147.572 345.608 146.485 344.679 144.811 344.679C143.156 344.679 142.035 345.561 142.035 346.846Z" fill="#333333"/>
<defs>
<clipPath id="clip0">
<rect x="7" y="193" width="26" height="80" rx="2" fill="white"/>
</clipPath>
<clipPath id="clip1">
<rect x="323" y="335" width="24" height="24" rx="2" fill="white"/>
</clipPath>
</defs>
</svg>
